<svg width="36" height="36" viewBox="0 0 36 36" fill="none" xmlns="http://www.w3.org/2000/svg">
<path d="M18.0001 31.5289C14.4751 28.4116 11.8198 25.5044 10.0343 22.8071C8.24859 20.1101 7.35571 17.6559 7.35571 15.4444C7.35571 12.2711 8.38896 9.65375 10.4555 7.59225C12.5217 5.53075 15.0366 4.5 18.0001 4.5C20.9636 4.5 23.4785 5.53075 25.5447 7.59225C27.6112 9.65375 28.6445 12.2711 28.6445 15.4444C28.6445 17.6559 27.7516 20.1101 25.9658 22.8071C24.1803 25.5044 21.5251 28.4116 18.0001 31.5289Z" fill="#FBF7F7"/>
<path d="M24.6867 22.0282C23.0482 24.5657 20.8193 27.0615 18.0001 29.5155C15.1808 27.0615 12.952 24.5657 11.3135 22.0282C9.67496 19.4907 8.85571 17.2961 8.85571 15.4444C8.85571 12.7001 9.72446 10.4351 11.462 8.64938C13.1995 6.86388 15.3788 6 18.0001 6C20.6213 6 22.8007 6.86388 24.5382 8.64938C26.2757 10.4351 27.1445 12.7001 27.1445 15.4444C27.1445 17.2961 26.3252 19.4907 24.6867 22.0282Z" fill="#9D432F"/>
</svg>
