<?xml version="1.0" encoding="UTF-8"?>
<svg id="Catedral" xmlns="http://www.w3.org/2000/svg" viewBox="0 0 152.69 147.57">
  <defs>
    <style>
      .cls-1 {
        fill: none;
        stroke-width: 0px;
      }

      .cls-2 {
        fill: #01352c;
        stroke: #02352c;
        stroke-miterlimit: 10;
        stroke-width: .3px;
      }
    </style>
  </defs>
  <path class="cls-2" d="M63.98,81.82h2.5v1.49c0,.13.05.25.14.34.09.09.21.14.34.14s.25-.05.34-.14c.09-.09.14-.21.14-.34v-1.92l-.14-.33-.33-.14h-2.96c-.13,0-.25.05-.34.14-.09.09-.14.21-.14.34s.05.25.14.34c.09.09.21.14.34.14"/>
  <path class="cls-2" d="M68.4,67.97v-4.13c0-.13-.05-.25-.14-.34-.09-.09-.21-.14-.34-.14s-.25.05-.34.14c-.09.09-.14.21-.14.34v4.13c0,.13.05.25.14.34.09.09.21.14.34.14.13,0,.25-.05.34-.14.09-.09.14-.21.14-.34"/>
  <path class="cls-2" d="M54.64,53.49v-2.06c0-.13-.05-.25-.14-.34s-.21-.14-.34-.14-.25.05-.34.14c-.09.09-.14.21-.14.34v2.06c0,.13.05.25.14.34s.21.14.34.14c.13,0,.25-.05.34-.14.09-.09.14-.21.14-.34"/>
  <path class="cls-2" d="M85.25,67.97v-4.13c0-.13-.05-.25-.14-.34-.09-.09-.21-.14-.34-.14s-.25.05-.34.14c-.09.09-.14.21-.14.34v4.13c0,.13.05.25.14.34.09.09.21.14.34.14.13,0,.25-.05.34-.14.09-.09.14-.21.14-.34"/>
  <path class="cls-2" d="M98.06,51.43v2.06c0,.13.04.24.13.33s.2.14.33.14c.13,0,.24-.05.33-.14.09-.09.14-.2.14-.33v-2.06c0-.13-.05-.24-.14-.33-.09-.09-.2-.13-.33-.13-.13,0-.24.04-.33.13-.09.09-.13.2-.13.33"/>
  <g>
    <path class="cls-2" d="M51.02,81.35v-7.9l3.15-17.35,3.16,17.35v7.9c0,.13.04.24.13.33.09.09.2.14.33.14s.24-.05.33-.14c.09-.09.14-.2.14-.33v-8.02l-3.62-19.92c-.05-.25-.2-.38-.46-.38-.26,0-.42.12-.46.38l-3.62,19.92v8.02c0,.13.05.25.14.34s.21.14.34.14.25-.05.34-.14.14-.21.14-.34h-.04Z"/>
    <path class="cls-2" d="M48.67,83.3v-1.49h12.06c.13,0,.25-.05.34-.14.09-.09.14-.21.14-.34s-.05-.25-.14-.34-.21-.14-.34-.14h-12.52l-.34.13-.13.34v1.92c0,.13.05.25.14.34.09.09.21.14.34.14s.25-.05.34-.14c.09-.09.14-.21.14-.34"/>
    <path class="cls-2" d="M80,112.42v-8.23c0-.13-.05-.25-.14-.34-.09-.09-.21-.14-.34-.14s-.25.05-.34.14c-.09.09-.14.21-.14.34v8.23c0,.13.05.25.14.34.09.09.21.14.34.14s.25-.05.34-.14.14-.21.14-.34"/>
    <path class="cls-2" d="M73.63,112.42v-8.23c0-.13-.05-.25-.14-.34-.09-.09-.21-.14-.34-.14s-.25.05-.34.14-.14.21-.14.34v8.23c0,.13.05.25.14.34.09.09.21.14.34.14s.25-.05.34-.14c.09-.09.14-.21.14-.34"/>
    <path class="cls-2" d="M80,104.37c-.03-.67-.19-1.31-.46-1.92-.6-1.4-1.6-2.4-3-3h-.38c-.98.43-1.78,1.09-2.4,1.96-.62.88-.97,1.85-1.06,2.92,0,.13.05.25.14.34.09.09.21.14.34.14.13,0,.25-.05.34-.14.09-.09.14-.21.14-.34v-.1c.07-.62.25-1.21.55-1.76.53-1.01,1.31-1.74,2.36-2.2l-.19-.42-.19.42c1.18.51,2.02,1.35,2.52,2.53.16.35.27.72.34,1.1l.05.33v.1c0,.13.05.24.15.33.09.09.2.13.33.13.27-.01.42-.15.44-.42Z"/>
    <path class="cls-2" d="M68.4,102.83v9.59l.13.33.34.14h15.01l.34-.14.13-.33v-9.59c0-.13-.05-.25-.14-.34-.09-.09-.21-.14-.34-.14s-.25.05-.34.14-.14.21-.14.34v9.16h-14.03v-9.16c0-.13-.05-.25-.14-.34-.09-.09-.21-.14-.34-.14s-.25.05-.34.14c-.09.09-.14.21-.14.34Z"/>
    <path class="cls-2" d="M84.32,103.11c-.1-1.31-.45-2.55-1.05-3.72-.7-1.38-1.63-2.58-2.79-3.6-1.16-1.02-2.46-1.8-3.92-2.33h-.35c-1.45.53-2.76,1.31-3.92,2.33-1.16,1.02-2.09,2.22-2.79,3.6-.59,1.17-.94,2.41-1.05,3.72,0,.13.05.25.14.34.09.09.21.14.34.14s.25-.05.34-.14c.09-.09.14-.21.14-.34v-.06c.13-1.29.51-2.49,1.14-3.62.67-1.19,1.53-2.23,2.57-3.11,1.04-.88,2.21-1.56,3.5-2.02l-.17-.43-.17.43c1.35.48,2.57,1.2,3.65,2.15,1.08.95,1.95,2.06,2.61,3.34.38.76.65,1.55.82,2.38.06.3.1.55.12.71v.24c0,.13.05.25.14.34.09.09.21.14.34.14.13,0,.25-.05.34-.14.09-.09.14-.21.14-.34"/>
    <path class="cls-2" d="M83.99,101.26l-7.2-20.08c-.08-.2-.22-.31-.44-.31-.22,0-.36.11-.44.31l-7.2,20.08c-.06.12-.06.25,0,.38.05.13.14.21.27.26.13.05.25.04.37-.02.12-.06.2-.16.24-.29l6.76-18.88,6.77,18.85c.04.12.12.21.24.27.12.06.23.06.36.02.12-.04.21-.13.26-.24.05-.12.06-.24.01-.36"/>
    <polygon class="cls-2" points="85.76 112.46 85.76 111.99 67.41 111.99 67.41 81.81 85.29 81.81 85.29 112.46 85.76 112.46 85.76 111.99 85.76 112.46 86.23 112.46 86.23 81.34 86.09 81.01 85.76 80.88 66.94 80.88 66.62 81.01 66.48 81.34 66.48 112.46 66.62 112.79 66.94 112.92 85.76 112.92 86.09 112.79 86.23 112.46 85.76 112.46"/>
    <path class="cls-2" d="M57.34,80.95v31.47l.13.33.33.14h11.04c.13,0,.25-.05.34-.14.09-.09.14-.21.14-.34,0-.13-.05-.25-.14-.34-.09-.09-.21-.14-.34-.14h-10.55v-30.98c0-.13-.05-.24-.14-.33s-.2-.14-.33-.14c-.13,0-.25.03-.35.13-.1.09-.14.21-.14.34Z"/>
    <path class="cls-2" d="M47.74,81.87v30.55l.13.34.33.13h10.61c.13,0,.25-.05.34-.14s.14-.21.14-.34c0-.13-.05-.25-.14-.34-.09-.09-.21-.14-.34-.14h-10.14v-30.06c0-.13-.05-.25-.14-.34s-.21-.14-.34-.14-.25.05-.34.14-.14.21-.14.34h.03Z"/>
    <path class="cls-2" d="M77.81,78.25v-.46h-2.46v-6.4l.96-2.26.96,2.26v6.86h.93v-7.14l-1.46-3.32c-.08-.19-.23-.28-.43-.28-.2,0-.34.09-.42.28l-1.47,3.32v7.14l.13.34.34.13h2.92l.33-.13.13-.34h-.46Z"/>
    <path class="cls-2" d="M83.34,78.33v-.42h-2.47v-6.4l.96-2.26.96,2.26v6.86h.94v-6.95l.02-.22-1.46-3.32c-.08-.18-.23-.27-.43-.27s-.34.09-.43.27l-1.45,3.32v7.14l.13.34.34.13h2.92l.33-.13.14-.34h-.51Z"/>
    <path class="cls-2" d="M72.29,78.17v-.46h-2.46v-6.4l.96-2.26.96,2.26v6.86h.93v-7.17l-1.4-3.29c-.08-.19-.23-.28-.43-.28-.2,0-.34.09-.42.28l-1.47,3.32v7.14l.13.34.34.13h2.92l.33-.13.13-.34h-.52Z"/>
    <path class="cls-2" d="M76.35,38.82l-.46-.07-4.06,27.35.11.37.35.15h8.12l.35-.15.11-.37-4.06-27.35c-.04-.27-.2-.4-.47-.4-.27,0-.42.14-.46.4l.46.07-.46.07,3.98,26.85h-7.04l3.99-26.85-.47-.07-.46.07.46-.07Z"/>
    <path class="cls-2" d="M54.76,106.07h.47v-4.53c0-.13-.05-.24-.14-.33-.09-.09-.2-.14-.33-.14s-.24.05-.33.14c-.09.09-.13.2-.13.33v.08h.96c-.03-.39-.12-.76-.28-1.11-.35-.82-.94-1.41-1.75-1.77h-.38c-.82.36-1.41.95-1.76,1.77-.16.35-.25.72-.27,1.11h.96v-.08l-.13-.34-.34-.13-.33.13-.13.34v4.53l.13.34.33.13h3.52l.34-.13.13-.34h-.47v-.46h-3.05v-4.07l-.13-.34-.34-.13-.33.13-.13.34v.08c0,.13.04.24.13.33.09.09.2.14.33.14.13,0,.24-.05.33-.14.09-.09.14-.2.14-.32.04-.31.13-.61.28-.89.27-.52.67-.89,1.21-1.12l-.19-.42-.19.42c.6.26,1.03.68,1.28,1.28.08.18.14.37.17.57v.16c0,.13.05.24.14.33s.2.13.33.13c.13,0,.23-.05.32-.14s.13-.2.14-.33v-.08l-.13-.34-.34-.13-.33.13-.13.34v4.53h.46-.03Z"/>
    <path class="cls-2" d="M64.13,105.96h.43v-4.53c0-.13-.05-.25-.14-.34-.09-.09-.21-.14-.34-.14s-.25.05-.34.14-.14.21-.14.34v.09h.96c-.02-.39-.11-.76-.27-1.12-.36-.82-.95-1.41-1.76-1.76h-.38c-.82.36-1.4.94-1.75,1.76-.16.36-.25.73-.28,1.12h.96v-.08l-.13-.34-.33-.13-.34.13-.13.34v4.54l.13.34.34.13h3.52l.33-.13.13-.34h-.46v-.47h-3.06v-4.07l-.13-.34-.33-.13-.34.13-.13.34v.08c0,.13.05.23.14.32.09.09.2.13.32.14.13,0,.24-.04.33-.12.09-.09.14-.2.14-.33.03-.32.13-.61.28-.89.26-.52.66-.89,1.2-1.12l-.19-.42-.19.42c.6.26,1.03.68,1.28,1.28.08.18.14.37.17.57v.16c0,.13.05.25.14.34.09.09.21.14.34.14s.25-.05.34-.14c.09-.09.14-.21.14-.34v-.08l-.13-.34-.33-.13-.34.13-.13.34v4.53h.47v-.02Z"/>
    <path class="cls-2" d="M54.76,94.92h.47v-6.35c0-.13-.05-.24-.14-.33-.09-.09-.2-.14-.33-.14-.13,0-.24.05-.33.14-.09.09-.13.2-.13.33v.08h.96c-.02-.4-.11-.79-.28-1.16-.35-.82-.94-1.41-1.75-1.77h-.38c-.83.35-1.43.94-1.79,1.77-.16.35-.25.72-.27,1.11h.96v-.08l-.13-.34-.34-.13-.33.13-.13.34v6.35l.13.34.33.13h3.52l.34-.13.13-.34h-.47v-.46h-3.05v-5.89l-.13-.34-.34-.13-.33.13-.13.34v.08c0,.13.04.24.13.33.09.09.2.14.33.14.13,0,.24-.05.33-.14.09-.09.14-.2.14-.32.04-.31.13-.61.28-.89.27-.52.67-.89,1.21-1.12l-.19-.42-.19.42c.6.26,1.03.68,1.28,1.28.08.18.14.37.17.57v.16c0,.13.05.24.14.33.09.09.2.13.33.13.13,0,.23-.05.32-.14.09-.09.13-.2.14-.33v-.08l-.13-.34-.34-.13-.33.13-.13.34v6.35h.46v.05Z"/>
    <path class="cls-2" d="M64.13,94.92h.43v-6.35c0-.13-.05-.25-.14-.34-.09-.09-.21-.14-.34-.14s-.25.05-.34.14c-.09.09-.14.21-.14.34v.08h.96c-.02-.39-.11-.76-.27-1.11-.36-.82-.94-1.41-1.76-1.77h-.38c-.82.36-1.41.95-1.75,1.77-.16.35-.25.72-.28,1.11h.96v-.08l-.13-.34-.33-.13-.34.13-.13.34v6.35l.13.34.34.13h3.52l.33-.13.13-.34h-.46v-.46h-3.06v-5.89l-.13-.34-.33-.13-.34.13-.13.34v.08c0,.13.05.24.14.33.09.09.2.14.32.14.13,0,.24-.04.33-.13.09-.09.14-.2.14-.33.03-.32.13-.61.28-.89.26-.52.66-.89,1.2-1.12l-.19-.42-.19.42c.6.26,1.03.68,1.28,1.28.08.18.14.37.17.57v.16c0,.13.05.25.14.34s.21.14.34.14.25-.05.34-.14c.09-.09.14-.21.14-.34v-.08l-.13-.34-.33-.13-.34.13-.13.34v6.35h.48Z"/>
    <polygon class="cls-2" points="84.77 81.34 84.77 80.88 68.4 80.88 68.4 66.63 84.3 66.63 84.3 81.34 84.77 81.34 84.77 80.88 84.77 81.34 85.23 81.34 85.23 66.16 85.1 65.83 84.77 65.7 67.94 65.7 67.6 65.83 67.47 66.16 67.47 81.34 67.6 81.67 67.94 81.81 84.77 81.81 85.1 81.67 85.23 81.34 84.77 81.34"/>
    <path class="cls-2" d="M68.4,67.97v-4.13c0-.13-.05-.25-.14-.34-.09-.09-.21-.14-.34-.14s-.25.05-.34.14c-.09.09-.14.21-.14.34v4.13c0,.13.05.25.14.34.09.09.21.14.34.14.13,0,.25-.05.34-.14.09-.09.14-.21.14-.34"/>
    <path class="cls-2" d="M71.28,66.02v-4.91c0-.13-.05-.25-.14-.34-.09-.09-.21-.14-.34-.14s-.25.05-.34.14-.14.21-.14.34v4.91c0,.13.05.25.14.34s.21.14.34.14c.13,0,.25-.05.34-.14.09-.09.14-.21.14-.34"/>
    <path class="cls-2" d="M54.64,53.49v-2.06c0-.13-.05-.25-.14-.34s-.21-.14-.34-.14-.25.05-.34.14c-.09.09-.14.21-.14.34v2.06c0,.13.05.25.14.34s.21.14.34.14c.13,0,.25-.05.34-.14.09-.09.14-.21.14-.34"/>
    <path class="cls-2" d="M85.25,67.97v-4.13c0-.13-.05-.25-.14-.34-.09-.09-.21-.14-.34-.14s-.25.05-.34.14c-.09.09-.14.21-.14.34v4.13c0,.13.05.25.14.34.09.09.21.14.34.14.13,0,.25-.05.34-.14.09-.09.14-.21.14-.34"/>
    <path class="cls-2" d="M82.36,66.02v-4.91c0-.13-.05-.25-.14-.34-.09-.09-.21-.14-.34-.14s-.25.05-.34.14-.14.21-.14.34v4.91c0,.13.05.25.14.34s.21.14.34.14c.13,0,.25-.05.34-.14.09-.09.14-.21.14-.34"/>
    <path class="cls-2" d="M76.82,38.82v-3.7c0-.13-.05-.25-.14-.34s-.21-.14-.34-.14-.25.05-.34.14c-.09.09-.14.21-.14.34v3.7c0,.13.05.25.14.34.09.09.21.14.34.14s.25-.05.34-.14.14-.21.14-.34"/>
    <path class="cls-2" d="M58.23,88.33l2.11-4.79.85-1.97,1.18-2.7,1.18,2.7.85,1.97,2.11,4.79c.05.12.14.2.26.25.12.05.24.04.36,0,.12-.05.2-.14.25-.26s.05-.24,0-.36l-2.11-4.79-.85-1.97-1.61-3.68c-.08-.19-.22-.29-.43-.29-.21,0-.35.1-.43.29l-1.6,3.68-.85,1.97-2.11,4.79c-.05.12-.06.24,0,.36.05.12.13.21.25.26.12.05.24.06.36,0,.12-.05.21-.13.26-.25"/>
    <path class="cls-2" d="M50.55,73.87h7.25c.13,0,.24-.05.33-.14.09-.09.14-.2.14-.33s-.05-.24-.14-.33c-.09-.09-.2-.13-.33-.13h-7.25c-.13,0-.24.04-.33.13-.09.09-.14.2-.14.33s.05.24.14.33c.09.09.2.14.33.14"/>
    <path class="cls-2" d="M60.31,81.35v-7.12h4.12v7.12c0,.13.05.25.14.34s.21.14.34.14.25-.05.34-.14c.09-.09.14-.21.14-.34v-7.59l-.14-.33-.33-.13h-5.06l-.33.13-.14.33v7.59c0,.13.05.25.14.34.09.09.21.14.34.14s.25-.05.34-.14c.09-.09.14-.21.14-.34"/>
    <path class="cls-2" d="M102.61,81.35v-8.02l-3.62-19.91c0-.13-.05-.25-.14-.34s-.21-.14-.34-.14-.25.05-.34.14c-.09.09-.14.21-.14.34l-3.62,19.91v8.02c0,.13.05.25.14.34.09.09.21.14.34.14s.25-.05.34-.14c.09-.09.14-.21.14-.34v-7.9l3.16-17.35,3.15,17.35v7.9c0,.13.05.24.14.33.09.09.2.14.33.14.13,0,.24-.05.33-.14.09-.09.13-.2.13-.33Z"/>
    <path class="cls-2" d="M91.93,81.82h12.09v1.49c0,.13.05.25.14.34.09.09.21.14.34.14s.25-.05.34-.14c.09-.09.14-.21.14-.34v-1.92l-.14-.33-.33-.14h-12.56c-.13,0-.25.05-.34.14-.09.09-.14.21-.14.34s.05.25.14.34c.09.09.21.14.34.14l-.02-.06Z"/>
    <path class="cls-2" d="M86.22,83.3v-1.49h2.5c.13,0,.24-.05.33-.14s.13-.2.13-.33c0-.13-.05-.24-.13-.33s-.2-.13-.33-.13h-2.96l-.34.13-.13.33v1.92c0,.13.05.25.14.34.09.09.21.14.34.14s.25-.05.34-.14c.09-.09.14-.21.14-.34l-.03.04Z"/>
    <path class="cls-2" d="M94.44,80.95v31.05h-10.55c-.13,0-.24.04-.33.13-.09.09-.14.2-.14.33,0,.13.05.24.14.33.09.09.2.14.33.14h11.03l.34-.13.13-.34v-31.51c0-.13-.05-.24-.14-.33-.09-.09-.2-.14-.33-.14s-.24.05-.33.14c-.09.09-.13.2-.13.33"/>
    <path class="cls-2" d="M104.02,81.87v30.12h-10.13c-.13,0-.24.04-.33.13-.09.09-.14.2-.14.33s.05.24.14.33.2.14.33.14h10.6l.33-.13.14-.34v-30.58c0-.13-.05-.25-.14-.34-.09-.09-.21-.14-.34-.14s-.25.05-.34.14-.14.21-.14.34"/>
    <path class="cls-2" d="M97.94,106.07h.47v-4.53l-.13-.33-.34-.14-.33.14-.13.33v.08c0,.13.04.24.13.33s.2.14.33.14c.13,0,.24-.05.33-.14.09-.09.14-.2.14-.32.04-.31.13-.61.28-.89.27-.52.67-.89,1.21-1.11l-.19-.43-.2.43c.6.25,1.03.68,1.29,1.28.08.18.13.37.16.57v.16c0,.13.05.24.15.33.09.09.2.13.33.13.13,0,.24-.05.33-.14.09-.09.13-.2.13-.33v-.08l-.14-.33-.33-.14-.33.14-.14.33v4.07h-3.05v.93h3.52l.33-.13.14-.34v-4.54l-.14-.33-.33-.14-.33.14-.14.33v.08h.96c-.03-.39-.12-.76-.28-1.11-.35-.82-.94-1.41-1.75-1.76h-.39c-.81.36-1.4.95-1.75,1.76-.16.35-.25.72-.27,1.11h.96v-.08c0-.13-.05-.24-.14-.33-.09-.09-.2-.14-.33-.14s-.24.05-.33.14c-.09.09-.13.2-.13.33v4.54l.13.34.33.13-.02-.47Z"/>
    <path class="cls-2" d="M88.53,105.96h.47v-4.53l-.14-.34-.33-.17-.34.13-.13.34v.08c0,.13.05.25.14.34.09.09.21.14.34.14s.25-.05.34-.14c.09-.09.14-.21.14-.34.05-.44.21-.84.48-1.2.27-.36.6-.63,1.01-.81l-.2-.42-.19.42c.6.26,1.03.69,1.29,1.28.08.18.13.37.16.57v.16c0,.13.05.23.14.32.09.09.2.13.33.14.13,0,.24-.05.33-.14.09-.09.13-.2.13-.33v-.08l-.13-.34-.33-.13-.34.13-.13.34v4.07h-3.04v.93h3.52l.33-.13.13-.34v-4.53l-.13-.34-.33-.13-.34.13-.13.34v.08h.96c-.02-.39-.11-.76-.27-1.11-.35-.82-.94-1.41-1.75-1.77h-.39c-.82.36-1.4.95-1.75,1.77-.16.35-.25.72-.28,1.11h.96v-.08c0-.13-.05-.25-.14-.34-.09-.09-.21-.14-.34-.14s-.25.05-.34.14c-.09.09-.14.21-.14.34v4.53l.13.34.34.13-.03-.42Z"/>
    <path class="cls-2" d="M97.94,94.92h.47v-6.35l-.13-.33-.34-.14-.33.14-.13.33v.08c0,.13.04.24.13.33.09.09.2.14.33.14.13,0,.24-.05.33-.14.09-.09.14-.2.14-.32.04-.31.13-.61.28-.89.27-.52.67-.89,1.21-1.11l-.19-.43-.2.43c.61.25,1.04.68,1.29,1.28.08.18.13.36.16.56v.16c0,.13.05.25.14.34.09.09.21.14.34.14s.25-.05.34-.14c.09-.09.14-.21.14-.34v-.08l-.14-.33-.33-.14-.33.14-.14.33v5.89h-3.05v.93h3.52l.33-.13.14-.34v-6.35l-.14-.33-.33-.14-.33.14-.14.33v.08h.96c-.03-.39-.12-.76-.28-1.11-.35-.82-.94-1.41-1.75-1.76h-.39c-.81.36-1.4.95-1.75,1.76-.16.35-.25.72-.27,1.11h.96v-.08c0-.13-.05-.24-.14-.33s-.2-.14-.33-.14c-.13,0-.24.05-.33.14-.09.09-.13.2-.13.33v6.35l.13.34.33.13-.04-.48Z"/>
    <path class="cls-2" d="M88.53,94.92h.47v-6.35l-.14-.33-.33-.14-.34.14-.13.33v.08c0,.13.04.24.13.33.09.09.2.14.33.14.13,0,.24-.04.33-.13.09-.09.14-.2.15-.33.04-.31.13-.61.28-.89.27-.52.67-.89,1.21-1.11l-.2-.43-.19.43c.6.26,1.03.68,1.29,1.28.08.18.13.36.16.56v.16c0,.13.05.24.14.33.09.09.2.13.33.13.13,0,.24-.05.33-.14s.13-.2.13-.33v-.08l-.13-.33-.33-.14-.34.14-.13.33v5.89h-3.02v.93h3.52l.33-.13.13-.34v-6.35l-.13-.33-.33-.14-.34.14-.13.33v.08h.96c-.02-.39-.11-.76-.27-1.11-.36-.81-.94-1.4-1.75-1.76h-.39c-.81.36-1.4.95-1.75,1.76-.16.35-.25.72-.28,1.11h.96v-.08c0-.13-.05-.25-.14-.34-.09-.09-.21-.14-.34-.14s-.25.05-.34.14c-.09.09-.14.21-.14.34v6.35l.13.34.34.13-.03-.47Z"/>
    <path class="cls-2" d="M104.96,81.46v-4.91c0-.13-.05-.25-.14-.34-.09-.09-.21-.14-.34-.14s-.25.05-.34.14c-.09.09-.14.21-.14.34v4.91c0,.13.05.25.14.34s.21.14.34.14.25-.05.34-.14c.09-.09.14-.21.14-.34"/>
    <path class="cls-2" d="M98.06,51.43v2.06c0,.13.04.24.13.33s.2.14.33.14c.13,0,.24-.05.33-.14.09-.09.14-.2.14-.33v-2.06c0-.13-.05-.24-.14-.33-.09-.09-.2-.13-.33-.13-.13,0-.24.04-.33.13-.09.09-.13.2-.13.33"/>
    <path class="cls-2" d="M86.18,88.33l2.11-4.79.85-1.92,1.18-2.71,1.19,2.71.84,1.92,2.12,4.79c.05.12.14.2.26.25.12.05.24.05.36,0,.11-.05.2-.14.24-.26.05-.12.05-.24,0-.35l-2.11-4.84-.85-1.92-1.61-3.69c-.08-.19-.22-.29-.43-.29s-.35.1-.43.29l-1.61,3.69-.85,1.92-2.11,4.84c-.05.12-.05.24,0,.36.05.12.13.2.25.25.12.05.24.05.36,0,.12-.05.2-.13.25-.25Z"/>
    <path class="cls-2" d="M102.15,72.94h-7.26c-.13,0-.24.05-.33.14s-.13.2-.13.33c0,.13.04.24.13.33s.2.13.33.13h7.26c.13,0,.24-.04.33-.13.09-.09.13-.2.13-.33,0-.13-.04-.24-.13-.33-.09-.09-.2-.14-.33-.14"/>
    <path class="cls-2" d="M93.32,81.35v-7.59l-.13-.33-.34-.13h-5.06l-.33.13-.13.33v7.59c0,.13.04.24.13.33.09.09.2.14.33.14s.24-.05.33-.14c.09-.09.14-.2.14-.33v-7.12h4.1v7.12c0,.13.04.24.13.33s.2.14.33.14c.13,0,.24-.05.33-.14.09-.09.14-.2.14-.33"/>
  </g>
  <rect class="cls-1" x="47.74" y="34.63" width="57.22" height="78.3"/>
</svg>