<?xml version="1.0" encoding="UTF-8"?>
<svg id="Arc_de_Triomp" data-name="Arc de Triomp" xmlns="http://www.w3.org/2000/svg" viewBox="0 0 152.69 147.57">
  <defs>
    <style>
      .cls-1, .cls-2, .cls-3, .cls-4 {
        fill-rule: evenodd;
      }

      .cls-1, .cls-2, .cls-5 {
        stroke: #02352c;
        stroke-miterlimit: 10;
        stroke-width: .3px;
      }

      .cls-1, .cls-5, .cls-4 {
        fill: #01352c;
      }

      .cls-6 {
        fill: none;
      }

      .cls-6, .cls-7, .cls-3, .cls-4 {
        stroke-width: 0px;
      }

      .cls-7, .cls-2, .cls-3 {
        fill: #cbdad8;
      }
    </style>
  </defs>
  <polygon class="cls-2" points="53.27 55.26 52.35 55.26 51.17 55.26 51.17 58.06 52 58.06 53.63 58.06 59.45 58.06 66.48 58.06 82.14 58.06 85.36 58.06 91.18 58.06 92.82 58.06 93.56 58.06 93.56 55.26 92.46 55.26 91.54 55.26 85.01 55.26 82.14 55.26 77.45 55.26 74.63 55.26 70.28 55.26 68.24 55.26 66.48 55.26 59.8 55.26 53.27 55.26"/>
  <path class="cls-1" d="M53.32,55.58h-1.83v2.16h41.74v-2.16h-39.96.05ZM52.35,54.93h41.21c.21,0,.32.12.32.33v2.8c0,.21-.11.32-.32.33h-42.39c-.22,0-.33-.11-.33-.33v-2.8c0-.22.11-.33.33-.33h1.18Z"/>
  <path class="cls-2" d="M74.81,55.26c.18-.19.36-.38.56-.55.22-.21.32-.73-.33-.97-.65-.24-.92.48-1.02.65-.1.16-.29-.29-.27-.46,0-.39.06-.76.17-1.13.14-.25-.81-.36-.89-.57-.16-.3-.36-.58-.58-.83-.22.26-.41.54-.58.83-.07.21-1.03.32-.89.57.11.37.17.75.18,1.13,0,.17-.18.63-.28.46-.1-.16-.36-.92-1.02-.65-.66.27-.55.77-.33.97.2.17.38.36.56.55h4.71Z"/>
  <path class="cls-1" d="M74.66,54.93l.23-.22.26-.24v-.18l-.06-.12-.24-.15c-.29-.13-.47.24-.55.41l-.06.11-.22.18-.37-.1-.1-.14c-.1-.18-.16-.38-.16-.59v-.09c.02-.33.06-.65.14-.97l-.19-.08c-.28-.11-.56-.2-.65-.46l-.27-.4-.27.41c-.08.24-.36.34-.64.45l-.18.08c.08.32.12.64.13.97v.1c0,.21-.06.41-.16.59l-.13.16-.37.09-.22-.18-.05-.09c-.09-.17-.26-.51-.55-.4l-.23.15-.07.12v.18l.26.24.23.22,4.5-.06ZM75.34,55.18l-.28.29-.25.12h-4.71l-.23-.11-.3-.3-.25-.23-.21-.3-.05-.45.22-.47c.13-.14.29-.25.47-.31.18-.09.37-.12.57-.08.2.04.36.14.5.29-.01-.24-.05-.48-.12-.71-.15-.3,0-.49.27-.64l.35-.15.25-.06c.18-.32.39-.63.63-.91l.05-.06.46.06c.24.28.45.58.63.9l.25.05.36.15c.27.15.42.35.26.64-.08.23-.12.47-.13.71.13-.16.3-.25.5-.29.2-.04.39-.01.57.08.18.06.34.17.47.31l.23.46-.06.45-.21.3-.24.25Z"/>
  <polygon class="cls-2" points="51.42 59.33 54.2 59.33 58.87 59.33 65.32 59.33 65.94 59.33 85.93 59.33 90.61 59.33 93.39 59.33 95.26 59.33 95.26 58.06 65.94 58.06 65.32 58.06 49.75 58.06 49.75 59.33 51.42 59.33"/>
  <path class="cls-1" d="M51.42,59.01h43.52v-.62h-44.86v.62h1.35ZM54.2,59.66h-4.45c-.22,0-.33-.11-.33-.33v-1.27c0-.22.11-.33.33-.33h45.53c.22,0,.33.11.33.33v1.26c0,.22-.11.33-.33.33h-41.08Z"/>
  <polygon class="cls-2" points="51.69 64.55 53.93 64.55 59.14 64.55 85.67 64.55 90.88 64.55 91.52 64.55 91.66 64.55 93.12 64.55 94.23 64.55 94.23 59.33 91.66 59.33 91.52 59.33 50.65 59.33 50.65 64.55 51.69 64.55"/>
  <path class="cls-1" d="M51.69,64.23h42.21v-4.57h-42.93v4.57h.73ZM53.93,64.88h-3.28c-.22,0-.33-.11-.33-.33v-5.22c0-.22.11-.33.33-.33h43.59c.09,0,.17.03.23.1s.09.14.09.23v5.22c0,.22-.11.33-.33.33h-40.3Z"/>
  <path class="cls-3" d="M62.97,82.43c.15-3.24.97-5.81,3.32-8.02.4-.4.84-.75,1.31-1.06.47-.31.97-.57,1.5-.79.52-.21,1.06-.38,1.62-.49.56-.11,1.12-.16,1.68-.16s1.13.05,1.68.16c.56.11,1.1.27,1.62.49.52.21,1.02.48,1.5.79.47.31.91.67,1.31,1.06,2.37,2.18,3.18,4.79,3.33,8.02h13.52l-.53-17.87h-45.33l-.5,17.87h13.96Z"/>
  <path class="cls-1" d="M62.66,82.06c.07-1.44.35-2.84.84-4.19.56-1.45,1.42-2.69,2.57-3.74.5-.47,1.05-.88,1.64-1.24.56-.34,1.15-.62,1.77-.83.79-.27,1.6-.43,2.44-.48.84-.05,1.66.02,2.48.2.82.18,1.59.47,2.33.87.74.4,1.4.89,2,1.48,1.15,1.05,2.01,2.29,2.58,3.74.5,1.35.78,2.75.83,4.19h12.86l-.51-17.21h-44.64l-.49,17.21h13.31ZM64.1,78.14c-.5,1.39-.78,2.82-.81,4.3,0,.21-.11.31-.32.31h-13.97c-.21,0-.32-.12-.31-.33l.49-17.84c0-.21.12-.32.33-.32h45.3c.21,0,.31.1.32.31l.53,17.84c0,.21-.11.32-.32.33h-13.53c-.21,0-.32-.1-.33-.31-.04-1.48-.31-2.91-.81-4.3-.52-1.35-1.33-2.52-2.4-3.49-.56-.54-1.18-1-1.86-1.37-.68-.37-1.41-.64-2.17-.81s-1.53-.24-2.31-.19c-.78.04-1.53.19-2.27.44-.58.2-1.13.46-1.65.78-.55.33-1.06.72-1.53,1.15l-2.38,3.5ZM66.51,74.65l-2.4,3.49c.53-1.35,1.33-2.51,2.4-3.49"/>
  <path class="cls-3" d="M51.19,85.14h11.49v-1.42h.24v-1.29h-13.29v.78h.58l-.3.14-.14,1.8h1.41ZM81.81,82.59v-.16h12.83l-.54,2.71h-12.01v-1.42h-.25v-1.12"/>
  <path class="cls-4" d="M51.21,84.78h11.16v-1.09l.25-.32v-.65h-12.66v.13h.25c.22,0,.33.11.33.33l-.21.3-.1.05-.11,1.26h1.09ZM54.42,85.43h-4.67c-.21-.02-.31-.14-.3-.35l.13-1.59-.26-.32v-.77c0-.21.11-.32.32-.33h13.35c.21.01.32.13.32.34v1.28l-.25.31v1.1c0,.21-.11.32-.32.32h-8.31ZM81.53,82.6v-.16c-.01-.09,0-.17.06-.25.05-.07.13-.12.22-.13h12.85c.21,0,.32.12.32.33v.1l-.54,2.67-.31.26h-12.01c-.21,0-.32-.11-.33-.32v-1.1l-.24-.31v-1.11M85.71,82.75h-3.53v.65l.24.32v1.09h11.42l.42-2.06h-8.57.02ZM94.99,82.52l-.31.22.31-.22Z"/>
  <path class="cls-3" d="M51.87,99.5h10.83v-14.36h-12.05v14.36h1.22ZM82.12,85.14h12.69v14.36h-12.69v-14.36Z"/>
  <path class="cls-5" d="M94.81,99.85h-12.69c-.21-.03-.31-.15-.31-.36v-14.37c0-.1.04-.18.11-.25.07-.07.15-.1.25-.1h12.69c.1,0,.18.03.25.1.07.07.11.15.11.25v14.37c0,.1-.04.18-.1.25-.07.07-.15.1-.25.1M82.48,99.14h11.98v-13.64h-11.98v13.64ZM62.7,99.86h-12.05c-.1,0-.18-.03-.25-.1s-.1-.15-.1-.25v-14.38c0-.1.04-.18.11-.25s.15-.1.25-.1h12.05c.1,0,.18.03.25.1.07.07.11.15.11.25v14.37c0,.23-.13.35-.36.36M51.01,99.15h11.33v-13.65h-11.33v13.65Z"/>
  <path class="cls-3" d="M91.63,101.76h2.22v-2.27h-12.18v2.27h9.96ZM59.66,99.5h-9.01v2.27h12.51v-2.27h-3.5Z"/>
  <path class="cls-4" d="M91.59,101.44h1.94v-1.62h-11.54v1.61h9.6ZM92.41,102.09h-10.74c-.21,0-.32-.11-.33-.32v-2.28c0-.22.11-.33.33-.33h12.14c.22,0,.33.11.33.33v2.26c0,.21-.12.32-.33.32l-1.39.02ZM59.66,99.83h-8.72v1.61h11.89v-1.62h-3.17ZM53.43,99.18h9.69c.21,0,.32.12.32.33v2.26c0,.21-.11.32-.32.32h-12.47c-.21,0-.32-.11-.33-.32v-2.27c0-.22.11-.33.33-.33h2.78Z"/>
  <polygon class="cls-3" points="92.63 100.63 92.63 101.11 92.63 101.77 98.82 101.77 98.82 101.11 98.82 100.63 98.65 99.84 92.8 99.84 92.63 100.63"/>
  <polygon class="cls-3" points="94.08 96.51 93.24 99.83 98.21 99.83 97.38 96.51 94.08 96.51"/>
  <polygon class="cls-3" points="94.06 93.71 93.85 94.14 93.85 96.51 94.15 96.51 97.3 96.51 97.6 96.51 97.6 94.14 97.4 93.71 94.06 93.71"/>
  <rect class="cls-7" x="94.06" y="85.56" width="3.33" height="8.16"/>
  <polygon class="cls-3" points="93.39 84.45 94.06 85.56 97.4 85.56 98.07 84.45 93.39 84.45"/>
  <polygon class="cls-3" points="94.03 81.86 93.39 81.86 93.39 84.45 98.07 84.45 98.07 81.86 98.05 81.86 97.43 81.86 94.03 81.86"/>
  <rect class="cls-7" x="94.03" y="65.56" width="3.4" height="16.29"/>
  <polygon class="cls-3" points="93.35 61.32 93.35 65.02 94.03 65.57 97.43 65.57 98.11 65.02 98.11 61.32 93.35 61.32"/>
  <polygon class="cls-3" points="93.61 59.66 92.87 60.51 93.34 61.32 98.11 61.32 98.59 60.51 97.85 59.66 93.61 59.66"/>
  <polygon class="cls-3" points="93.24 58.57 93.61 59.04 93.61 59.66 97.85 59.66 97.85 59.04 98.21 58.57 93.24 58.57"/>
  <polygon class="cls-3" points="92.92 56.59 92.92 57.71 93.19 58.57 98.28 58.57 98.53 57.71 98.53 56.59 92.92 56.59"/>
  <polygon class="cls-3" points="92.93 53.83 92.36 54.57 92.92 56.59 98.52 56.59 99.1 54.57 98.52 53.83 92.93 53.83"/>
  <path class="cls-3" d="M95.07,50.72c-.63.43-1.08,1-1.36,1.71-.09.46-.13.93-.14,1.39h4.32c0-.47-.05-.93-.14-1.39-.28-.71-.74-1.28-1.37-1.71h-1.33Z"/>
  <polygon class="cls-3" points="95.72 48.22 94.47 48.22 95.13 49.89 95.13 50.72 96.32 50.72 96.32 49.89 96.97 48.22 95.72 48.22"/>
  <path class="cls-1" d="M92.96,100.65v.78h5.53v-.79l-.1-.48h-5.33l-.11.49ZM92.31,101.11v-.56l.16-.77c.03-.18.14-.27.33-.27h5.81l.31.25.16.77v1.23c0,.21-.11.32-.32.33h-6.18c-.22,0-.33-.11-.33-.33l.06-.65Z"/>
  <path class="cls-1" d="M94.32,96.86l-.67,2.68h4.14l-.67-2.68h-2.8ZM92.93,99.76l.82-3.31.32-.26h3.3l.32.25.82,3.3v.1c0,.21-.11.32-.32.33h-5.05c-.2-.06-.28-.19-.23-.4"/>
  <path class="cls-1" d="M94.26,93.99l-.08.17v1.94h3.13v-1.94l-.09-.17h-2.96ZM93.56,93.99l.2-.43.29-.17h3.33l.3.17.19.41.05.16v2.36c0,.22-.11.33-.33.33h-3.75c-.22,0-.33-.11-.33-.33v-2.37l.04-.14Z"/>
  <path class="cls-1" d="M94.39,93.35h2.68v-7.42h-2.66l-.02,7.42ZM93.74,93.68v-8.16c0-.21.11-.32.32-.32h3.34c.21,0,.32.11.32.32v8.16c0,.21-.11.32-.32.32h-3.34c-.21,0-.32-.12-.32-.33"/>
  <path class="cls-1" d="M93.97,84.76l.27.46h2.97l.28-.46h-3.53ZM93.79,85.73l-.66-1.08-.06-.19c0-.21.11-.32.32-.32h4.68l.16.05.12.45-.67,1.09-.28.17h-3.32l-.29-.15Z"/>
  <path class="cls-1" d="M94.08,82.18h-.31v1.94h4.02v-1.94h-3.71ZM93.44,81.54h4.68c.22,0,.33.11.33.33v2.59c0,.22-.11.33-.33.33h-4.68c-.21,0-.32-.12-.32-.33v-2.59c0-.21.11-.32.32-.33"/>
  <path class="cls-1" d="M94.36,81.54h2.75v-15.65h-2.7l-.05,15.65ZM93.71,81.86v-16.27c0-.21.12-.32.33-.32h3.39c.21,0,.32.11.32.32v16.27c0,.21-.11.32-.32.32h-3.39c-.21,0-.32-.11-.33-.32"/>
  <path class="cls-1" d="M93.67,61.65v3.22l.47.38h3.17l.47-.38v-3.22h-4.12ZM93.02,65.02v-3.7c0-.22.11-.33.33-.33h4.77c.21,0,.32.12.32.33v3.7l-.12.25-.67.53-.22.09h-3.4l-.19-.07-.67-.54-.15-.26Z"/>
  <path class="cls-1" d="M93.77,59.99l-.49.56.26.44h4.39l.27-.44-.49-.56h-3.93ZM92.63,60.3l.74-.84.24-.12h4.23l.24.12.74.83.05.39-.47.78-.29.17h-4.77l-.28-.16-.47-.8.04-.38Z"/>
  <path class="cls-1" d="M93.29,59.15l-.29-.37-.08-.21c0-.09.03-.17.09-.23.06-.06.14-.1.23-.1h4.97l.2.07.06.46-.3.39v.52c0,.21-.11.32-.32.32h-4.23c-.21,0-.32-.11-.32-.32v-.52ZM93.9,58.89v.46h3.57v-.46h-3.57Z"/>
  <path class="cls-1" d="M93.25,56.91v.77l.17.56h4.61l.16-.56v-.8l-4.95.04ZM92.6,57.71v-1.12c0-.22.11-.33.33-.33h5.59c.22,0,.33.11.33.33v1.25l-.24.82-.32.25h-5.1l-.31-.23-.25-.82-.03-.15Z"/>
  <path class="cls-1" d="M93.08,54.16l-.37.47.46,1.63h5.11l.46-1.63-.37-.47h-5.29ZM92.11,54.37l.55-.73.27-.15h5.6l.25.13.56.74.06.29-.55,2-.32.26h-5.6l-.32-.23-.56-2.02.06-.28Z"/>
  <path class="cls-1" d="M94.88,50.46l.18-.07h1.33l.19.07c.45.33.84.72,1.16,1.17l.19.35.14.39c.06.34.1.65.12.91v.54c0,.21-.11.32-.32.33h-4.33c-.21,0-.32-.11-.32-.32v-.6c.02-.29.06-.57.12-.85.2-.65.57-1.19,1.11-1.61l.21-.18.15-.12h.07ZM95.18,51.05h-.06l-.19.16c-.42.32-.72.74-.9,1.24-.05.26-.09.53-.11.79v.21h3.65v-.16c-.02-.28-.06-.56-.11-.84l-.09-.24-.15-.26c-.26-.37-.56-.69-.92-.97l-1.13.07Z"/>
  <path class="cls-1" d="M95.76,48.52h-.77l.48,1.23v.62h.54v-.62l.47-1.23h-.73ZM94.48,47.89h2.62c.2.08.26.22.18.43l-.63,1.61v.78c0,.22-.11.33-.33.33h-1.19c-.21,0-.32-.12-.32-.33v-.78l-.63-1.59v-.14c0-.22.11-.33.33-.33"/>
  <polygon class="cls-3" points="85.17 100.63 85.17 101.11 85.17 101.77 91.36 101.77 91.36 101.11 91.36 100.63 91.2 99.84 85.35 99.84 85.17 100.63"/>
  <polygon class="cls-3" points="86.62 96.51 85.79 99.83 90.75 99.83 89.92 96.51 86.62 96.51"/>
  <polygon class="cls-3" points="86.6 93.71 86.4 94.14 86.4 96.51 86.7 96.51 89.84 96.51 90.14 96.51 90.14 94.14 89.94 93.71 86.6 93.71"/>
  <rect class="cls-7" x="86.6" y="85.56" width="3.33" height="8.16"/>
  <polygon class="cls-3" points="85.93 84.45 86.61 85.56 89.94 85.56 90.61 84.45 85.93 84.45"/>
  <polygon class="cls-3" points="86.57 81.86 85.93 81.86 85.93 84.45 90.61 84.45 90.61 81.86 90.59 81.86 89.97 81.86 86.57 81.86"/>
  <rect class="cls-7" x="86.57" y="65.56" width="3.4" height="16.29"/>
  <polygon class="cls-3" points="85.89 61.32 85.89 65.02 86.57 65.57 89.97 65.57 90.65 65.02 90.65 61.32 85.89 61.32"/>
  <polygon class="cls-3" points="86.15 59.66 85.42 60.51 85.89 61.32 90.66 61.32 91.13 60.51 90.39 59.66 86.15 59.66"/>
  <polygon class="cls-3" points="85.78 58.57 86.15 59.04 86.15 59.66 90.39 59.66 90.39 59.04 90.75 58.57 85.78 58.57"/>
  <polygon class="cls-3" points="85.47 56.59 85.47 57.71 85.73 58.57 90.82 58.57 91.07 57.71 91.07 56.59 85.47 56.59"/>
  <polygon class="cls-3" points="85.47 53.83 84.9 54.57 85.47 56.59 91.07 56.59 91.64 54.57 91.06 53.83 85.47 53.83"/>
  <path class="cls-3" d="M87.63,50.72c-.63.43-1.08,1-1.37,1.71-.09.46-.13.93-.14,1.39h4.32c0-.47-.05-.93-.14-1.39-.28-.71-.74-1.28-1.37-1.71h-1.32Z"/>
  <polygon class="cls-3" points="88.27 48.22 87.02 48.22 87.67 49.89 87.67 50.72 88.87 50.72 88.87 49.89 89.52 48.22 88.27 48.22"/>
  <path class="cls-1" d="M85.5,100.65v.78h5.53v-.79l-.1-.48h-5.33l-.11.49ZM84.85,101.11v-.56l.16-.77c.03-.18.13-.27.32-.27h5.81l.32.25.15.77v1.23c0,.22-.11.33-.33.33h-6.18c-.22,0-.33-.11-.33-.33l.07-.65Z"/>
  <path class="cls-1" d="M86.85,96.86l-.67,2.68h4.13l-.67-2.68h-2.79ZM85.47,99.76l.83-3.31.32-.26h3.29l.32.25.82,3.3v.1c0,.22-.11.33-.33.33h-5.05c-.21-.06-.29-.19-.24-.4"/>
  <path class="cls-1" d="M86.81,93.99l-.09.17v1.94h3.1v-1.94l-.09-.17h-2.93ZM86.1,93.99l.21-.43.29-.17h3.32l.3.17.19.41.05.16v2.36c0,.21-.11.32-.32.33h-3.76c-.21,0-.32-.12-.32-.33v-2.37l.03-.14Z"/>
  <path class="cls-1" d="M86.98,93.35h2.68v-7.42h-2.68v7.42ZM86.28,93.68v-8.16c0-.21.12-.32.33-.32h3.33c.21,0,.32.11.33.32v8.16c0,.09-.03.17-.1.23s-.14.09-.23.09h-3.28c-.22,0-.33-.11-.33-.33"/>
  <path class="cls-1" d="M86.51,84.76l.28.46h2.96l.28-.46h-3.53ZM86.33,85.73l-.66-1.08-.06-.19c0-.21.12-.32.33-.32h4.67l.17.05.11.45-.66,1.09-.29.17h-3.28l-.33-.15Z"/>
  <path class="cls-1" d="M86.58,82.18h-.32v1.94h4.03v-1.94h-3.71ZM85.94,81.54h4.67c.22,0,.33.11.33.33v2.59c0,.22-.11.33-.33.33h-4.67c-.22,0-.33-.11-.33-.33v-2.59c0-.22.11-.33.33-.33"/>
  <path class="cls-1" d="M86.9,81.54h2.75v-15.65h-2.75v15.65ZM86.25,81.86v-16.27c0-.21.12-.32.33-.32h3.39c.21,0,.32.11.33.32v16.27c0,.21-.12.32-.33.32h-3.39c-.21,0-.32-.11-.33-.32"/>
  <path class="cls-1" d="M86.22,61.65v3.22l.47.38h3.17l.47-.38v-3.22h-4.11ZM85.56,65.02v-3.7c0-.22.11-.33.33-.33h4.77c.21,0,.32.12.32.33v3.7l-.12.25-.67.53-.22.09h-3.39l-.2-.07-.67-.54-.15-.26Z"/>
  <path class="cls-1" d="M86.31,59.99l-.49.56.26.44h4.4l.26-.44-.49-.56h-3.93ZM85.17,60.3l.74-.84.24-.12h4.23l.24.12.74.83.05.39-.46.78-.29.17h-4.77l-.28-.16-.47-.8.04-.38Z"/>
  <path class="cls-1" d="M85.83,59.15l-.29-.37-.08-.21c0-.21.11-.32.32-.33h4.98l.19.07.06.46-.3.39v.52c0,.21-.12.32-.33.32h-4.22c-.21,0-.32-.11-.33-.32v-.52ZM86.45,58.89v.46h3.58v-.46h-3.58Z"/>
  <path class="cls-1" d="M85.8,56.91v.77l.16.56h4.61l.16-.56v-.8l-4.94.04ZM85.15,57.71v-1.12c0-.22.11-.33.33-.33h5.6c.22,0,.33.11.33.33v1.22l-.24.82-.32.25h-5.15l-.31-.23-.25-.82.02-.12Z"/>
  <path class="cls-1" d="M85.62,54.16l-.38.47.46,1.63h5.12l.45-1.63-.37-.47h-5.27ZM84.65,54.37l.55-.73.27-.15h5.6l.25.13.56.74.07.29-.56,2-.32.26h-5.6l-.32-.23-.56-2.02.06-.28Z"/>
  <path class="cls-1" d="M87.42,50.46l.19-.07h1.32l.2.07c.44.33.83.73,1.15,1.17l.2.35.13.39c.06.3.1.6.12.91v.54c0,.22-.11.33-.33.33h-4.32c-.21,0-.32-.11-.33-.32v-.6c.02-.29.06-.57.12-.85.2-.65.58-1.19,1.11-1.61l.21-.18.15-.12h.08ZM87.72,51.05h-.06l-.19.16c-.42.33-.72.74-.9,1.24-.05.26-.09.53-.11.79v.21h3.65v-.16c-.02-.28-.06-.56-.11-.84l-.08-.24-.16-.26c-.26-.37-.56-.69-.92-.97l-1.13.07Z"/>
  <path class="cls-1" d="M88.34,48.52h-.77l.48,1.23v.62h.54v-.62l.48-1.23h-.74ZM87.02,47.89h2.65c.2.08.26.22.18.43l-.63,1.61v.78c0,.22-.11.33-.33.33h-1.19c-.21,0-.32-.12-.32-.33v-.78l-.63-1.59v-.14c0-.22.11-.33.33-.33"/>
  <polygon class="cls-3" points="45.99 100.63 45.99 101.11 45.99 101.77 52.18 101.77 52.18 101.11 52.18 100.63 52 99.84 46.15 99.84 45.99 100.63"/>
  <polygon class="cls-3" points="47.43 96.51 46.6 99.83 51.57 99.83 50.74 96.51 47.43 96.51"/>
  <polygon class="cls-3" points="47.41 93.71 47.21 94.14 47.21 96.51 47.51 96.51 50.66 96.51 50.96 96.51 50.96 94.14 50.76 93.71 47.41 93.71"/>
  <rect class="cls-7" x="47.41" y="85.56" width="3.33" height="8.16"/>
  <polygon class="cls-3" points="46.74 84.45 47.41 85.56 50.76 85.56 51.42 84.45 46.74 84.45"/>
  <polygon class="cls-3" points="47.38 81.86 46.74 81.86 46.74 84.45 51.42 84.45 51.42 81.86 51.39 81.86 50.78 81.86 47.38 81.86"/>
  <rect class="cls-7" x="47.38" y="65.56" width="3.4" height="16.29"/>
  <polygon class="cls-3" points="46.71 61.32 46.71 65.02 47.38 65.57 50.78 65.57 51.46 65.02 51.46 61.32 46.71 61.32"/>
  <polygon class="cls-3" points="46.97 59.66 46.23 60.51 46.7 61.32 51.46 61.32 51.95 60.51 51.2 59.66 46.97 59.66"/>
  <polygon class="cls-3" points="46.6 58.57 46.97 59.04 46.97 59.66 51.2 59.66 51.2 59.04 51.57 58.57 46.6 58.57"/>
  <polygon class="cls-3" points="46.29 56.59 46.29 57.71 46.53 58.57 51.64 58.57 51.88 57.71 51.88 56.59 46.29 56.59"/>
  <polygon class="cls-3" points="46.29 53.83 45.72 54.57 46.29 56.59 51.88 56.59 52.45 54.57 51.88 53.83 46.29 53.83"/>
  <path class="cls-3" d="M48.42,55.79c-.63.43-1.08,1-1.36,1.71-.09.46-.13.93-.14,1.39h4.32c0-.47-.05-.93-.14-1.39-.28-.71-.74-1.28-1.37-1.71h-1.33Z"/>
  <polygon class="cls-3" points="49.08 53.29 47.83 53.29 48.49 54.96 48.49 55.79 49.68 55.79 49.68 54.96 50.33 53.29 49.08 53.29"/>
  <path class="cls-1" d="M46.32,100.65v.78h5.53v-.79l-.1-.48h-5.33l-.11.49ZM45.67,101.11v-.56l.16-.77c.03-.18.13-.27.32-.27h5.81l.32.25.15.77v1.23c0,.22-.11.33-.33.33h-6.14c-.21,0-.32-.12-.32-.33l.02-.65Z"/>
  <path class="cls-1" d="M47.67,96.86l-.67,2.68h4.14l-.67-2.68h-2.8ZM46.29,99.76l.82-3.31.33-.26h3.29l.32.25.82,3.3v.1c0,.21-.11.32-.32.33h-5.04c-.21-.06-.29-.19-.24-.4"/>
  <path class="cls-1" d="M47.64,93.99l-.08.17v1.94h3.1v-1.94l-.09-.17h-2.94ZM46.94,93.99l.2-.43.29-.17h3.33l.3.17.19.41.05.16v2.36c0,.22-.11.33-.33.33h-3.75c-.22,0-.33-.11-.33-.33v-2.37l.04-.14Z"/>
  <path class="cls-1" d="M47.74,93.35h2.68v-7.42h-2.68v7.42ZM47.09,93.68v-8.16c0-.21.12-.32.33-.32h3.33c.21,0,.32.11.32.32v8.16c0,.21-.11.32-.32.32h-3.33c-.22,0-.33-.11-.33-.33"/>
  <path class="cls-1" d="M47.33,84.76l.27.46h2.97l.28-.46h-3.53ZM47.14,85.73l-.66-1.08-.06-.19c0-.21.11-.32.32-.32h4.68l.16.05.12.45-.66,1.09-.29.17h-3.32l-.29-.15Z"/>
  <path class="cls-1" d="M47.39,82.18h-.32v1.94h4.03v-1.94h-3.71ZM46.75,81.54h4.67c.22,0,.33.11.33.33v2.59c0,.22-.11.33-.33.33h-4.67c-.22,0-.33-.11-.33-.33v-2.59c0-.22.11-.33.33-.33"/>
  <path class="cls-1" d="M47.74,81.54h2.75v-15.65h-2.78l.03,15.65ZM47.06,81.86v-16.27c0-.21.11-.32.32-.32h3.43c.21,0,.32.11.33.32v16.27c0,.21-.12.32-.33.32h-3.4c-.21,0-.32-.11-.32-.32"/>
  <path class="cls-1" d="M47.03,61.65v3.22l.47.38h3.17l.47-.38v-3.22h-4.12ZM46.38,65.02v-3.7c0-.22.11-.33.33-.33h4.77c.21,0,.32.12.32.33v3.7l-.12.25-.67.53-.22.09h-3.4l-.19-.07-.67-.54-.15-.26Z"/>
  <path class="cls-1" d="M47.11,59.99l-.49.56.26.44h4.4l.26-.44-.49-.56h-3.93ZM45.97,60.3l.75-.84.24-.12h4.23l.24.12.74.83v.39l-.47.78-.29.17h-4.77l-.28-.16-.47-.8.08-.38Z"/>
  <path class="cls-1" d="M46.65,59.15l-.29-.37-.08-.21c0-.09.03-.17.09-.23.06-.06.14-.1.23-.1h4.97l.2.07.06.46-.3.39v.52c0,.21-.11.32-.32.32h-4.27c-.21,0-.32-.11-.32-.32l.03-.52ZM47.27,58.89v.46h3.58v-.46h-3.58Z"/>
  <path class="cls-1" d="M46.62,56.91v.77l.17.56h4.61l.16-.56v-.8l-4.95.04ZM45.97,57.71v-1.12c0-.22.11-.33.33-.33h5.6c.21,0,.32.12.32.33v1.25l-.24.82-.32.25h-5.1l-.31-.23-.28-.84v-.13Z"/>
  <path class="cls-1" d="M46.43,54.16l-.37.47.46,1.63h5.11l.46-1.63-.37-.47h-5.28ZM45.47,54.37l.55-.73.27-.15h5.59l.26.13.56.74.06.29-.55,2-.32.26h-5.6l-.31-.23-.57-2.02.06-.28Z"/>
  <path class="cls-1" d="M48.24,50.46l.18-.07h1.33l.19.07c.45.33.83.72,1.15,1.17l.2.35.14.39c.06.34.1.65.12.91v.54c0,.21-.11.32-.32.33h-4.29c-.21,0-.32-.11-.32-.32v-.6c.02-.29.06-.57.12-.85.22-.66.61-1.2,1.17-1.61l.21-.18.15-.12h-.03ZM48.54,51.05h-.06l-.19.16c-.42.32-.72.74-.9,1.24-.05.26-.09.53-.11.79v.21h3.65v-.16c-.02-.28-.06-.56-.11-.84l-.09-.24-.15-.26c-.26-.37-.56-.69-.92-.97l-1.13.07Z"/>
  <path class="cls-1" d="M49.12,48.52h-.77l.48,1.23v.62h.54v-.62l.48-1.23h-.74ZM47.84,47.89h2.62c.2.08.26.22.18.43l-.63,1.61v.78c0,.22-.11.33-.33.33h-1.19c-.21,0-.32-.12-.32-.33v-.78l-.63-1.59v-.14c0-.22.11-.33.33-.33"/>
  <polygon class="cls-3" points="53.45 100.63 53.45 101.11 53.45 101.77 59.63 101.77 59.63 101.11 59.63 100.63 59.46 99.84 53.61 99.84 53.45 100.63"/>
  <polygon class="cls-3" points="54.89 93.42 54.06 96.75 59.02 96.75 58.2 93.42 54.89 93.42"/>
  <polygon class="cls-3" points="54.87 93.71 54.67 94.14 54.67 96.51 54.96 96.51 58.12 96.51 58.42 96.51 58.42 94.14 58.2 93.71 54.87 93.71"/>
  <rect class="cls-7" x="54.87" y="85.56" width="3.33" height="8.16"/>
  <polygon class="cls-3" points="54.2 84.45 54.87 85.56 58.2 85.56 58.87 84.45 54.2 84.45"/>
  <polygon class="cls-3" points="54.84 81.86 54.2 81.86 54.2 84.45 58.87 84.45 58.87 81.86 58.85 81.86 58.23 81.86 54.84 81.86"/>
  <rect class="cls-7" x="54.84" y="65.56" width="3.4" height="16.29"/>
  <polygon class="cls-3" points="54.16 61.32 54.16 65.02 54.84 65.57 58.23 65.57 58.92 65.02 58.92 61.32 54.16 61.32"/>
  <polygon class="cls-3" points="54.43 59.66 53.68 60.51 54.16 61.32 58.92 61.32 59.4 60.51 58.66 59.66 54.43 59.66"/>
  <polygon class="cls-3" points="54.06 58.57 54.43 59.04 54.43 59.66 58.66 59.66 58.66 59.04 59.03 58.57 54.06 58.57"/>
  <polygon class="cls-3" points="53.74 56.59 53.74 57.71 53.99 58.57 59.09 58.57 59.34 57.71 59.34 56.59 53.74 56.59"/>
  <polygon class="cls-3" points="53.74 53.83 53.18 54.57 53.74 56.59 59.34 56.59 59.9 54.57 59.34 53.83 53.74 53.83"/>
  <path class="cls-3" d="M55.88,50.72c-.63.43-1.08,1-1.37,1.71-.09.46-.13.93-.14,1.39h4.32c0-.47-.05-.93-.14-1.39-.27-.71-.73-1.28-1.36-1.71h-1.33Z"/>
  <polygon class="cls-3" points="56.54 48.22 55.29 48.22 55.95 49.89 55.95 50.72 57.14 50.72 57.14 49.89 57.79 48.22 56.54 48.22"/>
  <path class="cls-1" d="M53.78,100.65v.78h5.53v-.79l-.11-.48h-5.32l-.11.49ZM53.13,101.11v-.56l.16-.77c.03-.18.14-.27.32-.27h5.86l.31.25.16.77v1.23c0,.22-.11.33-.33.33h-6.18c-.21,0-.32-.12-.32-.33l.02-.65Z"/>
  <path class="cls-1" d="M55.1,96.86l-.67,2.68h4.14l-.67-2.68h-2.8ZM53.72,99.76l.82-3.31.32-.26h3.3l.31.25.82,3.3v.1c0,.21-.11.32-.32.33h-5.05c-.09-.02-.15-.07-.2-.15-.05-.08-.06-.16-.03-.25"/>
  <path class="cls-1" d="M55.08,93.99l-.09.17v1.94h3.1v-1.94l-.08-.17h-2.94ZM54.38,93.99l.2-.43.29-.17h3.33l.3.17.19.41.05.16v2.36c0,.22-.11.33-.33.33h-3.73c-.22,0-.33-.11-.33-.33v-2.37l.02-.14Z"/>
  <path class="cls-1" d="M55.2,93.35h2.68v-7.42h-2.68v7.42ZM54.55,93.68v-8.16c0-.21.11-.32.32-.32h3.34c.21,0,.32.11.32.32v8.16c0,.21-.11.32-.32.32h-3.34c-.21,0-.32-.12-.32-.33"/>
  <path class="cls-1" d="M54.78,84.76l.27.46h2.97l.27-.46h-3.52ZM54.6,85.73l-.66-1.08-.06-.19c0-.21.11-.32.32-.32h4.68l.16.05.11.45-.66,1.09-.28.17h-3.33l-.28-.15Z"/>
  <path class="cls-1" d="M54.84,82.18h-.31v1.94h4.03v-1.94h-3.72ZM54.2,81.54h4.68c.21,0,.32.12.32.33v2.59c0,.21-.11.32-.32.33h-4.68c-.21,0-.32-.12-.32-.33v-2.59c0-.21.11-.32.32-.33"/>
  <path class="cls-1" d="M55.17,81.54h2.74v-15.65h-2.74v15.65ZM54.52,81.86v-16.27c0-.21.11-.32.32-.32h3.4c.21,0,.32.11.32.32v16.27c0,.21-.11.32-.32.32h-3.4c-.21,0-.32-.11-.32-.32"/>
  <path class="cls-1" d="M54.48,61.65v3.22l.47.38h3.17l.47-.38v-3.22h-4.12ZM53.84,65.02v-3.7c0-.22.11-.33.33-.33h4.76c.22,0,.33.11.33.33v3.7l-.13.25-.66.53-.22.09h-3.4l-.2-.07-.67-.54-.14-.26Z"/>
  <path class="cls-1" d="M54.57,59.99l-.48.56.26.44h4.39l.27-.44-.49-.56h-3.94ZM53.44,60.3l.75-.84.24-.12h4.23l.24.12.73.83v.39l-.46.78-.3.17h-4.76l-.28-.16-.48-.8.09-.38Z"/>
  <path class="cls-1" d="M54.08,59.15l-.3-.37-.08-.21c0-.22.11-.33.33-.33h4.97l.2.07.06.46-.31.39v.52c0,.21-.11.32-.32.32h-4.23c-.21,0-.32-.11-.32-.32v-.52ZM54.69,58.89v.46h3.57v-.46h-3.57Z"/>
  <path class="cls-1" d="M54.07,56.91v.77l.16.56h4.61l.17-.56v-.8l-4.95.04ZM53.42,57.71v-1.12c0-.21.11-.32.32-.33h5.61c.21,0,.32.12.32.33v1.25l-.25.82-.32.25h-5.1l-.31-.23-.24-.82-.03-.15Z"/>
  <path class="cls-1" d="M53.88,54.16l-.37.47.46,1.63h5.11l.46-1.63-.37-.47h-5.28ZM52.92,54.37l.56-.73.27-.15h5.59l.26.13.55.74.07.29-.56,2-.32.26h-5.62l-.32-.23-.56-2.02.08-.28Z"/>
  <path class="cls-1" d="M55.66,50.46l.19-.07h1.33l.19.07c.44.33.83.73,1.15,1.17l.2.35.13.39c.06.3.1.6.13.91v.54c0,.22-.11.33-.33.33h-4.32c-.21,0-.32-.11-.32-.32v-.6c.01-.29.05-.57.12-.85.2-.65.57-1.19,1.1-1.61l.22-.18.15-.12h.06ZM55.97,51.05h-.06l-.19.16c-.42.32-.72.74-.9,1.24-.05.26-.09.53-.12.79v.21h3.65v-.16c-.02-.28-.06-.56-.11-.84l-.08-.24-.15-.26c-.26-.37-.57-.69-.92-.97l-1.13.07Z"/>
  <path class="cls-1" d="M56.57,48.52h-.77l.47,1.23v.62h.53v-.62l.47-1.23h-.72ZM55.29,47.89h2.63c.2.08.26.22.18.43l-.64,1.61v.78c0,.21-.12.32-.33.33h-1.18c-.21,0-.32-.12-.33-.33v-.78l-.62-1.59v-.14c0-.21.11-.32.32-.33"/>
  <rect class="cls-6" x="45.3" y="47.89" width="54.21" height="54.21"/>
</svg>