<?xml version="1.0" encoding="UTF-8"?>
<svg id="ParkGüell" xmlns="http://www.w3.org/2000/svg" viewBox="0 0 152.69 147.57">
  <defs>
    <style>
      .cls-1 {
        fill: none;
      }

      .cls-1, .cls-2 {
        stroke-width: 0px;
      }

      .cls-2 {
        fill: #01352c;
      }
    </style>
  </defs>
  <path class="cls-2" d="M89.37,72.7h-8.1v.6l.63.17c3.39-13.1,2.63-20.2,3.71-29.81l-.64-.07v.65h4.41c.18,0,.33-.06.46-.19.13-.13.19-.28.19-.46s-.06-.33-.19-.46c-.13-.13-.28-.19-.46-.19h-4.41c-.17,0-.31.05-.44.16-.12.11-.19.25-.21.41-1.09,9.82-.33,16.69-3.68,29.63-.05.2,0,.39.12.56.13.16.3.24.51.25h8.1c.16-.02.3-.09.41-.21.11-.12.16-.27.16-.43s-.05-.31-.16-.43c-.11-.12-.24-.19-.41-.21v.04Z"/>
  <path class="cls-2" d="M84.87,73.99h8.1c.21,0,.39-.08.52-.25.12-.17.16-.36.11-.56-3.34-12.93-2.59-19.85-3.68-29.63-.02-.16-.09-.3-.21-.41s-.26-.17-.43-.17h-4.41c-.18,0-.33.06-.46.19-.13.13-.19.28-.19.46s.06.33.19.46c.13.13.28.19.46.19h4.41v-.65l-.65.07c1.08,9.61.33,16.69,3.72,29.81l.62-.16v-.65h-8.1c-.19-.02-.36.03-.51.16-.15.13-.22.29-.22.49s.07.36.22.49.32.18.51.16"/>
  <path class="cls-2" d="M94.62,82.56v-.65h-14.34v-7.92h13.69v8.57h1.29v-9.26c0-.18-.06-.33-.19-.45-.13-.12-.28-.19-.45-.19h-14.98c-.18,0-.33.06-.46.19-.12.13-.19.28-.19.45v9.22c0,.18.06.33.19.46.13.13.28.19.46.19h14.98c.18,0,.33-.06.45-.19.13-.13.19-.28.19-.46l-.64.04Z"/>
  <path class="cls-2" d="M55.6,90.28l.93-8.61-.64-.07.31.56c1.07-.63,1.98-1.44,2.74-2.42.76-.98,1.31-2.07,1.65-3.26.47-1.53.72-3.09.74-4.69v-.34h-.65v.64h5.26c.18,0,.33-.06.45-.19.13-.12.2-.28.2-.46s-.07-.33-.2-.46c-.13-.12-.28-.19-.45-.19h-1.52c-.29,0-.48.13-.59.4-.11.26-.07.5.13.7.13.12.28.19.46.19h5.25v-.64h-.65v.34c0,1.6.25,3.17.74,4.69.34,1.19.89,2.28,1.65,3.26.76.98,1.67,1.79,2.74,2.42l.31-.56-.64.09.34,2.37c.02.18.11.32.25.43.14.11.3.15.48.12.18-.03.32-.11.43-.25.11-.14.15-.3.12-.48l-.34-2.37c-.03-.21-.14-.37-.32-.47-.92-.55-1.71-1.24-2.37-2.09s-1.13-1.79-1.42-2.82c-.44-1.4-.66-2.83-.68-4.29v-.27c.01-.19-.05-.35-.18-.48-.13-.13-.29-.2-.47-.2h-5.25c-.29,0-.48.13-.59.4s-.07.5.13.7c.13.12.28.19.46.19h1.52c.18,0,.33-.06.45-.19.13-.12.2-.28.2-.46s-.07-.33-.2-.46c-.13-.12-.28-.19-.45-.19h-5.26c-.18,0-.34.06-.46.2-.13.13-.19.3-.19.48v.27c0,1.46-.24,2.89-.68,4.29-.29,1.03-.76,1.97-1.42,2.82-.65.85-1.44,1.55-2.36,2.09-.2.11-.31.28-.33.5l-.93,8.6c-.02.18.03.34.14.48.11.14.26.22.44.24.18.02.33-.03.47-.14.14-.11.22-.26.23-.43"/>
  <path class="cls-2" d="M61.9,71.48v3.66c-.02.19.03.36.16.51.13.15.29.22.49.22s.36-.07.49-.22c.13-.15.18-.32.16-.51v-3.66c-.02-.16-.09-.3-.21-.41-.12-.11-.27-.16-.43-.16s-.31.05-.43.16c-.12.11-.19.24-.21.41"/>
  <path class="cls-2" d="M64.52,71.48v3.66c0,.18.06.33.19.46.13.13.28.19.46.19s.33-.06.46-.19c.13-.13.19-.28.19-.46v-3.66c0-.18-.06-.33-.19-.46-.13-.13-.28-.19-.46-.19s-.33.06-.46.19c-.13.13-.19.28-.19.46"/>
  <path class="cls-2" d="M67.15,71.48v3.66c0,.18.06.33.19.46.13.13.28.19.46.19s.33-.06.46-.19.19-.28.19-.46v-3.66c0-.18-.06-.33-.19-.46-.13-.13-.28-.19-.46-.19s-.33.06-.46.19c-.13.13-.19.28-.19.46"/>
  <path class="cls-2" d="M68.04,102.01h-.48c-3.53,0-6.89.77-10.07,2.31-.24.12-.36.31-.35.57v9.45c0,.23.1.4.28.53,3.25,1.98,6.78,2.96,10.59,2.94.19.02.36-.03.51-.16.15-.13.22-.29.22-.49s-.07-.36-.22-.49c-.15-.13-.32-.18-.51-.16-2.46-.01-4.84-.48-7.12-1.39-.7-.28-1.38-.61-2.03-.98-.24-.13-.42-.24-.54-.31l-.13-.08-.36.54h.65v-9.45h-.65l.29.58c3-1.44,6.16-2.16,9.48-2.17h.41c.16,0,.31-.07.42-.19.12-.12.18-.26.19-.42,0-.16-.04-.31-.14-.44s-.24-.21-.4-.23l-.04.04Z"/>
  <path class="cls-2" d="M67.77,103.29h.42c3.32.01,6.48.73,9.48,2.17l.29-.58h-.65v9.45h.69l-.36-.54c-3.02,1.81-6.29,2.72-9.81,2.74-.19-.02-.36.03-.51.16-.15.13-.22.29-.22.49s.07.36.22.49c.15.13.32.18.51.16,3.81.01,7.33-.97,10.59-2.94.19-.13.28-.3.28-.53v-9.45c0-.26-.12-.45-.35-.57-3.21-1.56-6.59-2.33-10.16-2.33h-.48c-.18.01-.33.08-.45.21-.12.13-.18.29-.17.46.01.18.08.32.21.44.13.12.29.17.46.17"/>
  <path class="cls-2" d="M67.21,102.64v14.55c0,.18.06.33.19.46.13.13.28.19.46.19s.33-.06.46-.19c.13-.13.19-.28.19-.46v-14.55c0-.18-.06-.33-.19-.46-.13-.13-.28-.19-.46-.19s-.33.06-.46.19c-.13.13-.19.28-.19.46"/>
  <path class="cls-2" d="M68.02,97.84v-.64c-.14,0-.26-.05-.36-.16-.1-.1-.15-.22-.16-.37v-5.48c0-.14.05-.27.15-.37.1-.1.22-.15.37-.15.14,0,.26.05.36.15.1.1.15.22.15.37v5.48c0,.14-.05.26-.15.36-.1.1-.22.15-.36.16v1.29c.24,0,.47-.05.69-.14.22-.09.42-.22.58-.39.17-.17.3-.36.39-.58.09-.22.14-.45.14-.69v-5.48c0-.24-.05-.47-.14-.69-.09-.22-.22-.42-.39-.59s-.36-.3-.59-.39-.45-.14-.69-.14-.47.05-.69.14c-.22.09-.42.22-.59.39-.17.17-.3.36-.39.59-.09.22-.14.45-.14.69v5.48c0,.24.05.47.14.69.09.22.22.42.39.59.17.17.36.3.59.39s.45.14.69.14v-.65Z"/>
  <path class="cls-2" d="M72.42,96.11v-.65c-.14,0-.26-.05-.36-.15s-.15-.22-.15-.36v-2.01c0-.14.05-.27.15-.37.1-.1.22-.15.36-.15s.27.05.37.15c.1.1.15.22.15.37v2.06c0,.14-.05.26-.15.36-.1.1-.22.15-.37.15v1.3c.24,0,.47-.05.69-.14.22-.09.42-.22.59-.39s.3-.36.39-.59c.09-.22.14-.45.14-.69v-2.06c0-.24-.05-.47-.14-.69-.09-.22-.22-.42-.39-.59s-.36-.3-.59-.39c-.22-.09-.45-.14-.69-.14s-.47.05-.69.14c-.22.09-.42.22-.59.39-.17.17-.3.36-.39.59-.09.22-.14.45-.14.69v2.06c0,.24.05.47.14.69.09.22.22.42.39.59.17.17.36.3.59.39.22.09.45.14.69.14v-.7Z"/>
  <path class="cls-2" d="M63.6,96.11v.65c.24,0,.47-.05.69-.14.22-.09.42-.22.59-.39.17-.17.3-.36.39-.59.09-.22.14-.45.14-.69v-2.01c0-.24-.05-.47-.14-.69-.09-.22-.22-.42-.39-.59s-.36-.3-.59-.39c-.22-.09-.45-.14-.69-.14s-.47.05-.69.14-.42.22-.59.39-.3.36-.39.59c-.09.22-.14.45-.14.69v2.06c0,.24.05.47.14.69.09.22.22.42.39.59s.36.3.59.39c.22.09.45.14.69.14v-1.3c-.14,0-.27-.05-.37-.15s-.15-.22-.15-.36v-2.06c0-.14.05-.27.15-.37.1-.1.22-.15.37-.15s.26.05.36.15c.1.1.15.22.15.37v2.06c0,.14-.05.26-.15.36-.1.1-.22.15-.36.15v.6Z"/>
  <path class="cls-2" d="M85.29,123.02h.64v-25.65c0-.2-.07-.36-.22-.49-.84-.85-1.47-1.83-1.92-2.94-.44-1.11-.65-2.26-.63-3.45,0-.16-.06-.3-.16-.43-.11-.12-.24-.19-.4-.21-1.64-.07-3.19-.47-4.66-1.2-1.23-.78-2.15-2.04-2.48-4.75-.03-.33-.22-.52-.55-.56h-.27c-1.3-.24-2.52-.68-3.67-1.33-.71-.39-1.32-.92-1.81-1.57-.51-.69-.76-1.46-.75-2.32,0-.18-.06-.33-.19-.46-.13-.12-.28-.19-.46-.19-.18,0-.33.06-.45.19-.13.13-.19.28-.2.46,0,.99-.32,1.85-.98,2.58-.96,1.02-2.11,1.73-3.44,2.14-.49.17-.99.31-1.5.42l-.45.09h-.15c-.33.04-.52.23-.56.56-.32,2.71-1.26,3.98-2.47,4.75-1.47.73-3.03,1.13-4.67,1.2-.16.02-.3.09-.4.21-.11.12-.16.26-.16.43.02,1.72-.42,3.32-1.3,4.79-.26.44-.55.85-.88,1.23l-.28.3-.08.07c-.15.13-.23.29-.23.49v25.65c0,.18.06.33.19.45.13.13.28.19.46.19h35.1c.18,0,.33-.06.45-.19.12-.13.19-.28.19-.45h-.64v-.66h-34.44v-25.01h-.65l.42.48c.98-.97,1.74-2.1,2.26-3.38.52-1.28.77-2.61.75-4h-.65l.08.65c1.83-.09,3.56-.55,5.19-1.39,1.59-.98,2.76-2.74,3.08-5.69l-.65-.07.1.64c1.29-.21,2.53-.6,3.72-1.16,1.01-.47,1.89-1.13,2.63-1.96.85-.98,1.27-2.12,1.26-3.42,0-.18-.06-.33-.19-.46-.13-.12-.28-.19-.46-.19-.18,0-.33.06-.45.19-.13.13-.19.28-.2.46,0,1.3.41,2.43,1.26,3.42,1.11,1.2,2.44,2.04,4,2.52.77.27,1.55.47,2.35.6l.09-.64-.65.07c.33,2.94,1.49,4.73,3.08,5.69,1.63.85,3.37,1.31,5.2,1.39l.08-.65h-.65c-.02,1.38.23,2.71.75,3.99.52,1.28,1.28,2.41,2.26,3.38l.43-.48h-.65v25.65h.65,0Z"/>
  <path class="cls-2" d="M67.83,66.99h-.62c.01.77-.2,1.47-.66,2.1-.07.12-.15.22-.25.32-.1.1-.21.18-.33.25-.12.07-.25.12-.38.15s-.27.05-.41.05-.27-.02-.41-.05c-.13-.04-.26-.09-.38-.15-.12-.07-.23-.15-.33-.25-.1-.1-.18-.2-.25-.32-.43-.63-.65-1.33-.65-2.1s.22-1.47.65-2.1c.07-.12.15-.22.25-.32.1-.1.21-.18.33-.25.12-.07.25-.12.38-.15.13-.04.27-.05.41-.05s.27.02.41.05c.13.03.26.09.38.15.12.07.23.15.33.25.1.1.18.2.25.32.45.63.67,1.33.66,2.1h1.29c.01-1.06-.29-2.02-.9-2.88-.13-.2-.29-.38-.46-.54-.18-.16-.37-.3-.58-.41-.21-.11-.43-.2-.66-.25s-.46-.09-.7-.09-.47.03-.7.09-.45.14-.66.25-.4.25-.58.41c-.18.16-.33.34-.46.54-.3.42-.52.88-.68,1.37-.16.49-.23.99-.23,1.51s.08,1.02.23,1.51c.16.49.38.95.68,1.37.13.2.28.38.46.54.18.16.37.3.58.41.21.11.43.2.66.26.23.06.47.09.7.09s.47-.03.7-.09c.23-.06.45-.14.66-.26.21-.11.4-.25.58-.41.18-.16.33-.34.46-.54.62-.86.92-1.82.9-2.88h-.67Z"/>
  <path class="cls-2" d="M67.07,70.1h.07v-.64h-.65v1.37h-2.65v-1.37h-.64v.64h.08c.16-.02.3-.09.41-.21.11-.12.16-.27.16-.43s-.05-.31-.16-.43c-.11-.12-.24-.19-.41-.21h-.07c-.18,0-.33.06-.46.19-.13.13-.19.28-.19.46v2.01c0,.18.06.33.19.46.13.13.28.19.46.19h3.92c.18,0,.33-.06.45-.19.13-.12.2-.28.2-.46v-2.01c0-.18-.06-.34-.2-.46-.13-.12-.28-.19-.45-.19h-.07c-.19-.02-.36.03-.51.16-.15.13-.22.29-.22.49s.07.36.22.49c.15.13.32.18.51.16Z"/>
  <path class="cls-2" d="M79.63,123.67h14.98c.18,0,.33-.07.45-.2.13-.12.19-.27.2-.45v-40.46c0-.18-.07-.33-.2-.45-.12-.13-.27-.2-.45-.2h-14.98c-.18,0-.34.07-.46.2-.12.13-.19.28-.19.45v7.43c0,.18.06.33.19.46.13.13.28.19.46.19.18,0,.33-.06.46-.19.13-.13.19-.28.19-.46v-6.8h13.69v39.2h-14.34c-.18,0-.33.06-.46.19-.13.13-.19.28-.19.46,0,.18.06.33.19.46.13.13.28.19.46.19h0Z"/>
  <path class="cls-2" d="M88.9,40.63v-3.48c.12-.59.41-1.07.88-1.44.21-.21.44-.4.68-.57l.23-.17.08-.05c.27-.18.35-.42.26-.72-.09-.31-.3-.46-.62-.46h-6.52c-.32,0-.53.15-.63.46-.09.31,0,.55.27.73l.08.05c.39.27.75.58,1.08.92.38.34.62.75.71,1.26v3.48c-.02.19.03.36.16.51.13.15.29.22.49.22s.36-.07.49-.22c.13-.15.18-.32.16-.51v-3.48c-.1-.97-.52-1.76-1.28-2.38-.37-.36-.76-.69-1.18-.98l-.34.55v.68h6.56v-.65l-.34-.55c-.42.29-.82.62-1.19.98-.74.62-1.17,1.41-1.28,2.38v3.48c0,.18.06.33.19.46.13.13.28.19.46.19.18,0,.33-.06.46-.19.13-.13.19-.28.19-.46l-.05-.03Z"/>
  <path class="cls-2" d="M87.82,34.38v-7.44c0-.18-.06-.33-.19-.46-.13-.13-.28-.19-.46-.19s-.33.06-.46.19c-.13.13-.19.28-.19.46v7.44c0,.18.06.33.19.46.13.13.28.19.46.19s.33-.06.46-.19c.13-.13.19-.28.19-.46"/>
  <path class="cls-2" d="M85.47,29.58h3.33c.18,0,.33-.06.46-.19.13-.13.19-.28.19-.46s-.06-.33-.19-.46c-.13-.13-.28-.19-.46-.19h-3.31c-.18,0-.33.06-.46.19-.13.13-.19.28-.19.46s.06.33.19.46c.13.13.28.19.46.19"/>
  <path class="cls-2" d="M89.37,40.7v-.65h-4.49c-.18,0-.33.07-.46.2-.12.13-.19.28-.19.45v2.94c0,.18.06.33.19.46.13.13.28.19.46.19h4.48c.18,0,.33-.06.45-.19.13-.13.19-.28.19-.46v-2.94c0-.18-.06-.33-.19-.45-.12-.13-.27-.2-.45-.2v.65h-.65v2.28h-3.19v-1.63h3.84v-.65h0Z"/>
  <rect class="cls-1" x="49.32" y="26.29" width="46.18" height="97.38"/>
</svg>