<?xml version="1.0" encoding="UTF-8"?>
<svg id="PalauNacional" xmlns="http://www.w3.org/2000/svg" viewBox="0 0 152.69 147.57">
  <defs>
    <style>
      .cls-1 {
        fill: #f3c100;
      }

      .cls-1, .cls-2, .cls-3, .cls-4, .cls-5, .cls-6, .cls-7, .cls-8, .cls-9 {
        stroke: #02352c;
        stroke-miterlimit: 10;
        stroke-width: .1px;
      }

      .cls-1, .cls-5, .cls-6, .cls-9 {
        fill-rule: evenodd;
      }

      .cls-10 {
        fill: none;
        stroke-width: 0px;
      }

      .cls-2, .cls-9 {
        fill: #fff;
      }

      .cls-3 {
        fill: #1e1f1c;
      }

      .cls-4 {
        fill: #542a24;
      }

      .cls-5, .cls-8 {
        fill: #01352c;
      }

      .cls-6, .cls-7 {
        fill: #cbdad8;
      }
    </style>
  </defs>
  <polygon class="cls-6" points="94.75 78.52 87.23 78.52 87.23 78.54 87.3 78.54 87.32 78.54 87.53 78.54 87.53 78.73 87.53 79.59 87.53 79.79 87.32 79.79 87.21 79.79 87.21 81.2 88.1 80.77 88.1 81.43 94.75 81.43 94.75 79.82 94.75 78.86 94.75 78.52"/>
  <path class="cls-5" d="M94.5,78.77h-6.73v.99l-.25.25h-.07v.78l.54-.26.33.11v.52h6.15v-2.41l.03.02ZM87.23,78.28h7.52l.25.25v2.93l-.25.25h-6.65l-.25-.25v-.27l-.52.25h-.13l-.25-.24v-1.42l.25-.25h.08v-.74h-.06l-.25-.25.25-.26Z"/>
  <polygon class="cls-6" points="93.35 78.52 86.86 76.19 86.86 77.2 87.03 77.2 87.47 77.2 87.7 77.2 87.7 77.41 87.7 78.34 87.7 78.52 93.35 78.52"/>
  <path class="cls-5" d="M91.93,78.28l-4.83-1.74v.42h.61l.25.25v1.08h3.98ZM86.97,75.95l6.47,2.33.18.24-.25.25h-5.64l-.25-.25v-1.08h-.6l-.26-.25v-1.08l.34-.17Z"/>
  <polygon class="cls-6" points="57.94 78.52 65.46 78.52 65.46 78.53 65.4 78.53 65.38 78.53 65.16 78.53 65.16 78.73 65.16 79.59 65.16 79.78 65.38 79.78 65.48 79.78 65.48 81.19 64.59 80.77 64.59 81.42 57.94 81.42 57.94 79.82 57.94 78.85 57.94 78.52"/>
  <path class="cls-5" d="M58.18,78.76h6.73v.99l.25.24h.07v.78l-.54-.26-.33.12v.51h-6.17v-2.41.03ZM65.46,78.28h-7.52l-.25.24v2.94l.25.25h6.65l.25-.25v-.27l.52.25h.13l.25-.25v-1.41l-.25-.25h-.07v-.75h.05l.25-.25-.25-.25Z"/>
  <polygon class="cls-6" points="59.35 78.52 65.83 76.18 65.83 77.19 65.67 77.19 65.22 77.19 64.99 77.19 64.99 77.4 64.99 78.34 64.99 78.52 59.35 78.52"/>
  <path class="cls-5" d="M60.78,78.28l4.83-1.74v.41h-.61l-.24.25v1.08h-3.99ZM65.74,75.95l-6.47,2.33-.18.24.25.24h5.64l.25-.24v-1.09h.61l.25-.25v-1.07l-.34-.17Z"/>
  <polygon class="cls-9" points="87.52 78.16 87.78 78.16 88.55 78.16 88.55 77.31 88.06 77.31 87.49 77.31 85.16 77.31 85.16 77.81 85.16 78 84.9 78 84.68 78 84.68 78.06 84.68 78.16 87.35 78.16 87.52 78.16"/>
  <path class="cls-5" d="M87.51,77.91h.77v-.37h-2.89v.37h2.11ZM87.77,78.41h-3.1l-.25-.25v-.13l.25-.25h.23v-.45l.26-.26h3.37l.25.26v.84l-.25.25-.76-.02Z"/>
  <polygon class="cls-9" points="65.17 78.15 64.91 78.15 64.15 78.15 64.15 77.3 64.63 77.3 65.2 77.3 67.53 77.3 67.53 77.8 67.53 77.99 67.79 77.99 68.02 77.99 68.02 78.05 68.02 78.15 65.35 78.15 65.17 78.15"/>
  <path class="cls-5" d="M65.17,78.4h-.99l-.25-.25v-.85l.22-.26h3.38l.25.25v.45h.24l.25.25v.15l-.25.25h-2.88l.03.02ZM64.91,77.9h2.37v-.36h-2.89v.36h.52Z"/>
  <polygon class="cls-6" points="85.18 79.6 87.82 79.6 87.98 79.6 88.14 79.6 88.14 78.16 88.12 78.16 87.84 78.16 85.33 78.16 85.33 78.91 85.33 79.23 85.16 79.23 85.16 79.3 85.18 79.6"/>
  <path class="cls-8" d="M88.14,80.01h-2.98c-.25,0-.39-.12-.41-.38v-.39l.11-.31.07-.05v-.73c0-.11.04-.21.12-.29.08-.08.18-.12.29-.12h2.79c.12,0,.21.04.3.11.08.08.13.18.13.29v1.44c0,.11-.04.21-.12.29-.08.08-.18.12-.29.12M85.74,79.2h1.98v-.63h-1.98v.63Z"/>
  <polygon class="cls-6" points="67.51 79.59 64.87 79.59 64.71 79.59 64.54 79.59 64.54 78.15 64.57 78.15 64.85 78.15 67.35 78.15 67.35 78.9 67.35 79.22 67.53 79.22 67.53 79.3 67.51 79.59"/>
  <path class="cls-5" d="M67.5,79.84h-2.98l-.25-.25v-1.44l.25-.25h2.81l.25.25v.87l.18.24v.38l-.26.21ZM64.87,79.35h2.25v-.95h-2.31v.99l.06-.04Z"/>
  <rect class="cls-7" x="70.37" y="76.79" width="11.74" height="7.11"/>
  <polygon class="cls-6" points="64.83 77.13 64.83 74.96 64.83 74.69 67.4 74.69 67.4 74.96 85.28 74.96 85.28 74.7 87.86 74.7 87.86 74.96 87.86 77.13 87.86 77.31 78.07 77.31 76.4 76.61 73.25 77.31 64.83 77.31 64.83 77.13"/>
  <path class="cls-5" d="M64.58,77.13v-2.44l.25-.25h2.57l.25.25h17.38l.25-.25h2.57l.25.25v2.61l-.25.24h-9.91l-1.59-.66-3.08.68h-8.46l-.25-.24v-.18h.02ZM65.08,74.96v2.08h8.14l3.12-.69h.16l1.62.68h9.5v-2.13h-2.07l-.25.25h-17.86l-.25-.25h-2.07l-.02.06Z"/>
  <polygon class="cls-6" points="67.4 74.96 85.29 74.96 85.27 77.29 78.49 77.29 76.48 76.57 75.08 77.29 67.39 77.29 67.4 74.96"/>
  <path class="cls-5" d="M67.4,74.72h17.86l.25.25v2.29l-.25.24h-6.89l-1.88-.67-1.3.67h-7.81l-.25-.24v-2.29l.26-.25ZM85.03,75.21h-17.38v1.83h7.41l1.35-.69h.19l1.98.71h6.4l.05-1.85ZM85.53,74.99l-.25.22.25-.22Z"/>
  <rect class="cls-7" x="67.86" y="73.25" width="16.97" height="1.71"/>
  <path class="cls-5" d="M84.58,74.73v-1.24h-16.46v1.22h16.47v.02ZM85.07,73.25v1.71l-.25.25h-16.97l-.25-.24v-1.71l.25-.25h16.97l.25.24Z"/>
  <path class="cls-6" d="M82.32,83.9h-.61c.13-.87.06-1.71-.21-2.55-.27-.83-.7-1.57-1.31-2.2-.24-.26-.51-.49-.8-.69-.29-.2-.6-.37-.93-.51-.33-.14-.66-.24-1.01-.32-.35-.07-.7-.11-1.05-.11s-.71.04-1.05.11c-.35.07-.68.18-1.01.32s-.63.31-.93.51c-.29.2-.56.43-.8.69-.6.63-1.04,1.37-1.3,2.2s-.33,1.68-.21,2.55h-.66v-4.47h.13v-.13l-.51-1.64,6.32-3.55,5.79,3.68v.28h3.27v1.51h2.69v4.3h-2.98v-4.3h.09v-.18h-2.98v2.58c.05.66.05,1.32,0,1.98M67.43,83.9h-2.85v-4.3h2.75v-.16h.08v.16h.09v4.3h-.09.02Z"/>
  <path class="cls-5" d="M82.31,84.17h-.61l-.25-.25v-.25c.01-.19.01-.38,0-.56,0-.72-.13-1.41-.41-2.07l-.13-.31c-.26-.51-.59-.98-.99-1.38l-.41-.37-.45-.34c-.7-.47-1.48-.74-2.32-.81-.84-.07-1.65.06-2.43.4l-.29.14c-.5.26-.95.59-1.34.99l-.36.41-.32.46c-.55.88-.82,1.83-.81,2.87v.77l-.21.28h-.69l-.25-.25v-4.47l.1-.2-.47-1.5.12-.29,6.32-3.55h.27l5.76,3.67.12.25h2.98l.25.25v1.27h2.46l.25.25v4.3l-.25.25h-2.98l-.25-.25v-4.23h-2.38v2.34c.05.66.05,1.32,0,1.98l-.05.21ZM81.97,83.66h.1c.04-.56.04-1.11,0-1.67v-2.56l.25-.25h2.86v-.84h-3.06l-.21-.28v-.12l-5.57-3.53-6.02,3.38.45,1.43v.21l-.13.21v4.02h.14v-.56c0-1.13.29-2.17.88-3.13.12-.18.23-.35.36-.5l.39-.45c.43-.44.91-.8,1.46-1.08l.32-.16c.7-.31,1.43-.46,2.19-.45,1.11,0,2.12.31,3.04.92.17.11.33.24.49.36l.45.42c.43.45.78.95,1.05,1.5l.14.34c.3.72.45,1.47.45,2.25,0,.19,0,.38,0,.57M76.5,73.92l.07.07-.07-.07ZM87.86,79.85h-2.44v3.81h2.44v-3.81ZM67.44,84.15h-2.85l-.25-.25v-4.3l.25-.25h2.53l.24-.16h.08l.24.21.1.2v4.29l-.25.25h-.09ZM65.46,83.66h1.82v-3.82h-2.44v3.81h.63Z"/>
  <rect class="cls-4" x="68.44" y="67.23" width="15.98" height="4.6"/>
  <polygon class="cls-3" points="68.45 71.83 68.45 72.23 84.43 72.23 84.72 72.12 84.84 71.83 84.84 67.23 84.72 66.94 84.43 66.82 68.45 66.82 68.17 66.94 68.05 67.23 68.05 71.83 68.17 72.12 68.45 72.23 68.45 71.83 68.85 71.83 68.85 67.64 84.02 67.64 84.02 71.42 68.45 71.42 68.45 71.83 68.85 71.83 68.45 71.83"/>
  <rect class="cls-7" x="64.12" y="83.9" width="24.34" height="2.15"/>
  <path class="cls-8" d="M88.45,86.46h-24.3c-.11,0-.21-.04-.29-.12-.08-.08-.12-.17-.12-.29v-2.15c0-.11.04-.21.12-.29.08-.08.18-.12.29-.12h24.33c.11,0,.21.04.29.12s.12.17.12.29v2.15c0,.11-.04.21-.12.29s-.18.12-.29.12M64.52,85.65h23.52v-1.34h-23.52v1.34Z"/>
  <rect class="cls-7" x="66.58" y="97.71" width="19.73" height="8.31"/>
  <path class="cls-5" d="M86.3,106.27h-19.74l-.25-.25v-8.31l.25-.25h19.74l.25.25v8.3l-.25.26ZM66.82,105.77h19.24v-7.81h-19.24v7.81Z"/>
  <rect class="cls-4" x="66.82" y="89.46" width="18.81" height="5.43"/>
  <polygon class="cls-6" points="65.59 87.56 87.01 87.56 86.78 86.05 65.82 86.05 65.59 87.56"/>
  <polygon class="cls-6" points="70.4 94.9 69.95 94.9 69.48 94.9 69.15 94.9 68.93 94.9 68.57 94.9 68.34 94.9 68.03 94.9 67.8 94.9 67.48 94.9 66.89 94.9 66.82 94.9 66.63 94.9 65.63 94.9 65.63 87.56 66.36 87.56 66.89 87.56 69.95 87.56 70.41 87.56 72.11 87.56 72.52 87.56 74.22 87.56 74.67 87.56 78.24 87.56 78.52 87.56 80.22 87.56 80.64 87.56 82.33 87.56 82.61 87.56 85.63 87.56 86.38 87.56 86.7 87.56 86.7 94.9 86.12 94.9 85.63 94.9 85.27 94.9 84.95 94.9 84.73 94.9 84.37 94.9 84.15 94.9 83.82 94.9 83.6 94.9 83.28 94.9 82.61 94.9 82.35 94.9 82.08 94.9 80.62 94.9 80.24 94.9 78.51 94.9 78.38 94.9 78.24 94.9 77.97 94.9 76.66 94.9 76.39 94.9 75.09 94.9 74.77 94.9 74.67 94.9 74.24 94.9 72.51 94.9 72.12 94.9 70.4 94.9"/>
  <polygon class="cls-6" points="64.69 96.5 86.89 96.5 86.89 95.85 86.89 95.5 86.92 95.5 86.92 95.49 86.7 94.9 64.88 94.9 64.67 95.49 64.66 95.5 64.69 95.5 64.69 95.85 64.69 96.5"/>
  <path class="cls-8" d="M86.97,96.91h-22.28c-.11,0-.21-.04-.29-.12-.08-.08-.12-.17-.12-.29v-1.16l.22-.58c.06-.18.19-.27.38-.27h21.83c.19,0,.32.08.39.27l.22.58v1.16c0,.11-.04.21-.12.29-.08.08-.18.12-.29.12M65.14,96.1h21.38v-.6l-.07-.18h-21.31l-.07.18.07.6Z"/>
  <path class="cls-5" d="M65.83,87.32h20.84l-.16-.99h-20.48l-.2.99ZM86.97,87.81h-21.42l-.21-.29.24-1.51.24-.21h20.97l.24.21.24,1.5v.05l-.29.25Z"/>
  <polygon class="cls-6" points="86.63 106.02 85.48 106.02 85.48 98.61 82.28 98.61 82.28 106.02 78.91 106.02 78.91 98.61 73.84 98.61 73.84 106.02 70.47 106.02 70.47 98.61 67.27 98.61 67.27 106.02 66.11 106.02 66.11 96.5 86.63 96.5 86.63 106.02"/>
  <path class="cls-5" d="M86.61,106.26h-1.14l-.25-.24v-7.16h-2.7v7.16l-.25.24h-3.37l-.25-.24v-7.16h-4.58v7.16l-.25.24h-3.36l-.25-.24v-7.16h-2.71v7.16l-.25.24h-1.12l-.25-.24v-9.51l.25-.25h20.52l.25.25v9.51l-.25.24h-.04ZM85.72,105.77h.66v-9.02h-20.02v9.02h.66v-7.16l.24-.25h3.2l.24.25v7.16h2.89v-7.16l.24-.25h5.07l.25.25v7.16h2.86v-7.16l.25-.25h3.19l.25.25.02,7.16Z"/>
  <polygon class="cls-6" points="67.86 63.59 67.6 63.59 67.6 65.49 85.09 65.49 85.09 63.59 84.83 63.59 67.86 63.59"/>
  <path class="cls-5" d="M67.86,63.83v1.41h17.01v-1.41h-17.01ZM67.59,63.34h17.5l.25.25v1.91l-.25.25h-17.5l-.25-.25v-1.91l.25-.25Z"/>
  <rect class="cls-7" x="66.84" y="65.5" width="19.01" height="1.34"/>
  <path class="cls-5" d="M66.84,65.25h19.01l.25.24v1.34l-.25.25h-19.01l-.25-.25v-1.34l.25-.23ZM85.6,65.74h-18.48v.85h18.51l-.04-.85Z"/>
  <polygon class="cls-6" points="67.2 77.8 67.02 77.8 66.85 77.8 66.85 76.79 70.37 76.79 73.32 75.21 76.32 73.61 79.33 75.21 82.24 76.86 85.91 76.86 85.91 77.8 85.69 77.8 82.02 77.79 76.32 74.58 76.26 74.54 76.19 74.58 70.34 77.8 67.2 77.8"/>
  <path class="cls-5" d="M67.24,78.05h-.37l-.24-.25v-.99l.24-.25h3.46l2.9-1.55,2.98-1.61h.24l2.98,1.61,2.84,1.61h3.6l.25.25v.94l-.25.25h-3.98l-5.65-3.18-5.78,3.15h-.12l-3.1.02ZM67.12,77.56h3.19l5.8-3.19h.37l5.64,3.18h3.57v-.45h-3.54l-2.9-1.65-2.89-1.54-2.89,1.54-2.98,1.58h-3.37v.53Z"/>
  <polygon class="cls-6" points="67.2 79.43 67.1 79.43 67.02 79.43 67.02 77.8 70.53 77.8 70.53 79.43 67.2 79.43"/>
  <path class="cls-5" d="M67.2,79.68h-.19l-.25-.25v-1.63l.25-.25h3.51l.25.25v1.62l-.25.25h-3.32ZM67.25,79.19h3.03v-1.16h-3.03v1.16Z"/>
  <polygon class="cls-6" points="81.95 77.8 85.68 77.81 85.68 79.18 81.95 79.18 81.95 77.8"/>
  <path class="cls-5" d="M81.95,77.54h3.73l.25.24v1.37l-.25.25h-3.73l-.25-.24v-1.37l.25-.25ZM85.43,78.03h-3.23v.89h3.23v-.89Z"/>
  <rect class="cls-7" x="67.43" y="79.43" width="1.14" height="4.47"/>
  <path class="cls-5" d="M68.57,84.15h-1.14l-.25-.25v-4.47l.25-.25h1.14l.25.25v4.47l-.25.25ZM67.68,83.66h.64v-3.96h-.64v3.96Z"/>
  <rect class="cls-2" x="68.57" y="79.43" width=".55" height="4.47"/>
  <path class="cls-5" d="M69.12,84.15h-.55l-.25-.25v-4.47l.25-.25h.54l.24.25v4.47l-.23.25ZM68.82,83.66h.05v-3.96h-.05v3.96Z"/>
  <rect class="cls-7" x="69.12" y="79.43" width="1.28" height="4.47"/>
  <path class="cls-5" d="M70.36,84.15h-1.25l-.25-.25v-4.47l.25-.25h1.28l.25.25v4.47l-.28.25ZM69.37,83.66h.78v-3.96h-.78v3.96Z"/>
  <path class="cls-6" d="M74.07,83.9h-1.84c-.05-.27-.08-.54-.08-.82,0-1.19.4-2.21,1.22-3.08.2-.21.43-.4.66-.56l.03,4.46Z"/>
  <path class="cls-5" d="M74.04,84.15h-1.84l-.25-.21v-.83c0-.63.11-1.23.35-1.81l.12-.26c.22-.45.5-.85.84-1.21l.08-.08.1-.1c.16-.15.33-.28.52-.41l.35.06v4.63l-.27.21ZM72.41,83.66h1.38v-3.74l-.08.07-.08.08-.08.08c-.3.32-.55.68-.74,1.08l-.11.24c-.21.52-.31,1.06-.32,1.62-.02.18-.02.37,0,.55l.03.02Z"/>
  <path class="cls-6" d="M77.97,83.9h-3.19v-4.89c.51-.21,1.04-.31,1.59-.32.55,0,1.09.11,1.6.33v4.88Z"/>
  <path class="cls-5" d="M78.04,84.15h-3.19l-.25-.25v-4.89l.17-.23.21-.08.23-.08c.4-.12.81-.17,1.23-.18.3,0,.59.03.88.09h.13c.23.05.46.12.68.22l.15.23v4.89l-.25.28ZM75.06,83.66h2.7v-4.47l-.46-.14h-.12c-.26-.05-.52-.08-.78-.08-.37,0-.74.05-1.09.16l-.2.07-.05,4.46Z"/>
  <path class="cls-6" d="M80.54,83.9h-1.83v-4.48c.6.42,1.07.95,1.41,1.59.34.65.5,1.34.5,2.06,0,.28-.03.55-.08.82"/>
  <path class="cls-5" d="M80.54,84.15h-1.83l-.25-.25v-4.48l.25-.25h.14l.09.06.09.07.47.42.32.36.28.41c.47.77.71,1.6.7,2.5v.49l-.05.36-.21.32ZM78.97,83.66h1.36v-.57c0-.81-.21-1.56-.64-2.25l-.26-.36-.27-.32-.22-.22.02,3.71Z"/>
  <path class="cls-6" d="M81.68,83.9h-1.14c.05-.27.08-.54.08-.82,0-1.2-.41-2.24-1.25-3.11-.24-.25-.51-.47-.8-.65l-.42-.23c-.56-.27-1.15-.41-1.78-.41s-1.22.14-1.78.41l-.42.23c-.29.19-.56.4-.8.65-.84.87-1.26,1.9-1.25,3.11,0,.28.03.55.08.82h-1.11c-.13-.86-.06-1.71.21-2.55.26-.83.7-1.57,1.3-2.2.24-.26.51-.49.8-.69.29-.2.6-.37.93-.51.33-.14.66-.24,1.01-.32.35-.07.7-.11,1.05-.11s.71.04,1.05.11c.35.07.68.18,1.01.32.33.14.64.31.93.51.29.2.56.43.8.69.61.63,1.04,1.37,1.31,2.2.27.83.34,1.68.21,2.55"/>
  <path class="cls-5" d="M81.68,84.15h-1.14l-.25-.25v-.27c.01-.18.01-.37,0-.55,0-.56-.11-1.1-.32-1.62l-.11-.24c-.19-.4-.44-.75-.74-1.07l-.09-.09v-.06c-.17-.16-.35-.29-.55-.42l-.41-.23-.22-.1-.23-.08c-.4-.13-.8-.2-1.22-.2-.29,0-.58.04-.86.1h-.13c-.22.07-.44.15-.65.25l-.42.23-.11.07-.11.08c-.19.14-.37.29-.54.45l-.27.32-.26.36c-.42.69-.63,1.44-.63,2.25v.77l-.2.29h-1.14l-.25-.23v-.84c0-.78.15-1.53.45-2.25l.14-.34c.27-.56.62-1.06,1.05-1.5l.45-.42c.16-.12.32-.25.49-.36.92-.61,1.93-.92,3.04-.92.76,0,1.49.15,2.18.45l.33.16c.55.28,1.03.64,1.46,1.08l.39.45c.12.16.24.33.35.5.6.96.9,2,.89,3.13v.84l-.37.25ZM81.34,83.66h.12v-.56c0-1.03-.27-1.99-.81-2.87l-.32-.46-.36-.41c-.39-.4-.83-.73-1.33-.99l-.29-.14c-.63-.28-1.29-.41-1.98-.42-1,0-1.92.28-2.76.83l-.45.34-.41.38c-.4.41-.74.87-.99,1.38l-.14.31c-.27.66-.4,1.35-.4,2.07-.01.19-.01.38,0,.56h.64v-.56c0-.9.23-1.74.71-2.5l.28-.41.31-.36c.18-.19.38-.35.6-.5l.12-.09.12-.08.43-.24c.24-.11.5-.2.75-.28h.15c.33-.07.66-.11.99-.11.47,0,.93.08,1.38.23l.26.1.24.1.42.24c.22.14.43.3.63.47l.11.11.1.1c.35.36.63.76.84,1.21l.12.26c.24.58.35,1.18.35,1.81,0,.19,0,.38,0,.57l.59-.09Z"/>
  <polygon class="cls-6" points="83.97 83.89 83.97 83.38 83.97 79.18 85.26 79.18 85.26 83.47 85.26 83.89 85.26 83.9 83.97 83.9 83.97 83.89"/>
  <path class="cls-5" d="M83.72,83.89v-4.73l.25-.25h1.29l.24.25v4.72l-.24.25h-1.27l-.25-.25h-.02ZM84.22,83.38v.28h.79v-4.24h-.79v3.97Z"/>
  <polygon class="cls-6" points="82.29 83.89 82.29 83.37 82.29 79.18 83.44 79.18 83.44 83.46 83.44 83.89 83.44 83.9 82.29 83.9 82.29 83.89"/>
  <path class="cls-5" d="M82.04,83.89v-4.73l.25-.25h1.14l.25.25v4.72l-.25.25h-1.14l-.25-.25h0ZM82.53,83.36v.3h.64v-4.24h-.64v3.95Z"/>
  <rect class="cls-7" x="67.44" y="72.13" width="17.8" height="1.12"/>
  <path class="cls-5" d="M67.69,73.01h17.29v-.63h-17.29v.63ZM85.24,73.5h-17.8l-.25-.25v-1.16l.25-.25h17.8l.25.25v1.12l-.25.29Z"/>
  <rect class="cls-7" x="68" y="66.83" width="16.7" height="5.29"/>
  <path class="cls-5" d="M68.24,71.88h16.21v-4.8h-16.21v4.8ZM84.7,72.37h-16.7l-.26-.25v-5.29l.26-.25h16.7l.25.25v5.26l-.25.28Z"/>
  <path class="cls-1" d="M78.31,53.5v.44l.2.07-.2-.07c-1.32-.52-2.65-.52-3.97,0v-.44h3.97Z"/>
  <path class="cls-3" d="M78.31,53.5h-.41v.44l.26.38.19.07h.32l.22-.22v-.32l-.22-.22-.19-.07-.16.38.17-.38c-.65-.28-1.33-.41-2.04-.41-.76,0-1.5.13-2.21.41l.16.38h3.93v-.81h-3.97l-.29.12-.12.29v.44l.18.34h.39l.13-.05c.57-.18,1.16-.28,1.77-.29.6,0,1.17.1,1.72.34l.19.07h.32l.22-.22v-.32l-.22-.22-.19-.07-.16.38h.41v-.44l-.12-.29-.29-.12.03.42Z"/>
  <rect class="cls-4" x="74.87" y="49.81" width="2.97" height="2.56"/>
  <polygon class="cls-3" points="74.87 52.38 74.87 52.78 77.83 52.78 78.13 52.66 78.25 52.38 78.25 49.81 78.13 49.53 77.83 49.41 74.87 49.41 74.59 49.53 74.47 49.81 74.47 52.38 74.59 52.66 74.87 52.78 74.87 52.38 75.28 52.38 75.28 50.22 77.43 50.22 77.43 51.97 74.87 51.97 74.87 52.38 75.28 52.38 74.87 52.38"/>
  <path class="cls-5" d="M75.06,48.67h2.56v-1.3c-.05-.31-.21-.56-.48-.73-.35-.27-.55-.62-.61-1.06v-.69h-.43v.69c-.05.44-.25.79-.61,1.06-.26.18-.42.42-.48.73l.03,1.3ZM77.87,49.16h-3.06l-.25-.25v-1.54c.06-.46.28-.83.65-1.11.26-.18.41-.43.43-.75v-.87l.25-.25h.91l.25.25v.84c.03.31.17.57.43.75.38.27.6.64.65,1.11v1.54l-.27.28Z"/>
  <polygon class="cls-6" points="74.42 52.55 74.42 51.15 74.74 51.15 74.74 49.68 77.94 49.68 77.94 51.15 78.28 51.15 78.28 52.55 74.42 52.55"/>
  <path class="cls-5" d="M74.17,52.55v-1.4l.24-.24h.09v-1.24l.25-.25h3.19l.25.25v1.24h.09l.25.24v1.39l-.25.25h-3.87l-.24-.24ZM74.66,51.4v.92h3.38v-.91h-.09l-.25-.25v-1.23h-2.7v1.23l-.25.25h-.1Z"/>
  <path class="cls-5" d="M74.3,48.67h4.09l.25.25v.75l-.25.24h-4.09l-.25-.24v-.76l.25-.24ZM78.14,49.16h-3.59v.27h3.59v-.27Z"/>
  <path class="cls-6" d="M84.35,63.58h-16.01c.35-4.73,2.8-8.59,6.04-9.73,1.32-.5,2.65-.5,3.97,0,3.97,1.59,5.75,5.78,6.04,9.73"/>
  <path class="cls-5" d="M84.41,63.82h-16.07l-.25-.24c.05-.66.14-1.32.27-1.98.13-.62.3-1.23.51-1.83,1.05-2.97,3.03-5.3,5.43-6.14l.54-.17c.19-.05.39-.09.58-.12,1.02-.16,2.01-.06,2.98.31.56.22,1.08.5,1.58.83.48.33.92.7,1.32,1.11,1,1.1,1.78,2.34,2.35,3.71.57,1.37.88,2.8.95,4.29l-.23.26.07-.03ZM68.6,63.34h15.48c-.08-1.38-.39-2.71-.93-3.98-.54-1.27-1.27-2.42-2.2-3.45-.38-.39-.8-.74-1.25-1.05-.47-.31-.96-.57-1.48-.78-.88-.33-1.78-.42-2.7-.27l-.53.1-.49.16c-2.25.79-4.13,2.97-5.13,5.85-.2.58-.36,1.16-.49,1.76-.11.55-.19,1.1-.24,1.65"/>
  <rect class="cls-7" x="74.08" y="52.55" width="4.52" height=".95"/>
  <path class="cls-5" d="M74.07,52.32h4.52l.25.25v.94l-.25.25h-4.52l-.25-.25v-.99l.25-.2ZM78.36,52.8h-4.03v.5h4.03v-.5Z"/>
  <path class="cls-5" d="M76.05,41.57c0-.15.07-.26.25-.26s.24.11.25.26v2.97c0,.15-.08.26-.25.26s-.24-.11-.25-.26v-2.97Z"/>
  <path class="cls-5" d="M75.61,50.42c0-.15.07-.26.24-.26s.24.11.26.26v1.41c0,.07-.02.14-.07.19s-.12.07-.19.07c-.17,0-.23-.11-.24-.26v-1.41ZM76.6,50.42c0-.15.07-.26.24-.26s.24.11.25.26v1.41c0,.15-.08.26-.25.26s-.23-.11-.24-.26v-1.41Z"/>
  <path class="cls-6" d="M69.17,71.35h1.24v-2.58c0-.65-.28-1.18-.63-1.18s-.62.52-.62,1.18v2.58Z"/>
  <path class="cls-5" d="M69.42,71.11h.74v-2.33c0-.25-.05-.49-.15-.72l-.23-.21-.22.22c-.1.23-.16.46-.16.71v2.33h0ZM70.41,71.6h-1.24l-.25-.25v-2.54c-.01-.35.06-.68.21-.99.1-.32.32-.48.66-.48s.56.16.66.48c.15.3.21.61.21.94v2.56l-.25.28Z"/>
  <path class="cls-6" d="M71.76,71.35h1.24v-2.58c0-.65-.28-1.18-.62-1.18s-.63.52-.63,1.18v2.58Z"/>
  <path class="cls-5" d="M72.02,71.11h.74v-2.33c0-.25-.04-.49-.15-.72l-.22-.21-.23.22c-.1.23-.15.46-.15.71v2.33ZM73.01,71.6h-1.25l-.25-.25v-2.54c0-.35.06-.68.21-.99.1-.32.32-.48.66-.48s.56.16.66.48c.15.3.21.61.21.94v2.56l-.24.28Z"/>
  <path class="cls-6" d="M74.35,71.35h1.25v-2.58c0-.65-.28-1.18-.63-1.18s-.63.52-.63,1.18v2.58Z"/>
  <path class="cls-5" d="M74.61,71.11h.75v-2.33c0-.25-.05-.49-.16-.72l-.22-.21-.22.22c-.11.22-.17.46-.16.71v2.33ZM75.6,71.6h-1.25l-.24-.25v-2.54c-.01-.35.06-.68.21-.99.1-.32.32-.48.65-.48s.56.16.65.48c.14.3.22.61.22.94v2.56l-.25.28Z"/>
  <path class="cls-6" d="M76.95,71.35h1.24v-2.58c0-.65-.28-1.18-.63-1.18s-.62.52-.62,1.18v2.58Z"/>
  <path class="cls-5" d="M77.2,71.11h.74v-2.33c0-.25-.05-.49-.15-.72l-.23-.21-.22.22c-.1.23-.16.46-.16.71v2.33h0ZM78.19,71.6h-1.24l-.25-.25v-2.54c-.01-.35.06-.68.21-.99.1-.32.32-.48.66-.48s.56.16.66.48c.14.3.21.61.21.94v2.56l-.25.28Z"/>
  <path class="cls-6" d="M79.54,71.35h1.24v-2.58c0-.65-.28-1.18-.62-1.18s-.63.52-.63,1.18v2.58Z"/>
  <path class="cls-5" d="M79.79,71.11h.74v-2.33c0-.25-.04-.49-.15-.72l-.22-.21-.23.22c-.1.23-.15.46-.15.71v2.33ZM80.79,71.6h-1.25l-.25-.25v-2.54c-.01-.35.06-.68.21-.99.1-.32.32-.48.66-.48s.56.16.66.48c.15.3.21.61.21.94v2.56l-.24.28Z"/>
  <path class="cls-6" d="M82.13,71.35h1.25v-2.58c0-.65-.28-1.18-.63-1.18s-.63.52-.63,1.18v2.58Z"/>
  <path class="cls-5" d="M82.38,71.11h.75v-2.33c0-.25-.05-.49-.16-.72l-.22-.21-.22.22c-.11.22-.17.46-.16.71v2.33ZM83.38,71.6h-1.25l-.24-.25v-2.54c-.01-.35.06-.68.21-.99.1-.32.32-.48.65-.48s.56.16.65.48c.14.3.22.61.22.94v2.56l-.25.28Z"/>
  <rect class="cls-7" x="74.97" y="90.66" width="2.62" height="4.28"/>
  <path class="cls-5" d="M75.22,94.77h2.12v-3.89h-2.12v3.89ZM74.72,94.94v-4.28l.25-.25h2.62l.25.25v4.28h-3.12Z"/>
  <rect class="cls-8" x="76.03" y="90.74" width=".5" height="4.2"/>
  <rect class="cls-2" x="69.15" y="93.27" width="1.65" height="1.62"/>
  <path class="cls-5" d="M69.4,94.65h1.15v-1.14h-1.15v1.14ZM70.8,95.15h-1.69l-.25-.25v-1.63l.25-.25h1.65l.25.25v1.62l-.21.26Z"/>
  <rect class="cls-2" x="69.15" y="87.56" width="1.65" height="1.02"/>
  <path class="cls-5" d="M69.15,87.32h1.65l.25.25v.99l-.25.25h-1.69l-.25-.25v-.99l.29-.25ZM70.55,87.81h-1.15v.52h1.15v-.52Z"/>
  <rect class="cls-7" x="69.42" y="88.58" width="1.11" height="4.7"/>
  <path class="cls-5" d="M69.66,93.02h.62v-4.19h-.62v4.19ZM70.53,93.52h-1.11l-.25-.25v-4.69l.25-.25h1.11l.25.25v4.69l-.25.25Z"/>
  <rect class="cls-2" x="72.15" y="93.27" width="1.65" height="1.62"/>
  <path class="cls-5" d="M72.39,94.65h1.16v-1.14h-1.16v1.14ZM73.8,95.15h-1.66l-.25-.25v-1.63l.25-.25h1.66l.24.25v1.62l-.24.26Z"/>
  <rect class="cls-2" x="72.15" y="87.56" width="1.65" height="1.02"/>
  <path class="cls-5" d="M72.14,87.32h1.66l.25.25v.99l-.25.25h-1.66l-.24-.25v-.99l.24-.25ZM73.55,87.81h-1.16v.52h1.16v-.52Z"/>
  <rect class="cls-7" x="72.42" y="88.58" width="1.11" height="4.7"/>
  <path class="cls-5" d="M72.66,93.02h.62v-4.19h-.62v4.19ZM73.53,93.52h-1.11l-.25-.25v-4.69l.25-.25h1.11l.24.25v4.69l-.24.25Z"/>
  <rect class="cls-2" x="81.76" y="93.27" width="1.65" height="1.62"/>
  <path class="cls-5" d="M83.17,94.65h-1.16v-1.14h1.16v1.14ZM81.76,95.15h1.65l.25-.25v-1.63l-.25-.25h-1.65l-.25.25v1.62l.25.26Z"/>
  <rect class="cls-2" x="81.76" y="87.56" width="1.65" height="1.02"/>
  <path class="cls-5" d="M83.41,87.32h-1.65l-.25.25v.99l.25.25h1.65l.25-.25v-.99l-.25-.25ZM82.01,87.81h1.15v.52h-1.15v-.52Z"/>
  <rect class="cls-7" x="82.04" y="88.58" width="1.11" height="4.7"/>
  <path class="cls-5" d="M82.87,93.02h-.62v-4.19h.62v4.19ZM82.01,93.52h1.11l.25-.25v-4.69l-.25-.25h-1.11l-.25.25v4.69l.25.25Z"/>
  <rect class="cls-2" x="78.76" y="93.27" width="1.65" height="1.62"/>
  <path class="cls-5" d="M80.16,94.65h-1.13v-1.14h1.15l-.02,1.14ZM78.76,95.15h1.65l.25-.25v-1.63l-.25-.25h-1.65l-.25.25v1.62l.25.26Z"/>
  <rect class="cls-2" x="78.76" y="87.56" width="1.65" height="1.02"/>
  <path class="cls-5" d="M80.44,87.32h-1.65l-.25.25v.99l.25.25h1.65l.25-.25v-.99l-.25-.25ZM79.03,87.81h1.16v.52h-1.16v-.52Z"/>
  <rect class="cls-7" x="79.03" y="88.58" width="1.11" height="4.7"/>
  <path class="cls-5" d="M79.89,93.02h-.62v-4.19h.62v4.19ZM79.03,93.52h1.11l.25-.25v-4.69l-.25-.25h-1.11l-.25.25v4.69l.25.25Z"/>
  <rect class="cls-8" x="76.12" y="98.61" width=".49" height="7.41"/>
  <polygon class="cls-3" points="76.12 106.02 76.12 106.08 76.62 106.08 76.68 106.08 76.68 98.55 76.12 98.55 76.06 98.55 76.06 106.08 76.12 106.08 76.12 106.02 76.18 106.02 76.18 98.67 76.56 98.67 76.56 105.96 76.12 105.96 76.12 106.02 76.18 106.02 76.12 106.02"/>
  <path class="cls-6" d="M109.67,84.69s-7.82-3.69-14.92-4.68v1.41h-1.71l2.12,4.61,1.92-1.29h12.7l-.14-.07h.02Z"/>
  <path class="cls-5" d="M108.67,84.51c-4.39-1.98-8.96-3.38-13.7-4.2v1.13l-.25.25h-1.32l1.84,3.96,1.69-1.13h11.75ZM94.78,79.77c7.02.94,14.63,4.51,14.98,4.68h.14l.15.23-.25.25h-12.64l-1.86,1.25-.32-.12-2.12-4.6v-.12l.25-.25h1.46v-1.08l.21-.24Z"/>
  <polygon class="cls-6" points="137.63 86.46 96.05 86.46 96.15 86.15 95.18 86.15 95.18 85.63 95.23 85.63 95.18 84.95 95.18 84.76 140.14 84.76 138.12 86.14 137.63 86.46"/>
  <path class="cls-5" d="M137.63,86.7h-41.59l-.24-.25v-.06h-.63l-.25-.25v-1.39l.25-.25h44.96l.25.25-.13.21-1.98,1.37-.48.33-.16.04ZM96.38,86.21h41.19l.41-.28,1.37-.93h-43.92l.05.58-.05.15v.21h.79l.16.27Z"/>
  <rect class="cls-7" x="97.03" y="88.37" width="41.02" height="7.59"/>
  <path class="cls-5" d="M97.27,95.71h40.53v-7.1h-40.53v7.1ZM97.75,96.21h-.73l-.24-.25v-7.6l.24-.24h41.02l.25.24v7.6l-.25.25h-40.28Z"/>
  <rect class="cls-4" x="97.98" y="96.49" width="38.29" height="5.66"/>
  <rect class="cls-7" x="97.03" y="95.96" width="40.41" height="10.05"/>
  <path class="cls-5" d="M97.27,105.77h39.92v-9.56h-39.92v9.56ZM137.43,106.27h-40.4l-.25-.25v-10.06l.25-.25h40.4l.25.25v10.06l-.25.25Z"/>
  <polygon class="cls-6" points="97.03 88.37 97.03 86.93 97.03 86.46 137.88 86.46 137.88 87.2 137.88 87.45 138.05 87.45 138.05 88.37 97.03 88.37"/>
  <path class="cls-5" d="M96.78,88.35v-1.9l.25-.25h40.85l.25.25v.75l.16.24v.91l-.24.25h-41.02l-.25-.25ZM97.27,86.93v1.2h40.52v-.45l-.16-.23v-.75h-40.36v.23Z"/>
  <rect class="cls-2" x="89" y="82.32" width="6.58" height="21.59"/>
  <rect class="cls-7" x="86.64" y="95.77" width="10.39" height="10.24"/>
  <path class="cls-5" d="M97.03,106.27h-10.4l-.25-.25v-10.25l.25-.25h10.4l.25.25v10.25l-.25.25ZM86.88,105.77h9.92v-9.75h-9.92v9.75Z"/>
  <rect class="cls-7" x="86.64" y="86.82" width="10.39" height="7.49"/>
  <path class="cls-5" d="M97.03,94.56h-10.4l-.25-.25v-7.49l.25-.25h10.4l.25.25v7.49l-.25.25ZM86.88,94.06h9.92v-6.99h-9.92v6.99Z"/>
  <polygon class="cls-6" points="87.97 85.36 95.71 85.36 95.71 82.07 95.71 81.5 93.78 80.44 91.84 79.38 89.91 80.44 87.97 81.5 87.97 82.07 87.97 85.36"/>
  <path class="cls-5" d="M88.22,85.11h7.24v-3.46l-1.81-.99-1.82-.99-1.82.99-1.81.99v3.46ZM95.71,85.6h-7.75l-.25-.25v-3.85l.13-.22,1.93-1.06,1.98-1.06h.17l1.98,1.06,1.92,1.06.14.22v3.85l-.27.25Z"/>
  <polygon class="cls-6" points="86.63 86.82 97.03 86.82 97.38 85.36 86.28 85.36 86.63 86.82"/>
  <path class="cls-5" d="M86.83,86.57h10l.23-.99h-10.47l.24.99ZM97.03,87.07h-10.4l-.24-.2-.35-1.45v-.06l.25-.25h11.14l.19.3-.35,1.45-.25.21Z"/>
  <polygon class="cls-6" points="86.63 95.77 97.03 95.77 97.38 94.31 86.28 94.31 86.63 95.77"/>
  <path class="cls-5" d="M86.83,95.53h10l.23-.99h-10.47l.24.99ZM97.03,96.02h-10.4l-.24-.19-.35-1.45v-.07l.25-.25h11.14l.19.3-.35,1.45-.25.21Z"/>
  <rect class="cls-4" x="110.82" y="71.52" width="8.05" height="11.23"/>
  <rect class="cls-7" x="109.7" y="77.64" width="10.36" height="7.11"/>
  <path class="cls-5" d="M120.05,85h-10.35l-.25-.25v-7.11l.25-.25h10.35l.25.25v7.11l-.25.25ZM109.94,84.51h9.86v-6.62h-9.86v6.62Z"/>
  <polygon class="cls-6" points="120.08 77.68 109.68 77.68 109.33 76.45 120.43 76.45 120.08 77.68"/>
  <path class="cls-5" d="M120.07,77.93h-10.39l-.25-.19-.34-1.23.17-.3h11.15l.25.25v.09l-.35,1.22-.25.16ZM109.86,77.44h10.02l.22-.74h-10.44l.2.74Z"/>
  <polygon class="cls-6" points="119.43 70.76 119.43 72.09 119.43 73.02 119.43 75.09 120.49 75.09 120.28 76.45 118.88 76.45 111.17 76.45 109.48 76.45 109.24 75.01 110.32 75.01 110.32 73.02 110.32 71.48 110.32 70.76 119.43 70.76"/>
  <path class="cls-5" d="M119.68,70.77v4.07h.8l.25.25v.06l-.21,1.34-.26.21h-10.8l-.24-.22-.24-1.41.21-.28h.86v-4.01l.25-.25h9.12l.25.24ZM119.19,72.1v-1.09h-8.62v3.96l-.25.25h-.78l.16.94h10.37l.14-.87h-.76l-.25-.25v-2.97.03Z"/>
  <path class="cls-9" d="M114.05,63.71h.53v-1.1c.02-.08,0-.16-.06-.22-.05-.06-.12-.1-.21-.1s-.15.03-.21.1c-.05.06-.07.14-.06.22v1.1Z"/>
  <path class="cls-5" d="M114.28,63.47v-.92.92ZM114.57,63.96h-.53l-.25-.24v-1.11l.13-.38.38-.19.37.19.14.38v1.1l-.24.25Z"/>
  <path class="cls-9" d="M115.18,63.71h.57v-1.1c.02-.08,0-.16-.06-.22-.05-.06-.12-.1-.21-.1s-.15.03-.21.1-.07.14-.06.22l-.04,1.1Z"/>
  <path class="cls-5" d="M115.17,62.06v-.92.92ZM115.45,62.54l.26,1.41h-.53l-.25-.24v-1.11l.14-.38.38-.19.38.19.13.38v1.1l-.51-1.17Z"/>
  <polygon class="cls-6" points="119.31 69.64 119.77 70 119.43 70.76 110.32 70.76 109.99 70 110.44 69.64 119.31 69.64"/>
  <path class="cls-5" d="M119.47,69.47l.45.34.07.3-.33.76-.23.15h-9.12l-.23-.15-.3-.74.08-.3.46-.35.15-.06h8.86l.14.05ZM119.47,70.08l-.24-.19h-8.7l-.24.19.19.44h8.8l.19-.44ZM119.47,69.47l.08.18-.08-.18Z"/>
  <polygon class="cls-6" points="117.34 65.55 119.25 68.12 119.25 68.59 110.51 68.59 110.51 68.12 112.41 65.55 117.34 65.55"/>
  <path class="cls-5" d="M117.55,65.41l1.89,2.56v.62l-.25.25h-8.72l-.25-.25v-.6l1.9-2.57.2-.1h4.96l.28.09ZM119,68.2l-1.79-2.4h-4.67l-1.76,2.4v.15h8.24l-.02-.15Z"/>
  <polygon class="cls-6" points="117.38 64.08 117.6 64.5 117.34 65.55 112.42 65.55 112.16 64.5 112.38 64.08 117.38 64.08"/>
  <path class="cls-5" d="M117.6,63.97l.22.42v.2l-.25.99-.24.19h-4.96l-.24-.21-.26-.99v-.18l.23-.43.22-.13h4.96l.32.14ZM117.33,64.53l-.11-.21h-4.69l-.11.21.19.77h4.53l.19-.77Z"/>
  <polygon class="cls-6" points="116.8 61.72 117.15 61.72 117.15 62.78 117.37 64.08 112.38 64.08 112.61 62.78 112.61 61.72 112.67 61.72 112.94 61.72 116.8 61.72"/>
  <path class="cls-5" d="M116.8,61.47h.34l.25.24v1.05l.23,1.28-.21.28h-5.03l-.25-.24v-.06l.23-1.26v-1.05l.25-.24h4.2,0ZM116.9,61.96h-4.06v.86l-.18.99h4.42l-.18-.99v-.87h0Z"/>
  <polygon class="cls-6" points="116.74 60.31 117.09 60.31 117.09 61.17 116.8 61.71 112.94 61.71 112.67 61.17 112.67 60.31 113.02 60.31 116.74 60.31"/>
  <path class="cls-5" d="M116.73,60.06h.37l.24.25v1.04l-.28.53-.22.13h-3.86l-.23-.15-.28-.53v-.97l.25-.25h4.02v-.05ZM116.84,60.55h-3.97v.55l.19.36h3.56l.19-.36.03-.55Z"/>
  <polygon class="cls-6" points="116.39 57.94 116.73 59.36 116.73 60.31 116.18 60.31 115.98 60.31 115.45 60.31 115.15 60.31 114.61 60.31 114.3 60.31 113.78 60.31 113.6 60.31 113.02 60.31 113.02 59.36 113.37 57.94 116.39 57.94"/>
  <path class="cls-5" d="M116.63,57.9l.34,1.39v.99l-.25.25h-3.71l-.24-.25v-.99l.35-1.4.24-.18h2.98l.3.19ZM116.48,59.39l-.29-1.2h-2.63l-.29,1.2v.67h3.2v-.67Z"/>
  <polygon class="cls-6" points="116.6 57.11 116.6 57.45 116.6 57.7 116.38 57.94 113.37 57.94 113.16 57.7 113.16 57.45 113.16 57.11 113.16 57.06 113.33 57.06 116.43 57.06 116.6 57.06 116.6 57.11"/>
  <path class="cls-5" d="M116.83,57.11v.58l-.06.17-.21.24-.19.09h-2.98l-.2-.1-.2-.24-.06-.16v-.63l.25-.25h3.42l.25.25-.03.05ZM116.34,57.45v-.14h-2.98v.3l.08.09h2.79l.07-.09.04-.16Z"/>
  <polygon class="cls-6" points="116.02 56.13 116.42 56.13 116.42 57.06 113.33 57.06 113.33 56.13 113.48 56.13 113.73 56.13 116.02 56.13"/>
  <path class="cls-5" d="M116.02,55.89h.4l.25.25v.93l-.25.25h-3.09l-.25-.25v-.93l.25-.25h2.69ZM116.17,56.37h-2.6v.44h2.6v-.44Z"/>
  <path class="cls-6" d="M114.4,54.95c-.37.31-.57.7-.61,1.19h2.15c0-.52-.2-.93-.63-1.24-.32-.13-.62-.12-.92.05"/>
  <path class="cls-5" d="M114.54,55.11l-.33.41-.12.34h1.55c-.02-.33-.17-.59-.45-.77l-.65.03ZM113.76,55.33c.11-.23.27-.43.48-.58.36-.22.74-.24,1.13-.08h.05c.5.34.75.81.74,1.41l-.24.26h-2.16l-.21-.28c.03-.26.11-.52.22-.76"/>
  <rect class="cls-7" x="110.25" y="68.59" width="9.27" height="1.05"/>
  <path class="cls-5" d="M110.49,69.4h8.76v-.55h-8.76v.55ZM119.5,69.89h-9.26l-.25-.25v-1.05l.25-.25h9.26l.25.25v1.05l-.25.25Z"/>
  <rect class="cls-7" x="90.84" y="89.06" width="1.98" height="3.53"/>
  <path class="cls-5" d="M92.82,92.84h-1.98l-.25-.25v-3.53l.25-.25h1.98l.25.25v3.52l-.25.26ZM91.09,92.34h1.49v-3.04h-1.49v3.04Z"/>
  <rect class="cls-2" x="89.06" y="96.75" width="1.18" height="2.11"/>
  <path class="cls-5" d="M90.24,99.11h-1.18l-.25-.25v-2.11l.25-.25h1.18l.25.25v2.1l-.25.26ZM89.31,98.61h.69v-1.61h-.69v1.61Z"/>
  <rect class="cls-2" x="91.25" y="96.75" width="1.18" height="2.11"/>
  <path class="cls-5" d="M92.42,99.11h-1.18l-.25-.25v-2.11l.25-.25h1.18l.25.25v2.1l-.25.26ZM91.48,98.61h.69v-1.61h-.69v1.61Z"/>
  <rect class="cls-2" x="93.42" y="96.75" width="1.18" height="2.11"/>
  <path class="cls-5" d="M94.6,99.11h-1.19l-.25-.25v-2.11l.25-.25h1.19l.25.25v2.1l-.25.26ZM93.66,98.61h.69v-1.61h-.69v1.61Z"/>
  <rect class="cls-2" x="89.06" y="100.63" width="1.18" height="2.11"/>
  <path class="cls-5" d="M90.24,102.97h-1.18l-.25-.25v-2.1l.25-.25h1.18l.25.25v2.13l-.25.22ZM89.31,102.49h.69v-1.61h-.69v1.61Z"/>
  <rect class="cls-2" x="91.25" y="100.63" width="1.18" height="2.11"/>
  <path class="cls-5" d="M92.42,102.97h-1.18l-.25-.25v-2.1l.25-.25h1.18l.25.25v2.13l-.25.22ZM91.48,102.49h.69v-1.61h-.69v1.61Z"/>
  <rect class="cls-2" x="93.42" y="100.63" width="1.18" height="2.11"/>
  <path class="cls-5" d="M94.6,102.97h-1.19l-.25-.25v-2.1l.25-.25h1.19l.25.25v2.13l-.25.22ZM93.66,102.49h.69v-1.61h-.69v1.61Z"/>
  <rect class="cls-7" x="98.69" y="88.37" width="1.18" height="7.6"/>
  <path class="cls-5" d="M99.87,96.21h-1.18l-.25-.25v-7.6l.25-.24h1.18l.25.24v7.59l-.25.26ZM98.93,95.71h.68v-7.1h-.68v7.1Z"/>
  <rect class="cls-2" x="98.46" y="95.07" width="1.65" height=".89"/>
  <path class="cls-5" d="M100.11,96.21h-1.66l-.24-.25v-.89l.24-.25h1.66l.25.25v.88l-.25.26ZM98.71,95.71h1.16v-.4h-1.15v.4Z"/>
  <rect class="cls-2" x="98.46" y="88.37" width="1.65" height=".71"/>
  <path class="cls-5" d="M100.11,89.32h-1.66l-.24-.25v-.7l.24-.26h1.66l.25.26v.7l-.25.25ZM98.71,88.83h1.16v-.21h-1.15v.21Z"/>
  <rect class="cls-7" x="103.15" y="88.37" width="1.18" height="7.6"/>
  <path class="cls-5" d="M104.33,96.21h-1.19l-.24-.25v-7.6l.24-.24h1.19l.25.24v7.59l-.25.26ZM103.4,95.71h.68v-7.1h-.68v7.1Z"/>
  <rect class="cls-2" x="102.91" y="95.07" width="1.65" height=".89"/>
  <path class="cls-5" d="M104.56,96.21h-1.65l-.25-.25v-.89l.25-.25h1.65l.25.25v.88l-.25.26ZM103.16,95.71h1.15v-.4h-1.15v.4Z"/>
  <rect class="cls-2" x="102.91" y="88.37" width="1.65" height=".71"/>
  <path class="cls-5" d="M104.56,89.32h-1.65l-.25-.25v-.7l.25-.26h1.65l.25.26v.7l-.25.25ZM103.16,88.83h1.15v-.21h-1.15v.21Z"/>
  <rect class="cls-7" x="107.61" y="88.37" width="1.18" height="7.6"/>
  <path class="cls-5" d="M108.79,96.21h-1.18l-.25-.25v-7.6l.25-.24h1.19l.25.24v7.59l-.26.26ZM107.85,95.71h.69v-7.1h-.69v7.1Z"/>
  <rect class="cls-2" x="107.38" y="95.07" width="1.65" height=".89"/>
  <path class="cls-5" d="M109.03,96.21h-1.65l-.25-.25v-.89l.25-.25h1.65l.24.25v.88l-.24.26ZM107.63,95.71h1.17v-.4h-1.15l-.02.4Z"/>
  <rect class="cls-2" x="107.38" y="88.37" width="1.65" height=".71"/>
  <path class="cls-5" d="M109.03,89.32h-1.65l-.25-.25v-.7l.25-.26h1.65l.24.26v.7l-.24.25ZM107.63,88.83h1.17v-.21h-1.15l-.02.21Z"/>
  <rect class="cls-7" x="112.07" y="88.37" width="1.18" height="7.6"/>
  <path class="cls-5" d="M113.25,96.21h-1.18l-.25-.25v-7.6l.25-.24h1.18l.25.24v7.59l-.25.26ZM112.32,95.71h.68v-7.1h-.68v7.1Z"/>
  <rect class="cls-2" x="111.83" y="95.07" width="1.65" height=".89"/>
  <path class="cls-5" d="M113.48,96.21h-1.65l-.25-.25v-.89l.25-.25h1.65l.25.25v.88l-.25.26ZM112.08,95.71h1.16v-.4h-1.16v.4Z"/>
  <rect class="cls-2" x="111.83" y="88.37" width="1.65" height=".71"/>
  <path class="cls-5" d="M113.48,89.32h-1.65l-.25-.25v-.7l.25-.26h1.65l.25.26v.7l-.25.25ZM112.08,88.83h1.16v-.21h-1.16v.21Z"/>
  <rect class="cls-7" x="116.53" y="88.37" width="1.18" height="7.6"/>
  <path class="cls-5" d="M117.67,96.21h-1.18l-.25-.25v-7.6l.25-.24h1.24l.25.24v7.59l-.31.26ZM116.74,95.71h.68v-7.1h-.68v7.1Z"/>
  <rect class="cls-2" x="116.3" y="95.07" width="1.65" height=".89"/>
  <path class="cls-5" d="M117.95,96.21h-1.65l-.25-.25v-.89l.25-.25h1.65l.25.25v.88l-.25.26ZM116.55,95.71h1.18v-.4h-1.15l-.03.4Z"/>
  <rect class="cls-2" x="116.3" y="88.37" width="1.65" height=".71"/>
  <path class="cls-5" d="M117.95,89.32h-1.65l-.25-.25v-.7l.25-.26h1.65l.25.26v.7l-.25.25ZM116.55,88.83h1.18v-.21h-1.15l-.03.21Z"/>
  <rect class="cls-7" x="120.99" y="88.37" width="1.18" height="7.6"/>
  <path class="cls-5" d="M122.17,96.21h-1.18l-.25-.25v-7.6l.25-.24h1.18l.25.24v7.59l-.25.26ZM121.24,95.71h.68v-7.1h-.68v7.1Z"/>
  <rect class="cls-2" x="120.76" y="95.07" width="1.65" height=".89"/>
  <path class="cls-5" d="M122.4,96.21h-1.65l-.25-.25v-.89l.25-.25h1.65l.25.25v.88l-.25.26ZM121,95.71h1.16v-.4h-1.16v.4Z"/>
  <rect class="cls-2" x="120.76" y="88.37" width="1.65" height=".71"/>
  <path class="cls-5" d="M122.4,89.32h-1.65l-.25-.25v-.7l.25-.26h1.65l.25.26v.7l-.25.25ZM121,88.83h1.16v-.21h-1.16v.21Z"/>
  <rect class="cls-7" x="125.45" y="88.37" width="1.18" height="7.6"/>
  <path class="cls-5" d="M126.6,96.21h-1.18l-.25-.25v-7.6l.25-.24h1.24l.25.24v7.59l-.31.26ZM125.67,95.71h.69v-7.1h-.69v7.1Z"/>
  <rect class="cls-2" x="125.22" y="95.07" width="1.65" height=".89"/>
  <path class="cls-5" d="M126.87,96.21h-1.65l-.25-.25v-.89l.25-.25h1.65l.25.25v.88l-.25.26ZM125.47,95.71h1.19v-.4h-1.19v.4Z"/>
  <rect class="cls-2" x="125.22" y="88.37" width="1.65" height=".71"/>
  <path class="cls-5" d="M126.87,89.32h-1.65l-.25-.25v-.7l.25-.26h1.65l.25.26v.7l-.25.25ZM125.47,88.83h1.19v-.21h-1.19v.21Z"/>
  <rect class="cls-7" x="129.91" y="88.37" width="1.18" height="7.6"/>
  <path class="cls-5" d="M131.09,96.21h-1.18l-.25-.25v-7.6l.25-.24h1.18l.25.24v7.59l-.25.26ZM130.16,95.71h.68v-7.1h-.68v7.1Z"/>
  <rect class="cls-2" x="129.67" y="95.07" width="1.65" height=".89"/>
  <path class="cls-5" d="M131.32,96.21h-1.69l-.24-.25v-.89l.24-.23h1.65l.25.25v.88l-.21.24ZM129.92,95.71h1.16v-.4h-1.16v.4Z"/>
  <rect class="cls-2" x="129.67" y="88.37" width="1.65" height=".71"/>
  <path class="cls-5" d="M131.32,89.32h-1.69l-.24-.25v-.7l.24-.26h1.65l.25.26v.7l-.21.25ZM129.92,88.83h1.16v-.21h-1.16v.21Z"/>
  <rect class="cls-7" x="134.38" y="88.37" width="1.18" height="7.6"/>
  <path class="cls-5" d="M135.53,96.21h-1.18l-.25-.25v-7.6l.25-.24h1.24l.25.24v7.59l-.31.26ZM134.6,95.71h.69v-7.1h-.69v7.1Z"/>
  <rect class="cls-2" x="134.14" y="95.07" width="1.65" height=".89"/>
  <path class="cls-5" d="M135.79,96.21h-1.65l-.25-.25v-.89l.25-.25h1.65l.25.25v.88l-.25.26ZM134.39,95.71h1.2v-.4h-1.15l-.05.4Z"/>
  <rect class="cls-2" x="134.14" y="88.37" width="1.65" height=".71"/>
  <path class="cls-5" d="M135.79,89.32h-1.65l-.25-.25v-.7l.25-.26h1.65l.25.26v.7l-.25.25ZM134.39,88.83h1.2v-.21h-1.15l-.05.21Z"/>
  <rect class="cls-7" x="91.19" y="82.35" width="1.29" height="1.95"/>
  <path class="cls-5" d="M92.48,84.54h-1.29l-.25-.25v-1.98l.25-.25h1.29l.24.25v1.98l-.24.25ZM91.43,84.04h.79v-1.44h-.79v1.44Z"/>
  <rect class="cls-7" x="137.43" y="96.22" width="14.57" height="9.8"/>
  <path class="cls-5" d="M137.68,105.77h14.07v-9.31h-14.07v9.31ZM152,106.27h-14.57l-.25-.25v-9.8l.25-.25h14.57l.25.25v9.79l-.25.26Z"/>
  <rect class="cls-7" x="137.42" y="87.02" width="14.58" height="9.2"/>
  <path class="cls-5" d="M152,96.46h-14.58l-.25-.25v-9.2l.25-.25h14.58l.25.25v9.19l-.25.26ZM151.18,95.97h.58v-8.7h-14.08v8.7h13.5Z"/>
  <rect class="cls-7" x="137.03" y="85.87" width="15.37" height="1.15"/>
  <path class="cls-5" d="M152.4,87.27h-15.37l-.25-.25v-1.15l.25-.25h15.37l.25.25v1.14l-.25.26ZM137.27,86.77h14.88v-.65h-14.88v.65Z"/>
  <polygon class="cls-6" points="144.9 82.38 141.32 84.13 137.75 85.87 144.9 85.87 152.07 85.87 148.49 84.13 144.9 82.38"/>
  <path class="cls-5" d="M144.9,82.65l-3.47,1.7-2.62,1.28h12.18l-2.62-1.28-3.47-1.7ZM141.21,83.9l3.58-1.74h.22l3.58,1.74,3.56,1.74.16.23-.25.25h-14.32l-.18-.18.12-.33,3.52-1.71Z"/>
  <rect class="cls-7" x="140.82" y="97.98" width="1.18" height="5.39"/>
  <path class="cls-5" d="M141.99,103.62h-1.18l-.25-.25v-5.39l.25-.25h1.18l.26.25v5.38l-.26.26ZM141.05,103.12h.69v-4.9h-.69v4.9Z"/>
  <rect class="cls-7" x="143.02" y="97.98" width="1.18" height="5.39"/>
  <path class="cls-5" d="M144.2,103.62h-1.18l-.25-.25v-5.39l.25-.25h1.18l.25.25v5.38l-.25.26ZM143.27,103.12h.69v-4.9h-.69v4.9Z"/>
  <rect class="cls-7" x="145.23" y="97.98" width="1.18" height="5.39"/>
  <path class="cls-5" d="M146.44,103.62h-1.18l-.25-.25v-5.39l.25-.25h1.18l.25.25v5.38l-.25.26ZM145.51,103.12h.68v-4.9h-.68v4.9Z"/>
  <rect class="cls-7" x="147.44" y="97.98" width="1.18" height="5.39"/>
  <path class="cls-5" d="M148.63,103.62h-1.13l-.25-.25v-5.39l.25-.25h1.18l.25.25v5.38l-.3.26ZM147.69,103.12h.68v-4.9h-.68v4.9Z"/>
  <path class="cls-5" d="M100.56,98.08c0-.15.07-.26.25-.26s.24.11.25.26v1.98c0,.15-.08.26-.25.26s-.24-.11-.25-.26v-1.98ZM98.84,98.08c0-.15.07-.26.25-.26s.23.11.25.26v1.98c0,.15-.08.26-.25.26s-.24-.11-.25-.26v-1.98ZM102.29,98.08c0-.15.07-.26.25-.26s.24.11.25.26v1.98c0,.15-.08.26-.25.26s-.23-.11-.25-.26v-1.98M104.03,98.08c0-.15.07-.26.24-.26s.24.11.25.26v1.98c0,.15-.08.26-.26.26s-.23-.11-.24-.26v-1.98ZM105.75,98.08c0-.15.07-.26.24-.26s.24.11.26.26v1.98c0,.15-.08.26-.26.26s-.23-.11-.24-.26v-1.98ZM107.48,98.08c0-.15.07-.26.24-.26s.24.11.26.26v1.98c0,.15-.08.26-.26.26s-.23-.11-.24-.26v-1.98M109.2,98.08c0-.15.07-.26.25-.26s.24.11.25.26v1.98c0,.15-.08.26-.25.26s-.24-.11-.25-.26v-1.98ZM110.93,98.08c0-.15.07-.26.25-.26s.24.11.25.26v1.98c0,.15-.08.26-.25.26s-.24-.11-.25-.26v-1.98M112.67,98.08c0-.15.07-.26.24-.26s.24.11.25.26v1.98c0,.15-.08.26-.25.26s-.23-.11-.24-.26v-1.98ZM114.39,98.08c0-.15.07-.26.24-.26s.24.11.26.26v1.98c0,.15-.08.26-.26.26s-.23-.11-.24-.26v-1.98ZM116.12,98.08c0-.15.07-.26.24-.26s.24.11.26.26v1.98c0,.15-.08.26-.26.26s-.23-.11-.24-.26v-1.98M117.85,98.08c0-.15.07-.26.24-.26.07,0,.14.02.19.07.05.05.08.12.07.19v1.98c0,.07-.02.14-.07.19-.05.05-.12.08-.19.07-.17,0-.23-.11-.24-.26v-1.98ZM119.57,98.08c0-.15.07-.26.25-.26s.24.11.25.26v1.98c0,.15-.08.26-.25.26s-.24-.11-.25-.26v-1.98M121.31,98.08c0-.15.07-.26.24-.26s.24.11.25.26v1.98c0,.15-.08.26-.25.26s-.23-.11-.24-.26v-1.98ZM123.04,98.08c0-.15.07-.26.24-.26s.24.11.25.26v1.98c0,.15-.08.26-.25.26s-.23-.11-.24-.26v-1.98M124.76,98.08c0-.15.07-.26.24-.26s.24.11.26.26v1.98c0,.15-.08.26-.26.26s-.23-.11-.24-.26v-1.98M126.49,98.08c0-.15.07-.26.24-.26s.24.11.26.26v1.98c0,.15-.08.26-.25.26s-.24-.11-.25-.26v-1.98ZM128.22,98.08c0-.15.07-.26.25-.26s.24.11.25.26v1.98c0,.15-.08.26-.25.26s-.24-.11-.25-.26v-1.98M129.94,98.08c0-.15.07-.26.25-.26s.24.11.25.26v1.98c0,.15-.08.26-.25.26s-.23-.11-.25-.26v-1.98ZM131.68,98.08c0-.15.07-.26.24-.26s.24.11.25.26v1.98c0,.15-.08.26-.25.26s-.23-.11-.24-.26v-1.98M133.4,98.08c0-.15.07-.26.24-.26s.24.11.25.26v1.98c0,.15-.08.26-.25.26s-.23-.11-.24-.26v-1.98M135.13,98.08c0-.15.07-.26.24-.26s.24.11.26.26v1.98c0,.15-.08.26-.26.26s-.23-.11-.24-.26v-1.98Z"/>
  <rect class="cls-7" x="143.68" y="91.78" width="2.05" height="3.65"/>
  <path class="cls-5" d="M145.74,95.67h-2.05l-.25-.25v-3.65l.25-.25h2.05l.25.25v3.65l-.25.25ZM143.93,95.18h1.58v-3.16h-1.56l-.02,3.16Z"/>
  <rect class="cls-7" x="141.17" y="87.02" width="1.18" height="9.2"/>
  <path class="cls-5" d="M142.35,96.46h-1.19l-.24-.25v-9.2l.24-.25h1.19l.24.25v9.19l-.24.26ZM141.41,95.97h.69v-8.7h-.69v8.7Z"/>
  <rect class="cls-2" x="140.89" y="94.84" width="1.76" height="1.37"/>
  <path class="cls-5" d="M142.61,96.45h-1.74l-.25-.24v-1.37l.25-.24h1.77l.24.24v1.38l-.24.24h-.03ZM141.12,95.97h1.27v-.89h-1.27v.89Z"/>
  <rect class="cls-2" x="140.89" y="87.02" width="1.76" height=".85"/>
  <path class="cls-5" d="M142.61,88.12h-1.74l-.25-.25v-.85l.25-.25h1.77l.24.25v.9l-.24.25-.03-.05ZM141.12,87.63h1.27v-.37h-1.27v.37Z"/>
  <rect class="cls-7" x="147.07" y="87.02" width="1.18" height="9.2"/>
  <path class="cls-5" d="M147.07,96.46h1.19l.24-.25v-9.2l-.24-.25h-1.19l-.25.25v9.19l.25.26ZM148,95.97h-.68v-8.7h.68v8.7Z"/>
  <rect class="cls-2" x="146.79" y="94.84" width="1.76" height="1.37"/>
  <path class="cls-5" d="M146.8,96.45h1.74l.25-.24v-1.37l-.25-.24h-1.76l-.28.24v1.38l.25.24h.05ZM148.3,95.97h-1.27v-.89h1.27v.89Z"/>
  <rect class="cls-2" x="146.79" y="87.02" width="1.76" height=".85"/>
  <path class="cls-5" d="M146.8,88.12h1.74l.25-.25v-.85l-.25-.25h-1.76l-.25.25v.9l.25.25.02-.05ZM148.3,87.63h-1.27v-.37h1.27v.37Z"/>
  <rect class="cls-7" x="138.6" y="87.02" width="1.18" height="9.2"/>
  <path class="cls-5" d="M139.83,96.46h-1.27l-.24-.25v-9.2l.24-.25h1.19l.25.25v9.19l-.17.26ZM138.84,95.97h.69v-8.7h-.69v8.7Z"/>
  <rect class="cls-2" x="138.32" y="94.84" width="1.76" height="1.37"/>
  <path class="cls-5" d="M140.05,96.45h-1.74l-.25-.24v-1.37l.25-.24h1.77l.25.24v1.38l-.25.24h-.03ZM138.56,95.97h1.27v-.89h-1.27v.89Z"/>
  <rect class="cls-2" x="138.32" y="87.02" width="1.76" height=".85"/>
  <path class="cls-5" d="M140.05,88.12h-1.74l-.25-.25v-.85l.25-.25h1.77l.25.25v.9l-.25.25-.03-.05ZM138.56,87.63h1.27v-.37h-1.27v.37Z"/>
  <rect class="cls-7" x="149.65" y="87.02" width="1.18" height="9.2"/>
  <path class="cls-5" d="M149.64,96.46h1.19l.24-.25v-9.2l-.24-.25h-1.19l-.25.25v9.19l.25.26ZM150.58,95.97h-.69v-8.7h.69v8.7Z"/>
  <rect class="cls-2" x="149.35" y="94.84" width="1.76" height="1.37"/>
  <path class="cls-5" d="M149.37,96.45h1.75l.24-.24v-1.37l-.24-.24h-1.77l-.25.24v1.38l.25.24h.02ZM150.87,95.97h-1.27v-.89h1.27v.89Z"/>
  <rect class="cls-2" x="149.35" y="87.02" width="1.76" height=".85"/>
  <path class="cls-5" d="M149.37,88.12h1.75l.24-.25v-.85l-.24-.25h-1.77l-.25.25v.9l.25.25.02-.05ZM150.87,87.63h-1.27v-.37h1.27v.37Z"/>
  <path class="cls-5" d="M114.63,52.63c0-.15.07-.25.24-.25s.24.1.25.25v1.98c0,.15-.08.26-.25.26s-.23-.11-.24-.26v-1.98Z"/>
  <path class="cls-6" d="M114.19,75.4h1.36v-2.22c0-.55-.3-.99-.67-.99s-.67.45-.67.99v2.22"/>
  <path class="cls-5" d="M114.43,75.15h.86v-1.98c0-.21-.05-.4-.16-.57l-.28-.19-.27.19c-.11.17-.17.37-.16.57v1.98ZM115.53,75.65h-1.35v-.25h-.24v-2.22c0-.3.08-.59.24-.85.16-.26.38-.39.68-.41.3.01.53.15.68.41.16.26.24.54.24.85v2.22l-.26.25Z"/>
  <path class="cls-5" d="M115.3,75.15h-.86v-1.98c0-.21.05-.4.16-.57l.27-.19.28.19c.11.17.17.37.16.57v1.98ZM114.19,75.65h1.35v-.25h.21v-2.22c0-.31-.07-.59-.24-.85-.15-.27-.37-.4-.68-.4s-.53.13-.68.4c-.16.26-.24.54-.24.85v2.22l.28.25Z"/>
  <path class="cls-6" d="M43.01,84.69s7.78-3.72,14.88-4.67v1.41h1.71l-2.12,4.61-1.92-1.29h-12.67l.14-.07h0Z"/>
  <path class="cls-5" d="M44.02,84.51c4.39-1.98,8.95-3.38,13.69-4.2v1.13l.25.25h1.33l-1.85,3.96-1.69-1.13h-11.74ZM57.91,79.77c-7.02.94-14.62,4.51-14.98,4.68h-.14l-.14.23.25.25h12.63l1.86,1.25.32-.12,2.12-4.6v-.12l-.25-.25h-1.38v-1.08l-.29-.24Z"/>
  <polygon class="cls-6" points="15.05 86.46 56.65 86.46 56.55 86.15 57.51 86.15 57.51 85.63 57.45 85.63 57.51 84.95 57.51 84.76 12.55 84.76 14.58 86.14 15.05 86.46"/>
  <path class="cls-5" d="M15.05,86.7h41.59l.25-.25v-.06h.62l.25-.25v-1.37l-.25-.25H12.55l-.25.25.13.21,1.98,1.37.48.33.16.02ZM56.3,86.21H15.13l-.42-.28-1.37-.93h43.91l-.05.58.06.15v.21h-.8l-.16.27Z"/>
  <rect class="cls-7" x="14.65" y="88.37" width="41.02" height="7.59"/>
  <path class="cls-5" d="M55.42,95.71H14.89v-7.1h40.52v7.1h0ZM54.93,96.21h.73l.25-.25v-7.6l-.25-.24H14.65l-.25.24v7.6l.25.25h40.28Z"/>
  <rect class="cls-4" x="16.42" y="96.49" width="38.29" height="5.66"/>
  <rect class="cls-7" x="15.25" y="95.96" width="40.41" height="10.05"/>
  <path class="cls-5" d="M55.42,105.77H15.53v-9.56h39.89v9.56ZM15.25,106.27h40.41l.25-.25v-10.06l-.25-.25H15.25l-.25.25v10.06l.25.25Z"/>
  <polygon class="cls-6" points="55.66 88.37 55.66 86.93 55.66 86.46 14.81 86.46 14.81 87.2 14.81 87.45 14.65 87.45 14.65 88.37 55.66 88.37"/>
  <path class="cls-5" d="M55.9,88.35v-1.9l-.24-.25H14.8l-.25.25v.75l-.16.24v.91l.25.25h41.02l.24-.25ZM55.42,86.93v1.2H14.89v-.45l.16-.23v-.75h40.36v.23Z"/>
  <rect class="cls-2" x="57.11" y="82.32" width="6.58" height="21.59"/>
  <rect class="cls-7" x="55.66" y="95.77" width="10.39" height="10.24"/>
  <path class="cls-5" d="M55.66,106.27h10.39l.25-.25v-10.25l-.25-.25h-10.39l-.25.25v10.25l.25.25ZM65.8,105.77h-9.92v-9.75h9.92v9.75Z"/>
  <rect class="cls-7" x="55.66" y="86.82" width="10.39" height="7.49"/>
  <path class="cls-5" d="M55.66,94.56h10.39l.25-.25v-7.49l-.25-.25h-10.39l-.25.25v7.49l.25.25ZM65.8,94.06h-9.92v-6.99h9.92v6.99Z"/>
  <polygon class="cls-6" points="64.71 85.36 56.97 85.36 56.97 82.07 56.97 81.5 58.91 80.44 60.84 79.38 62.79 80.44 64.71 81.5 64.71 82.07 64.71 85.36"/>
  <path class="cls-5" d="M64.47,85.11h-7.26v-3.46l1.81-.99,1.82-.99,1.82.99,1.81.99v3.46h.02ZM56.97,85.6h7.74l.25-.25v-3.85l-.13-.22-1.93-1.06-1.93-1.06h-.24l-1.93,1.06-1.92,1.06-.14.22v3.85l.25.25Z"/>
  <polygon class="cls-6" points="66.05 86.82 55.66 86.82 55.32 85.36 66.41 85.36 66.05 86.82"/>
  <path class="cls-5" d="M65.85,86.57h-10l-.23-.99h10.51l-.28.99ZM55.66,87.07h10.39l.24-.2.35-1.45v-.06l-.25-.25h-11.17l-.19.3.35,1.45.29.21Z"/>
  <polygon class="cls-6" points="66.05 95.77 55.66 95.77 55.32 94.31 66.41 94.31 66.05 95.77"/>
  <path class="cls-5" d="M65.85,95.53h-10l-.23-.99h10.51l-.28.99ZM55.66,96.02h10.39l.24-.19.35-1.45v-.07l-.25-.25h-11.17l-.19.3.35,1.45.29.21Z"/>
  <rect class="cls-4" x="33.82" y="71.52" width="8.05" height="11.23"/>
  <rect class="cls-7" x="32.63" y="77.64" width="10.36" height="7.11"/>
  <path class="cls-5" d="M32.63,85h10.35l.26-.25v-7.11l-.26-.25h-10.35l-.25.25v7.11l.25.25ZM42.75,84.51h-9.86v-6.62h9.86v6.62Z"/>
  <polygon class="cls-6" points="32.61 77.68 43.01 77.68 43.36 76.45 32.27 76.45 32.61 77.68"/>
  <path class="cls-5" d="M32.61,77.93h10.4l.24-.19.35-1.23-.18-.3h-11.15l-.25.25v.09l.34,1.22.26.16ZM42.82,77.44h-10.02l-.21-.74h10.44l-.21.74Z"/>
  <polygon class="cls-6" points="33.26 70.76 33.26 72.09 33.26 73.02 33.26 75.09 32.21 75.09 32.42 76.45 33.82 76.45 41.51 76.45 43.21 76.45 43.44 75.01 42.38 75.01 42.38 73.02 42.38 71.48 42.38 70.76 33.26 70.76"/>
  <path class="cls-5" d="M33,70.77v4.07h-.79l-.25.25v.06l.21,1.34.26.21h10.79l.25-.22.23-1.43-.21-.28h-.86v-4.01l-.25-.25h-9.12l-.25.26ZM33.5,72.1v-1.09h8.62v3.96l.25.25h.78l-.15.94h-10.38l-.14-.87h.76l.25-.25v-2.97.03Z"/>
  <path class="cls-9" d="M38.65,63.71h-.54v-1.1c0-.18.09-.27.27-.27s.27.09.27.27v1.1Z"/>
  <path class="cls-5" d="M38.37,63.47v-.92.92ZM38.08,63.96h.54l.25-.24v-1.11l-.14-.38-.38-.19-.38.19-.14.38v1.1l.25.25Z"/>
  <path class="cls-9" d="M37.51,63.71h-.53v-1.1c-.02-.08,0-.16.06-.22.05-.06.12-.1.21-.1s.15.03.21.1c.05.06.07.14.06.22v1.1Z"/>
  <path class="cls-5" d="M37.26,63.47v-.92.92ZM36.98,63.96h.54l.24-.24v-1.11l-.13-.38-.37-.19-.37.19-.14.38v1.1l.23.25Z"/>
  <polygon class="cls-6" points="33.38 69.64 32.92 70 33.25 70.76 42.38 70.76 42.71 70 42.25 69.64 33.38 69.64"/>
  <path class="cls-5" d="M33.21,69.47l-.44.34-.08.3.33.76.23.15h9.12l.23-.15.34-.76-.09-.3-.46-.35-.15-.06h-8.85l-.18.07ZM33.21,70.08l.24-.19h8.7l.24.19-.19.44h-8.81l-.18-.44ZM33.21,69.47l-.08.18.08-.18Z"/>
  <polygon class="cls-6" points="35.35 65.55 33.45 68.12 33.45 68.59 42.18 68.59 42.18 68.12 40.28 65.55 35.35 65.55"/>
  <path class="cls-5" d="M35.14,65.41l-1.9,2.56-.05.15v.47l.25.25h8.73l.24-.25v-.45l-.05-.15-1.9-2.57-.2-.1h-4.96l-.17.09ZM33.7,68.2l1.78-2.4h4.67l1.79,2.4v.15h-8.24v-.15Z"/>
  <polygon class="cls-6" points="35.31 64.08 35.1 64.5 35.35 65.55 40.27 65.55 40.53 64.5 40.31 64.08 35.31 64.08"/>
  <path class="cls-5" d="M35.11,63.97l-.21.42v.2l.25.99.24.19h4.96l.25-.21.25-.99v-.18l-.22-.43-.22-.13h-4.96l-.34.14ZM35.37,64.53l.11-.21h4.69l.11.21-.18.77h-4.54l-.19-.77Z"/>
  <polygon class="cls-6" points="35.89 61.72 35.54 61.72 35.54 62.78 35.31 64.08 40.31 64.08 40.09 62.78 40.09 61.72 40.02 61.72 39.75 61.72 35.89 61.72"/>
  <path class="cls-5" d="M35.88,61.47h-.34l-.25.24v1.05l-.23,1.28.21.28h5.06l.24-.24v-.06l-.22-1.26v-1.05l-.25-.24h-4.23ZM35.79,61.96h4.05v.86l.18.99h-4.41l.17-.99v-.87h0Z"/>
  <polygon class="cls-6" points="35.96 60.31 35.6 60.31 35.6 61.17 35.89 61.71 39.74 61.71 40.03 61.17 40.03 60.31 39.67 60.31 35.96 60.31"/>
  <path class="cls-5" d="M35.96,60.06h-.36l-.25.25v1.04l.28.53.22.13h3.86l.23-.15.28-.53v-.97l-.25-.25h-4.07l.06-.05ZM35.85,60.55h3.97v.55l-.19.36h-3.55l-.19-.36-.04-.55Z"/>
  <polygon class="cls-6" points="36.31 57.94 35.96 59.36 35.96 60.31 36.5 60.31 36.71 60.31 37.25 60.31 37.55 60.31 38.08 60.31 38.39 60.31 38.92 60.31 39.09 60.31 39.67 60.31 39.67 59.36 39.32 57.94 36.31 57.94"/>
  <path class="cls-5" d="M36.06,57.9l-.34,1.39v1.05l.25.25h3.71l.24-.25v-.99l-.34-1.4-.25-.18h-2.98l-.3.13ZM36.21,59.39l.29-1.2h2.63l.3,1.2v.67h-3.21v-.67Z"/>
  <polygon class="cls-9" points="36.1 57.11 36.1 57.45 36.1 57.7 36.31 57.94 39.32 57.94 39.53 57.7 39.53 57.45 39.53 57.11 39.53 57.06 39.36 57.06 36.27 57.06 36.1 57.06 36.1 57.11"/>
  <path class="cls-5" d="M35.87,57.11v.58l.07.17.2.24.19.09h2.98l.2-.1.21-.24.06-.16v-.63l-.25-.25h-3.43l-.25.25.03.05ZM36.37,57.45v-.14h2.98v.3l-.08.09h-2.78l-.08-.09-.04-.16Z"/>
  <polygon class="cls-9" points="36.67 56.13 36.27 56.13 36.27 57.06 39.36 57.06 39.36 56.13 39.2 56.13 38.95 56.13 36.67 56.13"/>
  <path class="cls-5" d="M36.66,55.89h-.4l-.25.25v.93l.25.25h3.08l.25-.25v-.93l-.25-.25h-2.68ZM36.51,56.37h2.6v.44h-2.6v-.44Z"/>
  <path class="cls-6" d="M38.28,54.95c.37.31.57.7.61,1.19h-2.14c-.02-.52.19-.94.63-1.24.31-.14.62-.12.91.05"/>
  <path class="cls-5" d="M38.14,55.11l.32.41.12.34h-1.55c.02-.33.17-.59.45-.77l.66.03ZM38.91,55.33c-.11-.23-.27-.43-.48-.58-.37-.22-.75-.24-1.14-.08h-.05c-.5.34-.75.81-.74,1.41l.25.26h2.18l.21-.28c-.04-.26-.12-.52-.23-.76"/>
  <rect class="cls-7" x="33.18" y="68.59" width="9.27" height="1.05"/>
  <path class="cls-5" d="M42.2,69.4h-8.81v-.55h8.77l.04.55ZM33.18,69.89h9.27l.24-.25v-1.05l-.24-.25h-9.27l-.25.25v1.05l.25.25Z"/>
  <rect class="cls-7" x="59.87" y="89.06" width="1.98" height="3.53"/>
  <path class="cls-5" d="M59.86,92.84h1.98l.25-.25v-3.53l-.25-.25h-1.98l-.24.25v3.52l.24.26ZM61.6,92.34h-1.48v-3.04h1.48v3.04Z"/>
  <rect class="cls-2" x="62.44" y="96.75" width="1.18" height="2.11"/>
  <path class="cls-5" d="M62.44,99.11h1.18l.25-.25v-2.11l-.25-.25h-1.18l-.25.25v2.1l.25.26ZM63.37,98.61h-.68v-1.61h.68v1.61Z"/>
  <rect class="cls-2" x="60.27" y="96.75" width="1.18" height="2.11"/>
  <path class="cls-5" d="M60.24,99.11h1.18l.25-.25v-2.11l-.25-.25h-1.18l-.25.25v2.1l.25.26ZM61.17,98.61h-.68v-1.61h.68v1.61Z"/>
  <rect class="cls-2" x="58.09" y="96.75" width="1.18" height="2.11"/>
  <path class="cls-5" d="M58.09,99.11h1.18l.25-.25v-2.11l-.25-.25h-1.18l-.25.25v2.1l.25.26ZM59.03,98.61h-.69v-1.61h.69v1.61Z"/>
  <rect class="cls-2" x="62.44" y="100.63" width="1.18" height="2.11"/>
  <path class="cls-5" d="M62.44,102.97h1.18l.25-.25v-2.1l-.25-.25h-1.18l-.25.25v2.13l.25.22ZM63.37,102.49h-.68v-1.61h.68v1.61Z"/>
  <rect class="cls-2" x="60.27" y="100.63" width="1.18" height="2.11"/>
  <path class="cls-5" d="M60.24,102.97h1.18l.25-.25v-2.1l-.25-.25h-1.18l-.25.25v2.13l.25.22ZM61.17,102.49h-.68v-1.61h.68v1.61Z"/>
  <rect class="cls-2" x="58.09" y="100.63" width="1.18" height="2.11"/>
  <path class="cls-5" d="M58.09,102.97h1.18l.25-.25v-2.1l-.25-.25h-1.18l-.25.25v2.13l.25.22ZM59.03,102.49h-.69v-1.61h.69v1.61Z"/>
  <rect class="cls-7" x="52.82" y="88.37" width="1.18" height="7.6"/>
  <path class="cls-5" d="M52.82,96.21h1.18l.25-.25v-7.6l-.25-.24h-1.18l-.25.24v7.59l.25.26ZM53.75,95.71h-.68v-7.1h.68v7.1Z"/>
  <rect class="cls-2" x="52.59" y="95.07" width="1.65" height=".89"/>
  <path class="cls-5" d="M52.59,96.21h1.64l.24-.25v-.89l-.24-.23h-1.65l-.25.25v.88l.26.24ZM53.99,95.71h-1.16v-.4h1.16v.4Z"/>
  <rect class="cls-2" x="52.59" y="88.37" width="1.65" height=".71"/>
  <path class="cls-5" d="M52.59,89.32h1.64l.24-.25v-.7l-.24-.26h-1.65l-.25.26v.7l.26.25ZM53.99,88.83h-1.16v-.21h1.16v.21Z"/>
  <rect class="cls-7" x="48.36" y="88.37" width="1.18" height="7.6"/>
  <path class="cls-5" d="M48.32,96.21h1.19l.25-.25v-7.6l-.25-.24h-1.19l-.25.24v7.59l.25.26ZM49.26,95.71h-.69v-7.1h.69v7.1Z"/>
  <rect class="cls-2" x="48.12" y="95.07" width="1.65" height=".89"/>
  <path class="cls-5" d="M48.12,96.21h1.65l.25-.25v-.89l-.25-.25h-1.65l-.25.25v.88l.25.26ZM49.52,95.71h-1.15v-.4h1.15v.4Z"/>
  <rect class="cls-2" x="48.12" y="88.37" width="1.65" height=".71"/>
  <path class="cls-5" d="M48.12,89.32h1.65l.25-.25v-.7l-.25-.26h-1.65l-.25.26v.7l.25.25ZM49.52,88.83h-1.15v-.21h1.15v.21Z"/>
  <rect class="cls-7" x="43.9" y="88.37" width="1.18" height="7.6"/>
  <path class="cls-5" d="M43.9,96.21h1.18l.25-.25v-7.6l-.25-.24h-1.18l-.25.24v7.59l.25.26ZM44.83,95.71h-.68v-7.1h.68v7.1Z"/>
  <rect class="cls-2" x="43.67" y="95.07" width="1.65" height=".89"/>
  <path class="cls-5" d="M43.66,96.21h1.64l.24-.25v-.89l-.24-.23h-1.66l-.24.25v.88l.26.24ZM45.07,95.71h-1.16v-.4h1.16v.4Z"/>
  <rect class="cls-2" x="43.67" y="88.37" width="1.65" height=".71"/>
  <path class="cls-5" d="M43.66,89.32h1.64l.24-.25v-.7l-.24-.26h-1.66l-.24.26v.7l.26.25ZM45.07,88.83h-1.16v-.21h1.16v.21Z"/>
  <rect class="cls-7" x="39.44" y="88.37" width="1.18" height="7.6"/>
  <path class="cls-5" d="M39.34,96.21h1.19l.24-.25v-7.6l-.24-.24h-1.19l-.25.24v7.59l.25.26ZM40.33,95.71h-.69v-7.1h.69v7.1Z"/>
  <rect class="cls-2" x="39.2" y="95.07" width="1.65" height=".89"/>
  <path class="cls-5" d="M39.2,96.21h1.65l.25-.25v-.89l-.25-.25h-1.65l-.25.25v.88l.25.26ZM40.6,95.71h-1.15v-.4h1.15v.4Z"/>
  <rect class="cls-2" x="39.2" y="88.37" width="1.65" height=".71"/>
  <path class="cls-5" d="M39.2,89.32h1.65l.25-.25v-.7l-.25-.26h-1.65l-.25.26v.7l.25.25ZM40.6,88.83h-1.15v-.21h1.15v.21Z"/>
  <rect class="cls-7" x="34.98" y="88.37" width="1.18" height="7.6"/>
  <path class="cls-5" d="M34.98,96.21h1.18l.25-.25v-7.6l-.25-.24h-1.18l-.25.24v7.59l.25.26ZM35.91,95.71h-.68v-7.1h.68v7.1Z"/>
  <rect class="cls-2" x="34.75" y="95.07" width="1.65" height=".89"/>
  <path class="cls-5" d="M34.74,96.21h1.63l.24-.25v-.89l-.24-.23h-1.66l-.25.25v.88l.28.24ZM36.15,95.71h-1.16v-.4h1.16v.4Z"/>
  <rect class="cls-2" x="34.75" y="88.37" width="1.65" height=".71"/>
  <path class="cls-5" d="M34.74,89.32h1.63l.24-.25v-.7l-.24-.26h-1.66l-.25.26v.7l.28.25ZM36.15,88.83h-1.16v-.21h1.16v.21Z"/>
  <path class="cls-5" d="M30.51,96.21h1.19l.24-.25v-7.6l-.24-.24h-1.19l-.25.24v7.59l.25.26ZM31.45,95.71h-.69v-7.1h.69v7.1Z"/>
  <path class="cls-5" d="M30.28,96.21h1.65l.25-.25v-.89l-.25-.25h-1.65l-.25.25v.88l.25.26ZM31.68,95.71h-1.15v-.4h1.15v.4Z"/>
  <path class="cls-5" d="M30.28,89.32h1.65l.25-.25v-.7l-.25-.26h-1.65l-.25.26v.7l.25.25ZM31.68,88.83h-1.15v-.21h1.15v.21Z"/>
  <path class="cls-5" d="M26.06,96.21h1.18l.25-.25v-7.6l-.25-.24h-1.18l-.25.24v7.59l.25.26ZM26.99,95.71h-.68v-7.1h.68v7.1Z"/>
  <path class="cls-5" d="M25.82,96.21h1.62l.24-.25v-.89l-.24-.23h-1.66l-.24.25v.88l.28.24ZM27.23,95.71h-1.16v-.4h1.16v.4Z"/>
  <path class="cls-5" d="M25.82,89.32h1.62l.24-.25v-.7l-.24-.26h-1.66l-.24.26v.7l.28.25ZM27.23,88.83h-1.16v-.21h1.16v.21Z"/>
  <path class="cls-5" d="M21.59,96.21h1.19l.24-.25v-7.6l-.24-.24h-1.19l-.25.24v7.59l.25.26ZM22.53,95.71h-.69v-7.1h.69v7.1Z"/>
  <path class="cls-5" d="M21.36,96.21h1.65l.25-.25v-.89l-.25-.25h-1.65l-.25.25v.88l.25.26ZM22.76,95.71h-1.15v-.4h1.15v.4Z"/>
  <path class="cls-5" d="M21.36,89.32h1.65l.25-.25v-.7l-.25-.26h-1.65l-.25.26v.7l.25.25ZM22.76,88.83h-1.15v-.21h1.15v.21Z"/>
  <path class="cls-5" d="M17.14,96.21h1.18l.25-.25v-7.6l-.25-.24h-1.18l-.25.24v7.59l.25.26ZM18.07,95.71h-.68v-7.1h.68v7.1Z"/>
  <path class="cls-5" d="M16.9,96.21h1.61l.25-.25v-.89l-.25-.23h-1.65l-.25.25v.88l.29.24ZM18.3,95.71h-1.15v-.4h1.15v.4Z"/>
  <path class="cls-5" d="M16.9,89.32h1.61l.25-.25v-.7l-.25-.26h-1.65l-.25.26v.7l.29.25ZM18.3,88.83h-1.15v-.21h1.15v.21Z"/>
  <rect class="cls-7" x="60.22" y="82.35" width="1.29" height="1.95"/>
  <path class="cls-5" d="M60.27,84.54h1.28l.25-.25v-1.98l-.25-.25h-1.37l-.25.25v1.98l.34.25ZM61.26,84.04h-.79v-1.44h.79v1.44Z"/>
  <path class="cls-5" d="M14.96,105.77H.93v-9.31h14.07l-.04,9.31ZM.65,106.27h14.57l.25-.25v-9.8l-.25-.25H.65l-.25.25v9.79l.25.26Z"/>
  <path class="cls-5" d="M.68,96.46h14.58l.25-.25v-9.2l-.25-.25H.65l-.24.25v9.19l.28.26ZM1.51,95.97h-.58v-8.7h14.08v8.7H1.51Z"/>
  <path class="cls-5" d="M.29,87.27h15.37l.25-.25v-1.15l-.25-.25H.29l-.24.25v1.14l.24.26ZM15.41,86.77H.53v-.65h14.88v.65Z"/>
  <path class="cls-5" d="M7.78,82.65l3.47,1.7,2.62,1.28H1.69l2.62-1.28,3.47-1.7ZM11.47,83.9l-3.58-1.74h-.22l-3.58,1.74-3.56,1.74-.15.23.25.25h14.32l.22-.14-.11-.33-3.58-1.75Z"/>
  <path class="cls-5" d="M10.7,103.62h1.18l.25-.25v-5.39l-.25-.25h-1.18l-.25.25v5.38l.25.26ZM11.63,103.12h-.69v-4.9h.69v4.9Z"/>
  <path class="cls-5" d="M8.48,103.62h1.18l.25-.25v-5.39l-.25-.25h-1.18l-.25.25v5.38l.25.26ZM9.42,103.12h-.68v-4.9h.68v4.9Z"/>
  <path class="cls-5" d="M6.27,103.62h1.18l.25-.25v-5.39l-.25-.25h-1.18l-.25.25v5.38l.25.26ZM7.2,103.12h-.68v-4.9h.68v4.9Z"/>
  <path class="cls-5" d="M4.06,103.62h1.19l.24-.25v-5.39l-.24-.25h-1.19l-.24.25v5.38l.24.26ZM5,103.12h-.69v-4.9h.69v4.9Z"/>
  <path class="cls-5" d="M52.09,98.08c0-.15-.07-.26-.24-.26-.07,0-.14.02-.19.07s-.08.12-.07.19v1.98c0,.07.02.14.07.19.05.05.12.07.19.07.17,0,.23-.11.24-.26v-1.98M53.82,98.08c0-.15-.07-.26-.24-.26s-.24.11-.26.26v1.98c0,.15.08.26.26.26s.23-.11.24-.26v-1.98ZM50.37,98.08c0-.15-.07-.26-.25-.26s-.24.11-.25.26v1.98c0,.15.08.26.25.26s.24-.11.25-.26v-1.98M48.63,98.08c0-.15-.06-.26-.24-.26s-.24.11-.25.26v1.98c0,.15.08.26.25.26s.24-.11.24-.26v-1.98ZM46.9,98.08c0-.15-.07-.26-.24-.26s-.24.11-.25.26v1.98c0,.15.08.26.25.26s.23-.11.24-.26v-1.98ZM45.18,98.08c0-.15-.07-.26-.24-.26s-.24.11-.26.26v1.98c0,.15.08.26.26.26s.23-.11.24-.26v-1.98M43.45,98.08c0-.15-.07-.26-.24-.26s-.24.11-.26.26v1.98c0,.15.08.26.26.26s.23-.11.24-.26v-1.98M41.72,98.08c0-.15-.07-.26-.24-.26-.07,0-.14.02-.19.07-.05.05-.08.12-.07.19v1.98c0,.15.08.26.25.26s.24-.11.25-.26v-1.98M40,98.08c0-.15-.07-.26-.25-.26s-.24.11-.25.26v1.98c0,.15.08.26.25.26s.23-.11.25-.26v-1.98M38.27,98.08c0-.15-.08-.26-.25-.26s-.24.11-.25.26v1.98c0,.15.08.26.25.26s.23-.11.25-.26v-1.98M36.53,98.08c0-.15-.07-.26-.24-.26s-.24.11-.25.26v1.98c0,.15.08.26.25.26s.23-.11.24-.26v-1.98ZM34.81,98.08c0-.15-.07-.26-.24-.26s-.24.11-.26.26v1.98c0,.15.08.26.26.26s.23-.11.24-.26v-1.98M33.08,98.08c0-.15-.07-.26-.25-.26s-.23.11-.25.26v1.98c0,.15.08.26.25.26s.24-.11.25-.26v-1.98M31.35,98.08c0-.15-.07-.26-.25-.26s-.24.11-.25.26v1.98c0,.15.08.26.25.26s.24-.11.25-.26v-1.98M29.63,98.08c0-.15-.07-.26-.25-.26s-.24.11-.25.26v1.98c0,.15.08.26.25.26s.23-.11.25-.26v-1.98ZM27.9,98.08c0-.15-.08-.26-.25-.26s-.24.11-.25.26v1.98c0,.15.08.26.25.26s.23-.11.25-.26v-1.98ZM26.16,98.08c0-.15-.07-.26-.24-.26s-.24.11-.25.26v1.98c0,.15.08.26.26.26s.23-.11.24-.26v-1.98M24.43,98.08c0-.15-.07-.26-.24-.26s-.24.11-.26.26v1.98c0,.15.08.26.26.26s.23-.11.24-.26v-1.98M22.7,98.08c0-.15-.07-.26-.25-.26s-.23.11-.25.26v1.98c0,.15.08.26.25.26s.24-.11.25-.26v-1.98M20.98,98.08c0-.15-.07-.26-.25-.26s-.24.11-.25.26v1.98c0,.15.08.26.25.26s.24-.11.25-.26v-1.98M19.25,98.08c0-.15-.07-.26-.25-.26s-.24.11-.25.26v1.98c0,.15.08.26.25.26s.23-.11.25-.26v-1.98M17.51,98.08c0-.15-.07-.26-.24-.26s-.24.11-.25.26v1.98c0,.15.08.26.26.26s.23-.11.24-.26v-1.98Z"/>
  <path class="cls-5" d="M6.95,95.67h2.05l.25-.25v-3.65l-.25-.25h-2.05l-.25.25v3.65l.25.25ZM8.75,95.18h-1.56v-3.16h1.56v3.16Z"/>
  <path class="cls-5" d="M10.34,96.46h1.22l.25-.25v-9.2l-.25-.25h-1.18l-.25.25v9.19l.21.26ZM11.27,95.97h-.7v-8.7h.69v8.7Z"/>
  <path class="cls-5" d="M10.07,96.45h1.74l.25-.24v-1.37l-.25-.24h-1.77l-.24.24v1.38l.24.24h.03ZM11.56,95.97h-1.26v-.89h1.26v.89Z"/>
  <path class="cls-5" d="M10.07,88.12h1.74l.25-.25v-.85l-.25-.25h-1.77l-.24.25v.9l.24.25.03-.05ZM11.56,87.63h-1.26v-.37h1.26v.37Z"/>
  <path class="cls-5" d="M5.62,96.46h-1.18l-.25-.25v-9.2l.25-.25h1.17l.25.25v9.19l-.24.26ZM4.68,95.97h.68v-8.7h-.68v8.7Z"/>
  <path class="cls-5" d="M5.88,96.45h-1.74l-.25-.24v-1.37l.25-.24h1.76l.25.24v1.38l-.25.24h-.02ZM4.4,95.97h1.26v-.89h-1.26v.89Z"/>
  <path class="cls-5" d="M5.88,88.12h-1.74l-.25-.25v-.85l.25-.25h1.76l.25.25v.9l-.25.25-.02-.05ZM4.4,87.63h1.26v-.37h-1.26v.37Z"/>
  <path class="cls-5" d="M12.91,96.46h1.18l.25-.25v-9.2l-.25-.25h-1.18l-.25.25v9.19l.25.26ZM13.84,95.97h-.69v-8.7h.69v8.7Z"/>
  <path class="cls-5" d="M12.64,96.45h1.74l.25-.24v-1.37l-.25-.24h-1.77l-.24.24v1.38l.24.24h.03ZM14.13,95.97h-1.27v-.89h1.27v.89Z"/>
  <path class="cls-5" d="M12.64,88.12h1.74l.25-.25v-.85l-.25-.25h-1.77l-.24.25v.9l.24.25.03-.05ZM14.13,87.63h-1.27v-.37h1.27v.37Z"/>
  <path class="cls-5" d="M3.05,96.46h-1.18l-.25-.25v-9.2l.25-.25h1.18l.25.25v9.19l-.25.26ZM2.11,95.97h.68v-8.7h-.68v8.7Z"/>
  <path class="cls-5" d="M3.31,96.45h-1.74l-.25-.24v-1.37l.25-.24h1.76l.25.24v1.38l-.25.24h-.02ZM1.83,95.97h1.26v-.89h-1.26v.89Z"/>
  <path class="cls-5" d="M3.31,88.12h-1.74l-.25-.25v-.85l.25-.25h1.76l.25.25v.9l-.25.25-.02-.05ZM1.83,87.63h1.26v-.37h-1.26v.37Z"/>
  <path class="cls-5" d="M38.06,52.63c0-.15-.07-.25-.25-.25s-.24.1-.25.25v1.98c0,.15.08.26.25.26s.23-.11.25-.26v-1.98Z"/>
  <path class="cls-6" d="M38.5,75.4h-1.35v-2.22c0-.55.3-.99.67-.99s.67.45.67.99v2.22"/>
  <path class="cls-5" d="M38.25,75.15h-.89v-1.98c0-.21.04-.4.15-.57l.28-.19.28.19c.1.18.15.37.15.57l.04,1.98ZM37.15,75.65h1.35v-.25h.25v-2.22c0-.31-.07-.59-.24-.85-.15-.27-.38-.4-.68-.4s-.54.13-.68.4c-.16.26-.24.54-.24.85v2.22l.25.25Z"/>
  <path class="cls-5" d="M37.4,75.15h.85v-1.98c0-.21-.05-.4-.16-.57l-.27-.19-.28.19c-.11.18-.16.37-.15.57v1.98ZM38.5,75.65h-1.35v-.25h-.25v-2.22c0-.31.07-.59.24-.85.15-.27.38-.4.68-.4s.54.13.68.4c.16.26.24.54.24.85v2.22l-.25.25Z"/>
  <rect class="cls-10" x=".05" y="41.16" width="152.59" height="65.25"/>
</svg>