<?xml version="1.0" encoding="UTF-8"?>
<svg id="PortOlimpic" xmlns="http://www.w3.org/2000/svg" viewBox="0 0 152.69 147.57">
  <defs>
    <style>
      .cls-1 {
        fill: #01352c;
      }

      .cls-1, .cls-2 {
        fill-rule: evenodd;
      }

      .cls-1, .cls-2, .cls-3, .cls-4, .cls-5 {
        stroke: #02352c;
        stroke-miterlimit: 10;
        stroke-width: .3px;
      }

      .cls-6 {
        fill: none;
        stroke-width: 0px;
      }

      .cls-2, .cls-3 {
        fill: #cbdad8;
      }

      .cls-4 {
        fill: #1e1f1c;
      }

      .cls-5 {
        fill: #fff;
      }
    </style>
  </defs>
  <rect class="cls-5" x="79.41" y="31.95" width="21.23" height="84.76"/>
  <polygon class="cls-4" points="79.42 116.71 79.42 116.77 100.7 116.77 100.7 31.9 79.37 31.9 79.37 116.77 79.42 116.77 79.42 116.71 79.47 116.71 79.47 32.01 100.59 32.01 100.59 116.66 79.42 116.66 79.42 116.71 79.47 116.71 79.42 116.71"/>
  <path class="cls-2" d="M78.68,29.22h22.54v89.13h-22.54V29.22ZM79.65,35.35h20.62v-1.62h-20.62v1.62ZM79.65,38.85h20.62v-1.62h-20.62v1.62ZM79.65,42.36h20.62v-1.62h-20.62v1.62ZM79.65,45.85h20.62v-1.61h-20.62v1.61ZM79.65,49.36h20.62v-1.62h-20.62v1.62ZM79.65,52.87h20.62v-1.62h-20.62v1.62ZM79.65,56.37h20.62v-1.62h-20.62v1.62ZM79.65,59.87h20.62v-1.62h-20.62v1.62ZM79.65,63.37h20.62v-1.62h-20.62v1.62ZM79.65,66.87h20.62v-1.62h-20.62v1.62ZM79.65,70.37h20.62v-1.62h-20.62v1.62ZM79.65,73.87h20.62v-1.62h-20.62v1.62ZM79.65,77.37h20.62v-1.61h-20.62v1.61ZM79.65,80.88h20.62v-1.62h-20.62v1.62ZM79.65,84.38h20.62v-1.61h-20.62v1.61ZM79.65,87.88h20.62v-1.61h-20.62v1.61ZM79.65,91.39h20.62v-1.62h-20.62v1.62ZM79.65,94.89h20.62v-1.62h-20.62v1.62ZM79.65,98.39h20.62v-1.62h-20.62v1.62ZM79.65,101.89h20.62v-1.62h-20.62v1.62ZM79.65,105.39h20.62v-1.62h-20.62v1.62ZM79.65,108.9h20.62v-1.62h-20.62v1.62ZM79.65,112.4h20.62v-1.62h-20.62v1.62ZM79.65,115.9h20.62v-1.66h-20.62v1.66Z"/>
  <path class="cls-1" d="M78.68,28.97h22.54l.22.22v89.13l-.22.23h-22.54l-.22-.23V29.22l.22-.25ZM100.99,29.42h-22.04v88.68h22.12l-.08-88.68ZM79.65,33.48l-.23.22v1.62l.23.23h20.62l.22-.23v-1.62l-.22-.22h-20.62ZM100.04,33.93h-20.13v1.17h20.19l-.07-1.17ZM79.65,36.99l-.23.23v1.61l.23.23h20.62l.22-.23v-1.61l-.22-.23h-20.62ZM100.04,37.44h-20.13v1.23h20.19l-.07-1.23ZM79.65,40.49l-.23.23v1.62l.23.22h20.62l.22-.22v-1.62l-.22-.23h-20.62ZM100.04,40.94h-20.13v1.17h20.19l-.07-1.17ZM79.65,43.99l-.23.23v1.61l.23.23h20.62l.22-.23v-1.61l-.22-.23h-20.62ZM100.04,44.44h-20.13v1.17h20.19l-.07-1.17ZM79.65,47.49l-.23.23v1.62l.23.22h20.62l.22-.22v-1.62l-.22-.23h-20.62ZM100.04,47.94h-20.13v1.17h20.19l-.07-1.17ZM79.65,50.99l-.23.23v1.62l.23.22h20.62l.22-.22v-1.62l-.22-.23h-20.62ZM100.04,51.44h-20.13v1.17h20.19l-.07-1.17ZM79.65,54.49l-.23.23v1.62l.23.22h20.62l.22-.22v-1.62l-.22-.23h-20.62ZM100.04,54.94h-20.13v1.17h20.19l-.07-1.17ZM79.65,58l-.23.22v1.62l.23.22h20.62l.22-.22v-1.62l-.22-.22h-20.62ZM100.04,58.44h-20.13v1.17h20.19l-.07-1.17ZM79.65,61.49l-.23.23v1.62l.23.22h20.62l.22-.22v-1.62l-.22-.23h-20.62ZM100.04,61.94h-20.13v1.18h20.19l-.07-1.18ZM79.65,65.01l-.23.22v1.62l.23.22h20.62l.22-.22v-1.62l-.22-.22h-20.62ZM100.04,65.45h-20.13v1.16h20.19l-.07-1.16ZM79.65,68.53l-.23.22v1.62l.23.23h20.62l.22-.23v-1.62l-.22-.22h-20.62ZM100.04,68.98h-20.13v1.17h20.19l-.07-1.17ZM79.65,72.03l-.23.22v1.62l.23.22h20.62l.22-.22v-1.62l-.22-.22h-20.62ZM100.04,72.48h-20.13v1.17h20.19l-.07-1.17ZM79.65,75.53l-.23.22v1.62l.23.23h20.62l.22-.23v-1.62l-.22-.22h-20.62ZM100.04,75.98h-20.13v1.17h20.19l-.07-1.17ZM79.65,79.05l-.23.22v1.62l.23.23h20.62l.22-.23v-1.62l-.22-.22h-20.62ZM100.04,79.5h-20.13v1.17h20.19l-.07-1.17ZM79.65,82.55l-.23.22v1.62l.23.23h20.62l.22-.23v-1.62l-.22-.22h-20.62ZM100.04,83h-20.13v1.17h20.19l-.07-1.17ZM79.65,86.05l-.23.23v1.61l.23.23h20.62l.22-.23v-1.61l-.22-.23h-20.62ZM100.04,86.5h-20.13v1.17h20.19l-.07-1.17ZM79.65,89.54l-.23.23v1.62l.23.22h20.62l.22-.22v-1.62l-.22-.23h-20.62ZM100.04,89.99h-20.13v1.17h20.19l-.07-1.17ZM79.65,93.04l-.23.23v1.62l.23.22h20.62l.22-.22v-1.62l-.22-.23h-20.62ZM100.04,93.49h-20.13v1.17h20.19l-.07-1.17ZM79.65,96.55l-.23.23v1.62l.23.22h20.62l.22-.22v-1.62l-.22-.23h-20.62ZM100.04,96.99h-20.13v1.17h20.19l-.07-1.17ZM79.65,100.06l-.23.22v1.62l.23.22h20.62l.22-.22v-1.62l-.22-.22h-20.62ZM100.04,100.5h-20.13v1.17h20.19l-.07-1.17ZM79.65,103.55l-.23.23v1.62l.23.22h20.62l.22-.22v-1.62l-.22-.23h-20.62ZM100.04,104h-20.13v1.18h20.19l-.07-1.18ZM79.65,107.06l-.23.22v1.62l.23.22h20.62l.22-.22v-1.62l-.22-.22h-20.62ZM100.04,107.5h-20.13v1.17h20.19l-.07-1.17ZM79.65,110.56l-.23.22v1.62l.23.23h20.62l.22-.23v-1.62l-.22-.22h-20.62ZM100.04,111h-20.13v1.17h20.19l-.07-1.17ZM79.65,114.06l-.23.22v1.62l.23.22h20.62l.22-.22v-1.66l-.22-.22-20.62.04ZM100.04,114.51h-20.13v1.17h20.19l-.07-1.17Z"/>
  <path class="cls-2" d="M51.48,29.98h22.35v88.35h-22.35V29.98ZM71.42,33.26h1.28v-1.37h-1.28v1.37ZM72.7,33.89h-1.28v2.08h1.28v-2.08ZM72.7,36.59h-1.28v1.37h1.28v-1.37ZM53.87,31.9h-1.28v1.37h1.28v-1.37ZM52.6,35.97h1.28v-2.09h-1.28v2.09ZM52.6,37.96h1.28v-1.37h-1.28v1.37ZM71.42,40.39h1.28v-1.36h-1.28v1.36ZM72.7,41.02h-1.28v2.08h1.28v-2.08ZM72.7,43.73h-1.28v1.36h1.28v-1.36ZM53.87,39.03h-1.28v1.36h1.28v-1.36ZM52.6,43.1h1.28v-2.08h-1.28v2.08ZM52.6,45.09h1.28v-1.35h-1.28v1.35ZM71.42,47.53h1.28v-1.36h-1.28v1.36ZM72.7,48.16h-1.28v2.08h1.28v-2.08ZM72.7,50.86h-1.28v1.37h1.28v-1.37ZM53.87,46.16h-1.28v1.37h1.28v-1.37ZM52.6,50.24h1.28v-2.08h-1.28v2.08ZM52.6,52.22h1.28v-1.37h-1.28v1.37ZM71.42,54.66h1.28v-1.36h-1.28v1.36ZM72.7,55.29h-1.28v2.09h1.28v-2.09ZM72.7,57.99h-1.28v1.37h1.28v-1.37ZM53.87,53.3h-1.28v1.37h1.28v-1.37ZM52.6,57.37h1.28v-2.09h-1.28v2.09ZM52.6,59.36h1.28v-1.37h-1.28v1.37ZM71.42,61.8h1.28v-1.37h-1.28v1.37ZM72.7,62.42h-1.28v2.08h1.28v-2.08ZM72.7,65.13h-1.28v1.36h1.28v-1.36ZM53.87,60.43h-1.28v1.37h1.28v-1.37ZM52.6,64.5h1.28v-2.08h-1.28v2.08ZM52.6,66.49h1.28v-1.36h-1.28v1.36ZM71.42,68.93h1.28v-1.36h-1.28v1.36ZM72.7,69.56h-1.28v2.08h1.28v-2.08ZM72.7,72.26h-1.28v1.37h1.28v-1.37ZM53.87,67.57h-1.28v1.36h1.28v-1.36ZM52.6,71.63h1.28v-2.07h-1.28v2.07ZM52.6,73.62h1.28v-1.37h-1.28v1.37ZM71.42,76.06h1.28v-1.37h-1.28v1.37ZM72.7,76.69h-1.28v2.09h1.28v-2.09ZM72.7,79.39h-1.28v1.37h1.28v-1.37ZM53.87,74.7h-1.28v1.37h1.28v-1.37ZM52.6,78.77h1.28v-2.09h-1.28v2.09ZM52.6,80.76h1.28v-1.37h-1.28v1.37ZM71.42,83.17h1.28v-1.37h-1.28v1.37ZM72.7,83.79h-1.28v2.08h1.28v-2.08ZM72.7,86.5h-1.28v1.36h1.28v-1.36ZM53.87,81.89h-1.28v1.37h1.28v-1.37ZM52.6,85.96h1.28v-2.08h-1.28v2.08ZM52.6,87.95h1.28v-1.44h-1.28v1.44ZM71.42,90.38h1.28v-1.36h-1.28v1.36ZM72.7,91.02h-1.28v2.08h1.28v-2.08ZM72.7,93.71h-1.28v1.37h1.28v-1.37ZM53.87,89.03h-1.28v1.3h1.28v-1.3ZM52.6,93.09h1.28v-2.08h-1.28v2.08ZM52.6,95.08h1.28v-1.41h-1.28v1.41ZM71.42,97.52h1.28v-1.36h-1.28v1.36ZM72.7,98.14h-1.28v2.09h1.28v-2.09ZM72.7,100.85h-1.28v1.37h1.28v-1.37ZM53.87,96.11h-1.28v1.37h1.28v-1.37ZM52.6,100.18h1.28v-2.08h-1.28v2.08ZM52.6,102.17h1.28v-1.32h-1.28v1.32ZM71.42,104.61h1.28v-1.37h-1.28v1.37ZM72.7,105.23h-1.28v2.08h1.28v-2.08ZM72.7,107.94h-1.28v1.36h1.28v-1.36ZM53.87,103.24h-1.28v1.37h1.28v-1.37ZM52.6,107.31h1.28v-2.08h-1.28v2.08ZM52.6,109.3h1.28v-1.36h-1.28v1.36ZM71.42,111.75h1.28v-1.33h-1.28v1.33ZM72.7,112.37h-1.28v2.08h1.28v-2.08ZM72.7,115.07h-1.28v1.36h1.28v-1.36ZM53.87,110.38h-1.28v1.36h1.28v-1.36ZM52.6,114.44h1.28v-2.11h-1.28v2.11ZM52.6,116.43h1.28v-1.36h-1.28v1.36Z"/>
  <path class="cls-1" d="M51.48,29.78h22.34l.23.22v88.35l-.23.23h-22.34l-.23-.23V29.99l.23-.21ZM73.6,30.23h-21.9v87.9h21.9V30.23ZM71.42,31.7l-.22.22v1.37l.22.22h1.28l.22-.22v-1.37l-.22-.22h-1.28ZM72.47,32.15h-.83v.91h.83v-.91ZM72.92,33.91l-.22-.22h-1.28l-.22.22v2.08l.22.23h1.28l.22-.23v-2.08ZM72.47,34.13h-.83v1.66h.83v-1.66ZM72.92,36.61l-.22-.22h-1.28l-.22.22v1.36l.22.23h1.28l.22-.23v-1.36ZM72.47,36.83h-.83v.96h.83v-.96ZM53.65,32.15h-.83v.91h.83v-.91ZM52.6,31.7l-.22.22v1.37l.22.22h1.28l.23-.22v-1.37l-.23-.22h-1.28ZM52.83,35.76h.83v-1.63h-.83v1.63ZM52.37,35.98l.22.23h1.28l.23-.23v-2.09l-.23-.22h-1.28l-.22.22v2.09ZM52.83,37.75h.83v-.96h-.83v.96ZM52.37,37.97l.22.23h1.28l.23-.23v-1.36l-.23-.22h-1.28l-.22.22v1.36ZM71.42,38.82l-.22.23v1.37l.22.22h1.28l.22-.22v-1.37l-.22-.23h-1.28ZM72.47,39.27h-.83v.96h.83v-.96ZM72.92,41.04l-.22-.23h-1.28l-.22.23v2.08l.22.22h1.28l.22-.22v-2.08ZM72.47,41.26h-.83v1.63h.83v-1.63ZM72.92,43.74l-.22-.22h-1.28l-.22.22v1.37l.22.23h1.28l.22-.23v-1.37ZM72.47,43.97h-.83v.96h.83v-.96ZM53.65,39.27h-.83v.96h.83v-.96ZM52.6,38.82l-.22.23v1.37l.22.22h1.28l.23-.22v-1.37l-.23-.23h-1.28ZM52.83,42.9h.83v-1.63h-.83v1.63ZM52.37,43.12l.22.22h1.28l.23-.22v-2.08l-.23-.23h-1.28l-.22.23v2.08ZM52.83,44.89h.83v-.96h-.83v.96ZM52.37,45.11l.22.23h1.28l.23-.23v-1.37l-.23-.22h-1.28l-.22.22v1.37ZM71.42,45.96l-.22.23v1.36l.22.22h1.28l.22-.22v-1.36l-.22-.23h-1.28ZM72.47,46.41h-.83v.96h.83v-.96ZM72.92,48.18l-.22-.23h-1.28l-.22.23v2.08l.22.22h1.28l.22-.22v-2.08ZM72.47,48.4h-.83v1.63h.83v-1.63ZM72.92,50.88l-.22-.22h-1.28l-.22.22v1.37l.22.22h1.28l.22-.22v-1.37ZM72.47,51.11h-.83v.91h.83v-.91ZM53.65,46.39h-.83v.96h.83v-.96ZM52.6,45.94l-.22.23v1.36l.22.22h1.28l.23-.22v-1.36l-.23-.23h-1.28ZM52.83,50.01h.83v-1.63h-.83v1.63ZM52.37,50.23l.22.22h1.28l.23-.22v-2.08l-.23-.23h-1.28l-.22.23v2.08ZM52.83,52h.83v-.89h-.83v.89ZM52.37,52.22l.22.22h1.28l.23-.22v-1.37l-.23-.22h-1.28l-.22.22v1.37ZM71.42,53.08l-.22.22v1.37l.22.22h1.28l.22-.22v-1.36l-.22-.22h-1.28ZM72.47,53.53h-.83v.96h.83v-.96ZM72.92,55.29l-.22-.22h-1.28l-.22.22v2.08l.22.23h1.28l.22-.23v-2.08ZM72.47,55.52h-.83v1.63h.83v-1.63ZM72.92,57.99l-.22-.22h-1.28l-.22.22v1.36l.22.23h1.28l.22-.23v-1.36ZM72.47,58.21h-.83v.96h.83v-.96ZM53.65,53.53h-.83v.96h.83v-.96ZM52.6,53.08l-.22.22v1.37l.22.22h1.28l.23-.22v-1.36l-.23-.22h-1.28ZM52.83,57.14h.83v-1.63h-.83v1.63ZM52.37,57.36l.22.23h1.28l.23-.23v-2.08l-.23-.22h-1.28l-.22.22v2.08ZM52.83,59.13h.83v-.96h-.83v.96ZM52.37,59.35l.22.23h1.28l.23-.23v-1.36l-.23-.22h-1.28l-.22.22v1.36ZM71.42,60.21l-.22.22v1.37l.22.22h1.28l.22-.22v-1.37l-.22-.22h-1.28ZM72.47,60.66h-.83v.97h.83v-.97ZM72.92,62.42l-.22-.22h-1.28l-.22.22v2.08l.22.23h1.28l.22-.23v-2.08ZM72.47,62.64h-.83v1.64h.83v-1.64ZM72.92,65.13l-.22-.23h-1.28l-.22.23v1.36l.22.23h1.28l.22-.23v-1.36ZM72.47,65.35h-.83v.96h.83v-.96ZM53.65,60.66h-.83v.97h.83v-.97ZM52.6,60.21l-.22.22v1.37l.22.22h1.28l.23-.22v-1.37l-.23-.22h-1.28ZM52.83,64.28h.83v-1.64h-.83v1.64ZM52.37,64.5l.22.23h1.28l.23-.23v-2.08l-.23-.22h-1.28l-.22.22v2.08ZM52.83,66.27h.83v-.96h-.83v.96ZM52.37,66.49l.22.23h1.28l.23-.23v-1.36l-.23-.23h-1.28l-.22.23v1.36ZM71.42,67.34l-.22.23v1.36l.22.23h1.28l.22-.23v-1.36l-.22-.23h-1.28ZM72.47,67.79h-.83v.96h.83v-.96ZM72.92,69.56l-.22-.23h-1.28l-.22.23v2.08l.22.22h1.28l.22-.22v-2.08ZM72.47,69.78h-.83v1.63h.83v-1.63ZM72.92,72.26l-.22-.22h-1.28l-.22.22v1.37l.22.22h1.28l.22-.22v-1.37ZM72.47,72.49h-.83v.91h.83v-.91ZM53.65,67.79h-.83v.96h.83v-.96ZM52.6,67.34l-.22.23v1.36l.22.23h1.28l.23-.23v-1.36l-.23-.23h-1.28ZM52.83,71.41h.83v-1.63h-.83v1.63ZM52.37,71.63l.22.22h1.28l.23-.22v-2.07l-.23-.23h-1.28l-.22.23v2.07ZM52.83,73.39h.83v-.91h-.83v.91ZM52.37,73.62l.22.22h1.28l.23-.22v-1.37l-.23-.22h-1.28l-.22.22v1.37ZM71.42,74.48l-.22.22v1.37l.22.22h1.28l.22-.22v-1.37l-.22-.22h-1.28ZM72.47,74.93h-.83v.96h.83v-.96ZM72.92,76.7l-.22-.23h-1.28l-.22.23v2.08l.22.22h1.28l.22-.22v-2.08ZM72.47,76.92h-.83v1.63h.83v-1.63ZM72.92,79.39l-.22-.22h-1.28l-.22.22v1.37l.22.22h1.28l.22-.22v-1.37ZM72.47,79.61h-.83v.96h.83v-.96ZM53.65,74.93h-.83v.96h.83v-.96ZM52.6,74.48l-.22.22v1.37l.22.22h1.28l.23-.22v-1.37l-.23-.22h-1.28ZM52.83,78.54h.83v-1.61h-.83v1.61ZM52.37,78.77l.22.22h1.28l.23-.22v-2.08l-.23-.23h-1.28l-.22.23v2.08ZM52.83,80.53h.83v-.96h-.83v.96ZM52.37,80.76l.22.22h1.28l.23-.22v-1.37l-.23-.22h-1.28l-.22.22v1.37ZM71.42,81.62l-.22.22v1.37l.22.22h1.28l.22-.22v-1.37l-.22-.22h-1.28ZM72.47,82.06h-.83v.96h.83v-.96ZM72.92,83.83l-.22-.22h-1.28l-.22.22v2.08l.22.23h1.28l.22-.23v-2.08ZM72.47,84.05h-.83v1.64h.83v-1.64ZM72.92,86.54l-.22-.23h-1.28l-.22.23v1.36l.22.23h1.28l.22-.23v-1.36ZM72.47,86.76h-.83v.96h.83v-.96ZM53.65,82.06h-.83v.96h.83v-.96ZM52.6,81.62l-.22.22v1.37l.22.22h1.28l.23-.22v-1.37l-.23-.22h-1.28ZM52.83,85.69h.83v-1.64h-.83v1.64ZM52.37,85.91l.22.23h1.28l.23-.23v-2.08l-.23-.22h-1.28l-.22.22v2.08ZM52.83,87.68h.83v-.96h-.83v.96ZM52.37,87.9l.22.23h1.28l.23-.23v-1.4l-.23-.23h-1.28l-.22.23v1.4ZM71.42,88.75l-.22.23v1.35l.22.23h1.28l.22-.23v-1.36l-.22-.23h-1.28ZM72.47,89.2h-.83v.96h.83v-.96ZM72.92,90.97l-.22-.23h-1.28l-.22.23v2.08l.22.22h1.28l.22-.22v-2.08ZM72.47,91.19h-.83v1.63h.83v-1.63ZM72.92,93.67l-.22-.22h-1.28l-.22.22v1.37l.22.23h1.28l.22-.23v-1.37ZM72.47,93.9h-.83v.91h.83v-.91ZM53.65,89.2h-.83v.96h.83v-.96ZM52.6,88.75l-.22.23v1.35l.22.23h1.28l.23-.23v-1.36l-.23-.23h-1.28ZM52.83,92.81h.83v-1.63h-.83v1.63ZM52.37,93.04l.22.22h1.28l.23-.22v-2.08l-.23-.23h-1.28l-.22.23v2.08ZM52.83,94.8h.83v-.91h-.83v.91ZM52.37,95.03l.22.23h1.28l.23-.23v-1.37l-.23-.22h-1.28l-.22.22v1.37ZM71.42,95.88l-.22.23v1.36l.22.22h1.28l.22-.22v-1.36l-.22-.23h-1.28ZM72.47,96.33h-.83v.96h.83v-.96ZM72.92,98.1l-.22-.23h-1.28l-.22.23v2.08l.22.22h1.28l.22-.22v-2.08ZM72.47,98.32h-.83v1.63h.83v-1.63ZM72.92,100.8l-.22-.22h-1.28l-.22.22v1.37l.22.22h1.28l.22-.22v-1.37ZM72.47,101.03h-.83v.91h.83v-.91ZM53.65,96.33h-.83v.96h.83v-.96ZM52.6,95.88l-.22.23v1.36l.22.22h1.28l.23-.22v-1.36l-.23-.23h-1.28ZM52.83,99.95h.83v-1.63h-.83v1.63ZM52.37,100.18l.22.22h1.28l.23-.22v-2.08l-.23-.23h-1.28l-.22.23v2.08ZM52.83,101.94h.83v-.91h-.83v.91ZM52.37,102.17l.22.22h1.28l.23-.22v-1.32l-.23-.22h-1.28l-.22.22v1.32ZM71.42,103.02l-.22.22v1.37l.22.22h1.28l.22-.22v-1.37l-.22-.22h-1.28ZM72.47,103.46h-.83v.96h.83v-.96ZM72.92,105.23l-.22-.22h-1.28l-.22.22v2.08l.22.23h1.28l.22-.23v-2.08ZM72.47,105.45h-.83v1.64h.83v-1.64ZM72.92,107.94l-.22-.23h-1.28l-.22.23v1.36l.22.23h1.28l.22-.23v-1.36ZM72.47,108.16h-.83v.96h.83v-.96ZM53.65,103.46h-.83v.96h.83v-.96ZM52.6,103.02l-.22.22v1.37l.22.22h1.28l.23-.22v-1.37l-.23-.22h-1.28ZM52.83,107.09h.83v-1.63h-.83v1.63ZM52.37,107.31l.22.23h1.28l.23-.23v-2.08l-.23-.22h-1.28l-.22.22v2.08ZM52.83,109.08h.83v-.96h-.83v.96ZM52.37,109.3l.22.23h1.28l.23-.23v-1.36l-.23-.23h-1.28l-.22.23v1.36ZM71.42,110.16l-.22.22v1.36l.22.23h1.28l.22-.23v-1.32l-.22-.22-1.28-.04ZM72.47,110.6h-.83v.96h.83v-.96ZM72.92,112.37l-.22-.22h-1.28l-.22.22v2.08l.22.23h1.28l.22-.23v-2.08ZM72.47,112.59h-.83v1.65h.83v-1.65ZM72.92,115.07l-.22-.22h-1.28l-.22.22v1.37l.22.23h1.28l.22-.23v-1.37ZM72.47,115.29h-.83v.96h.83v-.96ZM53.65,110.6h-.83v.96h.83v-.96ZM52.6,110.16l-.22.22v1.36l.22.23h1.28l.23-.23v-1.32l-.23-.22-1.28-.04ZM52.83,114.22h.83v-1.64h-.83v1.64ZM52.37,114.44l.22.23h1.28l.23-.23v-2.11l-.23-.22h-1.28l-.22.22v2.11ZM52.83,116.21h.83v-.96h-.83v.96ZM52.37,116.43l.22.23h1.28l.23-.23v-1.37l-.23-.22h-1.28l-.22.22v1.37Z"/>
  <rect class="cls-5" x="54.91" y="31.91" width="3.38" height="5.74"/>
  <rect class="cls-3" x="59.81" y="31.91" width="5.67" height="5.74"/>
  <rect class="cls-5" x="66.99" y="31.91" width="3.38" height="5.74"/>
  <path class="cls-1" d="M70.38,37.88h-3.38l-.22-.23v-5.74l.22-.22h3.38l.23.22v5.74l-.23.23ZM67.22,37.43h2.93v-5.29h-2.93v5.29ZM65.48,37.88h-5.66l-.23-.23v-5.74l.23-.22h5.67l.23.22v5.74l-.24.23ZM60.04,37.43h5.22v-5.29h-5.22v5.29ZM58.31,37.88h-3.39l-.22-.23v-5.74l.22-.22h3.39l.22.22v5.74l-.22.23ZM55.14,37.43h2.93v-5.29h-2.93v5.29Z"/>
  <polygon class="cls-1" points="54.72 37.54 56.35 34.78 54.72 32.02 55.11 31.8 56.61 34.34 58.11 31.8 58.49 32.02 56.86 34.78 58.49 37.54 58.11 37.76 56.61 35.23 55.11 37.76 54.72 37.54"/>
  <polygon class="cls-1" points="66.8 37.54 68.42 34.78 66.8 32.02 67.18 31.8 68.68 34.34 70.18 31.8 70.57 32.02 68.94 34.78 70.57 37.54 70.18 37.76 68.68 35.23 67.18 37.76 66.8 37.54"/>
  <polygon class="cls-1" points="59.78 37.44 65.33 31.75 65.64 32.07 60.1 37.75 59.78 37.44"/>
  <polygon class="cls-1" points="65.64 37.44 60.11 31.75 59.78 32.07 65.33 37.75 65.64 37.44"/>
  <rect class="cls-5" x="54.91" y="39.8" width="3.38" height="5.74"/>
  <rect class="cls-3" x="59.81" y="39.8" width="5.67" height="5.74"/>
  <rect class="cls-5" x="66.99" y="39.8" width="3.38" height="5.74"/>
  <path class="cls-1" d="M70.38,45.82h-3.38l-.22-.23v-5.74l.22-.22h3.38l.23.22v5.74l-.23.23ZM67.22,45.37h2.93v-5.3h-2.93v5.3ZM65.48,45.82h-5.66l-.23-.23v-5.74l.23-.22h5.67l.23.22v5.74l-.24.23ZM60.04,45.37h5.22v-5.3h-5.22v5.3ZM58.31,45.82h-3.39l-.22-.23v-5.74l.22-.22h3.39l.22.22v5.74l-.22.23ZM55.14,45.37h2.93v-5.3h-2.93v5.3Z"/>
  <path class="cls-1" d="M54.73,45.42c.54-.96,1.08-1.84,1.63-2.76-.55-.96-1.09-1.84-1.63-2.76l.38-.23,1.5,2.54,1.5-2.54.38.23c-.55.96-1.09,1.84-1.63,2.76.54.96,1.08,1.84,1.63,2.76l-.38.23-1.5-2.54-1.5,2.54-.38-.23Z"/>
  <path class="cls-1" d="M66.8,45.42c.55-.96,1.09-1.84,1.63-2.76-.54-.96-1.08-1.84-1.63-2.76l.39-.23,1.5,2.54c.49-.85.96-1.69,1.49-2.54l.39.23c-.55.96-1.09,1.84-1.63,2.76.54.96,1.08,1.84,1.63,2.76l-.39.23c-.49-.85-.96-1.69-1.49-2.54l-1.5,2.54-.39-.23Z"/>
  <polygon class="cls-1" points="59.78 45.37 65.33 39.68 65.64 39.99 60.11 45.67 59.78 45.37"/>
  <polygon class="cls-1" points="65.64 45.37 60.11 39.63 59.78 39.93 65.33 45.61 65.64 45.37"/>
  <rect class="cls-5" x="54.91" y="47.69" width="3.38" height="5.74"/>
  <rect class="cls-3" x="59.81" y="47.69" width="5.67" height="5.74"/>
  <rect class="cls-5" x="66.99" y="47.69" width="3.38" height="5.74"/>
  <path class="cls-1" d="M70.38,53.65h-3.38l-.22-.22v-5.74l.22-.23h3.38l.23.23v5.74l-.23.22ZM67.22,53.21h2.93v-5.3h-2.93v5.3ZM65.48,53.65h-5.66l-.23-.22v-5.74l.23-.23h5.67l.23.23v5.74l-.24.22ZM60.04,53.21h5.22v-5.3h-5.22v5.3ZM58.31,53.65h-3.39l-.22-.22v-5.74l.22-.23h3.39l.22.23v5.74l-.22.22ZM55.14,53.21h2.93v-5.3h-2.93v5.3Z"/>
  <path class="cls-1" d="M54.73,53.32c.54-.96,1.08-1.84,1.63-2.76-.55-.96-1.09-1.84-1.63-2.76l.38-.23,1.5,2.54,1.5-2.54.38.23c-.55.96-1.09,1.84-1.63,2.76.54.96,1.08,1.84,1.63,2.76l-.38.23-1.5-2.54-1.5,2.54-.38-.23Z"/>
  <path class="cls-1" d="M66.8,53.32c.55-.96,1.09-1.84,1.63-2.76-.54-.96-1.08-1.84-1.63-2.76l.39-.23,1.5,2.54c.49-.85.96-1.7,1.49-2.54l.39.23c-.55.96-1.09,1.84-1.63,2.76.54.96,1.08,1.84,1.63,2.76l-.39.23c-.49-.85-.96-1.69-1.49-2.54l-1.5,2.54-.39-.23Z"/>
  <polygon class="cls-1" points="59.78 53.22 65.33 47.54 65.64 47.84 60.11 53.53 59.78 53.22"/>
  <polygon class="cls-1" points="65.64 53.22 60.11 47.54 59.78 47.84 65.33 53.53 65.64 53.22"/>
  <rect class="cls-5" x="54.91" y="55.58" width="3.38" height="5.74"/>
  <rect class="cls-3" x="59.81" y="55.58" width="5.67" height="5.74"/>
  <rect class="cls-5" x="66.99" y="55.58" width="3.38" height="5.74"/>
  <path class="cls-1" d="M70.38,61.54h-3.38l-.22-.22v-5.74l.22-.23h3.38l.23.23v5.74l-.23.22ZM67.22,61.09h2.93v-5.29h-2.93v5.29ZM65.48,61.54h-5.66l-.23-.22v-5.74l.23-.23h5.67l.23.23v5.74l-.24.22ZM60.04,61.09h5.22v-5.29h-5.22v5.29ZM58.31,61.54h-3.39l-.22-.22v-5.74l.22-.23h3.39l.22.23v5.74l-.22.22ZM55.14,61.09h2.93v-5.29h-2.93v5.29Z"/>
  <path class="cls-1" d="M54.73,61.21c.54-.96,1.08-1.84,1.63-2.76-.55-.96-1.09-1.84-1.63-2.76l.38-.23,1.5,2.54,1.5-2.54.38.23c-.55.96-1.09,1.84-1.63,2.76.54.96,1.08,1.84,1.63,2.76l-.38.23-1.5-2.54-1.5,2.54-.38-.23Z"/>
  <path class="cls-1" d="M66.8,61.21c.55-.96,1.09-1.84,1.63-2.76-.54-.96-1.08-1.84-1.63-2.76l.39-.23,1.5,2.54c.49-.85.96-1.69,1.49-2.54l.39.23c-.55.96-1.09,1.84-1.63,2.76.54.96,1.08,1.84,1.63,2.76l-.39.23c-.49-.85-.96-1.69-1.49-2.54l-1.5,2.54-.39-.23Z"/>
  <polygon class="cls-1" points="59.78 61.1 65.33 55.42 65.64 55.74 60.11 61.42 59.78 61.1"/>
  <polygon class="cls-1" points="65.64 61.1 60.11 55.42 59.78 55.74 65.33 61.42 65.64 61.1"/>
  <rect class="cls-5" x="54.91" y="63.47" width="3.38" height="5.74"/>
  <rect class="cls-3" x="59.81" y="63.47" width="5.67" height="5.74"/>
  <rect class="cls-5" x="66.99" y="63.47" width="3.38" height="5.74"/>
  <path class="cls-1" d="M70.38,69.43h-3.38l-.22-.22v-5.74l.22-.22h3.38l.23.22v5.74l-.23.22ZM67.22,68.98h2.93v-5.29h-2.93v5.29ZM65.48,69.43h-5.66l-.23-.22v-5.74l.23-.22h5.67l.23.22v5.74l-.24.22ZM60.04,68.98h5.22v-5.29h-5.22v5.29ZM58.31,69.43h-3.39l-.22-.22v-5.74l.22-.22h3.39l.22.22v5.74l-.22.22ZM55.14,68.98h2.93v-5.29h-2.93v5.29Z"/>
  <path class="cls-1" d="M54.73,69.1l1.63-2.76c-.55-.96-1.09-1.84-1.63-2.76l.38-.22,1.5,2.54,1.5-2.54.38.22c-.55.96-1.09,1.84-1.63,2.76.54.96,1.08,1.85,1.63,2.76l-.38.22-1.5-2.54-1.5,2.5-.38-.18Z"/>
  <path class="cls-1" d="M66.8,69.1c.55-.96,1.09-1.84,1.63-2.76-.54-.96-1.08-1.84-1.63-2.76l.39-.22,1.5,2.54c.49-.85.96-1.7,1.49-2.54l.39.22c-.55.96-1.09,1.84-1.63,2.76.54.96,1.08,1.85,1.63,2.76l-.39.22-1.49-2.54-1.5,2.5-.39-.18Z"/>
  <polygon class="cls-1" points="59.78 68.99 65.33 63.31 65.64 63.63 60.11 69.28 59.78 68.99"/>
  <polygon class="cls-1" points="65.64 68.99 60.11 63.31 59.78 63.63 65.33 69.31 65.64 68.99"/>
  <rect class="cls-5" x="54.91" y="71.37" width="3.38" height="5.74"/>
  <rect class="cls-3" x="59.81" y="71.37" width="5.67" height="5.74"/>
  <rect class="cls-5" x="66.99" y="71.37" width="3.38" height="5.74"/>
  <path class="cls-1" d="M70.38,77.33h-3.38l-.22-.22v-5.74l.22-.22h3.38l.23.22v5.74l-.23.22ZM67.22,76.88h2.93v-5.29h-2.93v5.29ZM65.48,77.33h-5.66l-.23-.22v-5.74l.23-.22h5.67l.23.22v5.74l-.24.22ZM60.04,76.88h5.22v-5.29h-5.22v5.29ZM58.31,77.33h-3.39l-.22-.22v-5.74l.22-.22h3.39l.22.22v5.74l-.22.22ZM55.14,76.88h2.93v-5.29h-2.93v5.29Z"/>
  <path class="cls-1" d="M54.73,76.99l1.63-2.76c-.55-.96-1.09-1.84-1.63-2.76l.38-.22,1.5,2.54,1.5-2.54.38.22c-.55.96-1.09,1.84-1.63,2.76.54.96,1.08,1.85,1.63,2.76l-.38.22-1.5-2.54-1.5,2.54-.38-.22Z"/>
  <path class="cls-1" d="M66.8,76.99c.55-.96,1.09-1.84,1.63-2.76-.54-.96-1.08-1.84-1.63-2.76l.39-.22,1.5,2.54,1.49-2.54.39.22c-.55.96-1.09,1.84-1.63,2.76.54.96,1.08,1.85,1.63,2.76l-.39.22-1.49-2.54-1.5,2.54-.39-.22Z"/>
  <polygon class="cls-1" points="59.78 76.93 65.33 71.25 65.64 71.57 60.11 77.25 59.78 76.93"/>
  <polygon class="cls-1" points="65.64 76.93 60.11 71.19 59.78 71.51 65.33 77.19 65.64 76.93"/>
  <rect class="cls-5" x="54.91" y="79.26" width="3.38" height="5.74"/>
  <rect class="cls-3" x="59.81" y="79.26" width="5.67" height="5.74"/>
  <rect class="cls-5" x="66.99" y="79.26" width="3.38" height="5.74"/>
  <path class="cls-1" d="M70.38,85.22h-3.38l-.22-.22v-5.74l.22-.22h3.38l.23.22v5.74l-.23.22ZM67.22,84.77h2.93v-5.29h-2.93v5.29ZM65.48,85.22h-5.66l-.23-.22v-5.74l.23-.22h5.67l.23.22v5.74l-.24.22ZM60.04,84.77h5.22v-5.29h-5.22v5.29ZM58.31,85.22h-3.39l-.22-.22v-5.74l.22-.22h3.39l.22.22v5.74l-.22.22ZM55.14,84.77h2.93v-5.29h-2.93v5.29Z"/>
  <path class="cls-1" d="M54.73,84.88c.54-.96,1.08-1.85,1.63-2.76-.55-.96-1.09-1.84-1.63-2.76l.38-.23,1.5,2.54,1.5-2.54.38.23c-.55.96-1.09,1.84-1.63,2.76.54.96,1.08,1.85,1.63,2.76l-.38.22-1.5-2.54-1.5,2.54-.38-.22Z"/>
  <path class="cls-1" d="M66.8,84.88c.55-.96,1.09-1.85,1.63-2.76-.54-.96-1.08-1.84-1.63-2.76l.39-.23,1.5,2.54c.49-.84.96-1.69,1.49-2.54l.39.23c-.55.96-1.09,1.84-1.63,2.76.54.96,1.08,1.85,1.63,2.76l-.39.22c-.49-.85-.96-1.69-1.49-2.54l-1.5,2.54-.39-.22Z"/>
  <polygon class="cls-1" points="59.78 84.78 65.33 79.1 65.64 79.4 60.11 85.08 59.78 84.78"/>
  <polygon class="cls-1" points="65.64 84.78 60.11 79.1 59.78 79.4 65.33 85.08 65.64 84.78"/>
  <rect class="cls-5" x="54.91" y="87.14" width="3.38" height="5.74"/>
  <rect class="cls-3" x="59.81" y="87.14" width="5.67" height="5.74"/>
  <rect class="cls-5" x="66.99" y="87.14" width="3.38" height="5.74"/>
  <path class="cls-1" d="M70.38,93.11h-3.38l-.22-.23v-5.74l.22-.22h3.38l.23.22v5.74l-.23.23ZM67.22,92.66h2.93v-5.3h-2.93v5.3ZM65.48,93.11h-5.66l-.23-.23v-5.74l.23-.22h5.67l.23.22v5.74l-.24.23ZM60.04,92.66h5.22v-5.3h-5.22v5.3ZM58.31,93.11h-3.39l-.22-.23v-5.74l.22-.22h3.39l.22.22v5.74l-.22.23ZM55.14,92.66h2.93v-5.3h-2.93v5.3Z"/>
  <path class="cls-1" d="M54.73,92.77c.54-.96,1.08-1.84,1.63-2.76-.55-.96-1.09-1.84-1.63-2.76l.38-.23,1.5,2.54,1.5-2.54.38.23c-.55.96-1.09,1.84-1.63,2.76.54.96,1.08,1.84,1.63,2.76l-.38.23-1.5-2.54-1.5,2.54-.38-.23Z"/>
  <path class="cls-1" d="M66.8,92.77c.55-.96,1.09-1.84,1.63-2.76-.54-.96-1.08-1.84-1.63-2.76l.39-.23,1.5,2.54c.49-.85.96-1.69,1.49-2.54l.39.23c-.55.96-1.09,1.84-1.63,2.76.54.96,1.08,1.84,1.63,2.76l-.39.23c-.49-.85-.96-1.69-1.49-2.54l-1.5,2.54-.39-.23Z"/>
  <polygon class="cls-1" points="59.78 92.67 65.33 86.99 65.64 87.29 60.11 92.98 59.78 92.67"/>
  <polygon class="cls-1" points="65.64 92.67 60.11 86.99 59.78 87.29 65.33 92.98 65.64 92.67"/>
  <rect class="cls-5" x="54.91" y="95.03" width="3.38" height="5.74"/>
  <rect class="cls-3" x="59.81" y="95.03" width="5.67" height="5.74"/>
  <rect class="cls-5" x="66.99" y="95.03" width="3.38" height="5.74"/>
  <path class="cls-1" d="M70.38,100.99h-3.38l-.22-.22v-5.74l.22-.23h3.38l.23.23v5.74l-.23.22ZM67.22,100.55h2.93v-5.3h-2.93v5.3ZM65.48,100.99h-5.66l-.23-.22v-5.74l.23-.23h5.67l.23.23v5.74l-.24.22ZM60.04,100.55h5.22v-5.3h-5.22v5.3ZM58.31,100.99h-3.39l-.22-.22v-5.74l.22-.23h3.39l.22.23v5.74l-.22.22ZM55.14,100.55h2.93v-5.3h-2.93v5.3Z"/>
  <path class="cls-1" d="M54.73,100.66c.54-.96,1.08-1.84,1.63-2.76-.55-.96-1.09-1.84-1.63-2.76l.38-.23,1.5,2.54,1.5-2.54.38.23c-.55.96-1.09,1.84-1.63,2.76.54.96,1.08,1.84,1.63,2.76l-.38.23-1.5-2.54-1.5,2.51-.38-.19Z"/>
  <path class="cls-1" d="M66.8,100.66c.55-.96,1.09-1.84,1.63-2.76-.54-.96-1.08-1.84-1.63-2.76l.39-.23,1.5,2.54c.49-.85.96-1.69,1.49-2.54l.39.23c-.55.96-1.09,1.84-1.63,2.76.54.96,1.08,1.84,1.63,2.76l-.39.23c-.49-.85-.96-1.69-1.49-2.54l-1.5,2.51-.39-.19Z"/>
  <polygon class="cls-1" points="59.78 100.56 65.33 94.88 65.64 95.19 60.11 100.85 59.78 100.56"/>
  <polygon class="cls-1" points="65.64 100.56 60.11 94.88 59.78 95.19 65.33 100.87 65.64 100.56"/>
  <rect class="cls-5" x="54.91" y="102.93" width="3.38" height="5.74"/>
  <rect class="cls-3" x="59.81" y="102.93" width="5.67" height="5.74"/>
  <rect class="cls-5" x="66.99" y="102.93" width="3.38" height="5.74"/>
  <path class="cls-1" d="M70.38,108.89h-3.38l-.22-.22v-5.74l.22-.23h3.38l.23.23v5.74l-.23.22ZM67.22,108.44h2.93v-5.29h-2.93v5.29ZM65.48,108.89h-5.66l-.23-.22v-5.74l.23-.23h5.67l.23.23v5.74l-.24.22ZM60.04,108.44h5.22v-5.29h-5.22v5.29ZM58.31,108.89h-3.39l-.22-.22v-5.74l.22-.23h3.39l.22.23v5.74l-.22.22ZM55.14,108.44h2.93v-5.29h-2.93v5.29Z"/>
  <path class="cls-1" d="M54.73,108.55c.54-.96,1.08-1.84,1.63-2.76-.55-.96-1.09-1.84-1.63-2.76l.38-.23,1.5,2.54,1.5-2.54.38.23c-.55.96-1.09,1.84-1.63,2.76.54.96,1.08,1.84,1.63,2.76l-.38.23-1.5-2.54-1.5,2.54-.38-.23Z"/>
  <path class="cls-1" d="M66.8,108.55c.55-.96,1.09-1.84,1.63-2.76-.54-.96-1.08-1.84-1.63-2.76l.39-.23,1.5,2.54c.49-.85.96-1.7,1.49-2.54l.39.23c-.55.96-1.09,1.84-1.63,2.76.54.96,1.08,1.84,1.63,2.76l-.39.23c-.49-.85-.96-1.69-1.49-2.54l-1.5,2.54-.39-.23Z"/>
  <polygon class="cls-1" points="59.78 108.45 65.33 102.76 65.64 103.08 60.11 108.76 59.78 108.45"/>
  <polygon class="cls-1" points="65.64 108.45 60.11 102.76 59.78 103.08 65.33 108.76 65.64 108.45"/>
  <rect class="cls-5" x="54.91" y="110.82" width="3.38" height="5.74"/>
  <rect class="cls-3" x="59.81" y="110.82" width="5.67" height="5.74"/>
  <rect class="cls-5" x="66.99" y="110.82" width="3.38" height="5.74"/>
  <path class="cls-1" d="M70.38,116.78h-3.38l-.22-.22v-5.74l.22-.22h3.38l.23.22v5.74l-.23.22ZM67.22,116.33h2.93v-5.29h-2.93v5.29ZM65.48,116.78h-5.66l-.23-.22v-5.74l.23-.22h5.67l.23.22v5.74l-.24.22ZM60.04,116.33h5.22v-5.29h-5.22v5.29ZM58.31,116.78h-3.39l-.22-.22v-5.74l.22-.22h3.39l.22.22v5.74l-.22.22ZM55.14,116.33h2.93v-5.29h-2.93v5.29Z"/>
  <polygon class="cls-1" points="54.72 116.44 56.35 113.69 54.72 110.93 55.11 110.7 56.61 113.25 58.11 110.7 58.49 110.93 56.86 113.69 58.49 116.44 58.11 116.67 56.61 114.13 55.11 116.67 54.72 116.44"/>
  <polygon class="cls-1" points="66.8 116.44 68.42 113.69 66.8 110.93 67.18 110.7 68.68 113.25 70.18 110.7 70.57 110.93 68.94 113.69 70.57 116.44 70.18 116.67 68.68 114.13 67.18 116.67 66.8 116.44"/>
  <polygon class="cls-1" points="59.78 116.35 65.33 110.66 65.64 110.97 60.1 116.65 59.78 116.35"/>
  <polygon class="cls-1" points="65.64 116.35 60.11 110.66 59.78 110.97 65.33 116.65 65.64 116.35"/>
  <rect class="cls-6" x="51.25" y="28.61" width="50.2" height="90.35"/>
</svg>