<?xml version="1.0" encoding="UTF-8"?>
<svg id="TorreGlòries" xmlns="http://www.w3.org/2000/svg" viewBox="0 0 152.69 147.57">
  <defs>
    <style>
      .cls-1 {
        fill: none;
        stroke-width: 0px;
      }

      .cls-2 {
        stroke-width: .5px;
      }

      .cls-2, .cls-3 {
        fill: #01352c;
        stroke: #02352c;
        stroke-miterlimit: 10;
      }

      .cls-3 {
        stroke-width: .49px;
      }
    </style>
  </defs>
  <path class="cls-2" d="M59.89,101.82v14.81c0,1.38.05,2.38.06,2.98v.5c0,.1.04.18.11.25s.15.1.25.1h23.95c.1,0,.18-.03.25-.1.07-.07.1-.15.1-.25v-.5c0-.55,0-1.56.06-2.98,0-1.53.06-3.53.08-5.87,0-2.56.06-5.54.06-8.81v-17.79c0-.99,0-1.99-.05-2.98-.05-.99,0-1.99-.07-2.98-.07-.99,0-1.99-.07-2.93-.07-.94-.06-1.99-.1-2.98s-.07-1.99-.11-2.98c-.04-.99-.08-1.99-.13-2.98-.05-.99-.09-1.99-.14-2.98-.05-.99-.12-1.99-.18-2.98-.06-.99-.13-1.99-.2-2.98-.07-.99-.16-1.94-.24-2.87v-.06h-.35.35c-.09-.99-.19-1.99-.3-2.98-.11-.99-.26-1.99-.4-2.98-.14-.99-.33-1.99-.52-2.98-.19-.99-.43-2.04-.66-2.98-.27-1.07-.56-2.06-.86-2.98-.66-2.1-1.58-4.09-2.76-5.96-2.59-3.97-5.14-4.1-5.24-4.09h-.82c-.12,0-3.77.21-6.8,7.07-.39.87-.77,1.87-1.15,2.98-.3.9-.58,1.89-.85,2.98-.23.92-.45,1.91-.66,2.98-.21,1.07-.36,1.91-.52,2.98-.16,1.07-.27,1.92-.39,2.98-.12,1.06-.22,1.92-.31,2.98v.06c-.08.94-.15,1.91-.23,2.88-.08.97-.14,1.99-.2,2.98-.06.99-.12,1.99-.18,2.98-.1,1.92-.2,3.88-.27,5.88-.07,2-.15,3.9-.21,5.88,0,.99-.06,1.99-.08,2.93-.02.94,0,1.99-.07,2.98,0,1.99-.06,3.97-.09,5.88v14.77c-.02.11,0,.21.08.29.07.08.16.13.28.13s.2-.04.28-.13c.07-.08.1-.18.08-.29v-14.72c0-1.99.05-3.9.09-5.87,0-.99,0-1.99.07-2.98.07-.99.05-1.99.07-2.93.06-1.99.13-3.94.21-5.87.08-1.93.17-3.88.27-5.87.06-.99.12-1.99.18-2.93s.13-1.99.21-2.93c.08-.94.15-1.94.23-2.87v-.06c.1-.99.2-1.99.31-2.93s.25-1.99.39-2.92.33-1.99.51-2.98c.18-.99.42-1.99.65-2.91.27-1.06.55-1.99.84-2.92.36-1.08.73-2.05,1.12-2.9,1.49-3.34,3.08-4.97,4.25-5.82.44-.32.91-.56,1.43-.72.12-.04.25-.07.38-.09h.92c.17,0,2.29.22,4.63,3.76,1.2,1.89,2.13,3.91,2.77,6.05.3.88.58,1.85.85,2.91.23.9.45,1.88.65,2.91.2,1.03.35,1.9.51,2.98.16,1.08.28,1.9.4,2.92.12,1.02.21,1.91.3,2.93v.06h.35-.35c.08.93.16,1.89.23,2.87.07.98.14,1.94.21,2.93.07.99.11,1.94.17,2.93l.15,2.98c.05.99.09,1.99.13,2.98.04.99.07,1.99.11,2.98l.09,2.98c0,.99.05,1.99.08,2.93l.06,2.98c0,.99,0,1.99.05,2.93.05.94,0,1.99.05,2.98s0,1.99,0,2.93v11.83c0,3.27,0,6.25-.06,8.8,0,2.35-.06,4.34-.08,5.87-.02,1.53-.05,2.38-.06,2.98v.5h.36v-.35h-23.94v.35h.36v-.51c0-.55,0-1.55-.05-2.98,0-.84,0-1.83-.05-2.93v-11.82c.02-.11,0-.21-.08-.29-.07-.08-.16-.13-.28-.13s-.2.04-.28.13c-.07.08-.1.18-.08.29"/>
  <path class="cls-2" d="M84.4,78.32v-.35h-23.93v.35h.36c0-.99.05-1.99.07-2.93h-.35v.36h23.77v-.32h-.36c0,.99.06,1.99.08,2.93h.71c0-.99-.05-1.99-.07-2.93-.01-.23-.13-.34-.36-.35h-23.77c-.1,0-.18.03-.25.1-.07.07-.11.15-.11.25,0,.99-.05,1.99-.08,2.93l.1.26.26.11h23.93l.25-.11.1-.26-.35-.04Z"/>
  <path class="cls-2" d="M82.34,90.43h2.25c.1,0,.19-.03.26-.1.07-.07.11-.15.11-.25,0-.1-.04-.18-.11-.25-.07-.07-.16-.1-.26-.1h-2.25c-.1,0-.19.03-.26.1-.07.07-.11.15-.11.25s.04.18.11.25c.07.07.16.1.26.1Z"/>
  <path class="cls-2" d="M60.28,90.43h7.97c.1,0,.19-.03.26-.1.07-.07.11-.15.11-.25s-.04-.18-.11-.25c-.07-.07-.16-.1-.26-.1h-7.97c-.1,0-.19.03-.26.1-.07.07-.11.15-.11.25s.04.18.11.25c.07.07.16.1.26.1Z"/>
  <path class="cls-2" d="M84.56,86.78h-8.11c-.1,0-.18.03-.26.1-.07.07-.11.15-.11.25,0,.1.04.18.11.25.07.07.16.1.26.1h8.11c.1,0,.18-.04.25-.11.07-.07.1-.15.1-.25,0-.1-.03-.18-.1-.25-.07-.07-.15-.1-.25-.1"/>
  <path class="cls-2" d="M60.31,87.49h12.38c.1,0,.19-.03.26-.1.07-.07.11-.15.11-.25s-.04-.18-.11-.25c-.07-.07-.16-.1-.26-.1h-12.38c-.1,0-.19.03-.26.1-.07.07-.11.15-.11.25s.04.18.11.25c.07.07.16.1.26.1Z"/>
  <path class="cls-2" d="M70,84.55h14.51c.1,0,.18-.03.26-.1.07-.07.11-.15.11-.25,0-.1-.04-.18-.11-.25-.07-.07-.16-.1-.26-.1h-14.51c-.1,0-.19.03-.26.1-.07.07-.11.15-.11.25,0,.1.04.18.11.25.07.07.16.1.26.1Z"/>
  <path class="cls-2" d="M77.09,81.62h7.38c.1,0,.19-.03.26-.1s.11-.15.11-.25-.04-.18-.11-.25c-.07-.07-.16-.1-.26-.1h-7.38c-.1,0-.18.04-.25.11-.07.07-.1.15-.1.25s.03.18.1.25c.07.07.15.11.25.11"/>
  <path class="cls-2" d="M71.9,80.91h-11.5c-.1,0-.19.03-.26.1-.07.07-.11.15-.11.25,0,.1.04.18.11.25.07.07.16.1.26.1h11.5c.1,0,.19-.03.26-.1.07-.07.11-.15.11-.25s-.04-.18-.11-.25c-.07-.07-.16-.1-.26-.1"/>
  <path class="cls-2" d="M84.4,77.98h-4.8c-.2.03-.3.15-.3.35s.1.32.3.35h4.8c.2-.03.3-.15.3-.35s-.1-.32-.3-.35"/>
  <path class="cls-2" d="M63.93,77.98h-3.46c-.11-.02-.21,0-.29.08-.09.07-.13.16-.13.27s.04.2.13.27c.09.07.18.1.29.08h3.46c.2-.03.3-.15.3-.35s-.1-.32-.3-.35"/>
  <path class="cls-2" d="M71.13,75.75h7.18c.1,0,.19-.03.26-.1.07-.07.11-.15.11-.25s-.04-.18-.11-.25c-.07-.07-.16-.1-.26-.1h-7.18c-.1,0-.19.03-.26.1s-.11.15-.11.25.04.18.11.25c.07.07.16.1.26.1"/>
  <path class="cls-2" d="M64.94,75.04h-4.39c-.1,0-.19.03-.26.1-.07.07-.11.15-.11.25s.04.18.11.25c.07.07.16.1.26.1h4.39c.1,0,.19-.03.26-.1.07-.07.11-.15.11-.25s-.04-.18-.11-.25c-.07-.07-.16-.1-.26-.1"/>
  <path class="cls-2" d="M79.83,72.81h4.37c.2-.03.3-.15.3-.35s-.1-.32-.3-.35h-4.4c-.11-.02-.21,0-.29.08-.09.07-.13.16-.13.27s.04.2.13.27c.09.07.18.1.29.08"/>
  <path class="cls-2" d="M61.46,72.81h9.68c.1,0,.19-.03.26-.1s.11-.15.11-.25c0-.1-.04-.18-.11-.25-.07-.07-.16-.1-.26-.1h-9.63c-.1,0-.18.03-.26.1-.07.07-.11.15-.11.25,0,.1.04.18.11.25.07.07.16.1.26.1"/>
  <path class="cls-2" d="M84.12,69.17h-23.37c-.1,0-.19.03-.26.1-.07.07-.11.15-.11.25s.04.18.11.25c.07.07.16.1.26.1h23.37c.1,0,.18-.03.25-.1.07-.07.1-.15.1-.25s-.03-.18-.1-.25c-.07-.07-.15-.11-.25-.11"/>
  <path class="cls-2" d="M81.19,66.94h2.79c.1,0,.19-.04.26-.1.07-.07.11-.15.11-.25s-.04-.18-.11-.25-.16-.1-.26-.1h-2.79c-.1,0-.19.03-.26.1-.07.07-.11.15-.11.25,0,.1.04.18.11.25.07.07.16.1.26.1Z"/>
  <path class="cls-2" d="M68.83,66.94h14.36c.1,0,.19-.04.26-.1.07-.07.11-.15.11-.25s-.04-.18-.11-.25-.16-.1-.26-.1h-14.36c-.1,0-.19.03-.26.1-.07.07-.11.15-.11.25,0,.1.04.18.11.25.07.07.16.1.26.1"/>
  <path class="cls-2" d="M83.84,63.3h-6.12c-.1,0-.18.03-.26.1-.07.07-.11.15-.11.25s.04.18.11.25c.07.07.16.1.26.1h6.12c.1,0,.18-.04.25-.11.07-.07.1-.15.1-.25,0-.1-.03-.18-.1-.25-.07-.07-.15-.1-.25-.1"/>
  <path class="cls-2" d="M67.66,63.3h-6.57c-.1,0-.18.03-.26.1s-.11.15-.11.25c0,.1.04.18.11.25s.16.1.26.1h6.62c.1,0,.19-.03.26-.1.07-.07.11-.15.11-.25,0-.1-.04-.18-.11-.25-.07-.07-.16-.1-.26-.1"/>
  <path class="cls-3" d="M83.47,60.36h-7.63c-.1,0-.18.03-.25.1-.07.07-.1.15-.1.25s.03.18.1.25c.07.07.15.1.25.1h7.63c.1,0,.18-.03.25-.1.07-.07.1-.15.1-.25s-.03-.18-.1-.25c-.07-.07-.15-.1-.25-.1"/>
  <path class="cls-2" d="M71.13,60.36h-9.94c-.2.03-.3.15-.3.35s.1.32.3.35h9.94c.11.02.21,0,.29-.08.09-.07.13-.16.13-.27s-.04-.2-.13-.27c-.09-.07-.18-.1-.29-.08"/>
  <path class="cls-2" d="M83.46,57.42h-3.63c-.1,0-.19.03-.26.1-.07.07-.11.15-.11.25s.04.18.11.25c.07.07.16.1.26.1h3.63c.1,0,.19-.03.26-.1.07-.07.11-.15.11-.25s-.04-.18-.11-.25c-.07-.07-.16-.1-.26-.1"/>
  <path class="cls-2" d="M70.75,57.42h-9.34c-.1,0-.19.03-.26.1-.07.07-.11.15-.11.25,0,.1.04.18.11.25.07.07.16.1.26.1h9.34c.1,0,.19-.03.26-.1.07-.07.11-.15.11-.25s-.04-.18-.11-.25c-.07-.07-.16-.1-.26-.1"/>
  <path class="cls-2" d="M67.28,55.19h13.91c.1,0,.18-.03.26-.1.07-.07.11-.15.11-.25,0-.1-.04-.18-.11-.25s-.16-.1-.26-.1h-13.91c-.1,0-.19.03-.26.1-.07.07-.11.15-.11.25s.04.18.11.25c.07.07.16.1.26.1"/>
  <path class="cls-2" d="M61.96,52.26h20.96c.1,0,.19-.03.26-.1.07-.07.11-.15.11-.25s-.04-.18-.11-.25c-.07-.07-.16-.1-.26-.1h-20.96c-.1,0-.19.03-.26.1-.07.07-.11.15-.11.25,0,.1.04.18.11.25.07.07.16.1.26.1"/>
  <path class="cls-2" d="M82.51,48.62h-6.08c-.1,0-.18.03-.25.1-.07.07-.1.15-.1.25,0,.1.03.18.1.25.07.07.15.11.25.11h6.08c.1,0,.18-.04.25-.11.07-.07.1-.15.1-.25,0-.1-.03-.18-.1-.25-.07-.07-.15-.1-.25-.1"/>
  <path class="cls-2" d="M65.67,48.62h-3.31c-.1,0-.18.03-.26.1-.07.07-.11.15-.11.25,0,.1.04.18.11.25.07.07.16.1.26.1h3.31c.1,0,.19-.03.26-.1.07-.07.11-.15.11-.25s-.04-.18-.11-.25c-.07-.07-.16-.1-.26-.1"/>
  <path class="cls-2" d="M81.99,45.64h-1.57c-.2.03-.3.15-.3.35s.1.32.3.35h1.57c.11.02.21,0,.29-.08.09-.07.13-.16.13-.27,0-.11-.04-.2-.13-.27-.09-.07-.18-.1-.29-.08"/>
  <path class="cls-2" d="M62.87,46.39h9.82c.11.02.21,0,.29-.08.09-.07.13-.16.13-.27s-.04-.2-.13-.27c-.09-.07-.18-.1-.29-.08h-9.82c-.11-.02-.21,0-.29.08-.09.07-.13.16-.13.27s.04.2.13.27c.09.07.18.1.29.08Z"/>
  <path class="cls-2" d="M63.54,43.46h17.79c.1,0,.19-.03.26-.1.07-.07.11-.15.11-.25s-.04-.18-.11-.25c-.07-.07-.16-.1-.26-.1h-17.79c-.1,0-.19.03-.26.1-.07.07-.11.15-.11.25s.04.18.11.25c.07.07.16.1.26.1Z"/>
  <path class="cls-2" d="M80.47,39.81h-7.04c-.2.03-.3.15-.3.35s.1.32.3.35h7.04c.11.02.21,0,.29-.08.09-.07.13-.16.13-.27s-.04-.2-.13-.27-.18-.1-.29-.08"/>
  <path class="cls-2" d="M67.28,39.8h-2.89c-.1,0-.19.03-.26.1-.07.07-.11.15-.11.25,0,.1.04.18.11.25s.16.1.26.1h2.89c.1,0,.19-.03.26-.1s.11-.15.11-.25-.04-.18-.11-.25c-.07-.07-.16-.1-.26-.1"/>
  <path class="cls-2" d="M65.51,37.58h9.5c.2-.03.3-.15.3-.35s-.1-.32-.3-.35h-9.5c-.2.03-.3.15-.3.35s.1.32.3.35Z"/>
  <path class="cls-2" d="M70.56,34.65h7.2c.1,0,.18-.04.25-.11.07-.07.1-.15.1-.25,0-.1-.03-.18-.1-.25s-.15-.11-.25-.11h-7.2c-.1,0-.18.04-.25.11-.07.07-.1.15-.1.25s.03.18.1.25c.07.07.15.11.25.11Z"/>
  <path class="cls-2" d="M76.49,90.43h8.1c.1,0,.19-.03.26-.1.07-.07.11-.15.11-.25,0-.1-.04-.18-.11-.25-.07-.07-.16-.1-.26-.1h-8.1c-.1,0-.19.03-.26.1-.07.07-.11.15-.11.25,0,.1.04.18.11.25.07.07.16.1.26.1Z"/>
  <path class="cls-2" d="M67.11,92.65h-6.87c-.1,0-.19.03-.26.1-.07.07-.11.15-.11.25s.04.18.11.25c.07.07.16.1.26.1h6.87c.1,0,.19-.04.26-.1s.11-.15.11-.25-.04-.18-.11-.25c-.07-.07-.16-.1-.26-.1"/>
  <path class="cls-2" d="M71.43,93.37h13.19c.1,0,.19-.03.26-.1.07-.07.11-.15.11-.25s-.04-.18-.11-.25c-.07-.07-.16-.1-.26-.1h-13.19c-.1,0-.19.03-.26.1-.07.07-.11.15-.11.25,0,.1.04.18.11.25.07.07.16.1.26.1Z"/>
  <path class="cls-2" d="M60.25,96.29h14.24c.11.02.21,0,.29-.08.09-.07.13-.16.13-.27s-.04-.2-.13-.27c-.09-.07-.18-.1-.29-.08h-14.24c-.11-.02-.21,0-.29.08-.09.07-.13.16-.13.27s.04.2.13.27c.09.07.18.1.29.08Z"/>
  <path class="cls-2" d="M66.41,98.52h-6.17c-.1,0-.19.03-.26.1-.07.07-.11.15-.11.25s.04.18.11.25c.07.07.16.1.26.1h6.17c.1,0,.19-.03.26-.1.07-.07.11-.15.11-.25,0-.1-.04-.18-.11-.25-.07-.07-.16-.1-.26-.1"/>
  <path class="cls-2" d="M84.62,98.52h-12.29c-.1,0-.19.03-.26.1-.07.07-.11.15-.11.25s.04.18.11.25c.07.07.16.1.26.1h12.29c.1,0,.19-.03.26-.1.07-.07.11-.15.11-.25s-.04-.18-.11-.25c-.07-.07-.16-.1-.26-.1"/>
  <path class="cls-2" d="M63.55,101.46h-3.3c-.1,0-.19.03-.26.1-.07.07-.11.15-.11.25,0,.1.04.18.11.25.07.07.16.1.26.1h3.3c.1,0,.19-.03.26-.1.07-.07.11-.15.11-.25s-.04-.18-.11-.25c-.07-.07-.16-.1-.26-.1"/>
  <path class="cls-2" d="M73.26,104.39h-8.15c-.1,0-.19.03-.26.1-.07.07-.11.15-.11.25,0,.1.04.18.11.25.07.07.16.1.26.1h8.18c.1,0,.19-.03.26-.1.07-.07.11-.15.11-.25s-.04-.18-.11-.25c-.07-.07-.16-.1-.26-.1"/>
  <path class="cls-2" d="M63.28,107.33h-3.02c-.1,0-.19.03-.26.1s-.11.15-.11.25.04.18.11.25c.07.07.16.1.26.1h3.02c.1,0,.19-.03.26-.1.07-.07.11-.15.11-.25s-.04-.18-.11-.25c-.07-.07-.16-.1-.26-.1"/>
  <path class="cls-2" d="M84.2,107.33h-10.95c-.1,0-.19.03-.26.1-.07.07-.11.15-.11.25s.04.18.11.25c.07.07.16.1.26.1h10.95c.1,0,.19-.03.26-.1.07-.07.11-.15.11-.25s-.04-.18-.11-.25c-.07-.07-.16-.1-.26-.1"/>
  <path class="cls-2" d="M84.56,110.27h-24.25c-.11-.02-.21,0-.29.08-.09.07-.13.16-.13.27,0,.11.04.2.13.27.09.07.18.1.29.08h24.25c.2-.03.3-.15.3-.35s-.1-.32-.3-.35"/>
  <path class="cls-2" d="M61.73,113.17h-1.38c-.1,0-.19.03-.26.1-.07.07-.11.15-.11.25s.04.18.11.25.16.1.26.1h1.38c.1,0,.19-.04.26-.1.07-.07.11-.15.11-.25s-.04-.18-.11-.25c-.07-.07-.16-.1-.26-.1"/>
  <path class="cls-2" d="M60.34,113.92h15.48c.1,0,.19-.03.26-.1.07-.07.11-.15.11-.25s-.04-.18-.11-.25c-.07-.07-.16-.1-.26-.1h-15.48c-.1,0-.19.03-.26.1-.07.07-.11.15-.11.25s.04.18.11.25c.07.07.16.1.26.1"/>
  <path class="cls-2" d="M65.7,116.15h-5.31c-.1,0-.19.03-.26.1-.07.07-.11.15-.11.25,0,.1.04.18.11.25.07.07.16.1.26.1h5.31c.1,0,.18-.04.25-.11.07-.07.1-.15.1-.25s-.03-.18-.1-.25c-.07-.07-.15-.11-.25-.11"/>
  <path class="cls-2" d="M84.47,116.15h-7.31c-.1,0-.19.03-.26.1-.07.07-.11.15-.11.25s.04.18.11.25c.07.07.16.1.26.1h7.31c.1,0,.19-.03.26-.1.07-.07.11-.15.11-.25,0-.1-.04-.18-.11-.25-.07-.07-.16-.1-.26-.1"/>
  <path class="cls-2" d="M83.46,57.78v-.36h-22.04v.36h.35c.08-.99.16-1.94.24-2.87h-.36.36v-.07h-.36v.35h21.55v-.35h-.36v.07h.36-.36c.08.93.16,1.89.23,2.87h.71c-.07-.99-.15-1.94-.23-2.87v-.06c-.02-.21-.14-.32-.35-.32h-21.54c-.21,0-.33.11-.36.32v.06c-.09.93-.17,1.9-.24,2.87l.1.27.26.12h22.04l.26-.12.09-.27h-.35Z"/>
  <path class="cls-2" d="M84.62,98.88h-.35v2.98h.36v-.36h-24.39v.36h.36v-2.98h-.36v.39h24.38v-.71h-24.38l-.25.11-.1.25v2.98c0,.1.03.18.1.25.07.07.15.11.25.11h24.38c.1,0,.18-.04.25-.11.07-.07.1-.15.1-.25v-2.98l-.1-.25-.26-.11v.33Z"/>
  <path class="cls-2" d="M71.13,64h2.2c.1,0,.19-.03.26-.1.07-.07.11-.15.11-.25,0-.1-.04-.18-.11-.25-.07-.07-.16-.1-.26-.1h-2.2c-.1,0-.18.03-.26.1s-.11.15-.11.25c0,.1.04.18.11.25.07.07.16.1.26.1"/>
  <path class="cls-2" d="M75.85,72.81h2.2c.2-.03.3-.15.3-.35s-.1-.32-.3-.35h-2.2c-.11-.02-.21,0-.29.08-.09.07-.13.16-.13.27s.04.2.13.27c.09.07.18.1.29.08"/>
  <path class="cls-2" d="M76.76,105.11h2.2c.1,0,.19-.03.26-.1.07-.07.11-.15.11-.25s-.04-.18-.11-.25c-.07-.07-.16-.1-.26-.1h-2.2c-.1,0-.19.03-.26.1-.07.07-.11.15-.11.25s.04.18.11.25c.07.07.16.1.26.1"/>
  <path class="cls-2" d="M80.05,113.92h2.2c.1,0,.19-.03.26-.1.07-.07.11-.15.11-.25s-.04-.18-.11-.25c-.07-.07-.16-.1-.26-.1h-2.2c-.1,0-.19.03-.26.1-.07.07-.11.15-.11.25s.04.18.11.25c.07.07.16.1.26.1"/>
  <path class="cls-2" d="M70.23,49.33h2.2c.1,0,.19-.03.26-.1.07-.07.11-.15.11-.25s-.04-.18-.11-.25c-.07-.07-.16-.1-.26-.1h-2.2c-.1,0-.19.03-.26.1-.07.07-.11.15-.11.25s.04.18.11.25c.07.07.16.1.26.1"/>
  <path class="cls-2" d="M75.98,46.39h2.19c.11.02.21,0,.29-.08.09-.07.13-.16.13-.27s-.04-.2-.13-.27c-.09-.07-.18-.1-.29-.08h-2.2c-.11-.02-.21,0-.29.08-.09.07-.13.16-.13.27s.04.2.13.27c.09.07.18.1.29.08"/>
  <path class="cls-2" d="M65.17,84.55h2.2c.1,0,.18-.03.25-.1.07-.07.1-.15.1-.25,0-.1-.03-.18-.1-.25-.07-.07-.15-.11-.25-.11h-2.2c-.1,0-.19.03-.26.1s-.11.15-.11.25c0,.1.04.18.11.25.07.07.16.1.26.1"/>
  <path class="cls-2" d="M67.4,108.04h2.2c.2-.03.3-.15.3-.35s-.1-.32-.3-.35h-2.2c-.11-.02-.21,0-.29.08s-.13.16-.13.27.04.2.13.27.18.1.29.08"/>
  <path class="cls-2" d="M69.6,116.86h2.2c.1,0,.19-.03.26-.1.07-.07.11-.15.11-.25s-.04-.18-.11-.25c-.07-.07-.16-.1-.26-.1h-2.2c-.1,0-.19.03-.26.1-.07.07-.11.15-.11.25s.04.18.11.25c.07.07.16.1.26.1"/>
  <path class="cls-2" d="M63.98,66.94h2.2c.1,0,.19-.04.26-.1.07-.07.11-.15.11-.25s-.04-.18-.11-.25-.16-.1-.26-.1h-2.2c-.1,0-.19.03-.26.1s-.11.15-.11.25.04.18.11.25c.07.07.16.1.26.1"/>
  <rect class="cls-1" x="59.89" y="29.97" width="25.1" height="90.35"/>
</svg>