<?xml version="1.0" encoding="UTF-8"?>
<svg id="Plaza_de_España" data-name="Plaza de España" xmlns="http://www.w3.org/2000/svg" viewBox="0 0 152.69 147.57">
  <defs>
    <style>
      .cls-1 {
        fill: none;
        stroke-width: 0px;
      }

      .cls-2 {
        fill: #01352c;
      }

      .cls-2, .cls-3 {
        fill-rule: evenodd;
        stroke: #02352c;
        stroke-miterlimit: 10;
        stroke-width: .6px;
      }

      .cls-3 {
        fill: #cbdad8;
      }
    </style>
  </defs>
  <path class="cls-2" d="M50.65,23.86l3.1,5.58,3.09,5.58c.1.21.06.37-.15.49l-.18.05h-12.37c-.1,0-.19-.03-.26-.1-.07-.07-.11-.15-.11-.25l.05-.18,3.09-5.57,3.08-5.56c.05-.09.12-.14.21-.17s.19-.02.27.03l.16.13ZM53.12,29.79l-2.78-5.02-2.76,4.99-2.8,5.06h11.16l-2.82-5.03Z"/>
  <path class="cls-2" d="M57.12,38.11l.7-2.57h-14.96l.69,2.57v3.01h13.54v-3.01h.03ZM58.64,35.26l-.81,2.97v3.19c0,.1-.03.19-.1.26-.07.07-.15.11-.26.11h-14.26c-.1,0-.19-.04-.26-.11s-.1-.16-.1-.26v-3.19l-.8-2.96v-.11c0-.23.13-.35.36-.36h15.98c.1.02.17.08.22.16.05.09.06.18.04.27"/>
  <path class="cls-2" d="M57.22,37.82l.62-2.31h-14.98l.62,2.31h13.73ZM58.64,35.26l-.82,3c-.04.19-.15.29-.35.28h-14.26l-.35-.26-.81-3.01v-.11c0-.1.04-.18.11-.25.07-.07.16-.11.25-.11h15.98c.1.02.17.08.22.16s.06.18.04.27"/>
  <path class="cls-2" d="M58.37,44.49l.83-2.77h-17.69l.83,2.77v5.35h2.38v-2.47c0-.37.11-.69.35-.97.26-.29.58-.43.97-.42.35.01.65.15.88.42.23.26.35.56.35.9v2.49h.34v-2.47c-.02-.37.1-.69.35-.97.24-.28.55-.42.92-.42h.05c.35.01.65.15.88.42.22.25.33.55.33.88v2.49h.33v-2.47c0-.37.11-.69.35-.97.25-.28.55-.41.92-.42h.05c.35.01.65.15.88.42.22.25.33.55.33.88v2.49h.34v-2.47c-.02-.37.1-.69.35-.97.24-.28.55-.42.92-.42.36.01.65.15.88.42.24.25.36.56.35.9v2.5h2.39v-5.36l.11.23ZM60,41.46l-.97,3.18v5.55c0,.1-.03.18-.1.25-.07.07-.15.11-.25.11h-3.05c-.1,0-.19-.03-.26-.1-.07-.07-.11-.16-.1-.26v-2.83l-.17-.42-.37-.17-.4.17c-.11.13-.17.28-.17.46v2.82c0,.1-.04.19-.11.26-.07.07-.16.1-.26.1h-1.09c-.1,0-.18-.04-.25-.11-.07-.07-.11-.15-.11-.25v-2.83l-.15-.4-.38-.17-.39.17c-.12.13-.17.28-.17.46v2.82c0,.1-.04.18-.11.25s-.16.11-.25.11h-1.12c-.1,0-.19-.03-.26-.1-.07-.07-.11-.16-.1-.26v-2.83l-.15-.4-.37-.17-.4.17c-.11.13-.17.28-.17.46v2.82c0,.1-.04.18-.11.25-.07.07-.16.11-.25.11h-1.06c-.1,0-.18-.04-.25-.11-.07-.07-.1-.16-.1-.25v-2.83l-.17-.42-.38-.17-.4.17c-.12.13-.17.28-.17.46v2.82c0,.1-.03.19-.1.26-.07.07-.16.11-.26.1h-3.1c-.1,0-.18-.04-.25-.11-.07-.07-.1-.16-.1-.25v-5.56l-.97-3.18v-.1c-.05-.12-.03-.23.04-.34.08-.1.18-.15.31-.15h18.73c.1.03.17.08.22.17.05.09.06.18.03.28"/>
  <path class="cls-2" d="M58.44,44.24l.75-2.52h-17.69l.75,2.52h16.19ZM60,41.46l-.97,3.22c-.06.17-.17.25-.35.25h-16.67c-.19.01-.31-.07-.37-.25l-.97-3.22v-.11c.02-.23.14-.34.37-.33h18.73c.1.03.17.08.22.17.05.09.06.18.03.28"/>
  <path class="cls-2" d="M42.33,55.39h16.03c.1,0,.18.03.25.1.07.07.11.15.11.25v67.84c0,.1-.04.18-.11.25-.07.07-.16.11-.25.11h-16.03c-.22-.02-.32-.14-.32-.36V55.74c0-.1.04-.18.11-.25s.15-.1.25-.1M58,56.11h-15.31v67.07h15.31V56.11Z"/>
  <polygon class="cls-3" points="58.36 52.99 59.27 49.97 41.41 49.97 42.33 52.99 42.33 56.2 58.36 56.2 58.36 52.99"/>
  <path class="cls-2" d="M58.04,52.79l.77-2.53h-16.92l.78,2.55v2.96h15.31v-2.87l.07-.13ZM59.62,50.08l-.9,2.91v3.17c0,.1-.03.19-.1.26-.07.07-.16.11-.26.1h-16.03c-.1,0-.18-.04-.25-.11-.07-.07-.11-.15-.11-.25v-3.18l-.89-2.91v-.14c0-.1.04-.18.11-.25.07-.07.16-.11.25-.11h17.96c.1.03.17.08.22.17s.06.18.03.28"/>
  <polygon class="cls-3" points="58.36 52.99 59.27 49.97 41.41 49.97 42.33 52.99 58.36 52.99"/>
  <path class="cls-2" d="M58.11,52.6l.7-2.29h-16.92l.7,2.29h15.52ZM59.62,50.08l-.91,2.98c-.04.19-.16.28-.35.28h-16.03l-.34-.25-.91-2.98v-.14c0-.1.03-.18.1-.25.07-.07.15-.11.25-.11h17.97c.1.03.17.08.22.17.05.09.06.18.03.28"/>
  <path class="cls-2" d="M45.07,74.45c0-.21.1-.37.35-.37s.35.16.37.37v2.91c0,.21-.12.37-.37.37s-.34-.16-.35-.37v-2.91M45.07,60.74c0-.21.1-.37.35-.37s.35.16.37.38v2.91c0,.21-.12.37-.37.37s-.34-.16-.35-.37v-2.92ZM54.89,60.74c0-.21.11-.37.36-.37s.34.16.36.38v2.91c0,.21-.11.37-.36.37s-.34-.16-.36-.37v-2.92ZM45.07,88.16c0-.21.1-.37.35-.37s.35.16.37.37v2.91c0,.21-.12.37-.37.37s-.34-.16-.35-.37v-2.91M45.07,101.86c0-.21.1-.37.35-.37s.35.16.37.37v2.91c0,.22-.12.37-.37.37s-.34-.15-.35-.37v-2.91M45.07,115.57c0-.22.1-.37.35-.37s.35.15.37.37v2.91c0,.22-.12.38-.37.38s-.34-.16-.35-.37v-2.92ZM54.89,115.57c0-.22.11-.37.36-.37s.34.15.36.37v2.91c0,.22-.11.38-.36.38s-.34-.16-.36-.37v-2.92ZM54.89,101.86c0-.21.11-.37.36-.37s.34.16.36.37v2.91c0,.22-.11.37-.36.37s-.34-.15-.36-.37v-2.91M54.89,88.16c0-.21.11-.37.36-.37s.34.16.36.37v2.91c0,.21-.11.37-.36.37s-.34-.16-.36-.37v-2.91M54.89,74.45c0-.21.11-.37.36-.37s.34.16.36.37v2.91c0,.21-.11.37-.36.37s-.34-.16-.36-.37v-2.91"/>
  <path class="cls-2" d="M102.59,23.86l3.09,5.58,3.09,5.58c.05.09.06.18.03.27-.03.09-.09.17-.17.21l-.17.05h-12.38c-.1,0-.18-.04-.25-.11-.07-.07-.11-.15-.11-.25l.05-.18,3.09-5.57,3.08-5.56c.05-.09.12-.14.21-.17.09-.03.19-.02.27.03l.16.13ZM105.05,29.79l-2.75-5.02-2.76,4.99-2.8,5.06h11.16l-2.85-5.03Z"/>
  <path class="cls-2" d="M109.11,38.11l.69-2.57h-15l.7,2.57v3.01h13.55v-3.01h.07ZM110.56,35.26l-.81,2.97v3.19c0,.1-.03.19-.1.26s-.16.11-.26.11h-14.26c-.1,0-.19-.04-.26-.11-.07-.07-.1-.16-.1-.26v-3.19l-.8-2.96v-.11c0-.23.13-.35.36-.36h15.99c.09.03.17.08.22.17.05.09.06.18.04.27"/>
  <path class="cls-2" d="M109.11,37.84l.62-2.31h-14.94l.62,2.31h13.69ZM110.56,35.26l-.81,3c-.05.19-.17.28-.36.28h-14.26l-.35-.26-.81-3.01v-.11c0-.23.13-.35.36-.36h15.99c.09.03.17.08.22.17.05.09.06.18.04.27"/>
  <path class="cls-2" d="M110.36,44.62l.83-2.77h-17.75l.82,2.77v5.35h2.39v-2.47c-.02-.37.1-.69.35-.97.24-.28.55-.42.92-.42.36.01.65.15.88.42.24.25.36.56.36.9v2.49h.33v-2.47c0-.37.11-.69.35-.97.26-.3.58-.44.97-.42.35.01.65.15.88.42.22.25.33.55.33.88v2.49h.33v-2.47c-.01-.37.1-.69.34-.97.26-.29.58-.43.97-.42.36.01.65.15.88.42.22.25.33.55.33.88v2.49h.34v-2.47c-.02-.37.1-.69.35-.97.24-.28.55-.42.92-.42h.05c.35.01.65.15.88.42.23.26.35.56.35.9v2.5h2.38v-5.36l.18.23ZM111.94,41.46l-.97,3.18v5.55c0,.1-.04.18-.11.25-.07.07-.16.11-.25.11h-3.1c-.1,0-.18-.04-.25-.11-.07-.07-.11-.15-.11-.25v-2.83l-.17-.42-.37-.17-.39.17c-.12.13-.18.28-.18.46v2.82c0,.1-.04.18-.11.25-.07.07-.16.11-.25.11h-1.05c-.1,0-.19-.03-.26-.1-.07-.07-.11-.16-.1-.26v-2.83l-.16-.4-.37-.17-.4.17c-.12.13-.17.28-.17.46v2.82c0,.1-.03.19-.1.26-.07.07-.16.11-.26.1h-1.05c-.1,0-.18-.04-.25-.11s-.11-.15-.11-.25v-2.83l-.15-.4-.37-.17-.39.17c-.12.13-.17.28-.17.46v2.82c0,.1-.04.18-.11.25-.07.07-.16.11-.25.11h-1.05c-.1,0-.19-.03-.26-.1s-.11-.16-.1-.26v-2.83l-.17-.42-.38-.17-.4.17c-.11.13-.17.28-.17.46v2.82c0,.1-.03.18-.1.25-.07.07-.15.11-.25.11h-3.1c-.1,0-.19-.03-.26-.1-.07-.07-.11-.16-.1-.26v-5.56l-.97-3.18v-.1c0-.1.03-.18.1-.25.07-.07.15-.11.25-.11h18.74c.22.07.3.22.24.45"/>
  <path class="cls-2" d="M110.36,44.22l.75-2.52h-17.68l.75,2.52h16.18ZM111.93,41.46l-.97,3.22c-.05.17-.17.25-.34.25h-16.68c-.19.01-.31-.07-.37-.25l-.97-3.22v-.11c0-.1.04-.18.11-.25.07-.07.15-.1.25-.1h18.74c.09.03.16.09.21.18.05.09.05.18.03.27"/>
  <path class="cls-2" d="M94.26,55.39h16.03c.1,0,.18.03.25.1.07.07.11.15.11.25v67.84c0,.1-.03.19-.1.26-.07.07-.16.11-.26.1h-16.03c-.1,0-.18-.04-.25-.11-.07-.07-.1-.16-.1-.25V55.74c0-.1.03-.18.1-.25.07-.07.15-.1.25-.1M109.92,56.11h-15.31v67.07h15.31V56.11Z"/>
  <polygon class="cls-3" points="110.28 52.99 111.2 49.97 93.34 49.97 94.26 52.99 94.26 56.2 110.28 56.2 110.28 52.99"/>
  <path class="cls-2" d="M109.97,52.79l.77-2.53h-16.92l.78,2.55v2.96h15.31v-2.87l.07-.13ZM111.55,50.08l-.9,2.91v3.17c0,.1-.03.19-.1.26-.07.07-.16.11-.26.1h-16.03c-.1,0-.18-.04-.25-.11-.07-.07-.11-.15-.11-.25v-3.18l-.89-2.91v-.14c0-.1.04-.18.11-.25s.16-.11.25-.11h17.96c.1.03.17.08.22.17.05.09.06.18.03.28"/>
  <polygon class="cls-3" points="110.28 52.99 111.2 49.97 93.34 49.97 94.26 52.99 110.28 52.99"/>
  <path class="cls-2" d="M110.04,52.6l.7-2.29h-16.92l.7,2.29h15.52ZM111.55,50.08l-.9,2.98c-.04.18-.16.28-.35.28h-16.04l-.34-.25-.91-2.98v-.14c0-.1.04-.18.11-.25.07-.07.16-.11.25-.11h17.96c.1.03.17.08.22.17.05.09.06.18.03.28"/>
  <path class="cls-2" d="M97,74.45c0-.21.1-.37.35-.37s.35.16.37.37v2.91c0,.21-.12.37-.37.37s-.33-.16-.35-.37v-2.91M97,60.74c0-.21.1-.37.35-.37s.35.16.37.38v2.91c0,.21-.12.37-.37.37s-.33-.16-.35-.37v-2.92ZM106.83,60.74c0-.21.1-.37.35-.37s.35.16.37.38v2.91c0,.21-.12.37-.37.37s-.33-.16-.35-.37v-2.92ZM97,88.16c0-.21.1-.37.35-.37s.35.16.37.37v2.91c0,.21-.12.37-.37.37s-.33-.16-.35-.37v-2.91M97,101.86c0-.21.1-.37.35-.37s.35.16.37.37v2.91c0,.22-.12.37-.37.37s-.33-.15-.35-.37v-2.91M97,115.57c0-.22.1-.37.35-.37s.35.15.37.37v2.91c0,.22-.12.38-.37.38s-.33-.16-.35-.37v-2.92ZM106.83,115.57c0-.22.1-.37.35-.37s.35.15.37.37v2.91c0,.22-.12.38-.37.38s-.33-.16-.35-.37v-2.92ZM106.83,101.86c0-.21.1-.37.35-.37s.35.16.37.37v2.91c0,.22-.12.37-.37.37s-.33-.15-.35-.37v-2.91M106.83,88.16c0-.21.1-.37.35-.37s.35.16.37.37v2.91c0,.21-.12.37-.37.37s-.33-.16-.35-.37v-2.91M106.83,74.45c0-.21.1-.37.35-.37s.35.16.37.37v2.91c0,.21-.12.37-.37.37s-.33-.16-.35-.37v-2.91"/>
  <rect class="cls-1" x="40.67" y="23.59" width="71.28" height="100.39"/>
</svg>