<?xml version="1.0" encoding="UTF-8"?>
<svg id="Capa_2" data-name="Capa 2" xmlns="http://www.w3.org/2000/svg" viewBox="0 0 152.59 65.25">
  <defs>
    <style>
      .cls-1, .cls-2, .cls-3, .cls-4, .cls-5, .cls-6, .cls-7, .cls-8, .cls-9, .cls-10 {
        stroke-width: 0px;
      }

      .cls-1, .cls-3, .cls-7, .cls-8 {
        fill-rule: evenodd;
      }

      .cls-1, .cls-10 {
        fill: #00352b;
      }

      .cls-2 {
        fill: none;
      }

      .cls-3, .cls-6 {
        fill: #cad9d7;
      }

      .cls-4 {
        fill: #542a24;
      }

      .cls-5 {
        fill: #1e1e1c;
      }

      .cls-7 {
        fill: #f3c101;
      }

      .cls-8, .cls-9 {
        fill: #fff;
      }
    </style>
  </defs>
  <g id="text_i_icones" data-name="text i icones">
    <g>
      <polygon class="cls-3" points="94.7 37.36 87.18 37.36 87.18 37.38 87.25 37.38 87.27 37.38 87.48 37.38 87.48 37.57 87.48 38.43 87.48 38.63 87.27 38.63 87.16 38.63 87.16 40.04 88.05 39.61 88.05 40.27 94.7 40.27 94.7 38.66 94.7 37.7 94.7 37.36"/>
      <path class="cls-1" d="M94.45,37.61h-6.73v.99l-.25.25h-.07v.78l.54-.26.33.11v.52h6.15v-2.41l.03.02ZM87.18,37.12h7.52l.25.25v2.93l-.25.25h-6.65l-.25-.25v-.27l-.52.25h-.13l-.25-.24v-1.42l.25-.25h.08v-.74h-.06l-.25-.25.25-.26Z"/>
      <polygon class="cls-3" points="93.3 37.36 86.81 35.03 86.81 36.04 86.98 36.04 87.42 36.04 87.65 36.04 87.65 36.25 87.65 37.18 87.65 37.36 93.3 37.36"/>
      <path class="cls-1" d="M91.88,37.12l-4.83-1.74v.42h.61l.25.25v1.08h3.98ZM86.92,34.79l6.47,2.33.18.24-.25.25h-5.64l-.25-.25v-1.08h-.6l-.26-.25v-1.08l.34-.17Z"/>
      <polygon class="cls-3" points="57.89 37.36 65.41 37.36 65.41 37.37 65.35 37.37 65.33 37.37 65.11 37.37 65.11 37.57 65.11 38.43 65.11 38.62 65.33 38.62 65.43 38.62 65.43 40.03 64.54 39.61 64.54 40.26 57.89 40.26 57.89 38.66 57.89 37.69 57.89 37.36"/>
      <path class="cls-1" d="M58.13,37.6h6.73v.99l.25.24h.07v.78l-.54-.26-.33.12v.51h-6.17v-2.41.03ZM65.41,37.12h-7.52l-.25.24v2.94l.25.25h6.65l.25-.25v-.27l.52.25h.13l.25-.25v-1.41l-.25-.25h-.07v-.75h.05l.25-.25-.25-.25Z"/>
      <polygon class="cls-3" points="59.3 37.36 65.78 35.02 65.78 36.03 65.62 36.03 65.17 36.03 64.94 36.03 64.94 36.24 64.94 37.18 64.94 37.36 59.3 37.36"/>
      <path class="cls-1" d="M60.73,37.12l4.83-1.74v.41h-.61l-.24.25v1.08h-3.99ZM65.69,34.79l-6.47,2.33-.18.24.25.24h5.64l.25-.24v-1.09h.61l.25-.25v-1.07l-.34-.17Z"/>
      <polygon class="cls-8" points="87.47 37 87.73 37 88.5 37 88.5 36.15 88.01 36.15 87.44 36.15 85.11 36.15 85.11 36.65 85.11 36.84 84.85 36.84 84.63 36.84 84.63 36.9 84.63 37 87.3 37 87.47 37"/>
      <path class="cls-1" d="M87.46,36.75h.77v-.37h-2.89v.37h2.11ZM87.72,37.25h-3.1l-.25-.25v-.13l.25-.25h.23v-.45l.26-.26h3.37l.25.26v.84l-.25.25-.76-.02Z"/>
      <polygon class="cls-8" points="65.12 36.99 64.86 36.99 64.1 36.99 64.1 36.14 64.58 36.14 65.15 36.14 67.48 36.14 67.48 36.64 67.48 36.83 67.74 36.83 67.97 36.83 67.97 36.89 67.97 36.99 65.3 36.99 65.12 36.99"/>
      <path class="cls-1" d="M65.12,37.24h-.99l-.25-.25v-.85l.22-.26h3.38l.25.25v.45h.24l.25.25v.15l-.25.25h-2.88l.03.02ZM64.86,36.74h2.37v-.36h-2.89v.36h.52Z"/>
      <polygon class="cls-3" points="85.13 38.44 87.77 38.44 87.93 38.44 88.09 38.44 88.09 37 88.07 37 87.79 37 85.28 37 85.28 37.75 85.28 38.07 85.11 38.07 85.11 38.14 85.13 38.44"/>
      <path class="cls-10" d="M88.09,38.85h-2.98c-.25,0-.39-.12-.41-.38v-.39l.11-.31.07-.05v-.73c0-.11.04-.21.12-.29.08-.08.18-.12.29-.12h2.79c.12,0,.21.04.3.11.08.08.13.18.13.29v1.44c0,.11-.04.21-.12.29-.08.08-.18.12-.29.12M85.69,38.04h1.98v-.63h-1.98v.63Z"/>
      <polygon class="cls-3" points="67.46 38.43 64.82 38.43 64.66 38.43 64.49 38.43 64.49 36.99 64.52 36.99 64.8 36.99 67.3 36.99 67.3 37.74 67.3 38.06 67.48 38.06 67.48 38.14 67.46 38.43"/>
      <path class="cls-1" d="M67.45,38.68h-2.98l-.25-.25v-1.44l.25-.25h2.81l.25.25v.87l.18.24v.38l-.26.21ZM64.82,38.19h2.25v-.95h-2.31v.99l.06-.04Z"/>
      <rect class="cls-6" x="70.32" y="35.63" width="11.74" height="7.11"/>
      <polygon class="cls-3" points="64.78 35.97 64.78 33.8 64.78 33.53 67.35 33.53 67.35 33.8 85.23 33.8 85.23 33.54 87.81 33.54 87.81 33.8 87.81 35.97 87.81 36.15 78.02 36.15 76.35 35.45 73.2 36.15 64.78 36.15 64.78 35.97"/>
      <path class="cls-1" d="M64.53,35.97v-2.44l.25-.25h2.57l.25.25h17.38l.25-.25h2.57l.25.25v2.61l-.25.24h-9.91l-1.59-.66-3.08.68h-8.46l-.25-.24v-.18h.02ZM65.03,33.8v2.08h8.14l3.12-.69h.16l1.62.68h9.5v-2.13h-2.07l-.25.25h-17.86l-.25-.25h-2.07l-.02.06Z"/>
      <polygon class="cls-3" points="67.35 33.8 85.24 33.8 85.22 36.13 78.44 36.13 76.43 35.41 75.03 36.13 67.34 36.13 67.35 33.8"/>
      <path class="cls-1" d="M67.35,33.56h17.86l.25.25v2.29l-.25.24h-6.89l-1.88-.67-1.3.67h-7.81l-.25-.24v-2.29l.26-.25ZM84.98,34.05h-17.38v1.83h7.41l1.35-.69h.19l1.98.71h6.4l.05-1.85ZM85.48,33.83l-.25.22.25-.22Z"/>
      <rect class="cls-6" x="67.81" y="32.09" width="16.97" height="1.71"/>
      <path class="cls-1" d="M84.53,33.57v-1.24h-16.46v1.22h16.47v.02ZM85.02,32.09v1.71l-.25.25h-16.97l-.25-.24v-1.71l.25-.25h16.97l.25.24Z"/>
      <path class="cls-3" d="M82.27,42.74h-.61c.13-.87.06-1.71-.21-2.55-.27-.83-.7-1.57-1.31-2.2-.24-.26-.51-.49-.8-.69-.29-.2-.6-.37-.93-.51-.33-.14-.66-.24-1.01-.32-.35-.07-.7-.11-1.05-.11s-.71.04-1.05.11c-.35.07-.68.18-1.01.32s-.63.31-.93.51c-.29.2-.56.43-.8.69-.6.63-1.04,1.37-1.3,2.2s-.33,1.68-.21,2.55h-.66v-4.47h.13v-.13l-.51-1.64,6.32-3.55,5.79,3.68v.28h3.27v1.51h2.69v4.3h-2.98v-4.3h.09v-.18h-2.98v2.58c.05.66.05,1.32,0,1.98M67.38,42.74h-2.85v-4.3h2.75v-.16h.08v.16h.09v4.3h-.09.02Z"/>
      <path class="cls-1" d="M82.26,43.01h-.61l-.25-.25v-.25c.01-.19.01-.38,0-.56,0-.72-.13-1.41-.41-2.07l-.13-.31c-.26-.51-.59-.98-.99-1.38l-.41-.37-.45-.34c-.7-.47-1.48-.74-2.32-.81-.84-.07-1.65.06-2.43.4l-.29.14c-.5.26-.95.59-1.34.99l-.36.41-.32.46c-.55.88-.82,1.83-.81,2.87v.77l-.21.28h-.69l-.25-.25v-4.47l.1-.2-.47-1.5.12-.29,6.32-3.55h.27l5.76,3.67.12.25h2.98l.25.25v1.27h2.46l.25.25v4.3l-.25.25h-2.98l-.25-.25v-4.23h-2.38v2.34c.05.66.05,1.32,0,1.98l-.05.21ZM81.92,42.5h.1c.04-.56.04-1.11,0-1.67v-2.56l.25-.25h2.86v-.84h-3.06l-.21-.28v-.12l-5.57-3.53-6.02,3.38.45,1.43v.21l-.13.21v4.02h.14v-.56c0-1.13.29-2.17.88-3.13.12-.18.23-.35.36-.5l.39-.45c.43-.44.91-.8,1.46-1.08l.32-.16c.7-.31,1.43-.46,2.19-.45,1.11,0,2.12.31,3.04.92.17.11.33.24.49.36l.45.42c.43.45.78.95,1.05,1.5l.14.34c.3.72.45,1.47.45,2.25,0,.19,0,.38,0,.57M76.45,32.76l.07.07-.07-.07ZM87.81,38.69h-2.44v3.81h2.44v-3.81ZM67.39,42.99h-2.85l-.25-.25v-4.3l.25-.25h2.53l.24-.16h.08l.24.21.1.2v4.29l-.25.25h-.09ZM65.41,42.5h1.82v-3.82h-2.44v3.81h.63Z"/>
      <rect class="cls-4" x="68.39" y="26.07" width="15.98" height="4.6"/>
      <polygon class="cls-5" points="68.4 30.67 68.4 31.07 84.38 31.07 84.67 30.96 84.79 30.67 84.79 26.07 84.67 25.78 84.38 25.66 68.4 25.66 68.12 25.78 68 26.07 68 30.67 68.12 30.96 68.4 31.07 68.4 30.67 68.8 30.67 68.8 26.48 83.97 26.48 83.97 30.26 68.4 30.26 68.4 30.67 68.8 30.67 68.4 30.67"/>
      <rect class="cls-6" x="64.07" y="42.74" width="24.34" height="2.15"/>
      <path class="cls-10" d="M88.4,45.3h-24.3c-.11,0-.21-.04-.29-.12-.08-.08-.12-.17-.12-.29v-2.15c0-.11.04-.21.12-.29.08-.08.18-.12.29-.12h24.33c.11,0,.21.04.29.12s.12.17.12.29v2.15c0,.11-.04.21-.12.29s-.18.12-.29.12M64.47,44.48h23.52v-1.34h-23.52v1.34Z"/>
      <rect class="cls-6" x="66.53" y="56.55" width="19.73" height="8.31"/>
      <path class="cls-1" d="M86.25,65.11h-19.74l-.25-.25v-8.31l.25-.25h19.74l.25.25v8.3l-.25.26ZM66.77,64.61h19.24v-7.81h-19.24v7.81Z"/>
      <rect class="cls-4" x="66.77" y="48.3" width="18.81" height="5.43"/>
      <polygon class="cls-3" points="65.54 46.4 86.96 46.4 86.73 44.89 65.77 44.89 65.54 46.4"/>
      <polygon class="cls-3" points="70.35 53.74 69.9 53.74 69.43 53.74 69.1 53.74 68.88 53.74 68.52 53.74 68.29 53.74 67.98 53.74 67.75 53.74 67.43 53.74 66.84 53.74 66.77 53.74 66.58 53.74 65.58 53.74 65.58 46.4 66.31 46.4 66.84 46.4 69.9 46.4 70.36 46.4 72.06 46.4 72.47 46.4 74.17 46.4 74.62 46.4 78.19 46.4 78.47 46.4 80.17 46.4 80.59 46.4 82.28 46.4 82.56 46.4 85.58 46.4 86.33 46.4 86.65 46.4 86.65 53.74 86.07 53.74 85.58 53.74 85.22 53.74 84.9 53.74 84.68 53.74 84.32 53.74 84.1 53.74 83.77 53.74 83.55 53.74 83.23 53.74 82.56 53.74 82.3 53.74 82.03 53.74 80.57 53.74 80.19 53.74 78.46 53.74 78.33 53.74 78.19 53.74 77.92 53.74 76.61 53.74 76.34 53.74 75.04 53.74 74.72 53.74 74.62 53.74 74.19 53.74 72.46 53.74 72.07 53.74 70.35 53.74"/>
      <polygon class="cls-3" points="64.64 55.34 86.84 55.34 86.84 54.69 86.84 54.34 86.87 54.34 86.87 54.33 86.65 53.74 64.83 53.74 64.62 54.33 64.61 54.34 64.64 54.34 64.64 54.69 64.64 55.34"/>
      <path class="cls-10" d="M86.92,55.75h-22.28c-.11,0-.21-.04-.29-.12-.08-.08-.12-.17-.12-.29v-1.16l.22-.58c.06-.18.19-.27.38-.27h21.83c.19,0,.32.08.39.27l.22.58v1.16c0,.11-.04.21-.12.29-.08.08-.18.12-.29.12M65.09,54.94h21.38v-.6l-.07-.18h-21.31l-.07.18.07.6Z"/>
      <path class="cls-1" d="M65.78,46.16h20.84l-.16-.99h-20.48l-.2.99ZM86.92,46.65h-21.42l-.21-.29.24-1.51.24-.21h20.97l.24.21.24,1.5v.05l-.29.25Z"/>
      <polygon class="cls-3" points="86.58 64.86 85.43 64.86 85.43 57.45 82.23 57.45 82.23 64.86 78.86 64.86 78.86 57.45 73.79 57.45 73.79 64.86 70.42 64.86 70.42 57.45 67.22 57.45 67.22 64.86 66.06 64.86 66.06 55.34 86.58 55.34 86.58 64.86"/>
      <path class="cls-1" d="M86.56,65.1h-1.14l-.25-.24v-7.16h-2.7v7.16l-.25.24h-3.37l-.25-.24v-7.16h-4.58v7.16l-.25.24h-3.36l-.25-.24v-7.16h-2.71v7.16l-.25.24h-1.12l-.25-.24v-9.51l.25-.25h20.52l.25.25v9.51l-.25.24h-.04ZM85.67,64.61h.66v-9.02h-20.02v9.02h.66v-7.16l.24-.25h3.2l.24.25v7.16h2.89v-7.16l.24-.25h5.07l.25.25v7.16h2.86v-7.16l.25-.25h3.19l.25.25.02,7.16Z"/>
      <polygon class="cls-3" points="67.81 22.43 67.55 22.43 67.55 24.33 85.04 24.33 85.04 22.43 84.78 22.43 67.81 22.43"/>
      <path class="cls-1" d="M67.81,22.67v1.41h17.01v-1.41h-17.01ZM67.54,22.18h17.5l.25.25v1.91l-.25.25h-17.5l-.25-.25v-1.91l.25-.25Z"/>
      <rect class="cls-6" x="66.79" y="24.34" width="19.01" height="1.34"/>
      <path class="cls-1" d="M66.79,24.09h19.01l.25.24v1.34l-.25.25h-19.01l-.25-.25v-1.34l.25-.23ZM85.55,24.58h-18.48v.85h18.51l-.04-.85Z"/>
      <polygon class="cls-3" points="67.15 36.64 66.97 36.64 66.8 36.64 66.8 35.63 70.32 35.63 73.27 34.05 76.27 32.45 79.28 34.05 82.19 35.7 85.86 35.7 85.86 36.64 85.64 36.64 81.97 36.63 76.27 33.42 76.21 33.38 76.14 33.42 70.29 36.64 67.15 36.64"/>
      <path class="cls-1" d="M67.19,36.89h-.37l-.24-.25v-.99l.24-.25h3.46l2.9-1.55,2.98-1.61h.24l2.98,1.61,2.84,1.61h3.6l.25.25v.94l-.25.25h-3.98l-5.65-3.18-5.78,3.15h-.12l-3.1.02ZM67.07,36.39h3.19l5.8-3.19h.37l5.64,3.18h3.57v-.45h-3.54l-2.9-1.65-2.89-1.54-2.89,1.54-2.98,1.58h-3.37v.53Z"/>
      <polygon class="cls-3" points="67.15 38.27 67.05 38.27 66.97 38.27 66.97 36.64 70.48 36.64 70.48 38.27 67.15 38.27"/>
      <path class="cls-1" d="M67.15,38.52h-.19l-.25-.25v-1.63l.25-.25h3.51l.25.25v1.62l-.25.25h-3.32ZM67.2,38.03h3.03v-1.16h-3.03v1.16Z"/>
      <polygon class="cls-3" points="81.9 36.64 85.63 36.65 85.63 38.02 81.9 38.02 81.9 36.64"/>
      <path class="cls-1" d="M81.9,36.38h3.73l.25.24v1.37l-.25.25h-3.73l-.25-.24v-1.37l.25-.25ZM85.38,36.87h-3.23v.89h3.23v-.89Z"/>
      <rect class="cls-6" x="67.38" y="38.27" width="1.14" height="4.47"/>
      <path class="cls-1" d="M68.52,42.99h-1.14l-.25-.25v-4.47l.25-.25h1.14l.25.25v4.47l-.25.25ZM67.63,42.5h.64v-3.96h-.64v3.96Z"/>
      <rect class="cls-9" x="68.52" y="38.27" width=".55" height="4.47"/>
      <path class="cls-1" d="M69.07,42.99h-.55l-.25-.25v-4.47l.25-.25h.54l.24.25v4.47l-.23.25ZM68.77,42.5h.05v-3.96h-.05v3.96Z"/>
      <rect class="cls-6" x="69.07" y="38.27" width="1.28" height="4.47"/>
      <path class="cls-1" d="M70.31,42.99h-1.25l-.25-.25v-4.47l.25-.25h1.28l.25.25v4.47l-.28.25ZM69.32,42.5h.78v-3.96h-.78v3.96Z"/>
      <path class="cls-3" d="M74.02,42.74h-1.84c-.05-.27-.08-.54-.08-.82,0-1.19.4-2.21,1.22-3.08.2-.21.43-.4.66-.56l.03,4.46Z"/>
      <path class="cls-1" d="M73.99,42.99h-1.84l-.25-.21v-.83c0-.63.11-1.23.35-1.81l.12-.26c.22-.45.5-.85.84-1.21l.08-.08.1-.1c.16-.15.33-.28.52-.41l.35.06v4.63l-.27.21ZM72.36,42.5h1.38v-3.74l-.08.07-.08.08-.08.08c-.3.32-.55.68-.74,1.08l-.11.24c-.21.52-.31,1.06-.32,1.62-.02.18-.02.37,0,.55l.03.02Z"/>
      <path class="cls-3" d="M77.92,42.74h-3.19v-4.89c.51-.21,1.04-.31,1.59-.32.55,0,1.09.11,1.6.33v4.88Z"/>
      <path class="cls-1" d="M77.99,42.99h-3.19l-.25-.25v-4.89l.17-.23.21-.08.23-.08c.4-.12.81-.17,1.23-.18.3,0,.59.03.88.09h.13c.23.05.46.12.68.22l.15.23v4.89l-.25.28ZM75.01,42.5h2.7v-4.47l-.46-.14h-.12c-.26-.05-.52-.08-.78-.08-.37,0-.74.05-1.09.16l-.2.07-.05,4.46Z"/>
      <path class="cls-3" d="M80.49,42.74h-1.83v-4.48c.6.42,1.07.95,1.41,1.59.34.65.5,1.34.5,2.06,0,.28-.03.55-.08.82"/>
      <path class="cls-1" d="M80.49,42.99h-1.83l-.25-.25v-4.48l.25-.25h.14l.09.06.09.07.47.42.32.36.28.41c.47.77.71,1.6.7,2.5v.49l-.05.36-.21.32ZM78.92,42.5h1.36v-.57c0-.81-.21-1.56-.64-2.25l-.26-.36-.27-.32-.22-.22.02,3.71Z"/>
      <path class="cls-3" d="M81.63,42.74h-1.14c.05-.27.08-.54.08-.82,0-1.2-.41-2.24-1.25-3.11-.24-.25-.51-.47-.8-.65l-.42-.23c-.56-.27-1.15-.41-1.78-.41s-1.22.14-1.78.41l-.42.23c-.29.19-.56.4-.8.65-.84.87-1.26,1.9-1.25,3.11,0,.28.03.55.08.82h-1.11c-.13-.86-.06-1.71.21-2.55.26-.83.7-1.57,1.3-2.2.24-.26.51-.49.8-.69.29-.2.6-.37.93-.51.33-.14.66-.24,1.01-.32.35-.07.7-.11,1.05-.11s.71.04,1.05.11c.35.07.68.18,1.01.32.33.14.64.31.93.51.29.2.56.43.8.69.61.63,1.04,1.37,1.31,2.2.27.83.34,1.68.21,2.55"/>
      <path class="cls-1" d="M81.63,42.99h-1.14l-.25-.25v-.27c.01-.18.01-.37,0-.55,0-.56-.11-1.1-.32-1.62l-.11-.24c-.19-.4-.44-.75-.74-1.07l-.09-.09v-.06c-.17-.16-.35-.29-.55-.42l-.41-.23-.22-.1-.23-.08c-.4-.13-.8-.2-1.22-.2-.29,0-.58.04-.86.1h-.13c-.22.07-.44.15-.65.25l-.42.23-.11.07-.11.08c-.19.14-.37.29-.54.45l-.27.32-.26.36c-.42.69-.63,1.44-.63,2.25v.77l-.2.29h-1.14l-.25-.23v-.84c0-.78.15-1.53.45-2.25l.14-.34c.27-.56.62-1.06,1.05-1.5l.45-.42c.16-.12.32-.25.49-.36.92-.61,1.93-.92,3.04-.92.76,0,1.49.15,2.18.45l.33.16c.55.28,1.03.64,1.46,1.08l.39.45c.12.16.24.33.35.5.6.96.9,2,.89,3.13v.84l-.37.25ZM81.29,42.5h.12v-.56c0-1.03-.27-1.99-.81-2.87l-.32-.46-.36-.41c-.39-.4-.83-.73-1.33-.99l-.29-.14c-.63-.28-1.29-.41-1.98-.42-1,0-1.92.28-2.76.83l-.45.34-.41.38c-.4.41-.74.87-.99,1.38l-.14.31c-.27.66-.4,1.35-.4,2.07-.01.19-.01.38,0,.56h.64v-.56c0-.9.23-1.74.71-2.5l.28-.41.31-.36c.18-.19.38-.35.6-.5l.12-.09.12-.08.43-.24c.24-.11.5-.2.75-.28h.15c.33-.07.66-.11.99-.11.47,0,.93.08,1.38.23l.26.1.24.1.42.24c.22.14.43.3.63.47l.11.11.1.1c.35.36.63.76.84,1.21l.12.26c.24.58.35,1.18.35,1.81,0,.19,0,.38,0,.57l.59-.09Z"/>
      <polygon class="cls-3" points="83.92 42.73 83.92 42.22 83.92 38.02 85.21 38.02 85.21 42.31 85.21 42.73 85.21 42.74 83.92 42.74 83.92 42.73"/>
      <path class="cls-1" d="M83.67,42.73v-4.73l.25-.25h1.29l.24.25v4.72l-.24.25h-1.27l-.25-.25h-.02ZM84.17,42.22v.28h.79v-4.24h-.79v3.97Z"/>
      <polygon class="cls-3" points="82.24 42.73 82.24 42.21 82.24 38.02 83.39 38.02 83.39 42.3 83.39 42.73 83.39 42.74 82.24 42.74 82.24 42.73"/>
      <path class="cls-1" d="M81.99,42.73v-4.73l.25-.25h1.14l.25.25v4.72l-.25.25h-1.14l-.25-.25h0ZM82.48,42.2v.3h.64v-4.24h-.64v3.95Z"/>
      <rect class="cls-6" x="67.39" y="30.97" width="17.8" height="1.12"/>
      <path class="cls-1" d="M67.64,31.85h17.29v-.63h-17.29v.63ZM85.19,32.34h-17.8l-.25-.25v-1.16l.25-.25h17.8l.25.25v1.12l-.25.29Z"/>
      <rect class="cls-6" x="67.95" y="25.67" width="16.7" height="5.29"/>
      <path class="cls-1" d="M68.19,30.72h16.21v-4.8h-16.21v4.8ZM84.65,31.21h-16.7l-.26-.25v-5.29l.26-.25h16.7l.25.25v5.26l-.25.28Z"/>
      <path class="cls-7" d="M78.26,12.34v.44l.2.07-.2-.07c-1.32-.52-2.65-.52-3.97,0v-.44h3.97Z"/>
      <path class="cls-5" d="M78.26,12.34h-.41v.44l.26.38.19.07h.32l.22-.22v-.32l-.22-.22-.19-.07-.16.38.17-.38c-.65-.28-1.33-.41-2.04-.41-.76,0-1.5.13-2.21.41l.16.38h3.93v-.81h-3.97l-.29.12-.12.29v.44l.18.34h.39l.13-.05c.57-.18,1.16-.28,1.77-.29.6,0,1.17.1,1.72.34l.19.07h.32l.22-.22v-.32l-.22-.22-.19-.07-.16.38h.41v-.44l-.12-.29-.29-.12.03.42Z"/>
      <rect class="cls-4" x="74.82" y="8.65" width="2.97" height="2.56"/>
      <polygon class="cls-5" points="74.82 11.22 74.82 11.62 77.78 11.62 78.08 11.5 78.2 11.22 78.2 8.65 78.08 8.37 77.78 8.25 74.82 8.25 74.54 8.37 74.42 8.65 74.42 11.22 74.54 11.5 74.82 11.62 74.82 11.22 75.23 11.22 75.23 9.06 77.38 9.06 77.38 10.81 74.82 10.81 74.82 11.22 75.23 11.22 74.82 11.22"/>
      <path class="cls-1" d="M75.01,7.51h2.56v-1.3c-.05-.31-.21-.56-.48-.73-.35-.27-.55-.62-.61-1.06v-.69h-.43v.69c-.05.44-.25.79-.61,1.06-.26.18-.42.42-.48.73l.03,1.3ZM77.82,8h-3.06l-.25-.25v-1.54c.06-.46.28-.83.65-1.11.26-.18.41-.43.43-.75v-.87l.25-.25h.91l.25.25v.84c.03.31.17.57.43.75.38.27.6.64.65,1.11v1.54l-.27.28Z"/>
      <polygon class="cls-3" points="74.37 11.39 74.37 9.99 74.69 9.99 74.69 8.52 77.89 8.52 77.89 9.99 78.23 9.99 78.23 11.39 74.37 11.39"/>
      <path class="cls-1" d="M74.12,11.39v-1.4l.24-.24h.09v-1.24l.25-.25h3.19l.25.25v1.24h.09l.25.24v1.39l-.25.25h-3.87l-.24-.24ZM74.61,10.24v.92h3.38v-.91h-.09l-.25-.25v-1.23h-2.7v1.23l-.25.25h-.1Z"/>
      <path class="cls-1" d="M74.25,7.51h4.09l.25.25v.75l-.25.24h-4.09l-.25-.24v-.76l.25-.24ZM78.09,8h-3.59v.27h3.59v-.27Z"/>
      <path class="cls-3" d="M84.3,22.42h-16.01c.35-4.73,2.8-8.59,6.04-9.73,1.32-.5,2.65-.5,3.97,0,3.97,1.59,5.75,5.78,6.04,9.73"/>
      <path class="cls-1" d="M84.36,22.66h-16.07l-.25-.24c.05-.66.14-1.32.27-1.98.13-.62.3-1.23.51-1.83,1.05-2.97,3.03-5.3,5.43-6.14l.54-.17c.19-.05.39-.09.58-.12,1.02-.16,2.01-.06,2.98.31.56.22,1.08.5,1.58.83.48.33.92.7,1.32,1.11,1,1.1,1.78,2.34,2.35,3.71.57,1.37.88,2.8.95,4.29l-.23.26.07-.03ZM68.55,22.18h15.48c-.08-1.38-.39-2.71-.93-3.98-.54-1.27-1.27-2.42-2.2-3.45-.38-.39-.8-.74-1.25-1.05-.47-.31-.96-.57-1.48-.78-.88-.33-1.78-.42-2.7-.27l-.53.1-.49.16c-2.25.79-4.13,2.97-5.13,5.85-.2.58-.36,1.16-.49,1.76-.11.55-.19,1.1-.24,1.65"/>
      <rect class="cls-6" x="74.03" y="11.39" width="4.52" height=".95"/>
      <path class="cls-1" d="M74.02,11.16h4.52l.25.25v.94l-.25.25h-4.52l-.25-.25v-.99l.25-.2ZM78.31,11.64h-4.03v.5h4.03v-.5Z"/>
      <path class="cls-1" d="M76,.41c0-.15.07-.26.25-.26s.24.11.25.26v2.97c0,.15-.08.26-.25.26s-.24-.11-.25-.26V.41Z"/>
      <path class="cls-1" d="M75.56,9.26c0-.15.07-.26.24-.26s.24.11.26.26v1.41c0,.07-.02.14-.07.19s-.12.07-.19.07c-.17,0-.23-.11-.24-.26v-1.41ZM76.55,9.26c0-.15.07-.26.24-.26s.24.11.25.26v1.41c0,.15-.08.26-.25.26s-.23-.11-.24-.26v-1.41Z"/>
      <path class="cls-3" d="M69.12,30.19h1.24v-2.58c0-.65-.28-1.18-.63-1.18s-.62.52-.62,1.18v2.58Z"/>
      <path class="cls-1" d="M69.37,29.95h.74v-2.33c0-.25-.05-.49-.15-.72l-.23-.21-.22.22c-.1.23-.16.46-.16.71v2.33h0ZM70.36,30.44h-1.24l-.25-.25v-2.54c-.01-.35.06-.68.21-.99.1-.32.32-.48.66-.48s.56.16.66.48c.15.3.21.61.21.94v2.56l-.25.28Z"/>
      <path class="cls-3" d="M71.71,30.19h1.24v-2.58c0-.65-.28-1.18-.62-1.18s-.63.52-.63,1.18v2.58Z"/>
      <path class="cls-1" d="M71.97,29.95h.74v-2.33c0-.25-.04-.49-.15-.72l-.22-.21-.23.22c-.1.23-.15.46-.15.71v2.33ZM72.96,30.44h-1.25l-.25-.25v-2.54c0-.35.06-.68.21-.99.1-.32.32-.48.66-.48s.56.16.66.48c.15.3.21.61.21.94v2.56l-.24.28Z"/>
      <path class="cls-3" d="M74.3,30.19h1.25v-2.58c0-.65-.28-1.18-.63-1.18s-.63.52-.63,1.18v2.58Z"/>
      <path class="cls-1" d="M74.56,29.95h.75v-2.33c0-.25-.05-.49-.16-.72l-.22-.21-.22.22c-.11.22-.17.46-.16.71v2.33ZM75.55,30.44h-1.25l-.24-.25v-2.54c-.01-.35.06-.68.21-.99.1-.32.32-.48.65-.48s.56.16.65.48c.14.3.22.61.22.94v2.56l-.25.28Z"/>
      <path class="cls-3" d="M76.9,30.19h1.24v-2.58c0-.65-.28-1.18-.63-1.18s-.62.52-.62,1.18v2.58Z"/>
      <path class="cls-1" d="M77.15,29.95h.74v-2.33c0-.25-.05-.49-.15-.72l-.23-.21-.22.22c-.1.23-.16.46-.16.71v2.33h0ZM78.14,30.44h-1.24l-.25-.25v-2.54c-.01-.35.06-.68.21-.99.1-.32.32-.48.66-.48s.56.16.66.48c.14.3.21.61.21.94v2.56l-.25.28Z"/>
      <path class="cls-3" d="M79.49,30.19h1.24v-2.58c0-.65-.28-1.18-.62-1.18s-.63.52-.63,1.18v2.58Z"/>
      <path class="cls-1" d="M79.74,29.95h.74v-2.33c0-.25-.04-.49-.15-.72l-.22-.21-.23.22c-.1.23-.15.46-.15.71v2.33ZM80.74,30.44h-1.25l-.25-.25v-2.54c-.01-.35.06-.68.21-.99.1-.32.32-.48.66-.48s.56.16.66.48c.15.3.21.61.21.94v2.56l-.24.28Z"/>
      <path class="cls-3" d="M82.08,30.19h1.25v-2.58c0-.65-.28-1.18-.63-1.18s-.63.52-.63,1.18v2.58Z"/>
      <path class="cls-1" d="M82.33,29.95h.75v-2.33c0-.25-.05-.49-.16-.72l-.22-.21-.22.22c-.11.22-.17.46-.16.71v2.33ZM83.33,30.44h-1.25l-.24-.25v-2.54c-.01-.35.06-.68.21-.99.1-.32.32-.48.65-.48s.56.16.65.48c.14.3.22.61.22.94v2.56l-.25.28Z"/>
      <rect class="cls-6" x="74.92" y="49.5" width="2.62" height="4.28"/>
      <path class="cls-1" d="M75.17,53.61h2.12v-3.89h-2.12v3.89ZM74.67,53.78v-4.28l.25-.25h2.62l.25.25v4.28h-3.12Z"/>
      <rect class="cls-10" x="75.98" y="49.58" width=".5" height="4.2"/>
      <rect class="cls-9" x="69.1" y="52.11" width="1.65" height="1.62"/>
      <path class="cls-1" d="M69.35,53.49h1.15v-1.14h-1.15v1.14ZM70.75,53.99h-1.69l-.25-.25v-1.63l.25-.25h1.65l.25.25v1.62l-.21.26Z"/>
      <rect class="cls-9" x="69.1" y="46.4" width="1.65" height="1.02"/>
      <path class="cls-1" d="M69.1,46.16h1.65l.25.25v.99l-.25.25h-1.69l-.25-.25v-.99l.29-.25ZM70.5,46.65h-1.15v.52h1.15v-.52Z"/>
      <rect class="cls-6" x="69.37" y="47.42" width="1.11" height="4.7"/>
      <path class="cls-1" d="M69.61,51.86h.62v-4.19h-.62v4.19ZM70.48,52.36h-1.11l-.25-.25v-4.69l.25-.25h1.11l.25.25v4.69l-.25.25Z"/>
      <rect class="cls-9" x="72.1" y="52.11" width="1.65" height="1.62"/>
      <path class="cls-1" d="M72.34,53.49h1.16v-1.14h-1.16v1.14ZM73.75,53.99h-1.66l-.25-.25v-1.63l.25-.25h1.66l.24.25v1.62l-.24.26Z"/>
      <rect class="cls-9" x="72.1" y="46.4" width="1.65" height="1.02"/>
      <path class="cls-1" d="M72.09,46.16h1.66l.25.25v.99l-.25.25h-1.66l-.24-.25v-.99l.24-.25ZM73.5,46.65h-1.16v.52h1.16v-.52Z"/>
      <rect class="cls-6" x="72.37" y="47.42" width="1.11" height="4.7"/>
      <path class="cls-1" d="M72.61,51.86h.62v-4.19h-.62v4.19ZM73.48,52.36h-1.11l-.25-.25v-4.69l.25-.25h1.11l.24.25v4.69l-.24.25Z"/>
      <rect class="cls-9" x="81.71" y="52.11" width="1.65" height="1.62"/>
      <path class="cls-1" d="M83.12,53.49h-1.16v-1.14h1.16v1.14ZM81.71,53.99h1.65l.25-.25v-1.63l-.25-.25h-1.65l-.25.25v1.62l.25.26Z"/>
      <rect class="cls-9" x="81.71" y="46.4" width="1.65" height="1.02"/>
      <path class="cls-1" d="M83.36,46.16h-1.65l-.25.25v.99l.25.25h1.65l.25-.25v-.99l-.25-.25ZM81.96,46.65h1.15v.52h-1.15v-.52Z"/>
      <rect class="cls-6" x="81.99" y="47.42" width="1.11" height="4.7"/>
      <path class="cls-1" d="M82.82,51.86h-.62v-4.19h.62v4.19ZM81.96,52.36h1.11l.25-.25v-4.69l-.25-.25h-1.11l-.25.25v4.69l.25.25Z"/>
      <rect class="cls-9" x="78.71" y="52.11" width="1.65" height="1.62"/>
      <path class="cls-1" d="M80.11,53.49h-1.13v-1.14h1.15l-.02,1.14ZM78.71,53.99h1.65l.25-.25v-1.63l-.25-.25h-1.65l-.25.25v1.62l.25.26Z"/>
      <rect class="cls-9" x="78.71" y="46.4" width="1.65" height="1.02"/>
      <path class="cls-1" d="M80.39,46.16h-1.65l-.25.25v.99l.25.25h1.65l.25-.25v-.99l-.25-.25ZM78.98,46.65h1.16v.52h-1.16v-.52Z"/>
      <rect class="cls-6" x="78.98" y="47.42" width="1.11" height="4.7"/>
      <path class="cls-1" d="M79.84,51.86h-.62v-4.19h.62v4.19ZM78.98,52.36h1.11l.25-.25v-4.69l-.25-.25h-1.11l-.25.25v4.69l.25.25Z"/>
      <rect class="cls-10" x="76.07" y="57.45" width=".49" height="7.41"/>
      <polygon class="cls-5" points="76.07 64.86 76.07 64.92 76.57 64.92 76.63 64.92 76.63 57.39 76.07 57.39 76.01 57.39 76.01 64.92 76.07 64.92 76.07 64.86 76.13 64.86 76.13 57.51 76.51 57.51 76.51 64.8 76.07 64.8 76.07 64.86 76.13 64.86 76.07 64.86"/>
      <path class="cls-3" d="M109.62,43.53s-7.82-3.69-14.92-4.68v1.41h-1.71l2.12,4.61,1.92-1.29h12.7l-.14-.07h.02Z"/>
      <path class="cls-1" d="M108.62,43.35c-4.39-1.98-8.96-3.38-13.7-4.2v1.13l-.25.25h-1.32l1.84,3.96,1.69-1.13h11.75ZM94.73,38.61c7.02.94,14.63,4.51,14.98,4.68h.14l.15.23-.25.25h-12.64l-1.86,1.25-.32-.12-2.12-4.6v-.12l.25-.25h1.46v-1.08l.21-.24Z"/>
      <polygon class="cls-3" points="137.58 45.3 96 45.3 96.1 44.99 95.13 44.99 95.13 44.47 95.18 44.47 95.13 43.79 95.13 43.59 140.09 43.59 138.07 44.98 137.58 45.3"/>
      <path class="cls-1" d="M137.58,45.54h-41.59l-.24-.25v-.06h-.63l-.25-.25v-1.39l.25-.25h44.96l.25.25-.13.21-1.98,1.37-.48.33-.16.04ZM96.33,45.05h41.19l.41-.28,1.37-.93h-43.92l.05.58-.05.15v.21h.79l.16.27Z"/>
      <rect class="cls-6" x="96.98" y="47.21" width="41.02" height="7.59"/>
      <path class="cls-1" d="M97.22,54.55h40.53v-7.1h-40.53v7.1ZM97.7,55.05h-.73l-.24-.25v-7.6l.24-.24h41.02l.25.24v7.6l-.25.25h-40.28Z"/>
      <rect class="cls-4" x="97.93" y="55.33" width="38.29" height="5.66"/>
      <rect class="cls-6" x="96.98" y="54.8" width="40.41" height="10.05"/>
      <path class="cls-1" d="M97.22,64.61h39.92v-9.56h-39.92v9.56ZM137.38,65.11h-40.4l-.25-.25v-10.06l.25-.25h40.4l.25.25v10.06l-.25.25Z"/>
      <polygon class="cls-3" points="96.98 47.21 96.98 45.77 96.98 45.3 137.83 45.3 137.83 46.04 137.83 46.29 138 46.29 138 47.21 96.98 47.21"/>
      <path class="cls-1" d="M96.73,47.19v-1.9l.25-.25h40.85l.25.25v.75l.16.24v.91l-.24.25h-41.02l-.25-.25ZM97.22,45.77v1.2h40.52v-.45l-.16-.23v-.75h-40.36v.23Z"/>
      <rect class="cls-9" x="88.95" y="41.16" width="6.58" height="21.59"/>
      <rect class="cls-6" x="86.59" y="54.61" width="10.39" height="10.24"/>
      <path class="cls-1" d="M96.98,65.11h-10.4l-.25-.25v-10.25l.25-.25h10.4l.25.25v10.25l-.25.25ZM86.83,64.61h9.92v-9.75h-9.92v9.75Z"/>
      <rect class="cls-6" x="86.59" y="45.66" width="10.39" height="7.49"/>
      <path class="cls-1" d="M96.98,53.4h-10.4l-.25-.25v-7.49l.25-.25h10.4l.25.25v7.49l-.25.25ZM86.83,52.9h9.92v-6.99h-9.92v6.99Z"/>
      <polygon class="cls-3" points="87.92 44.2 95.66 44.2 95.66 40.91 95.66 40.34 93.73 39.28 91.79 38.22 89.86 39.28 87.92 40.34 87.92 40.91 87.92 44.2"/>
      <path class="cls-1" d="M88.17,43.95h7.24v-3.46l-1.81-.99-1.82-.99-1.82.99-1.81.99v3.46ZM95.66,44.44h-7.75l-.25-.25v-3.85l.13-.22,1.93-1.06,1.98-1.06h.17l1.98,1.06,1.92,1.06.14.22v3.85l-.27.25Z"/>
      <polygon class="cls-3" points="86.58 45.66 96.98 45.66 97.33 44.2 86.23 44.2 86.58 45.66"/>
      <path class="cls-1" d="M86.78,45.41h10l.23-.99h-10.47l.24.99ZM96.98,45.91h-10.4l-.24-.2-.35-1.45v-.06l.25-.25h11.14l.19.3-.35,1.45-.25.21Z"/>
      <polygon class="cls-3" points="86.58 54.61 96.98 54.61 97.33 53.15 86.23 53.15 86.58 54.61"/>
      <path class="cls-1" d="M86.78,54.36h10l.23-.99h-10.47l.24.99ZM96.98,54.86h-10.4l-.24-.19-.35-1.45v-.07l.25-.25h11.14l.19.3-.35,1.45-.25.21Z"/>
      <rect class="cls-4" x="110.77" y="30.36" width="8.05" height="11.23"/>
      <rect class="cls-6" x="109.65" y="36.48" width="10.36" height="7.11"/>
      <path class="cls-1" d="M120,43.84h-10.35l-.25-.25v-7.11l.25-.25h10.35l.25.25v7.11l-.25.25ZM109.89,43.35h9.86v-6.62h-9.86v6.62Z"/>
      <polygon class="cls-3" points="120.03 36.52 109.63 36.52 109.28 35.29 120.38 35.29 120.03 36.52"/>
      <path class="cls-1" d="M120.02,36.77h-10.39l-.25-.19-.34-1.23.17-.3h11.15l.25.25v.09l-.35,1.22-.25.16ZM109.81,36.28h10.02l.22-.74h-10.44l.2.74Z"/>
      <polygon class="cls-3" points="119.38 29.6 119.38 30.93 119.38 31.86 119.38 33.93 120.44 33.93 120.23 35.29 118.83 35.29 111.12 35.29 109.43 35.29 109.19 33.85 110.27 33.85 110.27 31.86 110.27 30.32 110.27 29.6 119.38 29.6"/>
      <path class="cls-1" d="M119.63,29.61v4.07h.8l.25.25v.06l-.21,1.34-.26.21h-10.8l-.24-.22-.24-1.41.21-.28h.86v-4.01l.25-.25h9.12l.25.24ZM119.14,30.94v-1.09h-8.62v3.96l-.25.25h-.78l.16.94h10.37l.14-.87h-.76l-.25-.25v-2.97.03Z"/>
      <path class="cls-8" d="M114,22.55h.53v-1.1c.02-.08,0-.16-.06-.22-.05-.06-.12-.1-.21-.1s-.15.03-.21.1c-.05.06-.07.14-.06.22v1.1Z"/>
      <path class="cls-1" d="M114.23,22.31v-.92.92ZM114.52,22.8h-.53l-.25-.24v-1.11l.13-.38.38-.19.37.19.14.38v1.1l-.24.25Z"/>
      <path class="cls-8" d="M115.13,22.55h.57v-1.1c.02-.08,0-.16-.06-.22-.05-.06-.12-.1-.21-.1s-.15.03-.21.1-.07.14-.06.22l-.04,1.1Z"/>
      <path class="cls-1" d="M115.12,20.9v-.92.92ZM115.4,21.38l.26,1.41h-.53l-.25-.24v-1.11l.14-.38.38-.19.38.19.13.38v1.1l-.51-1.17Z"/>
      <polygon class="cls-3" points="119.26 28.48 119.72 28.84 119.38 29.6 110.27 29.6 109.94 28.84 110.39 28.48 119.26 28.48"/>
      <path class="cls-1" d="M119.42,28.3l.45.34.07.3-.33.76-.23.15h-9.12l-.23-.15-.3-.74.08-.3.46-.35.15-.06h8.86l.14.05ZM119.42,28.92l-.24-.19h-8.7l-.24.19.19.44h8.8l.19-.44ZM119.42,28.3l.08.18-.08-.18Z"/>
      <polygon class="cls-3" points="117.29 24.39 119.2 26.96 119.2 27.43 110.46 27.43 110.46 26.96 112.36 24.39 117.29 24.39"/>
      <path class="cls-1" d="M117.5,24.25l1.89,2.56v.62l-.25.25h-8.72l-.25-.25v-.6l1.9-2.57.2-.1h4.96l.28.09ZM118.95,27.04l-1.79-2.4h-4.67l-1.76,2.4v.15h8.24l-.02-.15Z"/>
      <polygon class="cls-3" points="117.33 22.92 117.55 23.34 117.29 24.39 112.37 24.39 112.11 23.34 112.33 22.92 117.33 22.92"/>
      <path class="cls-1" d="M117.55,22.81l.22.42v.2l-.25.99-.24.19h-4.96l-.24-.21-.26-.99v-.18l.23-.43.22-.13h4.96l.32.14ZM117.28,23.37l-.11-.21h-4.69l-.11.21.19.77h4.53l.19-.77Z"/>
      <polygon class="cls-3" points="116.75 20.56 117.1 20.56 117.1 21.62 117.32 22.92 112.33 22.92 112.56 21.62 112.56 20.56 112.62 20.56 112.89 20.56 116.75 20.56"/>
      <path class="cls-1" d="M116.75,20.31h.34l.25.24v1.05l.23,1.28-.21.28h-5.03l-.25-.24v-.06l.23-1.26v-1.05l.25-.24h4.2,0ZM116.85,20.8h-4.06v.86l-.18.99h4.42l-.18-.99v-.87h0Z"/>
      <polygon class="cls-3" points="116.69 19.15 117.04 19.15 117.04 20.01 116.75 20.55 112.89 20.55 112.62 20.01 112.62 19.15 112.97 19.15 116.69 19.15"/>
      <path class="cls-1" d="M116.68,18.9h.37l.24.25v1.04l-.28.53-.22.13h-3.86l-.23-.15-.28-.53v-.97l.25-.25h4.02v-.05ZM116.79,19.39h-3.97v.55l.19.36h3.56l.19-.36.03-.55Z"/>
      <polygon class="cls-3" points="116.34 16.78 116.68 18.2 116.68 19.15 116.13 19.15 115.93 19.15 115.4 19.15 115.1 19.15 114.56 19.15 114.25 19.15 113.73 19.15 113.55 19.15 112.97 19.15 112.97 18.2 113.32 16.78 116.34 16.78"/>
      <path class="cls-1" d="M116.58,16.74l.34,1.39v.99l-.25.25h-3.71l-.24-.25v-.99l.35-1.4.24-.18h2.98l.3.19ZM116.43,18.23l-.29-1.2h-2.63l-.29,1.2v.67h3.2v-.67Z"/>
      <polygon class="cls-3" points="116.55 15.95 116.55 16.29 116.55 16.54 116.33 16.78 113.32 16.78 113.11 16.54 113.11 16.29 113.11 15.95 113.11 15.9 113.28 15.9 116.38 15.9 116.55 15.9 116.55 15.95"/>
      <path class="cls-1" d="M116.78,15.95v.58l-.06.17-.21.24-.19.09h-2.98l-.2-.1-.2-.24-.06-.16v-.63l.25-.25h3.42l.25.25-.03.05ZM116.29,16.29v-.14h-2.98v.3l.08.09h2.79l.07-.09.04-.16Z"/>
      <polygon class="cls-3" points="115.97 14.97 116.37 14.97 116.37 15.9 113.28 15.9 113.28 14.97 113.43 14.97 113.68 14.97 115.97 14.97"/>
      <path class="cls-1" d="M115.97,14.73h.4l.25.25v.93l-.25.25h-3.09l-.25-.25v-.93l.25-.25h2.69ZM116.12,15.21h-2.6v.44h2.6v-.44Z"/>
      <path class="cls-3" d="M114.35,13.79c-.37.31-.57.7-.61,1.19h2.15c0-.52-.2-.93-.63-1.24-.32-.13-.62-.12-.92.05"/>
      <path class="cls-1" d="M114.49,13.95l-.33.41-.12.34h1.55c-.02-.33-.17-.59-.45-.77l-.65.03ZM113.71,14.17c.11-.23.27-.43.48-.58.36-.22.74-.24,1.13-.08h.05c.5.34.75.81.74,1.41l-.24.26h-2.16l-.21-.28c.03-.26.11-.52.22-.76"/>
      <rect class="cls-6" x="110.2" y="27.43" width="9.27" height="1.05"/>
      <path class="cls-1" d="M110.44,28.24h8.76v-.55h-8.76v.55ZM119.45,28.73h-9.26l-.25-.25v-1.05l.25-.25h9.26l.25.25v1.05l-.25.25Z"/>
      <rect class="cls-6" x="90.79" y="47.9" width="1.98" height="3.53"/>
      <path class="cls-1" d="M92.77,51.67h-1.98l-.25-.25v-3.53l.25-.25h1.98l.25.25v3.52l-.25.26ZM91.04,51.18h1.49v-3.04h-1.49v3.04Z"/>
      <rect class="cls-9" x="89.01" y="55.59" width="1.18" height="2.11"/>
      <path class="cls-1" d="M90.19,57.95h-1.18l-.25-.25v-2.11l.25-.25h1.18l.25.25v2.1l-.25.26ZM89.26,57.45h.69v-1.61h-.69v1.61Z"/>
      <rect class="cls-9" x="91.2" y="55.59" width="1.18" height="2.11"/>
      <path class="cls-1" d="M92.37,57.95h-1.18l-.25-.25v-2.11l.25-.25h1.18l.25.25v2.1l-.25.26ZM91.43,57.45h.69v-1.61h-.69v1.61Z"/>
      <rect class="cls-9" x="93.37" y="55.59" width="1.18" height="2.11"/>
      <path class="cls-1" d="M94.55,57.95h-1.19l-.25-.25v-2.11l.25-.25h1.19l.25.25v2.1l-.25.26ZM93.61,57.45h.69v-1.61h-.69v1.61Z"/>
      <rect class="cls-9" x="89.01" y="59.47" width="1.18" height="2.11"/>
      <path class="cls-1" d="M90.19,61.81h-1.18l-.25-.25v-2.1l.25-.25h1.18l.25.25v2.13l-.25.22ZM89.26,61.33h.69v-1.61h-.69v1.61Z"/>
      <rect class="cls-9" x="91.2" y="59.47" width="1.18" height="2.11"/>
      <path class="cls-1" d="M92.37,61.81h-1.18l-.25-.25v-2.1l.25-.25h1.18l.25.25v2.13l-.25.22ZM91.43,61.33h.69v-1.61h-.69v1.61Z"/>
      <rect class="cls-9" x="93.37" y="59.47" width="1.18" height="2.11"/>
      <path class="cls-1" d="M94.55,61.81h-1.19l-.25-.25v-2.1l.25-.25h1.19l.25.25v2.13l-.25.22ZM93.61,61.33h.69v-1.61h-.69v1.61Z"/>
      <rect class="cls-6" x="98.64" y="47.21" width="1.18" height="7.6"/>
      <path class="cls-1" d="M99.82,55.05h-1.18l-.25-.25v-7.6l.25-.24h1.18l.25.24v7.59l-.25.26ZM98.88,54.55h.68v-7.1h-.68v7.1Z"/>
      <rect class="cls-9" x="98.41" y="53.91" width="1.65" height=".89"/>
      <path class="cls-1" d="M100.06,55.05h-1.66l-.24-.25v-.89l.24-.25h1.66l.25.25v.88l-.25.26ZM98.66,54.55h1.16v-.4h-1.15v.4Z"/>
      <rect class="cls-9" x="98.41" y="47.21" width="1.65" height=".71"/>
      <path class="cls-1" d="M100.06,48.16h-1.66l-.24-.25v-.7l.24-.26h1.66l.25.26v.7l-.25.25ZM98.66,47.67h1.16v-.21h-1.15v.21Z"/>
      <rect class="cls-6" x="103.1" y="47.21" width="1.18" height="7.6"/>
      <path class="cls-1" d="M104.28,55.05h-1.19l-.24-.25v-7.6l.24-.24h1.19l.25.24v7.59l-.25.26ZM103.35,54.55h.68v-7.1h-.68v7.1Z"/>
      <rect class="cls-9" x="102.86" y="53.91" width="1.65" height=".89"/>
      <path class="cls-1" d="M104.51,55.05h-1.65l-.25-.25v-.89l.25-.25h1.65l.25.25v.88l-.25.26ZM103.11,54.55h1.15v-.4h-1.15v.4Z"/>
      <rect class="cls-9" x="102.86" y="47.21" width="1.65" height=".71"/>
      <path class="cls-1" d="M104.51,48.16h-1.65l-.25-.25v-.7l.25-.26h1.65l.25.26v.7l-.25.25ZM103.11,47.67h1.15v-.21h-1.15v.21Z"/>
      <rect class="cls-6" x="107.56" y="47.21" width="1.18" height="7.6"/>
      <path class="cls-1" d="M108.74,55.05h-1.18l-.25-.25v-7.6l.25-.24h1.19l.25.24v7.59l-.26.26ZM107.8,54.55h.69v-7.1h-.69v7.1Z"/>
      <rect class="cls-9" x="107.33" y="53.91" width="1.65" height=".89"/>
      <path class="cls-1" d="M108.98,55.05h-1.65l-.25-.25v-.89l.25-.25h1.65l.24.25v.88l-.24.26ZM107.58,54.55h1.17v-.4h-1.15l-.02.4Z"/>
      <rect class="cls-9" x="107.33" y="47.21" width="1.65" height=".71"/>
      <path class="cls-1" d="M108.98,48.16h-1.65l-.25-.25v-.7l.25-.26h1.65l.24.26v.7l-.24.25ZM107.58,47.67h1.17v-.21h-1.15l-.02.21Z"/>
      <rect class="cls-6" x="112.02" y="47.21" width="1.18" height="7.6"/>
      <path class="cls-1" d="M113.2,55.05h-1.18l-.25-.25v-7.6l.25-.24h1.18l.25.24v7.59l-.25.26ZM112.27,54.55h.68v-7.1h-.68v7.1Z"/>
      <rect class="cls-9" x="111.78" y="53.91" width="1.65" height=".89"/>
      <path class="cls-1" d="M113.43,55.05h-1.65l-.25-.25v-.89l.25-.25h1.65l.25.25v.88l-.25.26ZM112.03,54.55h1.16v-.4h-1.16v.4Z"/>
      <rect class="cls-9" x="111.78" y="47.21" width="1.65" height=".71"/>
      <path class="cls-1" d="M113.43,48.16h-1.65l-.25-.25v-.7l.25-.26h1.65l.25.26v.7l-.25.25ZM112.03,47.67h1.16v-.21h-1.16v.21Z"/>
      <rect class="cls-6" x="116.48" y="47.21" width="1.18" height="7.6"/>
      <path class="cls-1" d="M117.62,55.05h-1.18l-.25-.25v-7.6l.25-.24h1.24l.25.24v7.59l-.31.26ZM116.69,54.55h.68v-7.1h-.68v7.1Z"/>
      <rect class="cls-9" x="116.25" y="53.91" width="1.65" height=".89"/>
      <path class="cls-1" d="M117.9,55.05h-1.65l-.25-.25v-.89l.25-.25h1.65l.25.25v.88l-.25.26ZM116.5,54.55h1.18v-.4h-1.15l-.03.4Z"/>
      <rect class="cls-9" x="116.25" y="47.21" width="1.65" height=".71"/>
      <path class="cls-1" d="M117.9,48.16h-1.65l-.25-.25v-.7l.25-.26h1.65l.25.26v.7l-.25.25ZM116.5,47.67h1.18v-.21h-1.15l-.03.21Z"/>
      <rect class="cls-6" x="120.94" y="47.21" width="1.18" height="7.6"/>
      <path class="cls-1" d="M122.12,55.05h-1.18l-.25-.25v-7.6l.25-.24h1.18l.25.24v7.59l-.25.26ZM121.19,54.55h.68v-7.1h-.68v7.1Z"/>
      <rect class="cls-9" x="120.71" y="53.91" width="1.65" height=".89"/>
      <path class="cls-1" d="M122.35,55.05h-1.65l-.25-.25v-.89l.25-.25h1.65l.25.25v.88l-.25.26ZM120.95,54.55h1.16v-.4h-1.16v.4Z"/>
      <rect class="cls-9" x="120.71" y="47.21" width="1.65" height=".71"/>
      <path class="cls-1" d="M122.35,48.16h-1.65l-.25-.25v-.7l.25-.26h1.65l.25.26v.7l-.25.25ZM120.95,47.67h1.16v-.21h-1.16v.21Z"/>
      <rect class="cls-6" x="125.4" y="47.21" width="1.18" height="7.6"/>
      <path class="cls-1" d="M126.55,55.05h-1.18l-.25-.25v-7.6l.25-.24h1.24l.25.24v7.59l-.31.26ZM125.62,54.55h.69v-7.1h-.69v7.1Z"/>
      <rect class="cls-9" x="125.17" y="53.91" width="1.65" height=".89"/>
      <path class="cls-1" d="M126.82,55.05h-1.65l-.25-.25v-.89l.25-.25h1.65l.25.25v.88l-.25.26ZM125.42,54.55h1.19v-.4h-1.19v.4Z"/>
      <rect class="cls-9" x="125.17" y="47.21" width="1.65" height=".71"/>
      <path class="cls-1" d="M126.82,48.16h-1.65l-.25-.25v-.7l.25-.26h1.65l.25.26v.7l-.25.25ZM125.42,47.67h1.19v-.21h-1.19v.21Z"/>
      <rect class="cls-6" x="129.86" y="47.21" width="1.18" height="7.6"/>
      <path class="cls-1" d="M131.04,55.05h-1.18l-.25-.25v-7.6l.25-.24h1.18l.25.24v7.59l-.25.26ZM130.11,54.55h.68v-7.1h-.68v7.1Z"/>
      <rect class="cls-9" x="129.62" y="53.91" width="1.65" height=".89"/>
      <path class="cls-1" d="M131.27,55.05h-1.69l-.24-.25v-.89l.24-.23h1.65l.25.25v.88l-.21.24ZM129.87,54.55h1.16v-.4h-1.16v.4Z"/>
      <rect class="cls-9" x="129.62" y="47.21" width="1.65" height=".71"/>
      <path class="cls-1" d="M131.27,48.16h-1.69l-.24-.25v-.7l.24-.26h1.65l.25.26v.7l-.21.25ZM129.87,47.67h1.16v-.21h-1.16v.21Z"/>
      <rect class="cls-6" x="134.33" y="47.21" width="1.18" height="7.6"/>
      <path class="cls-1" d="M135.48,55.05h-1.18l-.25-.25v-7.6l.25-.24h1.24l.25.24v7.59l-.31.26ZM134.55,54.55h.69v-7.1h-.69v7.1Z"/>
      <rect class="cls-9" x="134.09" y="53.91" width="1.65" height=".89"/>
      <path class="cls-1" d="M135.74,55.05h-1.65l-.25-.25v-.89l.25-.25h1.65l.25.25v.88l-.25.26ZM134.34,54.55h1.2v-.4h-1.15l-.05.4Z"/>
      <rect class="cls-9" x="134.09" y="47.21" width="1.65" height=".71"/>
      <path class="cls-1" d="M135.74,48.16h-1.65l-.25-.25v-.7l.25-.26h1.65l.25.26v.7l-.25.25ZM134.34,47.67h1.2v-.21h-1.15l-.05.21Z"/>
      <rect class="cls-6" x="91.14" y="41.19" width="1.29" height="1.95"/>
      <path class="cls-1" d="M92.43,43.38h-1.29l-.25-.25v-1.98l.25-.25h1.29l.24.25v1.98l-.24.25ZM91.38,42.88h.79v-1.44h-.79v1.44Z"/>
      <rect class="cls-6" x="137.38" y="55.06" width="14.57" height="9.8"/>
      <path class="cls-1" d="M137.63,64.61h14.07v-9.31h-14.07v9.31ZM151.95,65.11h-14.57l-.25-.25v-9.8l.25-.25h14.57l.25.25v9.79l-.25.26Z"/>
      <rect class="cls-6" x="137.37" y="45.86" width="14.58" height="9.2"/>
      <path class="cls-1" d="M151.95,55.3h-14.58l-.25-.25v-9.2l.25-.25h14.58l.25.25v9.19l-.25.26ZM151.13,54.81h.58v-8.7h-14.08v8.7h13.5Z"/>
      <rect class="cls-6" x="136.98" y="44.71" width="15.37" height="1.15"/>
      <path class="cls-1" d="M152.35,46.11h-15.37l-.25-.25v-1.15l.25-.25h15.37l.25.25v1.14l-.25.26ZM137.22,45.61h14.88v-.65h-14.88v.65Z"/>
      <polygon class="cls-3" points="144.85 41.22 141.27 42.97 137.7 44.71 144.85 44.71 152.02 44.71 148.44 42.97 144.85 41.22"/>
      <path class="cls-1" d="M144.85,41.49l-3.47,1.7-2.62,1.28h12.18l-2.62-1.28-3.47-1.7ZM141.16,42.74l3.58-1.74h.22l3.58,1.74,3.56,1.74.16.23-.25.25h-14.32l-.18-.18.12-.33,3.52-1.71Z"/>
      <rect class="cls-6" x="140.77" y="56.82" width="1.18" height="5.39"/>
      <path class="cls-1" d="M141.94,62.45h-1.18l-.25-.25v-5.39l.25-.25h1.18l.26.25v5.38l-.26.26ZM141,61.96h.69v-4.9h-.69v4.9Z"/>
      <rect class="cls-6" x="142.97" y="56.82" width="1.18" height="5.39"/>
      <path class="cls-1" d="M144.15,62.45h-1.18l-.25-.25v-5.39l.25-.25h1.18l.25.25v5.38l-.25.26ZM143.22,61.96h.69v-4.9h-.69v4.9Z"/>
      <rect class="cls-6" x="145.18" y="56.82" width="1.18" height="5.39"/>
      <path class="cls-1" d="M146.39,62.45h-1.18l-.25-.25v-5.39l.25-.25h1.18l.25.25v5.38l-.25.26ZM145.46,61.96h.68v-4.9h-.68v4.9Z"/>
      <rect class="cls-6" x="147.39" y="56.82" width="1.18" height="5.39"/>
      <path class="cls-1" d="M148.58,62.45h-1.13l-.25-.25v-5.39l.25-.25h1.18l.25.25v5.38l-.3.26ZM147.64,61.96h.68v-4.9h-.68v4.9Z"/>
      <path class="cls-1" d="M100.51,56.92c0-.15.07-.26.25-.26s.24.11.25.26v1.98c0,.15-.08.26-.25.26s-.24-.11-.25-.26v-1.98ZM98.79,56.92c0-.15.07-.26.25-.26s.23.11.25.26v1.98c0,.15-.08.26-.25.26s-.24-.11-.25-.26v-1.98ZM102.24,56.92c0-.15.07-.26.25-.26s.24.11.25.26v1.98c0,.15-.08.26-.25.26s-.23-.11-.25-.26v-1.98M103.98,56.92c0-.15.07-.26.24-.26s.24.11.25.26v1.98c0,.15-.08.26-.26.26s-.23-.11-.24-.26v-1.98ZM105.7,56.92c0-.15.07-.26.24-.26s.24.11.26.26v1.98c0,.15-.08.26-.26.26s-.23-.11-.24-.26v-1.98ZM107.43,56.92c0-.15.07-.26.24-.26s.24.11.26.26v1.98c0,.15-.08.26-.26.26s-.23-.11-.24-.26v-1.98M109.15,56.92c0-.15.07-.26.25-.26s.24.11.25.26v1.98c0,.15-.08.26-.25.26s-.24-.11-.25-.26v-1.98ZM110.88,56.92c0-.15.07-.26.25-.26s.24.11.25.26v1.98c0,.15-.08.26-.25.26s-.24-.11-.25-.26v-1.98M112.62,56.92c0-.15.07-.26.24-.26s.24.11.25.26v1.98c0,.15-.08.26-.25.26s-.23-.11-.24-.26v-1.98ZM114.34,56.92c0-.15.07-.26.24-.26s.24.11.26.26v1.98c0,.15-.08.26-.26.26s-.23-.11-.24-.26v-1.98ZM116.07,56.92c0-.15.07-.26.24-.26s.24.11.26.26v1.98c0,.15-.08.26-.26.26s-.23-.11-.24-.26v-1.98M117.8,56.92c0-.15.07-.26.24-.26.07,0,.14.02.19.07.05.05.08.12.07.19v1.98c0,.07-.02.14-.07.19-.05.05-.12.08-.19.07-.17,0-.23-.11-.24-.26v-1.98ZM119.52,56.92c0-.15.07-.26.25-.26s.24.11.25.26v1.98c0,.15-.08.26-.25.26s-.24-.11-.25-.26v-1.98M121.26,56.92c0-.15.07-.26.24-.26s.24.11.25.26v1.98c0,.15-.08.26-.25.26s-.23-.11-.24-.26v-1.98ZM122.99,56.92c0-.15.07-.26.24-.26s.24.11.25.26v1.98c0,.15-.08.26-.25.26s-.23-.11-.24-.26v-1.98M124.71,56.92c0-.15.07-.26.24-.26s.24.11.26.26v1.98c0,.15-.08.26-.26.26s-.23-.11-.24-.26v-1.98M126.44,56.92c0-.15.07-.26.24-.26s.24.11.26.26v1.98c0,.15-.08.26-.25.26s-.24-.11-.25-.26v-1.98ZM128.17,56.92c0-.15.07-.26.25-.26s.24.11.25.26v1.98c0,.15-.08.26-.25.26s-.24-.11-.25-.26v-1.98M129.89,56.92c0-.15.07-.26.25-.26s.24.11.25.26v1.98c0,.15-.08.26-.25.26s-.23-.11-.25-.26v-1.98ZM131.63,56.92c0-.15.07-.26.24-.26s.24.11.25.26v1.98c0,.15-.08.26-.25.26s-.23-.11-.24-.26v-1.98M133.35,56.92c0-.15.07-.26.24-.26s.24.11.25.26v1.98c0,.15-.08.26-.25.26s-.23-.11-.24-.26v-1.98M135.08,56.92c0-.15.07-.26.24-.26s.24.11.26.26v1.98c0,.15-.08.26-.26.26s-.23-.11-.24-.26v-1.98Z"/>
      <rect class="cls-6" x="143.63" y="50.62" width="2.05" height="3.65"/>
      <path class="cls-1" d="M145.69,54.51h-2.05l-.25-.25v-3.65l.25-.25h2.05l.25.25v3.65l-.25.25ZM143.88,54.02h1.58v-3.16h-1.56l-.02,3.16Z"/>
      <rect class="cls-6" x="141.12" y="45.86" width="1.18" height="9.2"/>
      <path class="cls-1" d="M142.3,55.3h-1.19l-.24-.25v-9.2l.24-.25h1.19l.24.25v9.19l-.24.26ZM141.36,54.81h.69v-8.7h-.69v8.7Z"/>
      <rect class="cls-9" x="140.84" y="53.68" width="1.76" height="1.37"/>
      <path class="cls-1" d="M142.56,55.29h-1.74l-.25-.24v-1.37l.25-.24h1.77l.24.24v1.38l-.24.24h-.03ZM141.07,54.81h1.27v-.89h-1.27v.89Z"/>
      <rect class="cls-9" x="140.84" y="45.86" width="1.76" height=".85"/>
      <path class="cls-1" d="M142.56,46.96h-1.74l-.25-.25v-.85l.25-.25h1.77l.24.25v.9l-.24.25-.03-.05ZM141.07,46.47h1.27v-.37h-1.27v.37Z"/>
      <rect class="cls-6" x="147.02" y="45.86" width="1.18" height="9.2"/>
      <path class="cls-1" d="M147.02,55.3h1.19l.24-.25v-9.2l-.24-.25h-1.19l-.25.25v9.19l.25.26ZM147.95,54.81h-.68v-8.7h.68v8.7Z"/>
      <rect class="cls-9" x="146.74" y="53.68" width="1.76" height="1.37"/>
      <path class="cls-1" d="M146.75,55.29h1.74l.25-.24v-1.37l-.25-.24h-1.76l-.28.24v1.38l.25.24h.05ZM148.25,54.81h-1.27v-.89h1.27v.89Z"/>
      <rect class="cls-9" x="146.74" y="45.86" width="1.76" height=".85"/>
      <path class="cls-1" d="M146.75,46.96h1.74l.25-.25v-.85l-.25-.25h-1.76l-.25.25v.9l.25.25.02-.05ZM148.25,46.47h-1.27v-.37h1.27v.37Z"/>
      <rect class="cls-6" x="138.55" y="45.86" width="1.18" height="9.2"/>
      <path class="cls-1" d="M139.78,55.3h-1.27l-.24-.25v-9.2l.24-.25h1.19l.25.25v9.19l-.17.26ZM138.79,54.81h.69v-8.7h-.69v8.7Z"/>
      <rect class="cls-9" x="138.27" y="53.68" width="1.76" height="1.37"/>
      <path class="cls-1" d="M140,55.29h-1.74l-.25-.24v-1.37l.25-.24h1.77l.25.24v1.38l-.25.24h-.03ZM138.51,54.81h1.27v-.89h-1.27v.89Z"/>
      <rect class="cls-9" x="138.27" y="45.86" width="1.76" height=".85"/>
      <path class="cls-1" d="M140,46.96h-1.74l-.25-.25v-.85l.25-.25h1.77l.25.25v.9l-.25.25-.03-.05ZM138.51,46.47h1.27v-.37h-1.27v.37Z"/>
      <rect class="cls-6" x="149.6" y="45.86" width="1.18" height="9.2"/>
      <path class="cls-1" d="M149.59,55.3h1.19l.24-.25v-9.2l-.24-.25h-1.19l-.25.25v9.19l.25.26ZM150.53,54.81h-.69v-8.7h.69v8.7Z"/>
      <rect class="cls-9" x="149.3" y="53.68" width="1.76" height="1.37"/>
      <path class="cls-1" d="M149.32,55.29h1.75l.24-.24v-1.37l-.24-.24h-1.77l-.25.24v1.38l.25.24h.02ZM150.82,54.81h-1.27v-.89h1.27v.89Z"/>
      <rect class="cls-9" x="149.3" y="45.86" width="1.76" height=".85"/>
      <path class="cls-1" d="M149.32,46.96h1.75l.24-.25v-.85l-.24-.25h-1.77l-.25.25v.9l.25.25.02-.05ZM150.82,46.47h-1.27v-.37h1.27v.37Z"/>
      <path class="cls-1" d="M114.58,11.47c0-.15.07-.25.24-.25s.24.1.25.25v1.98c0,.15-.08.26-.25.26s-.23-.11-.24-.26v-1.98Z"/>
      <path class="cls-3" d="M114.14,34.24h1.36v-2.22c0-.55-.3-.99-.67-.99s-.67.45-.67.99v2.22"/>
      <path class="cls-1" d="M114.38,33.99h.86v-1.98c0-.21-.05-.4-.16-.57l-.28-.19-.27.19c-.11.17-.17.37-.16.57v1.98ZM115.48,34.49h-1.35v-.25h-.24v-2.22c0-.3.08-.59.24-.85.16-.26.38-.39.68-.41.3.01.53.15.68.41.16.26.24.54.24.85v2.22l-.26.25Z"/>
      <path class="cls-1" d="M115.25,33.99h-.86v-1.98c0-.21.05-.4.16-.57l.27-.19.28.19c.11.17.17.37.16.57v1.98ZM114.14,34.49h1.35v-.25h.21v-2.22c0-.31-.07-.59-.24-.85-.15-.27-.37-.4-.68-.4s-.53.13-.68.4c-.16.26-.24.54-.24.85v2.22l.28.25Z"/>
      <path class="cls-3" d="M42.96,43.53s7.78-3.72,14.88-4.67v1.41h1.71l-2.12,4.61-1.92-1.29h-12.67l.14-.07h0Z"/>
      <path class="cls-1" d="M43.97,43.35c4.39-1.98,8.95-3.38,13.69-4.2v1.13l.25.25h1.33l-1.85,3.96-1.69-1.13h-11.74ZM57.86,38.61c-7.02.94-14.62,4.51-14.98,4.68h-.14l-.14.23.25.25h12.63l1.86,1.25.32-.12,2.12-4.6v-.12l-.25-.25h-1.38v-1.08l-.29-.24Z"/>
      <polygon class="cls-3" points="15 45.3 56.6 45.3 56.5 44.99 57.46 44.99 57.46 44.47 57.4 44.47 57.46 43.79 57.46 43.59 12.5 43.59 14.53 44.98 15 45.3"/>
      <path class="cls-1" d="M15,45.54h41.59l.25-.25v-.06h.62l.25-.25v-1.37l-.25-.25H12.5l-.25.25.13.21,1.98,1.37.48.33.16.02ZM56.25,45.05H15.08l-.42-.28-1.37-.93h43.91l-.05.58.06.15v.21h-.8l-.16.27Z"/>
      <rect class="cls-6" x="14.6" y="47.21" width="41.02" height="7.59"/>
      <path class="cls-1" d="M55.37,54.55H14.84v-7.1h40.52v7.1h0ZM54.88,55.05h.73l.25-.25v-7.6l-.25-.24H14.6l-.25.24v7.6l.25.25h40.28Z"/>
      <rect class="cls-4" x="16.37" y="55.33" width="38.29" height="5.66"/>
      <rect class="cls-6" x="15.2" y="54.8" width="40.41" height="10.05"/>
      <path class="cls-1" d="M55.37,64.61H15.48v-9.56h39.89v9.56ZM15.2,65.11h40.41l.25-.25v-10.06l-.25-.25H15.2l-.25.25v10.06l.25.25Z"/>
      <polygon class="cls-3" points="55.61 47.21 55.61 45.77 55.61 45.3 14.76 45.3 14.76 46.04 14.76 46.29 14.6 46.29 14.6 47.21 55.61 47.21"/>
      <path class="cls-1" d="M55.85,47.19v-1.9l-.24-.25H14.75l-.25.25v.75l-.16.24v.91l.25.25h41.02l.24-.25ZM55.37,45.77v1.2H14.84v-.45l.16-.23v-.75h40.36v.23Z"/>
      <rect class="cls-9" x="57.06" y="41.16" width="6.58" height="21.59"/>
      <rect class="cls-6" x="55.61" y="54.61" width="10.39" height="10.24"/>
      <path class="cls-1" d="M55.61,65.11h10.39l.25-.25v-10.25l-.25-.25h-10.39l-.25.25v10.25l.25.25ZM65.75,64.61h-9.92v-9.75h9.92v9.75Z"/>
      <rect class="cls-6" x="55.61" y="45.66" width="10.39" height="7.49"/>
      <path class="cls-1" d="M55.61,53.4h10.39l.25-.25v-7.49l-.25-.25h-10.39l-.25.25v7.49l.25.25ZM65.75,52.9h-9.92v-6.99h9.92v6.99Z"/>
      <polygon class="cls-3" points="64.66 44.2 56.92 44.2 56.92 40.91 56.92 40.34 58.86 39.28 60.79 38.22 62.74 39.28 64.66 40.34 64.66 40.91 64.66 44.2"/>
      <path class="cls-1" d="M64.42,43.95h-7.26v-3.46l1.81-.99,1.82-.99,1.82.99,1.81.99v3.46h.02ZM56.92,44.44h7.74l.25-.25v-3.85l-.13-.22-1.93-1.06-1.93-1.06h-.24l-1.93,1.06-1.92,1.06-.14.22v3.85l.25.25Z"/>
      <polygon class="cls-3" points="66 45.66 55.61 45.66 55.27 44.2 66.36 44.2 66 45.66"/>
      <path class="cls-1" d="M65.8,45.41h-10l-.23-.99h10.51l-.28.99ZM55.61,45.91h10.39l.24-.2.35-1.45v-.06l-.25-.25h-11.17l-.19.3.35,1.45.29.21Z"/>
      <polygon class="cls-3" points="66 54.61 55.61 54.61 55.27 53.15 66.36 53.15 66 54.61"/>
      <path class="cls-1" d="M65.8,54.36h-10l-.23-.99h10.51l-.28.99ZM55.61,54.86h10.39l.24-.19.35-1.45v-.07l-.25-.25h-11.17l-.19.3.35,1.45.29.21Z"/>
      <rect class="cls-4" x="33.77" y="30.36" width="8.05" height="11.23"/>
      <rect class="cls-6" x="32.58" y="36.48" width="10.36" height="7.11"/>
      <path class="cls-1" d="M32.58,43.84h10.35l.26-.25v-7.11l-.26-.25h-10.35l-.25.25v7.11l.25.25ZM42.7,43.35h-9.86v-6.62h9.86v6.62Z"/>
      <polygon class="cls-3" points="32.56 36.52 42.96 36.52 43.31 35.29 32.22 35.29 32.56 36.52"/>
      <path class="cls-1" d="M32.56,36.77h10.4l.24-.19.35-1.23-.18-.3h-11.15l-.25.25v.09l.34,1.22.26.16ZM42.77,36.28h-10.02l-.21-.74h10.44l-.21.74Z"/>
      <polygon class="cls-3" points="33.21 29.6 33.21 30.93 33.21 31.86 33.21 33.93 32.16 33.93 32.37 35.29 33.77 35.29 41.46 35.29 43.16 35.29 43.39 33.85 42.33 33.85 42.33 31.86 42.33 30.32 42.33 29.6 33.21 29.6"/>
      <path class="cls-1" d="M32.95,29.61v4.07h-.79l-.25.25v.06l.21,1.34.26.21h10.79l.25-.22.23-1.43-.21-.28h-.86v-4.01l-.25-.25h-9.12l-.25.26ZM33.45,30.94v-1.09h8.62v3.96l.25.25h.78l-.15.94h-10.38l-.14-.87h.76l.25-.25v-2.97.03Z"/>
      <path class="cls-8" d="M38.6,22.55h-.54v-1.1c0-.18.09-.27.27-.27s.27.09.27.27v1.1Z"/>
      <path class="cls-1" d="M38.32,22.31v-.92.92ZM38.03,22.8h.54l.25-.24v-1.11l-.14-.38-.38-.19-.38.19-.14.38v1.1l.25.25Z"/>
      <path class="cls-8" d="M37.46,22.55h-.53v-1.1c-.02-.08,0-.16.06-.22.05-.06.12-.1.21-.1s.15.03.21.1c.05.06.07.14.06.22v1.1Z"/>
      <path class="cls-1" d="M37.21,22.31v-.92.92ZM36.93,22.8h.54l.24-.24v-1.11l-.13-.38-.37-.19-.37.19-.14.38v1.1l.23.25Z"/>
      <polygon class="cls-3" points="33.33 28.48 32.87 28.84 33.2 29.6 42.33 29.6 42.66 28.84 42.2 28.48 33.33 28.48"/>
      <path class="cls-1" d="M33.16,28.3l-.44.34-.08.3.33.76.23.15h9.12l.23-.15.34-.76-.09-.3-.46-.35-.15-.06h-8.85l-.18.07ZM33.16,28.92l.24-.19h8.7l.24.19-.19.44h-8.81l-.18-.44ZM33.16,28.3l-.08.18.08-.18Z"/>
      <polygon class="cls-3" points="35.3 24.39 33.4 26.96 33.4 27.43 42.13 27.43 42.13 26.96 40.23 24.39 35.3 24.39"/>
      <path class="cls-1" d="M35.09,24.25l-1.9,2.56-.05.15v.47l.25.25h8.73l.24-.25v-.45l-.05-.15-1.9-2.57-.2-.1h-4.96l-.17.09ZM33.65,27.04l1.78-2.4h4.67l1.79,2.4v.15h-8.24v-.15Z"/>
      <polygon class="cls-3" points="35.26 22.92 35.05 23.34 35.3 24.39 40.22 24.39 40.48 23.34 40.26 22.92 35.26 22.92"/>
      <path class="cls-1" d="M35.06,22.81l-.21.42v.2l.25.99.24.19h4.96l.25-.21.25-.99v-.18l-.22-.43-.22-.13h-4.96l-.34.14ZM35.32,23.37l.11-.21h4.69l.11.21-.18.77h-4.54l-.19-.77Z"/>
      <polygon class="cls-3" points="35.84 20.56 35.49 20.56 35.49 21.62 35.26 22.92 40.26 22.92 40.04 21.62 40.04 20.56 39.97 20.56 39.7 20.56 35.84 20.56"/>
      <path class="cls-1" d="M35.83,20.31h-.34l-.25.24v1.05l-.23,1.28.21.28h5.06l.24-.24v-.06l-.22-1.26v-1.05l-.25-.24h-4.23ZM35.74,20.8h4.05v.86l.18.99h-4.41l.17-.99v-.87h0Z"/>
      <polygon class="cls-3" points="35.91 19.15 35.55 19.15 35.55 20.01 35.84 20.55 39.69 20.55 39.98 20.01 39.98 19.15 39.62 19.15 35.91 19.15"/>
      <path class="cls-1" d="M35.91,18.9h-.36l-.25.25v1.04l.28.53.22.13h3.86l.23-.15.28-.53v-.97l-.25-.25h-4.07l.06-.05ZM35.8,19.39h3.97v.55l-.19.36h-3.55l-.19-.36-.04-.55Z"/>
      <polygon class="cls-3" points="36.26 16.78 35.91 18.2 35.91 19.15 36.45 19.15 36.66 19.15 37.2 19.15 37.5 19.15 38.03 19.15 38.34 19.15 38.87 19.15 39.04 19.15 39.62 19.15 39.62 18.2 39.27 16.78 36.26 16.78"/>
      <path class="cls-1" d="M36.01,16.74l-.34,1.39v1.05l.25.25h3.71l.24-.25v-.99l-.34-1.4-.25-.18h-2.98l-.3.13ZM36.16,18.23l.29-1.2h2.63l.3,1.2v.67h-3.21v-.67Z"/>
      <polygon class="cls-8" points="36.05 15.95 36.05 16.29 36.05 16.54 36.26 16.78 39.27 16.78 39.48 16.54 39.48 16.29 39.48 15.95 39.48 15.9 39.31 15.9 36.22 15.9 36.05 15.9 36.05 15.95"/>
      <path class="cls-1" d="M35.82,15.95v.58l.07.17.2.24.19.09h2.98l.2-.1.21-.24.06-.16v-.63l-.25-.25h-3.43l-.25.25.03.05ZM36.32,16.29v-.14h2.98v.3l-.08.09h-2.78l-.08-.09-.04-.16Z"/>
      <polygon class="cls-8" points="36.62 14.97 36.22 14.97 36.22 15.9 39.31 15.9 39.31 14.97 39.15 14.97 38.9 14.97 36.62 14.97"/>
      <path class="cls-1" d="M36.61,14.73h-.4l-.25.25v.93l.25.25h3.08l.25-.25v-.93l-.25-.25h-2.68ZM36.46,15.21h2.6v.44h-2.6v-.44Z"/>
      <path class="cls-3" d="M38.23,13.79c.37.31.57.7.61,1.19h-2.14c-.02-.52.19-.94.63-1.24.31-.14.62-.12.91.05"/>
      <path class="cls-1" d="M38.09,13.95l.32.41.12.34h-1.55c.02-.33.17-.59.45-.77l.66.03ZM38.86,14.17c-.11-.23-.27-.43-.48-.58-.37-.22-.75-.24-1.14-.08h-.05c-.5.34-.75.81-.74,1.41l.25.26h2.18l.21-.28c-.04-.26-.12-.52-.23-.76"/>
      <rect class="cls-6" x="33.13" y="27.43" width="9.27" height="1.05"/>
      <path class="cls-1" d="M42.15,28.24h-8.81v-.55h8.77l.04.55ZM33.13,28.73h9.27l.24-.25v-1.05l-.24-.25h-9.27l-.25.25v1.05l.25.25Z"/>
      <rect class="cls-6" x="59.82" y="47.9" width="1.98" height="3.53"/>
      <path class="cls-1" d="M59.81,51.67h1.98l.25-.25v-3.53l-.25-.25h-1.98l-.24.25v3.52l.24.26ZM61.55,51.18h-1.48v-3.04h1.48v3.04Z"/>
      <rect class="cls-9" x="62.39" y="55.59" width="1.18" height="2.11"/>
      <path class="cls-1" d="M62.39,57.95h1.18l.25-.25v-2.11l-.25-.25h-1.18l-.25.25v2.1l.25.26ZM63.32,57.45h-.68v-1.61h.68v1.61Z"/>
      <rect class="cls-9" x="60.22" y="55.59" width="1.18" height="2.11"/>
      <path class="cls-1" d="M60.19,57.95h1.18l.25-.25v-2.11l-.25-.25h-1.18l-.25.25v2.1l.25.26ZM61.12,57.45h-.68v-1.61h.68v1.61Z"/>
      <rect class="cls-9" x="58.04" y="55.59" width="1.18" height="2.11"/>
      <path class="cls-1" d="M58.04,57.95h1.18l.25-.25v-2.11l-.25-.25h-1.18l-.25.25v2.1l.25.26ZM58.98,57.45h-.69v-1.61h.69v1.61Z"/>
      <rect class="cls-9" x="62.39" y="59.47" width="1.18" height="2.11"/>
      <path class="cls-1" d="M62.39,61.81h1.18l.25-.25v-2.1l-.25-.25h-1.18l-.25.25v2.13l.25.22ZM63.32,61.33h-.68v-1.61h.68v1.61Z"/>
      <rect class="cls-9" x="60.22" y="59.47" width="1.18" height="2.11"/>
      <path class="cls-1" d="M60.19,61.81h1.18l.25-.25v-2.1l-.25-.25h-1.18l-.25.25v2.13l.25.22ZM61.12,61.33h-.68v-1.61h.68v1.61Z"/>
      <rect class="cls-9" x="58.04" y="59.47" width="1.18" height="2.11"/>
      <path class="cls-1" d="M58.04,61.81h1.18l.25-.25v-2.1l-.25-.25h-1.18l-.25.25v2.13l.25.22ZM58.98,61.33h-.69v-1.61h.69v1.61Z"/>
      <rect class="cls-6" x="52.77" y="47.21" width="1.18" height="7.6"/>
      <path class="cls-1" d="M52.77,55.05h1.18l.25-.25v-7.6l-.25-.24h-1.18l-.25.24v7.59l.25.26ZM53.7,54.55h-.68v-7.1h.68v7.1Z"/>
      <rect class="cls-9" x="52.54" y="53.91" width="1.65" height=".89"/>
      <path class="cls-1" d="M52.54,55.05h1.64l.24-.25v-.89l-.24-.23h-1.65l-.25.25v.88l.26.24ZM53.94,54.55h-1.16v-.4h1.16v.4Z"/>
      <rect class="cls-9" x="52.54" y="47.21" width="1.65" height=".71"/>
      <path class="cls-1" d="M52.54,48.16h1.64l.24-.25v-.7l-.24-.26h-1.65l-.25.26v.7l.26.25ZM53.94,47.67h-1.16v-.21h1.16v.21Z"/>
      <rect class="cls-6" x="48.31" y="47.21" width="1.18" height="7.6"/>
      <path class="cls-1" d="M48.27,55.05h1.19l.25-.25v-7.6l-.25-.24h-1.19l-.25.24v7.59l.25.26ZM49.21,54.55h-.69v-7.1h.69v7.1Z"/>
      <rect class="cls-9" x="48.07" y="53.91" width="1.65" height=".89"/>
      <path class="cls-1" d="M48.07,55.05h1.65l.25-.25v-.89l-.25-.25h-1.65l-.25.25v.88l.25.26ZM49.47,54.55h-1.15v-.4h1.15v.4Z"/>
      <rect class="cls-9" x="48.07" y="47.21" width="1.65" height=".71"/>
      <path class="cls-1" d="M48.07,48.16h1.65l.25-.25v-.7l-.25-.26h-1.65l-.25.26v.7l.25.25ZM49.47,47.67h-1.15v-.21h1.15v.21Z"/>
      <rect class="cls-6" x="43.85" y="47.21" width="1.18" height="7.6"/>
      <path class="cls-1" d="M43.85,55.05h1.18l.25-.25v-7.6l-.25-.24h-1.18l-.25.24v7.59l.25.26ZM44.78,54.55h-.68v-7.1h.68v7.1Z"/>
      <rect class="cls-9" x="43.62" y="53.91" width="1.65" height=".89"/>
      <path class="cls-1" d="M43.61,55.05h1.64l.24-.25v-.89l-.24-.23h-1.66l-.24.25v.88l.26.24ZM45.02,54.55h-1.16v-.4h1.16v.4Z"/>
      <rect class="cls-9" x="43.62" y="47.21" width="1.65" height=".71"/>
      <path class="cls-1" d="M43.61,48.16h1.64l.24-.25v-.7l-.24-.26h-1.66l-.24.26v.7l.26.25ZM45.02,47.67h-1.16v-.21h1.16v.21Z"/>
      <rect class="cls-6" x="39.39" y="47.21" width="1.18" height="7.6"/>
      <path class="cls-1" d="M39.29,55.05h1.19l.24-.25v-7.6l-.24-.24h-1.19l-.25.24v7.59l.25.26ZM40.28,54.55h-.69v-7.1h.69v7.1Z"/>
      <rect class="cls-9" x="39.15" y="53.91" width="1.65" height=".89"/>
      <path class="cls-1" d="M39.15,55.05h1.65l.25-.25v-.89l-.25-.25h-1.65l-.25.25v.88l.25.26ZM40.55,54.55h-1.15v-.4h1.15v.4Z"/>
      <rect class="cls-9" x="39.15" y="47.21" width="1.65" height=".71"/>
      <path class="cls-1" d="M39.15,48.16h1.65l.25-.25v-.7l-.25-.26h-1.65l-.25.26v.7l.25.25ZM40.55,47.67h-1.15v-.21h1.15v.21Z"/>
      <rect class="cls-6" x="34.93" y="47.21" width="1.18" height="7.6"/>
      <path class="cls-1" d="M34.93,55.05h1.18l.25-.25v-7.6l-.25-.24h-1.18l-.25.24v7.59l.25.26ZM35.86,54.55h-.68v-7.1h.68v7.1Z"/>
      <rect class="cls-9" x="34.7" y="53.91" width="1.65" height=".89"/>
      <path class="cls-1" d="M34.69,55.05h1.63l.24-.25v-.89l-.24-.23h-1.66l-.25.25v.88l.28.24ZM36.1,54.55h-1.16v-.4h1.16v.4Z"/>
      <rect class="cls-9" x="34.7" y="47.21" width="1.65" height=".71"/>
      <path class="cls-1" d="M34.69,48.16h1.63l.24-.25v-.7l-.24-.26h-1.66l-.25.26v.7l.28.25ZM36.1,47.67h-1.16v-.21h1.16v.21Z"/>
      <path class="cls-1" d="M30.46,55.05h1.19l.24-.25v-7.6l-.24-.24h-1.19l-.25.24v7.59l.25.26ZM31.4,54.55h-.69v-7.1h.69v7.1Z"/>
      <path class="cls-1" d="M30.23,55.05h1.65l.25-.25v-.89l-.25-.25h-1.65l-.25.25v.88l.25.26ZM31.63,54.55h-1.15v-.4h1.15v.4Z"/>
      <path class="cls-1" d="M30.23,48.16h1.65l.25-.25v-.7l-.25-.26h-1.65l-.25.26v.7l.25.25ZM31.63,47.67h-1.15v-.21h1.15v.21Z"/>
      <path class="cls-1" d="M26.01,55.05h1.18l.25-.25v-7.6l-.25-.24h-1.18l-.25.24v7.59l.25.26ZM26.94,54.55h-.68v-7.1h.68v7.1Z"/>
      <path class="cls-1" d="M25.77,55.05h1.62l.24-.25v-.89l-.24-.23h-1.66l-.24.25v.88l.28.24ZM27.18,54.55h-1.16v-.4h1.16v.4Z"/>
      <path class="cls-1" d="M25.77,48.16h1.62l.24-.25v-.7l-.24-.26h-1.66l-.24.26v.7l.28.25ZM27.18,47.67h-1.16v-.21h1.16v.21Z"/>
      <path class="cls-1" d="M21.54,55.05h1.19l.24-.25v-7.6l-.24-.24h-1.19l-.25.24v7.59l.25.26ZM22.48,54.55h-.69v-7.1h.69v7.1Z"/>
      <path class="cls-1" d="M21.31,55.05h1.65l.25-.25v-.89l-.25-.25h-1.65l-.25.25v.88l.25.26ZM22.71,54.55h-1.15v-.4h1.15v.4Z"/>
      <path class="cls-1" d="M21.31,48.16h1.65l.25-.25v-.7l-.25-.26h-1.65l-.25.26v.7l.25.25ZM22.71,47.67h-1.15v-.21h1.15v.21Z"/>
      <path class="cls-1" d="M17.09,55.05h1.18l.25-.25v-7.6l-.25-.24h-1.18l-.25.24v7.59l.25.26ZM18.02,54.55h-.68v-7.1h.68v7.1Z"/>
      <path class="cls-1" d="M16.85,55.05h1.61l.25-.25v-.89l-.25-.23h-1.65l-.25.25v.88l.29.24ZM18.25,54.55h-1.15v-.4h1.15v.4Z"/>
      <path class="cls-1" d="M16.85,48.16h1.61l.25-.25v-.7l-.25-.26h-1.65l-.25.26v.7l.29.25ZM18.25,47.67h-1.15v-.21h1.15v.21Z"/>
      <rect class="cls-6" x="60.17" y="41.19" width="1.29" height="1.95"/>
      <path class="cls-1" d="M60.22,43.38h1.28l.25-.25v-1.98l-.25-.25h-1.37l-.25.25v1.98l.34.25ZM61.21,42.88h-.79v-1.44h.79v1.44Z"/>
      <path class="cls-1" d="M14.91,64.61H.88v-9.31h14.07l-.04,9.31ZM.6,65.11h14.57l.25-.25v-9.8l-.25-.25H.6l-.25.25v9.79l.25.26Z"/>
      <path class="cls-1" d="M.63,55.3h14.58l.25-.25v-9.2l-.25-.25H.6l-.24.25v9.19l.28.26ZM1.46,54.81h-.58v-8.7h14.08v8.7H1.46Z"/>
      <path class="cls-1" d="M.24,46.11h15.37l.25-.25v-1.15l-.25-.25H.24l-.24.25v1.14l.24.26ZM15.36,45.61H.48v-.65h14.88v.65Z"/>
      <path class="cls-1" d="M7.73,41.49l3.47,1.7,2.62,1.28H1.64l2.62-1.28,3.47-1.7ZM11.42,42.74l-3.58-1.74h-.22l-3.58,1.74-3.56,1.74-.15.23.25.25h14.32l.22-.14-.11-.33-3.58-1.75Z"/>
      <path class="cls-1" d="M10.65,62.45h1.18l.25-.25v-5.39l-.25-.25h-1.18l-.25.25v5.38l.25.26ZM11.58,61.96h-.69v-4.9h.69v4.9Z"/>
      <path class="cls-1" d="M8.43,62.45h1.18l.25-.25v-5.39l-.25-.25h-1.18l-.25.25v5.38l.25.26ZM9.37,61.96h-.68v-4.9h.68v4.9Z"/>
      <path class="cls-1" d="M6.22,62.45h1.18l.25-.25v-5.39l-.25-.25h-1.18l-.25.25v5.38l.25.26ZM7.15,61.96h-.68v-4.9h.68v4.9Z"/>
      <path class="cls-1" d="M4.01,62.45h1.19l.24-.25v-5.39l-.24-.25h-1.19l-.24.25v5.38l.24.26ZM4.95,61.96h-.69v-4.9h.69v4.9Z"/>
      <path class="cls-1" d="M52.04,56.92c0-.15-.07-.26-.24-.26-.07,0-.14.02-.19.07s-.08.12-.07.19v1.98c0,.07.02.14.07.19.05.05.12.07.19.07.17,0,.23-.11.24-.26v-1.98M53.77,56.92c0-.15-.07-.26-.24-.26s-.24.11-.26.26v1.98c0,.15.08.26.26.26s.23-.11.24-.26v-1.98ZM50.32,56.92c0-.15-.07-.26-.25-.26s-.24.11-.25.26v1.98c0,.15.08.26.25.26s.24-.11.25-.26v-1.98M48.58,56.92c0-.15-.06-.26-.24-.26s-.24.11-.25.26v1.98c0,.15.08.26.25.26s.24-.11.24-.26v-1.98ZM46.85,56.92c0-.15-.07-.26-.24-.26s-.24.11-.25.26v1.98c0,.15.08.26.25.26s.23-.11.24-.26v-1.98ZM45.13,56.92c0-.15-.07-.26-.24-.26s-.24.11-.26.26v1.98c0,.15.08.26.26.26s.23-.11.24-.26v-1.98M43.4,56.92c0-.15-.07-.26-.24-.26s-.24.11-.26.26v1.98c0,.15.08.26.26.26s.23-.11.24-.26v-1.98M41.67,56.92c0-.15-.07-.26-.24-.26-.07,0-.14.02-.19.07-.05.05-.08.12-.07.19v1.98c0,.15.08.26.25.26s.24-.11.25-.26v-1.98M39.95,56.92c0-.15-.07-.26-.25-.26s-.24.11-.25.26v1.98c0,.15.08.26.25.26s.23-.11.25-.26v-1.98M38.22,56.92c0-.15-.08-.26-.25-.26s-.24.11-.25.26v1.98c0,.15.08.26.25.26s.23-.11.25-.26v-1.98M36.48,56.92c0-.15-.07-.26-.24-.26s-.24.11-.25.26v1.98c0,.15.08.26.25.26s.23-.11.24-.26v-1.98ZM34.76,56.92c0-.15-.07-.26-.24-.26s-.24.11-.26.26v1.98c0,.15.08.26.26.26s.23-.11.24-.26v-1.98M33.03,56.92c0-.15-.07-.26-.25-.26s-.23.11-.25.26v1.98c0,.15.08.26.25.26s.24-.11.25-.26v-1.98M31.3,56.92c0-.15-.07-.26-.25-.26s-.24.11-.25.26v1.98c0,.15.08.26.25.26s.24-.11.25-.26v-1.98M29.58,56.92c0-.15-.07-.26-.25-.26s-.24.11-.25.26v1.98c0,.15.08.26.25.26s.23-.11.25-.26v-1.98ZM27.85,56.92c0-.15-.08-.26-.25-.26s-.24.11-.25.26v1.98c0,.15.08.26.25.26s.23-.11.25-.26v-1.98ZM26.11,56.92c0-.15-.07-.26-.24-.26s-.24.11-.25.26v1.98c0,.15.08.26.26.26s.23-.11.24-.26v-1.98M24.38,56.92c0-.15-.07-.26-.24-.26s-.24.11-.26.26v1.98c0,.15.08.26.26.26s.23-.11.24-.26v-1.98M22.65,56.92c0-.15-.07-.26-.25-.26s-.23.11-.25.26v1.98c0,.15.08.26.25.26s.24-.11.25-.26v-1.98M20.93,56.92c0-.15-.07-.26-.25-.26s-.24.11-.25.26v1.98c0,.15.08.26.25.26s.24-.11.25-.26v-1.98M19.2,56.92c0-.15-.07-.26-.25-.26s-.24.11-.25.26v1.98c0,.15.08.26.25.26s.23-.11.25-.26v-1.98M17.46,56.92c0-.15-.07-.26-.24-.26s-.24.11-.25.26v1.98c0,.15.08.26.26.26s.23-.11.24-.26v-1.98Z"/>
      <path class="cls-1" d="M6.9,54.51h2.05l.25-.25v-3.65l-.25-.25h-2.05l-.25.25v3.65l.25.25ZM8.7,54.02h-1.56v-3.16h1.56v3.16Z"/>
      <path class="cls-1" d="M10.29,55.3h1.22l.25-.25v-9.2l-.25-.25h-1.18l-.25.25v9.19l.21.26ZM11.22,54.81h-.7v-8.7h.69v8.7Z"/>
      <path class="cls-1" d="M10.02,55.29h1.74l.25-.24v-1.37l-.25-.24h-1.77l-.24.24v1.38l.24.24h.03ZM11.51,54.81h-1.26v-.89h1.26v.89Z"/>
      <path class="cls-1" d="M10.02,46.96h1.74l.25-.25v-.85l-.25-.25h-1.77l-.24.25v.9l.24.25.03-.05ZM11.51,46.47h-1.26v-.37h1.26v.37Z"/>
      <path class="cls-1" d="M5.57,55.3h-1.18l-.25-.25v-9.2l.25-.25h1.17l.25.25v9.19l-.24.26ZM4.63,54.81h.68v-8.7h-.68v8.7Z"/>
      <path class="cls-1" d="M5.83,55.29h-1.74l-.25-.24v-1.37l.25-.24h1.76l.25.24v1.38l-.25.24h-.02ZM4.35,54.81h1.26v-.89h-1.26v.89Z"/>
      <path class="cls-1" d="M5.83,46.96h-1.74l-.25-.25v-.85l.25-.25h1.76l.25.25v.9l-.25.25-.02-.05ZM4.35,46.47h1.26v-.37h-1.26v.37Z"/>
      <path class="cls-1" d="M12.86,55.3h1.18l.25-.25v-9.2l-.25-.25h-1.18l-.25.25v9.19l.25.26ZM13.79,54.81h-.69v-8.7h.69v8.7Z"/>
      <path class="cls-1" d="M12.59,55.29h1.74l.25-.24v-1.37l-.25-.24h-1.77l-.24.24v1.38l.24.24h.03ZM14.08,54.81h-1.27v-.89h1.27v.89Z"/>
      <path class="cls-1" d="M12.59,46.96h1.74l.25-.25v-.85l-.25-.25h-1.77l-.24.25v.9l.24.25.03-.05ZM14.08,46.47h-1.27v-.37h1.27v.37Z"/>
      <path class="cls-1" d="M3,55.3h-1.18l-.25-.25v-9.2l.25-.25h1.18l.25.25v9.19l-.25.26ZM2.06,54.81h.68v-8.7h-.68v8.7Z"/>
      <path class="cls-1" d="M3.26,55.29h-1.74l-.25-.24v-1.37l.25-.24h1.76l.25.24v1.38l-.25.24h-.02ZM1.78,54.81h1.26v-.89h-1.26v.89Z"/>
      <path class="cls-1" d="M3.26,46.96h-1.74l-.25-.25v-.85l.25-.25h1.76l.25.25v.9l-.25.25-.02-.05ZM1.78,46.47h1.26v-.37h-1.26v.37Z"/>
      <path class="cls-1" d="M38.01,11.47c0-.15-.07-.25-.25-.25s-.24.1-.25.25v1.98c0,.15.08.26.25.26s.23-.11.25-.26v-1.98Z"/>
      <path class="cls-3" d="M38.45,34.24h-1.35v-2.22c0-.55.3-.99.67-.99s.67.45.67.99v2.22"/>
      <path class="cls-1" d="M38.2,33.99h-.89v-1.98c0-.21.04-.4.15-.57l.28-.19.28.19c.1.18.15.37.15.57l.04,1.98ZM37.1,34.49h1.35v-.25h.25v-2.22c0-.31-.07-.59-.24-.85-.15-.27-.38-.4-.68-.4s-.54.13-.68.4c-.16.26-.24.54-.24.85v2.22l.25.25Z"/>
      <path class="cls-1" d="M37.35,33.99h.85v-1.98c0-.21-.05-.4-.16-.57l-.27-.19-.28.19c-.11.18-.16.37-.15.57v1.98ZM38.45,34.49h-1.35v-.25h-.25v-2.22c0-.31.07-.59.24-.85.15-.27.38-.4.68-.4s.54.13.68.4c.16.26.24.54.24.85v2.22l-.25.25Z"/>
      <rect class="cls-2" width="152.59" height="65.25"/>
    </g>
  </g>
</svg>