<?xml version="1.0" encoding="UTF-8"?>
<svg id="Capa_2" data-name="Capa 2" xmlns="http://www.w3.org/2000/svg" viewBox="0 0 54.21 54.23">
  <defs>
    <style>
      .cls-1, .cls-2, .cls-3, .cls-4, .cls-5 {
        stroke-width: 0px;
      }

      .cls-1, .cls-3 {
        fill-rule: evenodd;
      }

      .cls-1, .cls-5 {
        fill: #00352b;
      }

      .cls-2 {
        fill: none;
      }

      .cls-3, .cls-4 {
        fill: #cad9d7;
      }
    </style>
  </defs>
  <g id="text_i_icones" data-name="text i icones">
    <g>
      <polygon class="cls-3" points="7.97 7.39 7.05 7.39 5.87 7.39 5.87 10.19 6.69 10.19 8.33 10.19 14.15 10.19 21.18 10.19 36.84 10.19 40.06 10.19 45.88 10.19 47.52 10.19 48.26 10.19 48.26 7.39 47.16 7.39 46.24 7.39 39.71 7.39 36.84 7.39 32.15 7.39 29.33 7.39 24.97 7.39 22.94 7.39 21.18 7.39 14.5 7.39 7.97 7.39"/>
      <path class="cls-1" d="M8.02,7.71h-1.83v2.16h41.74v-2.16H7.97h.05ZM7.05,7.06h41.21c.21,0,.32.12.32.33v2.8c0,.21-.11.32-.32.33H5.87c-.22,0-.33-.11-.33-.33v-2.8c0-.22.11-.33.33-.33h1.18Z"/>
      <path class="cls-3" d="M29.51,7.39c.18-.19.36-.38.56-.55.22-.21.32-.73-.33-.97-.65-.24-.92.48-1.02.65-.1.16-.29-.29-.27-.46,0-.39.06-.76.17-1.13.14-.25-.81-.36-.89-.57-.16-.3-.36-.58-.58-.83-.22.26-.41.54-.58.83-.07.21-1.03.32-.89.57.11.37.17.75.18,1.13,0,.17-.18.63-.28.46-.1-.16-.36-.92-1.02-.65-.66.27-.55.77-.33.97.2.17.38.36.56.55h4.71Z"/>
      <path class="cls-1" d="M29.36,7.06l.23-.22.26-.24v-.18l-.06-.12-.24-.15c-.29-.13-.47.24-.55.41l-.06.11-.22.18-.37-.1-.1-.14c-.1-.18-.16-.38-.16-.59v-.09c.02-.33.06-.65.14-.97l-.19-.08c-.28-.11-.56-.2-.65-.46l-.27-.4-.27.41c-.08.24-.36.34-.64.45l-.18.08c.08.32.12.64.13.97v.1c0,.21-.06.41-.16.59l-.13.16-.37.09-.22-.18-.05-.09c-.09-.17-.26-.51-.55-.4l-.23.15-.07.12v.18l.26.24.23.22,4.5-.06ZM30.04,7.3l-.28.29-.25.12h-4.71l-.23-.11-.3-.3-.25-.23-.21-.3-.05-.45.22-.47c.13-.14.29-.25.47-.31.18-.09.37-.12.57-.08.2.04.36.14.5.29-.01-.24-.05-.48-.12-.71-.15-.3,0-.49.27-.64l.35-.15.25-.06c.18-.32.39-.63.63-.91l.05-.06.46.06c.24.28.45.58.63.9l.25.05.36.15c.27.15.42.35.26.64-.08.23-.12.47-.13.71.13-.16.3-.25.5-.29.2-.04.39-.01.57.08.18.06.34.17.47.31l.23.46-.06.45-.21.3-.24.25Z"/>
      <polygon class="cls-3" points="6.12 11.46 8.9 11.46 13.57 11.46 20.01 11.46 20.64 11.46 40.63 11.46 45.31 11.46 48.09 11.46 49.96 11.46 49.96 10.19 20.64 10.19 20.01 10.19 4.45 10.19 4.45 11.46 6.12 11.46"/>
      <path class="cls-1" d="M6.12,11.14h43.52v-.62H4.78v.62h1.35ZM8.9,11.79h-4.45c-.22,0-.33-.11-.33-.33v-1.27c0-.22.11-.33.33-.33h45.53c.22,0,.33.11.33.33v1.26c0,.22-.11.33-.33.33H8.9Z"/>
      <polygon class="cls-3" points="6.39 16.68 8.63 16.68 13.84 16.68 40.37 16.68 45.58 16.68 46.22 16.68 46.35 16.68 47.82 16.68 48.93 16.68 48.93 11.46 46.35 11.46 46.22 11.46 5.35 11.46 5.35 16.68 6.39 16.68"/>
      <path class="cls-1" d="M6.39,16.36h42.21v-4.57H5.67v4.57h.73ZM8.63,17.01h-3.28c-.22,0-.33-.11-.33-.33v-5.22c0-.22.11-.33.33-.33h43.59c.09,0,.17.03.23.1s.09.14.09.23v5.22c0,.22-.11.33-.33.33H8.63Z"/>
      <path class="cls-3" d="M17.67,34.56c.15-3.24.97-5.81,3.32-8.02.4-.4.84-.75,1.31-1.06.47-.31.97-.57,1.5-.79.52-.21,1.06-.38,1.62-.49.56-.11,1.12-.16,1.68-.16s1.13.05,1.68.16c.56.11,1.1.27,1.62.49.52.21,1.02.48,1.5.79.47.31.91.67,1.31,1.06,2.37,2.18,3.18,4.79,3.33,8.02h13.52l-.53-17.87H4.21l-.5,17.87h13.96Z"/>
      <path class="cls-1" d="M17.36,34.19c.07-1.44.35-2.84.84-4.19.56-1.45,1.42-2.69,2.57-3.74.5-.47,1.05-.88,1.64-1.24.56-.34,1.15-.62,1.77-.83.79-.27,1.6-.43,2.44-.48.84-.05,1.66.02,2.48.2.82.18,1.59.47,2.33.87.74.4,1.4.89,2,1.48,1.15,1.05,2.01,2.29,2.58,3.74.5,1.35.78,2.75.83,4.19h12.86l-.51-17.21H4.54l-.49,17.21h13.31ZM18.8,30.26c-.5,1.39-.78,2.82-.81,4.3,0,.21-.11.31-.32.31H3.7c-.21,0-.32-.12-.31-.33l.49-17.84c0-.21.12-.32.33-.32h45.3c.21,0,.31.1.32.31l.53,17.84c0,.21-.11.32-.32.33h-13.53c-.21,0-.32-.1-.33-.31-.04-1.48-.31-2.91-.81-4.3-.52-1.35-1.33-2.52-2.4-3.49-.56-.54-1.18-1-1.86-1.37-.68-.37-1.41-.64-2.17-.81s-1.53-.24-2.31-.19c-.78.04-1.53.19-2.27.44-.58.2-1.13.46-1.65.78-.55.33-1.06.72-1.53,1.15l-2.38,3.5ZM21.21,26.78l-2.4,3.49c.53-1.35,1.33-2.51,2.4-3.49"/>
      <path class="cls-3" d="M5.89,37.27h11.49v-1.42h.24v-1.29H4.33v.78h.58l-.3.14-.14,1.8h1.41ZM36.51,34.72v-.16h12.83l-.54,2.71h-12.01v-1.42h-.25v-1.12"/>
      <path class="cls-1" d="M5.91,36.91h11.16v-1.09l.25-.32v-.65H4.66v.13h.25c.22,0,.33.11.33.33l-.21.3-.1.05-.11,1.26h1.09ZM9.12,37.56h-4.67c-.21-.02-.31-.14-.3-.35l.13-1.59-.26-.32v-.77c0-.21.11-.32.32-.33h13.35c.21.01.32.13.32.34v1.28l-.25.31v1.1c0,.21-.11.32-.32.32h-8.31ZM36.23,34.73v-.16c-.01-.09,0-.17.06-.25.05-.07.13-.12.22-.13h12.85c.21,0,.32.12.32.33v.1l-.54,2.67-.31.26h-12.01c-.21,0-.32-.11-.33-.32v-1.1l-.24-.31v-1.11M40.41,34.87h-3.53v.65l.24.32v1.09h11.42l.42-2.06h-8.57.02ZM49.69,34.65l-.31.22.31-.22Z"/>
      <path class="cls-3" d="M6.57,51.62h10.83v-14.36H5.35v14.36h1.22ZM36.82,37.27h12.69v14.36h-12.69v-14.36Z"/>
      <path class="cls-5" d="M49.51,51.98h-12.69c-.21-.03-.31-.15-.31-.36v-14.37c0-.1.04-.18.11-.25.07-.07.15-.1.25-.1h12.69c.1,0,.18.03.25.1.07.07.11.15.11.25v14.37c0,.1-.04.18-.1.25-.07.07-.15.1-.25.1M37.18,51.27h11.98v-13.64h-11.98v13.64ZM17.4,51.99H5.35c-.1,0-.18-.03-.25-.1s-.1-.15-.1-.25v-14.38c0-.1.04-.18.11-.25s.15-.1.25-.1h12.05c.1,0,.18.03.25.1.07.07.11.15.11.25v14.37c0,.23-.13.35-.36.36M5.71,51.28h11.33v-13.65H5.71v13.65Z"/>
      <path class="cls-3" d="M46.33,53.89h2.22v-2.27h-12.18v2.27h9.96ZM14.36,51.62H5.35v2.27h12.51v-2.27h-3.5Z"/>
      <path class="cls-1" d="M46.29,53.57h1.94v-1.62h-11.54v1.61h9.6ZM47.11,54.22h-10.74c-.21,0-.32-.11-.33-.32v-2.28c0-.22.11-.33.33-.33h12.14c.22,0,.33.11.33.33v2.26c0,.21-.12.32-.33.32l-1.39.02ZM14.36,51.95H5.64v1.61h11.89v-1.62h-3.17ZM8.13,51.3h9.69c.21,0,.32.12.32.33v2.26c0,.21-.11.32-.32.32H5.35c-.21,0-.32-.11-.33-.32v-2.27c0-.22.11-.33.33-.33h2.78Z"/>
      <polygon class="cls-3" points="47.33 52.76 47.33 53.24 47.33 53.9 53.52 53.9 53.52 53.24 53.52 52.76 53.35 51.97 47.5 51.97 47.33 52.76"/>
      <polygon class="cls-3" points="48.78 48.64 47.94 51.96 52.91 51.96 52.08 48.64 48.78 48.64"/>
      <polygon class="cls-3" points="48.76 45.84 48.55 46.27 48.55 48.64 48.84 48.64 52 48.64 52.3 48.64 52.3 46.27 52.1 45.84 48.76 45.84"/>
      <rect class="cls-4" x="48.76" y="37.68" width="3.33" height="8.16"/>
      <polygon class="cls-3" points="48.09 36.58 48.76 37.68 52.1 37.68 52.77 36.58 48.09 36.58"/>
      <polygon class="cls-3" points="48.73 33.99 48.09 33.99 48.09 36.58 52.77 36.58 52.77 33.99 52.75 33.99 52.13 33.99 48.73 33.99"/>
      <rect class="cls-4" x="48.73" y="17.69" width="3.4" height="16.29"/>
      <polygon class="cls-3" points="48.05 13.45 48.05 17.15 48.73 17.7 52.13 17.7 52.81 17.15 52.81 13.45 48.05 13.45"/>
      <polygon class="cls-3" points="48.31 11.79 47.57 12.64 48.04 13.45 52.81 13.45 53.29 12.64 52.54 11.79 48.31 11.79"/>
      <polygon class="cls-3" points="47.94 10.69 48.31 11.17 48.31 11.79 52.54 11.79 52.54 11.17 52.91 10.69 47.94 10.69"/>
      <polygon class="cls-3" points="47.62 8.72 47.62 9.84 47.89 10.69 52.98 10.69 53.23 9.84 53.23 8.72 47.62 8.72"/>
      <polygon class="cls-3" points="47.63 5.96 47.06 6.69 47.62 8.72 53.22 8.72 53.79 6.69 53.22 5.96 47.63 5.96"/>
      <path class="cls-3" d="M49.76,2.85c-.63.43-1.08,1-1.36,1.71-.09.46-.13.93-.14,1.39h4.32c0-.47-.05-.93-.14-1.39-.28-.71-.74-1.28-1.37-1.71h-1.33Z"/>
      <polygon class="cls-3" points="50.42 .35 49.17 .35 49.83 2.01 49.83 2.85 51.02 2.85 51.02 2.01 51.67 .35 50.42 .35"/>
      <path class="cls-1" d="M47.66,52.78v.78h5.53v-.79l-.1-.48h-5.33l-.11.49ZM47.01,53.24v-.56l.16-.77c.03-.18.14-.27.33-.27h5.81l.31.25.16.77v1.23c0,.21-.11.32-.32.33h-6.18c-.22,0-.33-.11-.33-.33l.06-.65Z"/>
      <path class="cls-1" d="M49.02,48.99l-.67,2.68h4.14l-.67-2.68h-2.8ZM47.63,51.89l.82-3.31.32-.26h3.3l.32.25.82,3.3v.1c0,.21-.11.32-.32.33h-5.05c-.2-.06-.28-.19-.23-.4"/>
      <path class="cls-1" d="M48.96,46.12l-.08.17v1.94h3.13v-1.94l-.09-.17h-2.96ZM48.26,46.12l.2-.43.29-.17h3.33l.3.17.19.41.05.16v2.36c0,.22-.11.33-.33.33h-3.75c-.22,0-.33-.11-.33-.33v-2.37l.04-.14Z"/>
      <path class="cls-1" d="M49.09,45.48h2.68v-7.42h-2.66l-.02,7.42ZM48.44,45.81v-8.16c0-.21.11-.32.32-.32h3.34c.21,0,.32.11.32.32v8.16c0,.21-.11.32-.32.32h-3.34c-.21,0-.32-.12-.32-.33"/>
      <path class="cls-1" d="M48.67,36.89l.27.46h2.97l.28-.46h-3.53ZM48.49,37.86l-.66-1.08-.06-.19c0-.21.11-.32.32-.32h4.68l.16.05.12.45-.67,1.09-.28.17h-3.32l-.29-.15Z"/>
      <path class="cls-1" d="M48.78,34.31h-.31v1.94h4.02v-1.94h-3.71ZM48.14,33.66h4.68c.22,0,.33.11.33.33v2.59c0,.22-.11.33-.33.33h-4.68c-.21,0-.32-.12-.32-.33v-2.59c0-.21.11-.32.32-.33"/>
      <path class="cls-1" d="M49.06,33.66h2.75v-15.65h-2.7l-.05,15.65ZM48.41,33.99v-16.27c0-.21.12-.32.33-.32h3.39c.21,0,.32.11.32.32v16.27c0,.21-.11.32-.32.32h-3.39c-.21,0-.32-.11-.33-.32"/>
      <path class="cls-1" d="M48.37,13.78v3.22l.47.38h3.17l.47-.38v-3.22h-4.12ZM47.72,17.15v-3.7c0-.22.11-.33.33-.33h4.77c.21,0,.32.12.32.33v3.7l-.12.25-.67.53-.22.09h-3.4l-.19-.07-.67-.54-.15-.26Z"/>
      <path class="cls-1" d="M48.47,12.12l-.49.56.26.44h4.39l.27-.44-.49-.56h-3.93ZM47.33,12.43l.74-.84.24-.12h4.23l.24.12.74.83.05.39-.47.78-.29.17h-4.77l-.28-.16-.47-.8.04-.38Z"/>
      <path class="cls-1" d="M47.99,11.28l-.29-.37-.08-.21c0-.09.03-.17.09-.23.06-.06.14-.1.23-.1h4.97l.2.07.06.46-.3.39v.52c0,.21-.11.32-.32.32h-4.23c-.21,0-.32-.11-.32-.32v-.52ZM48.6,11.01v.46h3.57v-.46h-3.57Z"/>
      <path class="cls-1" d="M47.95,9.04v.77l.17.56h4.61l.16-.56v-.8l-4.95.04ZM47.3,9.84v-1.12c0-.22.11-.33.33-.33h5.59c.22,0,.33.11.33.33v1.25l-.24.82-.32.25h-5.1l-.31-.23-.25-.82-.03-.15Z"/>
      <path class="cls-1" d="M47.78,6.29l-.37.47.46,1.63h5.11l.46-1.63-.37-.47h-5.29ZM46.81,6.5l.55-.73.27-.15h5.6l.25.13.56.74.06.29-.55,2-.32.26h-5.6l-.32-.23-.56-2.02.06-.28Z"/>
      <path class="cls-1" d="M49.58,2.59l.18-.07h1.33l.19.07c.45.33.84.72,1.16,1.17l.19.35.14.39c.06.34.1.65.12.91v.54c0,.21-.11.32-.32.33h-4.33c-.21,0-.32-.11-.32-.32v-.6c.02-.29.06-.57.12-.85.2-.65.57-1.19,1.11-1.61l.21-.18.15-.12h.07ZM49.88,3.18h-.06l-.19.16c-.42.32-.72.74-.9,1.24-.05.26-.09.53-.11.79v.21h3.65v-.16c-.02-.28-.06-.56-.11-.84l-.09-.24-.15-.26c-.26-.37-.56-.69-.92-.97l-1.13.07Z"/>
      <path class="cls-1" d="M50.46.65h-.77l.48,1.23v.62h.54v-.62l.47-1.23h-.73ZM49.18.02h2.62c.2.08.26.22.18.43l-.63,1.61v.78c0,.22-.11.33-.33.33h-1.19c-.21,0-.32-.12-.32-.33v-.78l-.63-1.59v-.14c0-.22.11-.33.33-.33"/>
      <polygon class="cls-3" points="39.87 52.76 39.87 53.24 39.87 53.9 46.06 53.9 46.06 53.24 46.06 52.76 45.9 51.97 40.05 51.97 39.87 52.76"/>
      <polygon class="cls-3" points="41.32 48.64 40.49 51.96 45.45 51.96 44.62 48.64 41.32 48.64"/>
      <polygon class="cls-3" points="41.3 45.84 41.09 46.27 41.09 48.64 41.39 48.64 44.54 48.64 44.84 48.64 44.84 46.27 44.64 45.84 41.3 45.84"/>
      <rect class="cls-4" x="41.3" y="37.68" width="3.33" height="8.16"/>
      <polygon class="cls-3" points="40.63 36.58 41.31 37.68 44.64 37.68 45.31 36.58 40.63 36.58"/>
      <polygon class="cls-3" points="41.27 33.99 40.63 33.99 40.63 36.58 45.31 36.58 45.31 33.99 45.29 33.99 44.67 33.99 41.27 33.99"/>
      <rect class="cls-4" x="41.27" y="17.69" width="3.4" height="16.29"/>
      <polygon class="cls-3" points="40.59 13.45 40.59 17.15 41.27 17.7 44.67 17.7 45.35 17.15 45.35 13.45 40.59 13.45"/>
      <polygon class="cls-3" points="40.85 11.79 40.12 12.64 40.59 13.45 45.36 13.45 45.83 12.64 45.09 11.79 40.85 11.79"/>
      <polygon class="cls-3" points="40.48 10.69 40.85 11.17 40.85 11.79 45.09 11.79 45.09 11.17 45.45 10.69 40.48 10.69"/>
      <polygon class="cls-3" points="40.17 8.72 40.17 9.84 40.43 10.69 45.52 10.69 45.77 9.84 45.77 8.72 40.17 8.72"/>
      <polygon class="cls-3" points="40.17 5.96 39.6 6.69 40.17 8.72 45.77 8.72 46.34 6.69 45.76 5.96 40.17 5.96"/>
      <path class="cls-3" d="M42.32,2.85c-.63.43-1.08,1-1.37,1.71-.09.46-.13.93-.14,1.39h4.32c0-.47-.05-.93-.14-1.39-.28-.71-.74-1.28-1.37-1.71h-1.32Z"/>
      <polygon class="cls-3" points="42.97 .35 41.72 .35 42.37 2.01 42.37 2.85 43.56 2.85 43.56 2.01 44.22 .35 42.97 .35"/>
      <path class="cls-1" d="M40.2,52.78v.78h5.53v-.79l-.1-.48h-5.33l-.11.49ZM39.55,53.24v-.56l.16-.77c.03-.18.13-.27.32-.27h5.81l.32.25.15.77v1.23c0,.22-.11.33-.33.33h-6.18c-.22,0-.33-.11-.33-.33l.07-.65Z"/>
      <path class="cls-1" d="M41.55,48.99l-.67,2.68h4.13l-.67-2.68h-2.79ZM40.17,51.89l.83-3.31.32-.26h3.29l.32.25.82,3.3v.1c0,.22-.11.33-.33.33h-5.05c-.21-.06-.29-.19-.24-.4"/>
      <path class="cls-1" d="M41.51,46.12l-.09.17v1.94h3.1v-1.94l-.09-.17h-2.93ZM40.8,46.12l.21-.43.29-.17h3.32l.3.17.19.41.05.16v2.36c0,.21-.11.32-.32.33h-3.76c-.21,0-.32-.12-.32-.33v-2.37l.03-.14Z"/>
      <path class="cls-1" d="M41.68,45.48h2.68v-7.42h-2.68v7.42ZM40.98,45.81v-8.16c0-.21.12-.32.33-.32h3.33c.21,0,.32.11.33.32v8.16c0,.09-.03.17-.1.23s-.14.09-.23.09h-3.28c-.22,0-.33-.11-.33-.33"/>
      <path class="cls-1" d="M41.21,36.89l.28.46h2.96l.28-.46h-3.53ZM41.03,37.86l-.66-1.08-.06-.19c0-.21.12-.32.33-.32h4.67l.17.05.11.45-.66,1.09-.29.17h-3.28l-.33-.15Z"/>
      <path class="cls-1" d="M41.28,34.31h-.32v1.94h4.03v-1.94h-3.71ZM40.64,33.66h4.67c.22,0,.33.11.33.33v2.59c0,.22-.11.33-.33.33h-4.67c-.22,0-.33-.11-.33-.33v-2.59c0-.22.11-.33.33-.33"/>
      <path class="cls-1" d="M41.6,33.66h2.75v-15.65h-2.75v15.65ZM40.95,33.99v-16.27c0-.21.12-.32.33-.32h3.39c.21,0,.32.11.33.32v16.27c0,.21-.12.32-.33.32h-3.39c-.21,0-.32-.11-.33-.32"/>
      <path class="cls-1" d="M40.92,13.78v3.22l.47.38h3.17l.47-.38v-3.22h-4.11ZM40.26,17.15v-3.7c0-.22.11-.33.33-.33h4.77c.21,0,.32.12.32.33v3.7l-.12.25-.67.53-.22.09h-3.39l-.2-.07-.67-.54-.15-.26Z"/>
      <path class="cls-1" d="M41.01,12.12l-.49.56.26.44h4.4l.26-.44-.49-.56h-3.93ZM39.87,12.43l.74-.84.24-.12h4.23l.24.12.74.83.05.39-.46.78-.29.17h-4.77l-.28-.16-.47-.8.04-.38Z"/>
      <path class="cls-1" d="M40.53,11.28l-.29-.37-.08-.21c0-.21.11-.32.32-.33h4.98l.19.07.06.46-.3.39v.52c0,.21-.12.32-.33.32h-4.22c-.21,0-.32-.11-.33-.32v-.52ZM41.15,11.01v.46h3.58v-.46h-3.58Z"/>
      <path class="cls-1" d="M40.5,9.04v.77l.16.56h4.61l.16-.56v-.8l-4.94.04ZM39.84,9.84v-1.12c0-.22.11-.33.33-.33h5.6c.22,0,.33.11.33.33v1.22l-.24.82-.32.25h-5.15l-.31-.23-.25-.82.02-.12Z"/>
      <path class="cls-1" d="M40.32,6.29l-.38.47.46,1.63h5.12l.45-1.63-.37-.47h-5.27ZM39.35,6.5l.55-.73.27-.15h5.6l.25.13.56.74.07.29-.56,2-.32.26h-5.6l-.32-.23-.56-2.02.06-.28Z"/>
      <path class="cls-1" d="M42.12,2.59l.19-.07h1.32l.2.07c.44.33.83.73,1.15,1.17l.2.35.13.39c.06.3.1.6.12.91v.54c0,.22-.11.33-.33.33h-4.32c-.21,0-.32-.11-.33-.32v-.6c.02-.29.06-.57.12-.85.2-.65.58-1.19,1.11-1.61l.21-.18.15-.12h.08ZM42.42,3.18h-.06l-.19.16c-.42.33-.72.74-.9,1.24-.05.26-.09.53-.11.79v.21h3.65v-.16c-.02-.28-.06-.56-.11-.84l-.08-.24-.16-.26c-.26-.37-.56-.69-.92-.97l-1.13.07Z"/>
      <path class="cls-1" d="M43.04.65h-.77l.48,1.23v.62h.54v-.62l.48-1.23h-.74ZM41.72.02h2.65c.2.08.26.22.18.43l-.63,1.61v.78c0,.22-.11.33-.33.33h-1.19c-.21,0-.32-.12-.32-.33v-.78l-.63-1.59v-.14c0-.22.11-.33.33-.33"/>
      <polygon class="cls-3" points=".69 52.76 .69 53.24 .69 53.9 6.88 53.9 6.88 53.24 6.88 52.76 6.7 51.97 .85 51.97 .69 52.76"/>
      <polygon class="cls-3" points="2.13 48.64 1.3 51.96 6.27 51.96 5.43 48.64 2.13 48.64"/>
      <polygon class="cls-3" points="2.11 45.84 1.91 46.27 1.91 48.64 2.21 48.64 5.36 48.64 5.66 48.64 5.66 46.27 5.45 45.84 2.11 45.84"/>
      <rect class="cls-4" x="2.11" y="37.68" width="3.33" height="8.16"/>
      <polygon class="cls-3" points="1.44 36.58 2.11 37.68 5.45 37.68 6.12 36.58 1.44 36.58"/>
      <polygon class="cls-3" points="2.08 33.99 1.44 33.99 1.44 36.58 6.12 36.58 6.12 33.99 6.09 33.99 5.48 33.99 2.08 33.99"/>
      <rect class="cls-4" x="2.08" y="17.69" width="3.4" height="16.29"/>
      <polygon class="cls-3" points="1.4 13.45 1.4 17.15 2.08 17.7 5.48 17.7 6.16 17.15 6.16 13.45 1.4 13.45"/>
      <polygon class="cls-3" points="1.67 11.79 .93 12.64 1.39 13.45 6.16 13.45 6.65 12.64 5.9 11.79 1.67 11.79"/>
      <polygon class="cls-3" points="1.3 10.69 1.67 11.17 1.67 11.79 5.9 11.79 5.9 11.17 6.27 10.69 1.3 10.69"/>
      <polygon class="cls-3" points=".99 8.72 .99 9.84 1.23 10.69 6.34 10.69 6.58 9.84 6.58 8.72 .99 8.72"/>
      <polygon class="cls-3" points=".99 5.96 .42 6.69 .99 8.72 6.58 8.72 7.15 6.69 6.58 5.96 .99 5.96"/>
      <path class="cls-3" d="M3.12,7.92c-.63.43-1.08,1-1.36,1.71-.09.46-.13.93-.14,1.39h4.32c0-.47-.05-.93-.14-1.39-.28-.71-.74-1.28-1.37-1.71h-1.33Z"/>
      <polygon class="cls-3" points="3.78 5.42 2.53 5.42 3.19 7.09 3.19 7.92 4.38 7.92 4.38 7.09 5.03 5.42 3.78 5.42"/>
      <path class="cls-1" d="M1.02,52.78v.78h5.53v-.79l-.1-.48H1.12l-.11.49ZM.37,53.24v-.56l.16-.77c.03-.18.13-.27.32-.27h5.81l.32.25.15.77v1.23c0,.22-.11.33-.33.33H.67c-.21,0-.32-.12-.32-.33l.02-.65Z"/>
      <path class="cls-1" d="M2.37,48.99l-.67,2.68h4.14l-.67-2.68h-2.8ZM.99,51.89l.82-3.31.33-.26h3.29l.32.25.82,3.3v.1c0,.21-.11.32-.32.33H1.22c-.21-.06-.29-.19-.24-.4"/>
      <path class="cls-1" d="M2.33,46.12l-.08.17v1.94h3.1v-1.94l-.09-.17h-2.94ZM1.64,46.12l.2-.43.29-.17h3.33l.3.17.19.41.05.16v2.36c0,.22-.11.33-.33.33H1.93c-.22,0-.33-.11-.33-.33v-2.37l.04-.14Z"/>
      <path class="cls-1" d="M2.44,45.48h2.68v-7.42h-2.68v7.42ZM1.79,45.81v-8.16c0-.21.12-.32.33-.32h3.33c.21,0,.32.11.32.32v8.16c0,.21-.11.32-.32.32h-3.33c-.22,0-.33-.11-.33-.33"/>
      <path class="cls-1" d="M2.02,36.89l.27.46h2.97l.28-.46h-3.53ZM1.84,37.86l-.66-1.08-.06-.19c0-.21.11-.32.32-.32h4.68l.16.05.12.45-.66,1.09-.29.17h-3.32l-.29-.15Z"/>
      <path class="cls-1" d="M2.09,34.31h-.32v1.94h4.03v-1.94h-3.71ZM1.45,33.66h4.67c.22,0,.33.11.33.33v2.59c0,.22-.11.33-.33.33H1.45c-.22,0-.33-.11-.33-.33v-2.59c0-.22.11-.33.33-.33"/>
      <path class="cls-1" d="M2.44,33.66h2.75v-15.65h-2.78l.03,15.65ZM1.76,33.99v-16.27c0-.21.11-.32.32-.32h3.43c.21,0,.32.11.33.32v16.27c0,.21-.12.32-.33.32h-3.4c-.21,0-.32-.11-.32-.32"/>
      <path class="cls-1" d="M1.72,13.78v3.22l.47.38h3.17l.47-.38v-3.22H1.72ZM1.08,17.15v-3.7c0-.22.11-.33.33-.33h4.77c.21,0,.32.12.32.33v3.7l-.12.25-.67.53-.22.09h-3.4l-.19-.07-.67-.54-.15-.26Z"/>
      <path class="cls-1" d="M1.81,12.12l-.49.56.26.44h4.4l.26-.44-.49-.56H1.81ZM.67,12.43l.75-.84.24-.12h4.23l.24.12.74.83v.39l-.47.78-.29.17H1.35l-.28-.16-.47-.8.08-.38Z"/>
      <path class="cls-1" d="M1.35,11.28l-.29-.37-.08-.21c0-.09.03-.17.09-.23.06-.06.14-.1.23-.1h4.97l.2.07.06.46-.3.39v.52c0,.21-.11.32-.32.32H1.64c-.21,0-.32-.11-.32-.32l.03-.52ZM1.97,11.01v.46h3.58v-.46H1.97Z"/>
      <path class="cls-1" d="M1.32,9.04v.77l.17.56h4.61l.16-.56v-.8l-4.95.04ZM.67,9.84v-1.12c0-.22.11-.33.33-.33h5.6c.21,0,.32.12.32.33v1.25l-.24.82-.32.25H1.26l-.31-.23-.28-.84v-.13Z"/>
      <path class="cls-1" d="M1.13,6.29l-.37.47.46,1.63h5.11l.46-1.63-.37-.47H1.13ZM.16,6.5l.55-.73.27-.15h5.59l.26.13.56.74.06.29-.55,2-.32.26H.99l-.31-.23L.11,6.78l.06-.28Z"/>
      <path class="cls-1" d="M2.94,2.59l.18-.07h1.33l.19.07c.45.33.83.72,1.15,1.17l.2.35.14.39c.06.34.1.65.12.91v.54c0,.21-.11.32-.32.33H1.64c-.21,0-.32-.11-.32-.32v-.6c.02-.29.06-.57.12-.85.22-.66.61-1.2,1.17-1.61l.21-.18.15-.12h-.03ZM3.24,3.18h-.06l-.19.16c-.42.32-.72.74-.9,1.24-.05.26-.09.53-.11.79v.21h3.65v-.16c-.02-.28-.06-.56-.11-.84l-.09-.24-.15-.26c-.26-.37-.56-.69-.92-.97l-1.13.07Z"/>
      <path class="cls-1" d="M3.82.65h-.77l.48,1.23v.62h.54v-.62l.48-1.23h-.74ZM2.54.02h2.62c.2.08.26.22.18.43l-.63,1.61v.78c0,.22-.11.33-.33.33h-1.19c-.21,0-.32-.12-.32-.33v-.78l-.63-1.59v-.14c0-.22.11-.33.33-.33"/>
      <polygon class="cls-3" points="8.15 52.76 8.15 53.24 8.15 53.9 14.33 53.9 14.33 53.24 14.33 52.76 14.16 51.97 8.31 51.97 8.15 52.76"/>
      <polygon class="cls-3" points="9.59 45.55 8.76 48.88 13.72 48.88 12.89 45.55 9.59 45.55"/>
      <polygon class="cls-3" points="9.57 45.84 9.37 46.27 9.37 48.64 9.66 48.64 12.82 48.64 13.12 48.64 13.12 46.27 12.9 45.84 9.57 45.84"/>
      <rect class="cls-4" x="9.57" y="37.68" width="3.33" height="8.16"/>
      <polygon class="cls-3" points="8.9 36.58 9.57 37.68 12.9 37.68 13.57 36.58 8.9 36.58"/>
      <polygon class="cls-3" points="9.54 33.99 8.9 33.99 8.9 36.58 13.57 36.58 13.57 33.99 13.55 33.99 12.93 33.99 9.54 33.99"/>
      <rect class="cls-4" x="9.54" y="17.69" width="3.4" height="16.29"/>
      <polygon class="cls-3" points="8.85 13.45 8.85 17.15 9.54 17.7 12.93 17.7 13.62 17.15 13.62 13.45 8.85 13.45"/>
      <polygon class="cls-3" points="9.13 11.79 8.38 12.64 8.85 13.45 13.62 13.45 14.1 12.64 13.36 11.79 9.13 11.79"/>
      <polygon class="cls-3" points="8.76 10.69 9.13 11.17 9.13 11.79 13.36 11.79 13.36 11.17 13.73 10.69 8.76 10.69"/>
      <polygon class="cls-3" points="8.44 8.72 8.44 9.84 8.69 10.69 13.79 10.69 14.04 9.84 14.04 8.72 8.44 8.72"/>
      <polygon class="cls-3" points="8.44 5.96 7.88 6.69 8.44 8.72 14.04 8.72 14.6 6.69 14.04 5.96 8.44 5.96"/>
      <path class="cls-3" d="M10.58,2.85c-.63.43-1.08,1-1.37,1.71-.09.46-.13.93-.14,1.39h4.32c0-.47-.05-.93-.14-1.39-.27-.71-.73-1.28-1.36-1.71h-1.33Z"/>
      <polygon class="cls-3" points="11.24 .35 9.99 .35 10.65 2.01 10.65 2.85 11.84 2.85 11.84 2.01 12.49 .35 11.24 .35"/>
      <path class="cls-1" d="M8.48,52.78v.78h5.53v-.79l-.11-.48h-5.32l-.11.49ZM7.83,53.24v-.56l.16-.77c.03-.18.14-.27.32-.27h5.86l.31.25.16.77v1.23c0,.22-.11.33-.33.33h-6.18c-.21,0-.32-.12-.32-.33l.02-.65Z"/>
      <path class="cls-1" d="M9.79,48.99l-.67,2.68h4.14l-.67-2.68h-2.8ZM8.42,51.89l.82-3.31.32-.26h3.3l.31.25.82,3.3v.1c0,.21-.11.32-.32.33h-5.05c-.09-.02-.15-.07-.2-.15-.05-.08-.06-.16-.03-.25"/>
      <path class="cls-1" d="M9.77,46.12l-.09.17v1.94h3.1v-1.94l-.08-.17h-2.94ZM9.08,46.12l.2-.43.29-.17h3.33l.3.17.19.41.05.16v2.36c0,.22-.11.33-.33.33h-3.73c-.22,0-.33-.11-.33-.33v-2.37l.02-.14Z"/>
      <path class="cls-1" d="M9.9,45.48h2.68v-7.42h-2.68v7.42ZM9.25,45.81v-8.16c0-.21.11-.32.32-.32h3.34c.21,0,.32.11.32.32v8.16c0,.21-.11.32-.32.32h-3.34c-.21,0-.32-.12-.32-.33"/>
      <path class="cls-1" d="M9.48,36.89l.27.46h2.97l.27-.46h-3.52ZM9.3,37.86l-.66-1.08-.06-.19c0-.21.11-.32.32-.32h4.68l.16.05.11.45-.66,1.09-.28.17h-3.33l-.28-.15Z"/>
      <path class="cls-1" d="M9.54,34.31h-.31v1.94h4.03v-1.94h-3.72ZM8.9,33.66h4.68c.21,0,.32.12.32.33v2.59c0,.21-.11.32-.32.33h-4.68c-.21,0-.32-.12-.32-.33v-2.59c0-.21.11-.32.32-.33"/>
      <path class="cls-1" d="M9.87,33.66h2.74v-15.65h-2.74v15.65ZM9.22,33.99v-16.27c0-.21.11-.32.32-.32h3.4c.21,0,.32.11.32.32v16.27c0,.21-.11.32-.32.32h-3.4c-.21,0-.32-.11-.32-.32"/>
      <path class="cls-1" d="M9.18,13.78v3.22l.47.38h3.17l.47-.38v-3.22h-4.12ZM8.53,17.15v-3.7c0-.22.11-.33.33-.33h4.76c.22,0,.33.11.33.33v3.7l-.13.25-.66.53-.22.09h-3.4l-.2-.07-.67-.54-.14-.26Z"/>
      <path class="cls-1" d="M9.27,12.12l-.48.56.26.44h4.39l.27-.44-.49-.56h-3.94ZM8.14,12.43l.75-.84.24-.12h4.23l.24.12.73.83v.39l-.46.78-.3.17h-4.76l-.28-.16-.48-.8.09-.38Z"/>
      <path class="cls-1" d="M8.78,11.28l-.3-.37-.08-.21c0-.22.11-.33.33-.33h4.97l.2.07.06.46-.31.39v.52c0,.21-.11.32-.32.32h-4.23c-.21,0-.32-.11-.32-.32v-.52ZM9.39,11.01v.46h3.57v-.46h-3.57Z"/>
      <path class="cls-1" d="M8.77,9.04v.77l.16.56h4.61l.17-.56v-.8l-4.95.04ZM8.12,9.84v-1.12c0-.21.11-.32.32-.33h5.61c.21,0,.32.12.32.33v1.25l-.25.82-.32.25h-5.1l-.31-.23-.24-.82-.03-.15Z"/>
      <path class="cls-1" d="M8.58,6.29l-.37.47.46,1.63h5.11l.46-1.63-.37-.47h-5.28ZM7.61,6.5l.56-.73.27-.15h5.59l.26.13.55.74.07.29-.56,2-.32.26h-5.62l-.32-.23-.56-2.02.08-.28Z"/>
      <path class="cls-1" d="M10.36,2.59l.19-.07h1.33l.19.07c.44.33.83.73,1.15,1.17l.2.35.13.39c.06.3.1.6.13.91v.54c0,.22-.11.33-.33.33h-4.32c-.21,0-.32-.11-.32-.32v-.6c.01-.29.05-.57.12-.85.2-.65.57-1.19,1.1-1.61l.22-.18.15-.12h.06ZM10.67,3.18h-.06l-.19.16c-.42.32-.72.74-.9,1.24-.05.26-.09.53-.12.79v.21h3.65v-.16c-.02-.28-.06-.56-.11-.84l-.08-.24-.15-.26c-.26-.37-.57-.69-.92-.97l-1.13.07Z"/>
      <path class="cls-1" d="M11.27.65h-.77l.47,1.23v.62h.53v-.62l.47-1.23h-.72ZM9.99.02h2.63c.2.08.26.22.18.43l-.64,1.61v.78c0,.21-.12.32-.33.33h-1.18c-.21,0-.32-.12-.33-.33v-.78l-.62-1.59v-.14c0-.21.11-.32.32-.33"/>
      <rect class="cls-2" x="0" y=".02" width="54.21" height="54.21"/>
    </g>
  </g>
</svg>