<?xml version="1.0" encoding="UTF-8"?>
<svg id="Capa_2" data-name="Capa 2" xmlns="http://www.w3.org/2000/svg" viewBox="0 0 50.2 90.35">
  <defs>
    <style>
      .cls-1 {
        fill: #00352b;
      }

      .cls-1, .cls-2, .cls-3, .cls-4, .cls-5, .cls-6 {
        stroke-width: 0px;
      }

      .cls-1, .cls-3 {
        fill-rule: evenodd;
      }

      .cls-2 {
        fill: none;
      }

      .cls-3, .cls-5 {
        fill: #cad9d7;
      }

      .cls-4 {
        fill: #1e1e1c;
      }

      .cls-6 {
        fill: #fff;
      }
    </style>
  </defs>
  <g id="text_i_icones" data-name="text i icones">
    <g>
      <rect class="cls-6" x="28.17" y="3.34" width="21.23" height="84.76"/>
      <polygon class="cls-4" points="28.17 88.1 28.17 88.16 49.45 88.16 49.45 3.29 28.12 3.29 28.12 88.16 28.17 88.16 28.17 88.1 28.22 88.1 28.22 3.4 49.34 3.4 49.34 88.05 28.17 88.05 28.17 88.1 28.22 88.1 28.17 88.1"/>
      <path class="cls-3" d="M27.43.61h22.54v89.13h-22.54V.61ZM28.4,6.74h20.62v-1.62h-20.62v1.62ZM28.4,10.24h20.62v-1.62h-20.62v1.62ZM28.4,13.75h20.62v-1.62h-20.62v1.62ZM28.4,17.24h20.62v-1.61h-20.62v1.61ZM28.4,20.75h20.62v-1.62h-20.62v1.62ZM28.4,24.25h20.62v-1.62h-20.62v1.62ZM28.4,27.76h20.62v-1.62h-20.62v1.62ZM28.4,31.26h20.62v-1.62h-20.62v1.62ZM28.4,34.76h20.62v-1.62h-20.62v1.62ZM28.4,38.26h20.62v-1.62h-20.62v1.62ZM28.4,41.76h20.62v-1.62h-20.62v1.62ZM28.4,45.26h20.62v-1.62h-20.62v1.62ZM28.4,48.76h20.62v-1.61h-20.62v1.61ZM28.4,52.26h20.62v-1.62h-20.62v1.62ZM28.4,55.77h20.62v-1.61h-20.62v1.61ZM28.4,59.27h20.62v-1.61h-20.62v1.61ZM28.4,62.78h20.62v-1.62h-20.62v1.62ZM28.4,66.28h20.62v-1.62h-20.62v1.62ZM28.4,69.78h20.62v-1.62h-20.62v1.62ZM28.4,73.28h20.62v-1.62h-20.62v1.62ZM28.4,76.78h20.62v-1.62h-20.62v1.62ZM28.4,80.28h20.62v-1.62h-20.62v1.62ZM28.4,83.78h20.62v-1.62h-20.62v1.62ZM28.4,87.29h20.62v-1.66h-20.62v1.66Z"/>
      <path class="cls-1" d="M27.43.36h22.54l.22.22v89.13l-.22.23h-22.54l-.22-.23V.61l.22-.25ZM49.74.81h-22.04v88.68h22.12l-.08-88.68ZM28.4,4.87l-.23.22v1.62l.23.23h20.62l.22-.23v-1.62l-.22-.22h-20.62ZM48.79,5.32h-20.13v1.17h20.19l-.07-1.17ZM28.4,8.37l-.23.23v1.61l.23.23h20.62l.22-.23v-1.61l-.22-.23h-20.62ZM48.79,8.82h-20.13v1.23h20.19l-.07-1.23ZM28.4,11.88l-.23.23v1.62l.23.22h20.62l.22-.22v-1.62l-.22-.23h-20.62ZM48.79,12.33h-20.13v1.17h20.19l-.07-1.17ZM28.4,15.38l-.23.23v1.61l.23.23h20.62l.22-.23v-1.61l-.22-.23h-20.62ZM48.79,15.83h-20.13v1.17h20.19l-.07-1.17ZM28.4,18.88l-.23.23v1.62l.23.22h20.62l.22-.22v-1.62l-.22-.23h-20.62ZM48.79,19.33h-20.13v1.17h20.19l-.07-1.17ZM28.4,22.38l-.23.23v1.62l.23.22h20.62l.22-.22v-1.62l-.22-.23h-20.62ZM48.79,22.83h-20.13v1.17h20.19l-.07-1.17ZM28.4,25.88l-.23.23v1.62l.23.22h20.62l.22-.22v-1.62l-.22-.23h-20.62ZM48.79,26.33h-20.13v1.17h20.19l-.07-1.17ZM28.4,29.39l-.23.22v1.62l.23.22h20.62l.22-.22v-1.62l-.22-.22h-20.62ZM48.79,29.83h-20.13v1.17h20.19l-.07-1.17ZM28.4,32.88l-.23.23v1.62l.23.22h20.62l.22-.22v-1.62l-.22-.23h-20.62ZM48.79,33.33h-20.13v1.18h20.19l-.07-1.18ZM28.4,36.39l-.23.22v1.62l.23.22h20.62l.22-.22v-1.62l-.22-.22h-20.62ZM48.79,36.84h-20.13v1.16h20.19l-.07-1.16ZM28.4,39.91l-.23.22v1.62l.23.23h20.62l.22-.23v-1.62l-.22-.22h-20.62ZM48.79,40.36h-20.13v1.17h20.19l-.07-1.17ZM28.4,43.42l-.23.22v1.62l.23.22h20.62l.22-.22v-1.62l-.22-.22h-20.62ZM48.79,43.87h-20.13v1.17h20.19l-.07-1.17ZM28.4,46.92l-.23.22v1.62l.23.23h20.62l.22-.23v-1.62l-.22-.22h-20.62ZM48.79,47.37h-20.13v1.17h20.19l-.07-1.17ZM28.4,50.44l-.23.22v1.62l.23.23h20.62l.22-.23v-1.62l-.22-.22h-20.62ZM48.79,50.89h-20.13v1.17h20.19l-.07-1.17ZM28.4,53.94l-.23.22v1.62l.23.23h20.62l.22-.23v-1.62l-.22-.22h-20.62ZM48.79,54.39h-20.13v1.17h20.19l-.07-1.17ZM28.4,57.44l-.23.23v1.61l.23.23h20.62l.22-.23v-1.61l-.22-.23h-20.62ZM48.79,57.89h-20.13v1.17h20.19l-.07-1.17ZM28.4,60.93l-.23.23v1.62l.23.22h20.62l.22-.22v-1.62l-.22-.23h-20.62ZM48.79,61.38h-20.13v1.17h20.19l-.07-1.17ZM28.4,64.43l-.23.23v1.62l.23.22h20.62l.22-.22v-1.62l-.22-.23h-20.62ZM48.79,64.88h-20.13v1.17h20.19l-.07-1.17ZM28.4,67.93l-.23.23v1.62l.23.22h20.62l.22-.22v-1.62l-.22-.23h-20.62ZM48.79,68.38h-20.13v1.17h20.19l-.07-1.17ZM28.4,71.44l-.23.22v1.62l.23.22h20.62l.22-.22v-1.62l-.22-.22h-20.62ZM48.79,71.88h-20.13v1.17h20.19l-.07-1.17ZM28.4,74.94l-.23.23v1.62l.23.22h20.62l.22-.22v-1.62l-.22-.23h-20.62ZM48.79,75.39h-20.13v1.18h20.19l-.07-1.18ZM28.4,78.45l-.23.22v1.62l.23.22h20.62l.22-.22v-1.62l-.22-.22h-20.62ZM48.79,78.89h-20.13v1.17h20.19l-.07-1.17ZM28.4,81.95l-.23.22v1.62l.23.23h20.62l.22-.23v-1.62l-.22-.22h-20.62ZM48.79,82.39h-20.13v1.17h20.19l-.07-1.17ZM28.4,85.45l-.23.22v1.62l.23.22h20.62l.22-.22v-1.66l-.22-.22-20.62.04ZM48.79,85.9h-20.13v1.17h20.19l-.07-1.17Z"/>
      <path class="cls-3" d="M.23,1.37h22.35v88.35H.23V1.37ZM20.17,4.65h1.28v-1.37h-1.28v1.37ZM21.45,5.28h-1.28v2.08h1.28v-2.08ZM21.45,7.98h-1.28v1.37h1.28v-1.37ZM2.63,3.29h-1.28v1.37h1.28v-1.37ZM1.35,7.36h1.28v-2.09h-1.28v2.09ZM1.35,9.35h1.28v-1.37h-1.28v1.37ZM20.17,11.78h1.28v-1.36h-1.28v1.36ZM21.45,12.41h-1.28v2.08h1.28v-2.08ZM21.45,15.12h-1.28v1.36h1.28v-1.36ZM2.63,10.42h-1.28v1.36h1.28v-1.36ZM1.35,14.49h1.28v-2.08h-1.28v2.08ZM1.35,16.48h1.28v-1.35h-1.28v1.35ZM20.17,18.92h1.28v-1.36h-1.28v1.36ZM21.45,19.55h-1.28v2.08h1.28v-2.08ZM21.45,22.25h-1.28v1.37h1.28v-1.37ZM2.63,17.55h-1.28v1.37h1.28v-1.37ZM1.35,21.62h1.28v-2.08h-1.28v2.08ZM1.35,23.61h1.28v-1.37h-1.28v1.37ZM20.17,26.05h1.28v-1.36h-1.28v1.36ZM21.45,26.67h-1.28v2.09h1.28v-2.09ZM21.45,29.38h-1.28v1.37h1.28v-1.37ZM2.63,24.68h-1.28v1.37h1.28v-1.37ZM1.35,28.76h1.28v-2.09h-1.28v2.09ZM1.35,30.75h1.28v-1.37h-1.28v1.37ZM20.17,33.19h1.28v-1.37h-1.28v1.37ZM21.45,33.81h-1.28v2.08h1.28v-2.08ZM21.45,36.52h-1.28v1.36h1.28v-1.36ZM2.63,31.82h-1.28v1.37h1.28v-1.37ZM1.35,35.89h1.28v-2.08h-1.28v2.08ZM1.35,37.88h1.28v-1.36h-1.28v1.36ZM20.17,40.32h1.28v-1.36h-1.28v1.36ZM21.45,40.95h-1.28v2.08h1.28v-2.08ZM21.45,43.65h-1.28v1.37h1.28v-1.37ZM2.63,38.96h-1.28v1.36h1.28v-1.36ZM1.35,43.02h1.28v-2.07h-1.28v2.07ZM1.35,45.01h1.28v-1.37h-1.28v1.37ZM20.17,47.45h1.28v-1.37h-1.28v1.37ZM21.45,48.07h-1.28v2.09h1.28v-2.09ZM21.45,50.78h-1.28v1.37h1.28v-1.37ZM2.63,46.08h-1.28v1.37h1.28v-1.37ZM1.35,50.16h1.28v-2.09h-1.28v2.09ZM1.35,52.15h1.28v-1.37h-1.28v1.37ZM20.17,54.56h1.28v-1.37h-1.28v1.37ZM21.45,55.18h-1.28v2.08h1.28v-2.08ZM21.45,57.89h-1.28v1.36h1.28v-1.36ZM2.63,53.28h-1.28v1.37h1.28v-1.37ZM1.35,57.34h1.28v-2.08h-1.28v2.08ZM1.35,59.33h1.28v-1.44h-1.28v1.44ZM20.17,61.77h1.28v-1.36h-1.28v1.36ZM21.45,62.4h-1.28v2.08h1.28v-2.08ZM21.45,65.1h-1.28v1.37h1.28v-1.37ZM2.63,60.41h-1.28v1.3h1.28v-1.3ZM1.35,64.48h1.28v-2.08h-1.28v2.08ZM1.35,66.47h1.28v-1.41h-1.28v1.41ZM20.17,68.91h1.28v-1.36h-1.28v1.36ZM21.45,69.53h-1.28v2.09h1.28v-2.09ZM21.45,72.24h-1.28v1.37h1.28v-1.37ZM2.63,67.49h-1.28v1.37h1.28v-1.37ZM1.35,71.57h1.28v-2.08h-1.28v2.08ZM1.35,73.56h1.28v-1.32h-1.28v1.32ZM20.17,76h1.28v-1.37h-1.28v1.37ZM21.45,76.62h-1.28v2.08h1.28v-2.08ZM21.45,79.33h-1.28v1.36h1.28v-1.36ZM2.63,74.63h-1.28v1.37h1.28v-1.37ZM1.35,78.7h1.28v-2.08h-1.28v2.08ZM1.35,80.69h1.28v-1.36h-1.28v1.36ZM20.17,83.13h1.28v-1.33h-1.28v1.33ZM21.45,83.76h-1.28v2.08h1.28v-2.08ZM21.45,86.46h-1.28v1.36h1.28v-1.36ZM2.63,81.77h-1.28v1.36h1.28v-1.36ZM1.35,85.83h1.28v-2.11h-1.28v2.11ZM1.35,87.82h1.28v-1.36h-1.28v1.36Z"/>
      <path class="cls-1" d="M.23,1.17h22.34l.23.22v88.35l-.23.23H.23l-.23-.23V1.38l.23-.21ZM22.35,1.62H.45v87.9h21.9V1.62ZM20.17,3.08l-.22.22v1.37l.22.22h1.28l.22-.22v-1.37l-.22-.22h-1.28ZM21.22,3.53h-.83v.91h.83v-.91ZM21.67,5.29l-.22-.22h-1.28l-.22.22v2.08l.22.23h1.28l.22-.23v-2.08ZM21.22,5.52h-.83v1.66h.83v-1.66ZM21.67,8l-.22-.22h-1.28l-.22.22v1.36l.22.23h1.28l.22-.23v-1.36ZM21.22,8.22h-.83v.96h.83v-.96ZM2.4,3.53h-.83v.91h.83v-.91ZM1.35,3.08l-.22.22v1.37l.22.22h1.28l.23-.22v-1.37l-.23-.22h-1.28ZM1.58,7.15h.83v-1.63h-.83v1.63ZM1.13,7.37l.22.23h1.28l.23-.23v-2.09l-.23-.22h-1.28l-.22.22v2.09ZM1.58,9.14h.83v-.96h-.83v.96ZM1.13,9.36l.22.23h1.28l.23-.23v-1.36l-.23-.22h-1.28l-.22.22v1.36ZM20.17,10.21l-.22.23v1.37l.22.22h1.28l.22-.22v-1.37l-.22-.23h-1.28ZM21.22,10.66h-.83v.96h.83v-.96ZM21.67,12.43l-.22-.23h-1.28l-.22.23v2.08l.22.22h1.28l.22-.22v-2.08ZM21.22,12.65h-.83v1.63h.83v-1.63ZM21.67,15.13l-.22-.22h-1.28l-.22.22v1.37l.22.23h1.28l.22-.23v-1.37ZM21.22,15.36h-.83v.96h.83v-.96ZM2.4,10.66h-.83v.96h.83v-.96ZM1.35,10.21l-.22.23v1.37l.22.22h1.28l.23-.22v-1.37l-.23-.23h-1.28ZM1.58,14.29h.83v-1.63h-.83v1.63ZM1.13,14.51l.22.22h1.28l.23-.22v-2.08l-.23-.23h-1.28l-.22.23v2.08ZM1.58,16.28h.83v-.96h-.83v.96ZM1.13,16.5l.22.23h1.28l.23-.23v-1.37l-.23-.22h-1.28l-.22.22v1.37ZM20.17,17.35l-.22.23v1.36l.22.22h1.28l.22-.22v-1.36l-.22-.23h-1.28ZM21.22,17.8h-.83v.96h.83v-.96ZM21.67,19.57l-.22-.23h-1.28l-.22.23v2.08l.22.22h1.28l.22-.22v-2.08ZM21.22,19.79h-.83v1.63h.83v-1.63ZM21.67,22.26l-.22-.22h-1.28l-.22.22v1.37l.22.22h1.28l.22-.22v-1.37ZM21.22,22.49h-.83v.91h.83v-.91ZM2.4,17.78h-.83v.96h.83v-.96ZM1.35,17.33l-.22.23v1.36l.22.22h1.28l.23-.22v-1.36l-.23-.23h-1.28ZM1.58,21.39h.83v-1.63h-.83v1.63ZM1.13,21.62l.22.22h1.28l.23-.22v-2.08l-.23-.23h-1.28l-.22.23v2.08ZM1.58,23.38h.83v-.89h-.83v.89ZM1.13,23.61l.22.22h1.28l.23-.22v-1.37l-.23-.22h-1.28l-.22.22v1.37ZM20.17,24.46l-.22.22v1.37l.22.22h1.28l.22-.22v-1.36l-.22-.22h-1.28ZM21.22,24.91h-.83v.96h.83v-.96ZM21.67,26.67l-.22-.22h-1.28l-.22.22v2.08l.22.23h1.28l.22-.23v-2.08ZM21.22,26.9h-.83v1.63h.83v-1.63ZM21.67,29.38l-.22-.22h-1.28l-.22.22v1.36l.22.23h1.28l.22-.23v-1.36ZM21.22,29.6h-.83v.96h.83v-.96ZM2.4,24.91h-.83v.96h.83v-.96ZM1.35,24.46l-.22.22v1.37l.22.22h1.28l.23-.22v-1.36l-.23-.22h-1.28ZM1.58,28.53h.83v-1.63h-.83v1.63ZM1.13,28.75l.22.23h1.28l.23-.23v-2.08l-.23-.22h-1.28l-.22.22v2.08ZM1.58,30.52h.83v-.96h-.83v.96ZM1.13,30.74l.22.23h1.28l.23-.23v-1.36l-.23-.22h-1.28l-.22.22v1.36ZM20.17,31.6l-.22.22v1.37l.22.22h1.28l.22-.22v-1.37l-.22-.22h-1.28ZM21.22,32.05h-.83v.97h.83v-.97ZM21.67,33.81l-.22-.22h-1.28l-.22.22v2.08l.22.23h1.28l.22-.23v-2.08ZM21.22,34.03h-.83v1.64h.83v-1.64ZM21.67,36.52l-.22-.23h-1.28l-.22.23v1.36l.22.23h1.28l.22-.23v-1.36ZM21.22,36.74h-.83v.96h.83v-.96ZM2.4,32.05h-.83v.97h.83v-.97ZM1.35,31.6l-.22.22v1.37l.22.22h1.28l.23-.22v-1.37l-.23-.22h-1.28ZM1.58,35.67h.83v-1.64h-.83v1.64ZM1.13,35.89l.22.23h1.28l.23-.23v-2.08l-.23-.22h-1.28l-.22.22v2.08ZM1.58,37.66h.83v-.96h-.83v.96ZM1.13,37.88l.22.23h1.28l.23-.23v-1.36l-.23-.23h-1.28l-.22.23v1.36ZM20.17,38.73l-.22.23v1.36l.22.23h1.28l.22-.23v-1.36l-.22-.23h-1.28ZM21.22,39.18h-.83v.96h.83v-.96ZM21.67,40.95l-.22-.23h-1.28l-.22.23v2.08l.22.22h1.28l.22-.22v-2.08ZM21.22,41.17h-.83v1.63h.83v-1.63ZM21.67,43.65l-.22-.22h-1.28l-.22.22v1.37l.22.22h1.28l.22-.22v-1.37ZM21.22,43.87h-.83v.91h.83v-.91ZM2.4,39.18h-.83v.96h.83v-.96ZM1.35,38.73l-.22.23v1.36l.22.23h1.28l.23-.23v-1.36l-.23-.23h-1.28ZM1.58,42.79h.83v-1.63h-.83v1.63ZM1.13,43.02l.22.22h1.28l.23-.22v-2.07l-.23-.23h-1.28l-.22.23v2.07ZM1.58,44.78h.83v-.91h-.83v.91ZM1.13,45.01l.22.22h1.28l.23-.22v-1.37l-.23-.22h-1.28l-.22.22v1.37ZM20.17,45.86l-.22.22v1.37l.22.22h1.28l.22-.22v-1.37l-.22-.22h-1.28ZM21.22,46.31h-.83v.96h.83v-.96ZM21.67,48.08l-.22-.23h-1.28l-.22.23v2.08l.22.22h1.28l.22-.22v-2.08ZM21.22,48.3h-.83v1.63h.83v-1.63ZM21.67,50.78l-.22-.22h-1.28l-.22.22v1.37l.22.22h1.28l.22-.22v-1.37ZM21.22,51h-.83v.96h.83v-.96ZM2.4,46.31h-.83v.96h.83v-.96ZM1.35,45.86l-.22.22v1.37l.22.22h1.28l.23-.22v-1.37l-.23-.22h-1.28ZM1.58,49.93h.83v-1.61h-.83v1.61ZM1.13,50.16l.22.22h1.28l.23-.22v-2.08l-.23-.23h-1.28l-.22.23v2.08ZM1.58,51.92h.83v-.96h-.83v.96ZM1.13,52.15l.22.22h1.28l.23-.22v-1.37l-.23-.22h-1.28l-.22.22v1.37ZM20.17,53.01l-.22.22v1.37l.22.22h1.28l.22-.22v-1.37l-.22-.22h-1.28ZM21.22,53.45h-.83v.96h.83v-.96ZM21.67,55.22l-.22-.22h-1.28l-.22.22v2.08l.22.23h1.28l.22-.23v-2.08ZM21.22,55.44h-.83v1.64h.83v-1.64ZM21.67,57.93l-.22-.23h-1.28l-.22.23v1.36l.22.23h1.28l.22-.23v-1.36ZM21.22,58.15h-.83v.96h.83v-.96ZM2.4,53.45h-.83v.96h.83v-.96ZM1.35,53.01l-.22.22v1.37l.22.22h1.28l.23-.22v-1.37l-.23-.22h-1.28ZM1.58,57.08h.83v-1.64h-.83v1.64ZM1.13,57.3l.22.23h1.28l.23-.23v-2.08l-.23-.22h-1.28l-.22.22v2.08ZM1.58,59.07h.83v-.96h-.83v.96ZM1.13,59.29l.22.23h1.28l.23-.23v-1.4l-.23-.23h-1.28l-.22.23v1.4ZM20.17,60.14l-.22.23v1.35l.22.23h1.28l.22-.23v-1.36l-.22-.23h-1.28ZM21.22,60.59h-.83v.96h.83v-.96ZM21.67,62.36l-.22-.23h-1.28l-.22.23v2.08l.22.22h1.28l.22-.22v-2.08ZM21.22,62.58h-.83v1.63h.83v-1.63ZM21.67,65.05l-.22-.22h-1.28l-.22.22v1.37l.22.23h1.28l.22-.23v-1.37ZM21.22,65.28h-.83v.91h.83v-.91ZM2.4,60.59h-.83v.96h.83v-.96ZM1.35,60.14l-.22.23v1.35l.22.23h1.28l.23-.23v-1.36l-.23-.23h-1.28ZM1.58,64.2h.83v-1.63h-.83v1.63ZM1.13,64.43l.22.22h1.28l.23-.22v-2.08l-.23-.23h-1.28l-.22.23v2.08ZM1.58,66.19h.83v-.91h-.83v.91ZM1.13,66.42l.22.23h1.28l.23-.23v-1.37l-.23-.22h-1.28l-.22.22v1.37ZM20.17,67.27l-.22.23v1.36l.22.22h1.28l.22-.22v-1.36l-.22-.23h-1.28ZM21.22,67.72h-.83v.96h.83v-.96ZM21.67,69.49l-.22-.23h-1.28l-.22.23v2.08l.22.22h1.28l.22-.22v-2.08ZM21.22,69.71h-.83v1.63h.83v-1.63ZM21.67,72.19l-.22-.22h-1.28l-.22.22v1.37l.22.22h1.28l.22-.22v-1.37ZM21.22,72.42h-.83v.91h.83v-.91ZM2.4,67.72h-.83v.96h.83v-.96ZM1.35,67.27l-.22.23v1.36l.22.22h1.28l.23-.22v-1.36l-.23-.23h-1.28ZM1.58,71.34h.83v-1.63h-.83v1.63ZM1.13,71.57l.22.22h1.28l.23-.22v-2.08l-.23-.23h-1.28l-.22.23v2.08ZM1.58,73.33h.83v-.91h-.83v.91ZM1.13,73.56l.22.22h1.28l.23-.22v-1.32l-.23-.22h-1.28l-.22.22v1.32ZM20.17,74.41l-.22.22v1.37l.22.22h1.28l.22-.22v-1.37l-.22-.22h-1.28ZM21.22,74.85h-.83v.96h.83v-.96ZM21.67,76.62l-.22-.22h-1.28l-.22.22v2.08l.22.23h1.28l.22-.23v-2.08ZM21.22,76.84h-.83v1.64h.83v-1.64ZM21.67,79.33l-.22-.23h-1.28l-.22.23v1.36l.22.23h1.28l.22-.23v-1.36ZM21.22,79.55h-.83v.96h.83v-.96ZM2.4,74.85h-.83v.96h.83v-.96ZM1.35,74.41l-.22.22v1.37l.22.22h1.28l.23-.22v-1.37l-.23-.22h-1.28ZM1.58,78.48h.83v-1.63h-.83v1.63ZM1.13,78.7l.22.23h1.28l.23-.23v-2.08l-.23-.22h-1.28l-.22.22v2.08ZM1.58,80.47h.83v-.96h-.83v.96ZM1.13,80.69l.22.23h1.28l.23-.23v-1.36l-.23-.23h-1.28l-.22.23v1.36ZM20.17,81.55l-.22.22v1.36l.22.23h1.28l.22-.23v-1.32l-.22-.22-1.28-.04ZM21.22,81.99h-.83v.96h.83v-.96ZM21.67,83.76l-.22-.22h-1.28l-.22.22v2.08l.22.23h1.28l.22-.23v-2.08ZM21.22,83.98h-.83v1.65h.83v-1.65ZM21.67,86.45l-.22-.22h-1.28l-.22.22v1.37l.22.23h1.28l.22-.23v-1.37ZM21.22,86.68h-.83v.96h.83v-.96ZM2.4,81.99h-.83v.96h.83v-.96ZM1.35,81.55l-.22.22v1.36l.22.23h1.28l.23-.23v-1.32l-.23-.22-1.28-.04ZM1.58,85.61h.83v-1.64h-.83v1.64ZM1.13,85.83l.22.23h1.28l.23-.23v-2.11l-.23-.22h-1.28l-.22.22v2.11ZM1.58,87.6h.83v-.96h-.83v.96ZM1.13,87.82l.22.23h1.28l.23-.23v-1.37l-.23-.22h-1.28l-.22.22v1.37Z"/>
      <rect class="cls-6" x="3.66" y="3.29" width="3.38" height="5.74"/>
      <rect class="cls-5" x="8.56" y="3.29" width="5.67" height="5.74"/>
      <rect class="cls-6" x="15.74" y="3.29" width="3.38" height="5.74"/>
      <path class="cls-1" d="M19.13,9.26h-3.38l-.22-.23V3.29l.22-.22h3.38l.23.22v5.74l-.23.23ZM15.97,8.81h2.93V3.52h-2.93v5.29ZM14.23,9.26h-5.66l-.23-.23V3.29l.23-.22h5.67l.23.22v5.74l-.24.23ZM8.79,8.81h5.22V3.52h-5.22v5.29ZM7.06,9.26h-3.39l-.22-.23V3.29l.22-.22h3.39l.22.22v5.74l-.22.23ZM3.89,8.81h2.93V3.52h-2.93v5.29Z"/>
      <polygon class="cls-1" points="3.47 8.93 5.1 6.16 3.47 3.41 3.87 3.19 5.37 5.72 6.86 3.19 7.24 3.41 5.62 6.16 7.24 8.93 6.86 9.15 5.37 6.61 3.87 9.15 3.47 8.93"/>
      <polygon class="cls-1" points="15.55 8.93 17.17 6.16 15.55 3.41 15.93 3.19 17.43 5.72 18.93 3.19 19.32 3.41 17.69 6.16 19.32 8.93 18.93 9.15 17.43 6.61 15.93 9.15 15.55 8.93"/>
      <polygon class="cls-1" points="8.53 8.82 14.08 3.14 14.4 3.46 8.85 9.14 8.53 8.82"/>
      <polygon class="cls-1" points="14.4 8.82 8.86 3.14 8.53 3.46 14.08 9.14 14.4 8.82"/>
      <rect class="cls-6" x="3.66" y="11.19" width="3.38" height="5.74"/>
      <rect class="cls-5" x="8.56" y="11.19" width="5.67" height="5.74"/>
      <rect class="cls-6" x="15.74" y="11.19" width="3.38" height="5.74"/>
      <path class="cls-1" d="M19.13,17.2h-3.38l-.22-.23v-5.74l.22-.22h3.38l.23.22v5.74l-.23.23ZM15.97,16.75h2.93v-5.3h-2.93v5.3ZM14.23,17.2h-5.66l-.23-.23v-5.74l.23-.22h5.67l.23.22v5.74l-.24.23ZM8.79,16.75h5.22v-5.3h-5.22v5.3ZM7.06,17.2h-3.39l-.22-.23v-5.74l.22-.22h3.39l.22.22v5.74l-.22.23ZM3.89,16.75h2.93v-5.3h-2.93v5.3Z"/>
      <path class="cls-1" d="M3.48,16.81c.54-.96,1.08-1.84,1.63-2.76-.55-.96-1.09-1.84-1.63-2.76l.38-.23,1.5,2.54,1.5-2.54.38.23c-.55.96-1.09,1.84-1.63,2.76.54.96,1.08,1.84,1.63,2.76l-.38.23-1.5-2.54-1.5,2.54-.38-.23Z"/>
      <path class="cls-1" d="M15.55,16.81c.55-.96,1.09-1.84,1.63-2.76-.54-.96-1.08-1.84-1.63-2.76l.39-.23,1.5,2.54c.49-.85.96-1.69,1.49-2.54l.39.23c-.55.96-1.09,1.84-1.63,2.76.54.96,1.08,1.84,1.63,2.76l-.39.23c-.49-.85-.96-1.69-1.49-2.54l-1.5,2.54-.39-.23Z"/>
      <polygon class="cls-1" points="8.53 16.75 14.08 11.07 14.4 11.38 8.86 17.06 8.53 16.75"/>
      <polygon class="cls-1" points="14.4 16.75 8.86 11.01 8.53 11.32 14.08 17 14.4 16.75"/>
      <rect class="cls-6" x="3.66" y="19.08" width="3.38" height="5.74"/>
      <rect class="cls-5" x="8.56" y="19.08" width="5.67" height="5.74"/>
      <rect class="cls-6" x="15.74" y="19.08" width="3.38" height="5.74"/>
      <path class="cls-1" d="M19.13,25.04h-3.38l-.22-.22v-5.74l.22-.23h3.38l.23.23v5.74l-.23.22ZM15.97,24.6h2.93v-5.3h-2.93v5.3ZM14.23,25.04h-5.66l-.23-.22v-5.74l.23-.23h5.67l.23.23v5.74l-.24.22ZM8.79,24.6h5.22v-5.3h-5.22v5.3ZM7.06,25.04h-3.39l-.22-.22v-5.74l.22-.23h3.39l.22.23v5.74l-.22.22ZM3.89,24.6h2.93v-5.3h-2.93v5.3Z"/>
      <path class="cls-1" d="M3.48,24.7c.54-.96,1.08-1.84,1.63-2.76-.55-.96-1.09-1.84-1.63-2.76l.38-.23,1.5,2.54,1.5-2.54.38.23c-.55.96-1.09,1.84-1.63,2.76.54.96,1.08,1.84,1.63,2.76l-.38.23-1.5-2.54-1.5,2.54-.38-.23Z"/>
      <path class="cls-1" d="M15.55,24.7c.55-.96,1.09-1.84,1.63-2.76-.54-.96-1.08-1.84-1.63-2.76l.39-.23,1.5,2.54c.49-.85.96-1.7,1.49-2.54l.39.23c-.55.96-1.09,1.84-1.63,2.76.54.96,1.08,1.84,1.63,2.76l-.39.23c-.49-.85-.96-1.69-1.49-2.54l-1.5,2.54-.39-.23Z"/>
      <polygon class="cls-1" points="8.53 24.61 14.08 18.93 14.4 19.23 8.86 24.91 8.53 24.61"/>
      <polygon class="cls-1" points="14.4 24.61 8.86 18.93 8.53 19.23 14.08 24.91 14.4 24.61"/>
      <rect class="cls-6" x="3.66" y="26.97" width="3.38" height="5.74"/>
      <rect class="cls-5" x="8.56" y="26.97" width="5.67" height="5.74"/>
      <rect class="cls-6" x="15.74" y="26.97" width="3.38" height="5.74"/>
      <path class="cls-1" d="M19.13,32.93h-3.38l-.22-.22v-5.74l.22-.23h3.38l.23.23v5.74l-.23.22ZM15.97,32.48h2.93v-5.29h-2.93v5.29ZM14.23,32.93h-5.66l-.23-.22v-5.74l.23-.23h5.67l.23.23v5.74l-.24.22ZM8.79,32.48h5.22v-5.29h-5.22v5.29ZM7.06,32.93h-3.39l-.22-.22v-5.74l.22-.23h3.39l.22.23v5.74l-.22.22ZM3.89,32.48h2.93v-5.29h-2.93v5.29Z"/>
      <path class="cls-1" d="M3.48,32.6c.54-.96,1.08-1.84,1.63-2.76-.55-.96-1.09-1.84-1.63-2.76l.38-.23,1.5,2.54,1.5-2.54.38.23c-.55.96-1.09,1.84-1.63,2.76.54.96,1.08,1.84,1.63,2.76l-.38.23-1.5-2.54-1.5,2.54-.38-.23Z"/>
      <path class="cls-1" d="M15.55,32.6c.55-.96,1.09-1.84,1.63-2.76-.54-.96-1.08-1.84-1.63-2.76l.39-.23,1.5,2.54c.49-.85.96-1.69,1.49-2.54l.39.23c-.55.96-1.09,1.84-1.63,2.76.54.96,1.08,1.84,1.63,2.76l-.39.23c-.49-.85-.96-1.69-1.49-2.54l-1.5,2.54-.39-.23Z"/>
      <polygon class="cls-1" points="8.53 32.49 14.08 26.81 14.4 27.12 8.86 32.81 8.53 32.49"/>
      <polygon class="cls-1" points="14.4 32.49 8.86 26.81 8.53 27.12 14.08 32.81 14.4 32.49"/>
      <rect class="cls-6" x="3.66" y="34.86" width="3.38" height="5.74"/>
      <rect class="cls-5" x="8.56" y="34.86" width="5.67" height="5.74"/>
      <rect class="cls-6" x="15.74" y="34.86" width="3.38" height="5.74"/>
      <path class="cls-1" d="M19.13,40.82h-3.38l-.22-.22v-5.74l.22-.22h3.38l.23.22v5.74l-.23.22ZM15.97,40.37h2.93v-5.29h-2.93v5.29ZM14.23,40.82h-5.66l-.23-.22v-5.74l.23-.22h5.67l.23.22v5.74l-.24.22ZM8.79,40.37h5.22v-5.29h-5.22v5.29ZM7.06,40.82h-3.39l-.22-.22v-5.74l.22-.22h3.39l.22.22v5.74l-.22.22ZM3.89,40.37h2.93v-5.29h-2.93v5.29Z"/>
      <path class="cls-1" d="M3.48,40.49l1.63-2.76c-.55-.96-1.09-1.84-1.63-2.76l.38-.22,1.5,2.54,1.5-2.54.38.22c-.55.96-1.09,1.84-1.63,2.76.54.96,1.08,1.85,1.63,2.76l-.38.22-1.5-2.54-1.5,2.5-.38-.18Z"/>
      <path class="cls-1" d="M15.55,40.49c.55-.96,1.09-1.84,1.63-2.76-.54-.96-1.08-1.84-1.63-2.76l.39-.22,1.5,2.54c.49-.85.96-1.7,1.49-2.54l.39.22c-.55.96-1.09,1.84-1.63,2.76.54.96,1.08,1.85,1.63,2.76l-.39.22-1.49-2.54-1.5,2.5-.39-.18Z"/>
      <polygon class="cls-1" points="8.53 40.38 14.08 34.7 14.4 35.02 8.86 40.67 8.53 40.38"/>
      <polygon class="cls-1" points="14.4 40.38 8.86 34.7 8.53 35.02 14.08 40.7 14.4 40.38"/>
      <rect class="cls-6" x="3.66" y="42.76" width="3.38" height="5.74"/>
      <rect class="cls-5" x="8.56" y="42.76" width="5.67" height="5.74"/>
      <rect class="cls-6" x="15.74" y="42.76" width="3.38" height="5.74"/>
      <path class="cls-1" d="M19.13,48.72h-3.38l-.22-.22v-5.74l.22-.22h3.38l.23.22v5.74l-.23.22ZM15.97,48.27h2.93v-5.29h-2.93v5.29ZM14.23,48.72h-5.66l-.23-.22v-5.74l.23-.22h5.67l.23.22v5.74l-.24.22ZM8.79,48.27h5.22v-5.29h-5.22v5.29ZM7.06,48.72h-3.39l-.22-.22v-5.74l.22-.22h3.39l.22.22v5.74l-.22.22ZM3.89,48.27h2.93v-5.29h-2.93v5.29Z"/>
      <path class="cls-1" d="M3.48,48.38l1.63-2.76c-.55-.96-1.09-1.84-1.63-2.76l.38-.22,1.5,2.54,1.5-2.54.38.22c-.55.96-1.09,1.84-1.63,2.76.54.96,1.08,1.85,1.63,2.76l-.38.22-1.5-2.54-1.5,2.54-.38-.22Z"/>
      <path class="cls-1" d="M15.55,48.38c.55-.96,1.09-1.84,1.63-2.76-.54-.96-1.08-1.84-1.63-2.76l.39-.22,1.5,2.54,1.49-2.54.39.22c-.55.96-1.09,1.84-1.63,2.76.54.96,1.08,1.85,1.63,2.76l-.39.22-1.49-2.54-1.5,2.54-.39-.22Z"/>
      <polygon class="cls-1" points="8.53 48.32 14.08 42.64 14.4 42.96 8.86 48.64 8.53 48.32"/>
      <polygon class="cls-1" points="14.4 48.32 8.86 42.58 8.53 42.9 14.08 48.58 14.4 48.32"/>
      <rect class="cls-6" x="3.66" y="50.65" width="3.38" height="5.74"/>
      <rect class="cls-5" x="8.56" y="50.65" width="5.67" height="5.74"/>
      <rect class="cls-6" x="15.74" y="50.65" width="3.38" height="5.74"/>
      <path class="cls-1" d="M19.13,56.61h-3.38l-.22-.22v-5.74l.22-.22h3.38l.23.22v5.74l-.23.22ZM15.97,56.16h2.93v-5.29h-2.93v5.29ZM14.23,56.61h-5.66l-.23-.22v-5.74l.23-.22h5.67l.23.22v5.74l-.24.22ZM8.79,56.16h5.22v-5.29h-5.22v5.29ZM7.06,56.61h-3.39l-.22-.22v-5.74l.22-.22h3.39l.22.22v5.74l-.22.22ZM3.89,56.16h2.93v-5.29h-2.93v5.29Z"/>
      <path class="cls-1" d="M3.48,56.27c.54-.96,1.08-1.85,1.63-2.76-.55-.96-1.09-1.84-1.63-2.76l.38-.23,1.5,2.54,1.5-2.54.38.23c-.55.96-1.09,1.84-1.63,2.76.54.96,1.08,1.85,1.63,2.76l-.38.22-1.5-2.54-1.5,2.54-.38-.22Z"/>
      <path class="cls-1" d="M15.55,56.27c.55-.96,1.09-1.85,1.63-2.76-.54-.96-1.08-1.84-1.63-2.76l.39-.23,1.5,2.54c.49-.84.96-1.69,1.49-2.54l.39.23c-.55.96-1.09,1.84-1.63,2.76.54.96,1.08,1.85,1.63,2.76l-.39.22c-.49-.85-.96-1.69-1.49-2.54l-1.5,2.54-.39-.22Z"/>
      <polygon class="cls-1" points="8.53 56.17 14.08 50.48 14.4 50.79 8.86 56.47 8.53 56.17"/>
      <polygon class="cls-1" points="14.4 56.17 8.86 50.48 8.53 50.79 14.08 56.47 14.4 56.17"/>
      <rect class="cls-6" x="3.66" y="58.53" width="3.38" height="5.74"/>
      <rect class="cls-5" x="8.56" y="58.53" width="5.67" height="5.74"/>
      <rect class="cls-6" x="15.74" y="58.53" width="3.38" height="5.74"/>
      <path class="cls-1" d="M19.13,64.5h-3.38l-.22-.23v-5.74l.22-.22h3.38l.23.22v5.74l-.23.23ZM15.97,64.05h2.93v-5.3h-2.93v5.3ZM14.23,64.5h-5.66l-.23-.23v-5.74l.23-.22h5.67l.23.22v5.74l-.24.23ZM8.79,64.05h5.22v-5.3h-5.22v5.3ZM7.06,64.5h-3.39l-.22-.23v-5.74l.22-.22h3.39l.22.22v5.74l-.22.23ZM3.89,64.05h2.93v-5.3h-2.93v5.3Z"/>
      <path class="cls-1" d="M3.48,64.16c.54-.96,1.08-1.84,1.63-2.76-.55-.96-1.09-1.84-1.63-2.76l.38-.23,1.5,2.54,1.5-2.54.38.23c-.55.96-1.09,1.84-1.63,2.76.54.96,1.08,1.84,1.63,2.76l-.38.23-1.5-2.54-1.5,2.54-.38-.23Z"/>
      <path class="cls-1" d="M15.55,64.16c.55-.96,1.09-1.84,1.63-2.76-.54-.96-1.08-1.84-1.63-2.76l.39-.23,1.5,2.54c.49-.85.96-1.69,1.49-2.54l.39.23c-.55.96-1.09,1.84-1.63,2.76.54.96,1.08,1.84,1.63,2.76l-.39.23c-.49-.85-.96-1.69-1.49-2.54l-1.5,2.54-.39-.23Z"/>
      <polygon class="cls-1" points="8.53 64.06 14.08 58.38 14.4 58.68 8.86 64.37 8.53 64.06"/>
      <polygon class="cls-1" points="14.4 64.06 8.86 58.38 8.53 58.68 14.08 64.37 14.4 64.06"/>
      <rect class="cls-6" x="3.66" y="66.42" width="3.38" height="5.74"/>
      <rect class="cls-5" x="8.56" y="66.42" width="5.67" height="5.74"/>
      <rect class="cls-6" x="15.74" y="66.42" width="3.38" height="5.74"/>
      <path class="cls-1" d="M19.13,72.38h-3.38l-.22-.22v-5.74l.22-.23h3.38l.23.23v5.74l-.23.22ZM15.97,71.94h2.93v-5.3h-2.93v5.3ZM14.23,72.38h-5.66l-.23-.22v-5.74l.23-.23h5.67l.23.23v5.74l-.24.22ZM8.79,71.94h5.22v-5.3h-5.22v5.3ZM7.06,72.38h-3.39l-.22-.22v-5.74l.22-.23h3.39l.22.23v5.74l-.22.22ZM3.89,71.94h2.93v-5.3h-2.93v5.3Z"/>
      <path class="cls-1" d="M3.48,72.05c.54-.96,1.08-1.84,1.63-2.76-.55-.96-1.09-1.84-1.63-2.76l.38-.23,1.5,2.54,1.5-2.54.38.23c-.55.96-1.09,1.84-1.63,2.76.54.96,1.08,1.84,1.63,2.76l-.38.23-1.5-2.54-1.5,2.51-.38-.19Z"/>
      <path class="cls-1" d="M15.55,72.05c.55-.96,1.09-1.84,1.63-2.76-.54-.96-1.08-1.84-1.63-2.76l.39-.23,1.5,2.54c.49-.85.96-1.69,1.49-2.54l.39.23c-.55.96-1.09,1.84-1.63,2.76.54.96,1.08,1.84,1.63,2.76l-.39.23c-.49-.85-.96-1.69-1.49-2.54l-1.5,2.51-.39-.19Z"/>
      <polygon class="cls-1" points="8.53 71.95 14.08 66.27 14.4 66.58 8.86 72.24 8.53 71.95"/>
      <polygon class="cls-1" points="14.4 71.95 8.86 66.27 8.53 66.58 14.08 72.26 14.4 71.95"/>
      <rect class="cls-6" x="3.66" y="74.31" width="3.38" height="5.74"/>
      <rect class="cls-5" x="8.56" y="74.31" width="5.67" height="5.74"/>
      <rect class="cls-6" x="15.74" y="74.31" width="3.38" height="5.74"/>
      <path class="cls-1" d="M19.13,80.27h-3.38l-.22-.22v-5.74l.22-.23h3.38l.23.23v5.74l-.23.22ZM15.97,79.82h2.93v-5.29h-2.93v5.29ZM14.23,80.27h-5.66l-.23-.22v-5.74l.23-.23h5.67l.23.23v5.74l-.24.22ZM8.79,79.82h5.22v-5.29h-5.22v5.29ZM7.06,80.27h-3.39l-.22-.22v-5.74l.22-.23h3.39l.22.23v5.74l-.22.22ZM3.89,79.82h2.93v-5.29h-2.93v5.29Z"/>
      <path class="cls-1" d="M3.48,79.94c.54-.96,1.08-1.84,1.63-2.76-.55-.96-1.09-1.84-1.63-2.76l.38-.23,1.5,2.54,1.5-2.54.38.23c-.55.96-1.09,1.84-1.63,2.76.54.96,1.08,1.84,1.63,2.76l-.38.23-1.5-2.54-1.5,2.54-.38-.23Z"/>
      <path class="cls-1" d="M15.55,79.94c.55-.96,1.09-1.84,1.63-2.76-.54-.96-1.08-1.84-1.63-2.76l.39-.23,1.5,2.54c.49-.85.96-1.7,1.49-2.54l.39.23c-.55.96-1.09,1.84-1.63,2.76.54.96,1.08,1.84,1.63,2.76l-.39.23c-.49-.85-.96-1.69-1.49-2.54l-1.5,2.54-.39-.23Z"/>
      <polygon class="cls-1" points="8.53 79.83 14.08 74.15 14.4 74.47 8.86 80.15 8.53 79.83"/>
      <polygon class="cls-1" points="14.4 79.83 8.86 74.15 8.53 74.47 14.08 80.15 14.4 79.83"/>
      <rect class="cls-6" x="3.66" y="82.21" width="3.38" height="5.74"/>
      <rect class="cls-5" x="8.56" y="82.21" width="5.67" height="5.74"/>
      <rect class="cls-6" x="15.74" y="82.21" width="3.38" height="5.74"/>
      <path class="cls-1" d="M19.13,88.17h-3.38l-.22-.22v-5.74l.22-.22h3.38l.23.22v5.74l-.23.22ZM15.97,87.72h2.93v-5.29h-2.93v5.29ZM14.23,88.17h-5.66l-.23-.22v-5.74l.23-.22h5.67l.23.22v5.74l-.24.22ZM8.79,87.72h5.22v-5.29h-5.22v5.29ZM7.06,88.17h-3.39l-.22-.22v-5.74l.22-.22h3.39l.22.22v5.74l-.22.22ZM3.89,87.72h2.93v-5.29h-2.93v5.29Z"/>
      <polygon class="cls-1" points="3.47 87.83 5.1 85.08 3.47 82.32 3.87 82.09 5.37 84.64 6.86 82.09 7.24 82.32 5.62 85.08 7.24 87.83 6.86 88.06 5.37 85.52 3.87 88.06 3.47 87.83"/>
      <polygon class="cls-1" points="15.55 87.83 17.17 85.08 15.55 82.32 15.93 82.09 17.43 84.64 18.93 82.09 19.32 82.32 17.69 85.08 19.32 87.83 18.93 88.06 17.43 85.52 15.93 88.06 15.55 87.83"/>
      <polygon class="cls-1" points="8.53 87.74 14.08 82.05 14.4 82.36 8.85 88.04 8.53 87.74"/>
      <polygon class="cls-1" points="14.4 87.74 8.86 82.05 8.53 82.36 14.08 88.04 14.4 87.74"/>
      <rect class="cls-2" x="0" width="50.2" height="90.35"/>
    </g>
  </g>
</svg>