<?xml version="1.0" encoding="UTF-8"?>
<svg id="Capa_2" data-name="Capa 2" xmlns="http://www.w3.org/2000/svg" viewBox="0 0 52.2 23.09">
  <defs>
    <style>
      .cls-1 {
        fill: none;
      }

      .cls-1, .cls-2, .cls-3, .cls-4 {
        stroke-width: 0px;
      }

      .cls-2 {
        fill: #bdd0cd;
      }

      .cls-2, .cls-3, .cls-4 {
        fill-rule: evenodd;
      }

      .cls-3 {
        fill: #427b73;
      }

      .cls-4 {
        fill: #709992;
      }
    </style>
  </defs>
  <g id="text_i_icones" data-name="text i icones">
    <g>
      <path class="cls-3" d="M38.72,8.87l13.24-.06v2.37h-8.79v1.59h8.62v2.59h-8.62v1.8h8.79v2.6l-13.24.06-.05-10.96.05.02ZM36.36,8.87h-4.64l-5.01,7.49-6.03-7.44h-3.92l10.08,14.13,9.51-14.18Z"/>
      <path class="cls-4" d="M13.68,2.54c-.14-.13.13-.38.61-.27.31.08.64,0,.96.15.32.15.81.26,1.24.46.42.2,1.01.23,1.65.52.53.24,1.04.51,1.53.82,1.81,1.05,3.12,2.54,3.92,4.47,0,.06,0,.2.11.13.13-.39.32-.75.57-1.08.31-.26.54-.58.68-.95.19-.56,1.22-1.35,2.13-2.04.37-.28.69-.87,1.06-1.14.96-.7,1.92-1.05,2.93-1.84.15-.1.31-.17.48-.22.64-.22,1.13-.65,1.78-.95.95-.36,1.93-.55,2.95-.57.05,0,.11.12.09.18-.06.31-.22.54-.49.71-.22.1-.15.28-.38.38-.6.24-.8.21-1.02.55,0,.07-.07.16-.14.21-.41.21-.73.51-.96.9-.09.18-.2.34-.34.48-.52.5-1.11.91-1.76,1.22-.67.41-1.18.97-1.5,1.68-.08.12-.26,0-.37.4-.11.28-.28.51-.52.69-.13.11-.19.32-.34.4-.14.09-.32,0-.42.14-.07.07-.14.14-.22.21-.28.19-.71,0-.89.48-.17.41-.42.76-.76,1.05-.34.44-.66.91-.96,1.38-.32.54-.67.8-1.02,1.43-.46.83-.96.63-1.17.28-.21-.35-.23.15-.44-.59-.08-.17-.17-.33-.27-.48-.12-.33-.28-.65-.46-.95-.18-.27-.42-.46-.63-.8-.22-.44-.46-.86-.74-1.26-.41-.53-.61-.32-.87-.55-.34-.35-.66-.73-.96-1.12-.23-.25-.5-.45-.74-.69-.13-.12-.23-.26-.31-.42-.33-.95-.5-.51-.73-.75-.23-.25-.25-.45-.51-.54-.26-.1-.25-.22-.34-.29-.1-.07-.38-.13-.64-.29-.26-.14-.46-.34-.59-.6-.1-.13-.16-.12-.43-.2-.46-.12-.42-.41-.72-.68l-.03-.04Z"/>
      <path class="cls-2" d="M20.65,10.39c0-.31.47-.25.67-.25.17.22.34.38.49.59.19.3.34.62.46.95.1.15.19.31.27.48.21.74.33.37.44.59.11.22.71.55,1.17-.27.34-.64.7-.9,1.02-1.44.26-.44.56-.86.88-1.25h.08c.17-.06.34-.11.52-.14,1.02-.53.27.75-.29,1.4-.17.22-.32.44-.44.69-.21.62-.46,1.21-.78,1.78-.08.11-.13.24-.16.37-.45.79-.31,1.21-1.06,1.12-.2,0-.4.03-.6.06-.65,0-1.08-.82-1.13-1.48-.18-.57-.4-1.12-.66-1.65l-.51-.86c-.04-.11-.09-.21-.14-.32-.11-.1-.19-.22-.25-.35l.04-.02Z"/>
      <path class="cls-3" d="M10.15,12.6l-2.34,3.25h4.72l-2.38-3.23v-.02ZM5.97,18.4l-1.13,1.56H.21l7.94-11h4.05v.06l7.99,10.88h-4.63l-1.14-1.56-8.46.07Z"/>
      <rect class="cls-1" width="52.2" height="23.09"/>
    </g>
  </g>
</svg>