<?xml version="1.0" encoding="UTF-8"?>
<svg id="Capa_2" data-name="Capa 2" xmlns="http://www.w3.org/2000/svg" viewBox="0 0 25.16 90.93">
  <defs>
    <style>
      .cls-1 {
        fill: none;
      }

      .cls-1, .cls-2 {
        stroke-width: 0px;
      }

      .cls-2 {
        fill: #00352b;
      }
    </style>
  </defs>
  <g id="text_i_icones" data-name="text i icones">
    <g>
      <path class="cls-2" d="M.06,72.3v14.81c0,1.38.05,2.38.06,2.98v.5c0,.1.04.18.11.25s.15.1.25.1h23.95c.1,0,.18-.03.25-.1.07-.07.1-.15.1-.25v-.5c0-.55,0-1.56.06-2.98,0-1.53.06-3.53.08-5.87,0-2.56.06-5.54.06-8.81v-17.79c0-.99,0-1.99-.05-2.98-.05-.99,0-1.99-.07-2.98s0-1.99-.07-2.93c-.07-.94-.06-1.99-.1-2.98s-.07-1.99-.11-2.98c-.04-.99-.08-1.99-.13-2.98-.05-.99-.09-1.99-.14-2.98-.05-.99-.12-1.99-.18-2.98-.06-.99-.13-1.99-.2-2.98-.07-.99-.16-1.94-.24-2.87v-.06h-.35.35c-.09-.99-.19-1.99-.3-2.98-.11-.99-.26-1.99-.4-2.98-.14-.99-.33-1.99-.52-2.98-.19-.99-.43-2.04-.66-2.98-.27-1.07-.56-2.06-.86-2.98-.66-2.1-1.58-4.09-2.76-5.96C15.58.12,13.04,0,12.94,0h-.82C11.99,0,8.34.21,5.31,7.07c-.39.87-.77,1.87-1.15,2.98-.3.9-.58,1.89-.85,2.98-.23.92-.45,1.91-.66,2.98-.21,1.07-.36,1.91-.52,2.98-.16,1.07-.27,1.92-.39,2.98-.12,1.06-.22,1.92-.31,2.98v.06c-.08.94-.15,1.91-.23,2.88-.08.97-.14,1.99-.2,2.98-.06.99-.12,1.99-.18,2.98-.1,1.92-.2,3.88-.27,5.88-.07,2-.15,3.9-.21,5.88,0,.99-.06,1.99-.08,2.93-.02.94,0,1.99-.07,2.98,0,1.99-.06,3.97-.09,5.88v14.77c-.02.11,0,.21.08.29.07.08.16.13.28.13s.2-.04.28-.13c.07-.08.1-.18.08-.29v-14.72c0-1.99.05-3.9.09-5.87,0-.99,0-1.99.07-2.98.07-.99.05-1.99.07-2.93.06-1.99.13-3.94.21-5.87.08-1.93.17-3.88.27-5.87.06-.99.12-1.99.18-2.93s.13-1.99.21-2.93c.08-.94.15-1.94.23-2.87v-.06c.1-.99.2-1.99.31-2.93s.25-1.99.39-2.92.33-1.99.51-2.98c.18-.99.42-1.99.65-2.91.27-1.06.55-1.99.84-2.92.36-1.08.73-2.05,1.12-2.9,1.49-3.34,3.08-4.97,4.25-5.82.44-.32.91-.56,1.43-.72.12-.04.25-.07.38-.09h.92c.17,0,2.29.22,4.63,3.76,1.2,1.89,2.13,3.91,2.77,6.05.3.88.58,1.85.85,2.91.23.9.45,1.88.65,2.91.2,1.03.35,1.9.51,2.98.16,1.08.28,1.9.4,2.92.12,1.02.21,1.91.3,2.93v.06h.35-.35c.08.93.16,1.89.23,2.87.07.98.14,1.94.21,2.93.07.99.11,1.94.17,2.93l.15,2.98c.05.99.09,1.99.13,2.98.04.99.07,1.99.11,2.98l.09,2.98c0,.99.05,1.99.08,2.93l.06,2.98c0,.99,0,1.99.05,2.93.05.94,0,1.99.05,2.98s0,1.99,0,2.93v11.83c0,3.27,0,6.25-.06,8.8,0,2.35-.06,4.34-.08,5.87-.02,1.53-.05,2.38-.06,2.98v.5h.36v-.35H.63v.35h.36v-.51c0-.55,0-1.55-.05-2.98,0-.84,0-1.83-.05-2.93v-11.82c.02-.11,0-.21-.08-.29-.07-.08-.16-.13-.28-.13s-.2.04-.28.13c-.07.08-.1.18-.08.29"/>
      <path class="cls-2" d="M24.57,48.8v-.35H.64v.35h.36c0-.99.05-1.99.07-2.93h-.35v.36h23.77v-.32h-.36c0,.99.06,1.99.08,2.93h.71c0-.99-.05-1.99-.07-2.93-.01-.23-.13-.34-.36-.35H.72c-.1,0-.18.03-.25.1-.07.07-.11.15-.11.25,0,.99-.05,1.99-.08,2.93l.1.26.26.11h23.93l.25-.11.1-.26-.35-.04Z"/>
      <path class="cls-2" d="M22.51,60.91h2.25c.1,0,.19-.03.26-.1.07-.07.11-.15.11-.25,0-.1-.04-.18-.11-.25-.07-.07-.16-.1-.26-.1h-2.25c-.1,0-.19.03-.26.1-.07.07-.11.15-.11.25s.04.18.11.25c.07.07.16.1.26.1Z"/>
      <path class="cls-2" d="M.45,60.91h7.97c.1,0,.19-.03.26-.1.07-.07.11-.15.11-.25s-.04-.18-.11-.25c-.07-.07-.16-.1-.26-.1H.45c-.1,0-.19.03-.26.1-.07.07-.11.15-.11.25s.04.18.11.25c.07.07.16.1.26.1Z"/>
      <path class="cls-2" d="M24.74,57.26h-8.11c-.1,0-.18.03-.26.1-.07.07-.11.15-.11.25,0,.1.04.18.11.25.07.07.16.1.26.1h8.11c.1,0,.18-.04.25-.11.07-.07.1-.15.1-.25,0-.1-.03-.18-.1-.25-.07-.07-.15-.1-.25-.1"/>
      <path class="cls-2" d="M.48,57.97h12.38c.1,0,.19-.03.26-.1.07-.07.11-.15.11-.25s-.04-.18-.11-.25c-.07-.07-.16-.1-.26-.1H.48c-.1,0-.19.03-.26.1-.07.07-.11.15-.11.25s.04.18.11.25c.07.07.16.1.26.1Z"/>
      <path class="cls-2" d="M10.17,55.03h14.51c.1,0,.18-.03.26-.1.07-.07.11-.15.11-.25,0-.1-.04-.18-.11-.25-.07-.07-.16-.1-.26-.1h-14.51c-.1,0-.19.03-.26.1-.07.07-.11.15-.11.25,0,.1.04.18.11.25.07.07.16.1.26.1Z"/>
      <path class="cls-2" d="M17.26,52.1h7.38c.1,0,.19-.03.26-.1s.11-.15.11-.25-.04-.18-.11-.25c-.07-.07-.16-.1-.26-.1h-7.38c-.1,0-.18.04-.25.11-.07.07-.1.15-.1.25s.03.18.1.25c.07.07.15.11.25.11"/>
      <path class="cls-2" d="M12.07,51.38H.57c-.1,0-.19.03-.26.1-.07.07-.11.15-.11.25,0,.1.04.18.11.25.07.07.16.1.26.1h11.5c.1,0,.19-.03.26-.1.07-.07.11-.15.11-.25s-.04-.18-.11-.25c-.07-.07-.16-.1-.26-.1"/>
      <path class="cls-2" d="M24.57,48.45h-4.8c-.2.03-.3.15-.3.35s.1.32.3.35h4.8c.2-.03.3-.15.3-.35s-.1-.32-.3-.35"/>
      <path class="cls-2" d="M4.1,48.45H.64c-.11-.02-.21,0-.29.08-.09.07-.13.16-.13.27s.04.2.13.27c.09.07.18.1.29.08h3.46c.2-.03.3-.15.3-.35s-.1-.32-.3-.35"/>
      <path class="cls-2" d="M11.31,46.23h7.18c.1,0,.19-.03.26-.1.07-.07.11-.15.11-.25s-.04-.18-.11-.25c-.07-.07-.16-.1-.26-.1h-7.18c-.1,0-.19.03-.26.1s-.11.15-.11.25.04.18.11.25c.07.07.16.1.26.1"/>
      <path class="cls-2" d="M5.12,45.51H.72c-.1,0-.19.03-.26.1-.07.07-.11.15-.11.25s.04.18.11.25c.07.07.16.1.26.1h4.39c.1,0,.19-.03.26-.1.07-.07.11-.15.11-.25s-.04-.18-.11-.25c-.07-.07-.16-.1-.26-.1"/>
      <path class="cls-2" d="M20,43.29h4.37c.2-.03.3-.15.3-.35s-.1-.32-.3-.35h-4.4c-.11-.02-.21,0-.29.08-.09.07-.13.16-.13.27s.04.2.13.27c.09.07.18.1.29.08"/>
      <path class="cls-2" d="M1.63,43.29h9.68c.1,0,.19-.03.26-.1s.11-.15.11-.25c0-.1-.04-.18-.11-.25-.07-.07-.16-.1-.26-.1H1.68c-.1,0-.18.03-.26.1-.07.07-.11.15-.11.25,0,.1.04.18.11.25.07.07.16.1.26.1"/>
      <path class="cls-2" d="M24.29,39.65H.92c-.1,0-.19.03-.26.1-.07.07-.11.15-.11.25s.04.18.11.25c.07.07.16.1.26.1h23.37c.1,0,.18-.03.25-.1.07-.07.1-.15.1-.25s-.03-.18-.1-.25c-.07-.07-.15-.11-.25-.11"/>
      <path class="cls-2" d="M21.36,37.42h2.79c.1,0,.19-.04.26-.1.07-.07.11-.15.11-.25s-.04-.18-.11-.25-.16-.1-.26-.1h-2.79c-.1,0-.19.03-.26.1-.07.07-.11.15-.11.25,0,.1.04.18.11.25.07.07.16.1.26.1Z"/>
      <path class="cls-2" d="M9.01,37.42h14.36c.1,0,.19-.04.26-.1.07-.07.11-.15.11-.25s-.04-.18-.11-.25-.16-.1-.26-.1h-14.36c-.1,0-.19.03-.26.1-.07.07-.11.15-.11.25,0,.1.04.18.11.25.07.07.16.1.26.1"/>
      <path class="cls-2" d="M24.01,33.78h-6.12c-.1,0-.18.03-.26.1-.07.07-.11.15-.11.25s.04.18.11.25c.07.07.16.1.26.1h6.12c.1,0,.18-.04.25-.11.07-.07.1-.15.1-.25,0-.1-.03-.18-.1-.25-.07-.07-.15-.1-.25-.1"/>
      <path class="cls-2" d="M7.83,33.78H1.26c-.1,0-.18.03-.26.1s-.11.15-.11.25c0,.1.04.18.11.25s.16.1.26.1h6.62c.1,0,.19-.03.26-.1.07-.07.11-.15.11-.25,0-.1-.04-.18-.11-.25-.07-.07-.16-.1-.26-.1"/>
      <path class="cls-2" d="M23.83,30.84h-7.81c-.1,0-.19.03-.26.1-.07.07-.11.15-.11.25s.04.18.11.25c.07.07.16.1.26.1h7.81c.1,0,.19-.03.26-.1.07-.07.11-.15.11-.25s-.04-.18-.11-.25c-.07-.07-.16-.1-.26-.1"/>
      <path class="cls-2" d="M11.31,30.84H1.37c-.2.03-.3.15-.3.35s.1.32.3.35h9.94c.11.02.21,0,.29-.08.09-.07.13-.16.13-.27s-.04-.2-.13-.27c-.09-.07-.18-.1-.29-.08"/>
      <path class="cls-2" d="M23.63,27.9h-3.63c-.1,0-.19.03-.26.1-.07.07-.11.15-.11.25s.04.18.11.25c.07.07.16.1.26.1h3.63c.1,0,.19-.03.26-.1.07-.07.11-.15.11-.25s-.04-.18-.11-.25c-.07-.07-.16-.1-.26-.1"/>
      <path class="cls-2" d="M10.93,27.9H1.59c-.1,0-.19.03-.26.1-.07.07-.11.15-.11.25,0,.1.04.18.11.25.07.07.16.1.26.1h9.34c.1,0,.19-.03.26-.1.07-.07.11-.15.11-.25s-.04-.18-.11-.25c-.07-.07-.16-.1-.26-.1"/>
      <path class="cls-2" d="M7.45,25.67h13.91c.1,0,.18-.03.26-.1.07-.07.11-.15.11-.25,0-.1-.04-.18-.11-.25s-.16-.1-.26-.1H7.45c-.1,0-.19.03-.26.1-.07.07-.11.15-.11.25s.04.18.11.25c.07.07.16.1.26.1"/>
      <path class="cls-2" d="M2.13,22.74h20.96c.1,0,.19-.03.26-.1.07-.07.11-.15.11-.25s-.04-.18-.11-.25c-.07-.07-.16-.1-.26-.1H2.13c-.1,0-.19.03-.26.1-.07.07-.11.15-.11.25,0,.1.04.18.11.25.07.07.16.1.26.1"/>
      <path class="cls-2" d="M22.69,19.1h-6.08c-.1,0-.18.03-.25.1-.07.07-.1.15-.1.25,0,.1.03.18.1.25.07.07.15.11.25.11h6.08c.1,0,.18-.04.25-.11.07-.07.1-.15.1-.25,0-.1-.03-.18-.1-.25-.07-.07-.15-.1-.25-.1"/>
      <path class="cls-2" d="M5.84,19.1h-3.31c-.1,0-.18.03-.26.1-.07.07-.11.15-.11.25,0,.1.04.18.11.25.07.07.16.1.26.1h3.31c.1,0,.19-.03.26-.1.07-.07.11-.15.11-.25s-.04-.18-.11-.25c-.07-.07-.16-.1-.26-.1"/>
      <path class="cls-2" d="M22.16,16.12h-1.57c-.2.03-.3.15-.3.35s.1.32.3.35h1.57c.11.02.21,0,.29-.08.09-.07.13-.16.13-.27,0-.11-.04-.2-.13-.27-.09-.07-.18-.1-.29-.08"/>
      <path class="cls-2" d="M3.05,16.86h9.82c.11.02.21,0,.29-.08.09-.07.13-.16.13-.27s-.04-.2-.13-.27c-.09-.07-.18-.1-.29-.08H3.05c-.11-.02-.21,0-.29.08-.09.07-.13.16-.13.27s.04.2.13.27c.09.07.18.1.29.08Z"/>
      <path class="cls-2" d="M3.71,13.93h17.79c.1,0,.19-.03.26-.1.07-.07.11-.15.11-.25s-.04-.18-.11-.25c-.07-.07-.16-.1-.26-.1H3.71c-.1,0-.19.03-.26.1-.07.07-.11.15-.11.25s.04.18.11.25c.07.07.16.1.26.1Z"/>
      <path class="cls-2" d="M20.64,10.29h-7.04c-.2.03-.3.15-.3.35s.1.32.3.35h7.04c.11.02.21,0,.29-.08.09-.07.13-.16.13-.27s-.04-.2-.13-.27-.18-.1-.29-.08"/>
      <path class="cls-2" d="M7.45,10.28h-2.89c-.1,0-.19.03-.26.1-.07.07-.11.15-.11.25,0,.1.04.18.11.25s.16.1.26.1h2.89c.1,0,.19-.03.26-.1s.11-.15.11-.25-.04-.18-.11-.25c-.07-.07-.16-.1-.26-.1"/>
      <path class="cls-2" d="M5.68,8.05h9.5c.2-.03.3-.15.3-.35s-.1-.32-.3-.35H5.68c-.2.03-.3.15-.3.35s.1.32.3.35Z"/>
      <path class="cls-2" d="M10.73,5.12h7.2c.1,0,.18-.04.25-.11.07-.07.1-.15.1-.25,0-.1-.03-.18-.1-.25s-.15-.11-.25-.11h-7.2c-.1,0-.18.04-.25.11-.07.07-.1.15-.1.25s.03.18.1.25c.07.07.15.11.25.11Z"/>
      <path class="cls-2" d="M16.66,60.91h8.1c.1,0,.19-.03.26-.1.07-.07.11-.15.11-.25,0-.1-.04-.18-.11-.25-.07-.07-.16-.1-.26-.1h-8.1c-.1,0-.19.03-.26.1-.07.07-.11.15-.11.25,0,.1.04.18.11.25.07.07.16.1.26.1Z"/>
      <path class="cls-2" d="M7.29,63.13H.41c-.1,0-.19.03-.26.1-.07.07-.11.15-.11.25s.04.18.11.25c.07.07.16.1.26.1h6.87c.1,0,.19-.04.26-.1s.11-.15.11-.25-.04-.18-.11-.25c-.07-.07-.16-.1-.26-.1"/>
      <path class="cls-2" d="M11.6,63.85h13.19c.1,0,.19-.03.26-.1.07-.07.11-.15.11-.25s-.04-.18-.11-.25c-.07-.07-.16-.1-.26-.1h-13.19c-.1,0-.19.03-.26.1-.07.07-.11.15-.11.25,0,.1.04.18.11.25.07.07.16.1.26.1Z"/>
      <path class="cls-2" d="M.42,66.77h14.24c.11.02.21,0,.29-.08.09-.07.13-.16.13-.27s-.04-.2-.13-.27c-.09-.07-.18-.1-.29-.08H.42c-.11-.02-.21,0-.29.08-.09.07-.13.16-.13.27s.04.2.13.27c.09.07.18.1.29.08Z"/>
      <path class="cls-2" d="M6.58,69H.41c-.1,0-.19.03-.26.1-.07.07-.11.15-.11.25s.04.18.11.25c.07.07.16.1.26.1h6.17c.1,0,.19-.03.26-.1.07-.07.11-.15.11-.25,0-.1-.04-.18-.11-.25-.07-.07-.16-.1-.26-.1"/>
      <path class="cls-2" d="M24.8,69h-12.29c-.1,0-.19.03-.26.1-.07.07-.11.15-.11.25s.04.18.11.25c.07.07.16.1.26.1h12.29c.1,0,.19-.03.26-.1.07-.07.11-.15.11-.25s-.04-.18-.11-.25c-.07-.07-.16-.1-.26-.1"/>
      <path class="cls-2" d="M3.72,71.94H.42c-.1,0-.19.03-.26.1-.07.07-.11.15-.11.25,0,.1.04.18.11.25.07.07.16.1.26.1h3.3c.1,0,.19-.03.26-.1.07-.07.11-.15.11-.25s-.04-.18-.11-.25c-.07-.07-.16-.1-.26-.1"/>
      <path class="cls-2" d="M13.43,74.87H5.28c-.1,0-.19.03-.26.1-.07.07-.11.15-.11.25,0,.1.04.18.11.25.07.07.16.1.26.1h8.18c.1,0,.19-.03.26-.1.07-.07.11-.15.11-.25s-.04-.18-.11-.25c-.07-.07-.16-.1-.26-.1"/>
      <path class="cls-2" d="M3.46,77.81H.44c-.1,0-.19.03-.26.1s-.11.15-.11.25.04.18.11.25c.07.07.16.1.26.1h3.02c.1,0,.19-.03.26-.1.07-.07.11-.15.11-.25s-.04-.18-.11-.25c-.07-.07-.16-.1-.26-.1"/>
      <path class="cls-2" d="M24.37,77.81h-10.95c-.1,0-.19.03-.26.1-.07.07-.11.15-.11.25s.04.18.11.25c.07.07.16.1.26.1h10.95c.1,0,.19-.03.26-.1.07-.07.11-.15.11-.25s-.04-.18-.11-.25c-.07-.07-.16-.1-.26-.1"/>
      <path class="cls-2" d="M24.74,80.75H.48c-.11-.02-.21,0-.29.08-.09.07-.13.16-.13.27,0,.11.04.2.13.27.09.07.18.1.29.08h24.25c.2-.03.3-.15.3-.35s-.1-.32-.3-.35"/>
      <path class="cls-2" d="M1.9,83.65H.52c-.1,0-.19.03-.26.1-.07.07-.11.15-.11.25s.04.18.11.25.16.1.26.1h1.38c.1,0,.19-.04.26-.1.07-.07.11-.15.11-.25s-.04-.18-.11-.25c-.07-.07-.16-.1-.26-.1"/>
      <path class="cls-2" d="M.51,84.39h15.48c.1,0,.19-.03.26-.1.07-.07.11-.15.11-.25s-.04-.18-.11-.25c-.07-.07-.16-.1-.26-.1H.51c-.1,0-.19.03-.26.1-.07.07-.11.15-.11.25s.04.18.11.25c.07.07.16.1.26.1"/>
      <path class="cls-2" d="M5.87,86.63H.56c-.1,0-.19.03-.26.1-.07.07-.11.15-.11.25,0,.1.04.18.11.25.07.07.16.1.26.1h5.31c.1,0,.18-.04.25-.11.07-.07.1-.15.1-.25s-.03-.18-.1-.25c-.07-.07-.15-.11-.25-.11"/>
      <path class="cls-2" d="M24.65,86.63h-7.31c-.1,0-.19.03-.26.1-.07.07-.11.15-.11.25s.04.18.11.25c.07.07.16.1.26.1h7.31c.1,0,.19-.03.26-.1.07-.07.11-.15.11-.25,0-.1-.04-.18-.11-.25-.07-.07-.16-.1-.26-.1"/>
      <path class="cls-2" d="M23.63,28.25v-.36H1.59v.36h.35c.08-.99.16-1.94.24-2.87h-.36.36v-.07h-.36v.35h21.55v-.35h-.36v.07h.36-.36c.08.93.16,1.89.23,2.87h.71c-.07-.99-.15-1.94-.23-2.87v-.06c-.02-.21-.14-.32-.35-.32H1.83c-.21,0-.33.11-.36.32v.06c-.09.93-.17,1.9-.24,2.87l.1.27.26.12h22.04l.26-.12.09-.27h-.35Z"/>
      <path class="cls-2" d="M24.8,69.36h-.35v2.98h.36v-.36H.41v.36h.36v-2.98h-.36v.39h24.38v-.71H.41l-.25.11-.1.25v2.98c0,.1.03.18.1.25.07.07.15.11.25.11h24.38c.1,0,.18-.04.25-.11.07-.07.1-.15.1-.25v-2.98l-.1-.25-.26-.11v.33Z"/>
      <path class="cls-2" d="M11.31,34.48h2.2c.1,0,.19-.03.26-.1.07-.07.11-.15.11-.25,0-.1-.04-.18-.11-.25-.07-.07-.16-.1-.26-.1h-2.2c-.1,0-.18.03-.26.1s-.11.15-.11.25c0,.1.04.18.11.25.07.07.16.1.26.1"/>
      <path class="cls-2" d="M16.02,43.29h2.2c.2-.03.3-.15.3-.35s-.1-.32-.3-.35h-2.2c-.11-.02-.21,0-.29.08-.09.07-.13.16-.13.27s.04.2.13.27c.09.07.18.1.29.08"/>
      <path class="cls-2" d="M16.94,75.59h2.2c.1,0,.19-.03.26-.1.07-.07.11-.15.11-.25s-.04-.18-.11-.25c-.07-.07-.16-.1-.26-.1h-2.2c-.1,0-.19.03-.26.1-.07.07-.11.15-.11.25s.04.18.11.25c.07.07.16.1.26.1"/>
      <path class="cls-2" d="M20.22,84.39h2.2c.1,0,.19-.03.26-.1.07-.07.11-.15.11-.25s-.04-.18-.11-.25c-.07-.07-.16-.1-.26-.1h-2.2c-.1,0-.19.03-.26.1-.07.07-.11.15-.11.25s.04.18.11.25c.07.07.16.1.26.1"/>
      <path class="cls-2" d="M10.4,19.8h2.2c.1,0,.19-.03.26-.1.07-.07.11-.15.11-.25s-.04-.18-.11-.25c-.07-.07-.16-.1-.26-.1h-2.2c-.1,0-.19.03-.26.1-.07.07-.11.15-.11.25s.04.18.11.25c.07.07.16.1.26.1"/>
      <path class="cls-2" d="M16.15,16.86h2.19c.11.02.21,0,.29-.08.09-.07.13-.16.13-.27s-.04-.2-.13-.27c-.09-.07-.18-.1-.29-.08h-2.2c-.11-.02-.21,0-.29.08-.09.07-.13.16-.13.27s.04.2.13.27c.09.07.18.1.29.08"/>
      <path class="cls-2" d="M5.35,55.03h2.2c.1,0,.18-.03.25-.1.07-.07.1-.15.1-.25,0-.1-.03-.18-.1-.25-.07-.07-.15-.11-.25-.11h-2.2c-.1,0-.19.03-.26.1s-.11.15-.11.25c0,.1.04.18.11.25.07.07.16.1.26.1"/>
      <path class="cls-2" d="M7.57,78.52h2.2c.2-.03.3-.15.3-.35s-.1-.32-.3-.35h-2.2c-.11-.02-.21,0-.29.08s-.13.16-.13.27.04.2.13.27.18.1.29.08"/>
      <path class="cls-2" d="M9.77,87.33h2.2c.1,0,.19-.03.26-.1.07-.07.11-.15.11-.25s-.04-.18-.11-.25c-.07-.07-.16-.1-.26-.1h-2.2c-.1,0-.19.03-.26.1-.07.07-.11.15-.11.25s.04.18.11.25c.07.07.16.1.26.1"/>
      <path class="cls-2" d="M4.15,37.42h2.2c.1,0,.19-.04.26-.1.07-.07.11-.15.11-.25s-.04-.18-.11-.25-.16-.1-.26-.1h-2.2c-.1,0-.19.03-.26.1s-.11.15-.11.25.04.18.11.25c.07.07.16.1.26.1"/>
      <rect class="cls-1" x=".06" y=".45" width="25.1" height="90.35"/>
    </g>
  </g>
</svg>