<?xml version="1.0" encoding="UTF-8"?>
<svg id="Capa_2" data-name="Capa 2" xmlns="http://www.w3.org/2000/svg" viewBox="0 0 55.21 55.21">
  <defs>
    <style>
      .cls-1 {
        fill: none;
      }

      .cls-1, .cls-2 {
        stroke-width: 0px;
      }

      .cls-2 {
        fill: #00352b;
      }
    </style>
  </defs>
  <g id="text_i_icones" data-name="text i icones">
    <g>
      <path class="cls-2" d="M.67,16.22h1.26c1.57.06,3.09-.19,4.56-.75.72-.35,1.46-.66,2.22-.93,1.04-.31,2.08-.31,3.12,0,.76.27,1.5.58,2.23.93,1.47.55,2.98.8,4.55.75h.34c.14,0,.25-.05.35-.14.1-.1.14-.21.14-.35,0-.14-.05-.25-.14-.35-.1-.1-.21-.14-.35-.14h-.34c-1.43.05-2.81-.17-4.15-.66-.76-.37-1.53-.69-2.32-.98-1.24-.36-2.48-.36-3.72,0-.79.29-1.57.61-2.32.98-1.34.49-2.73.71-4.16.66H.75c-.13,0-.25.03-.35.12-.1.09-.16.2-.17.33-.01.13.02.25.11.36.09.1.2.16.33.17Z"/>
      <path class="cls-2" d="M36.28,15.29h-.34c-1.43.05-2.81-.17-4.15-.66-.76-.37-1.54-.7-2.33-.98-1.24-.37-2.47-.37-3.71,0-.79.28-1.57.61-2.32.98-1.34.49-2.72.71-4.15.66h-.34c-.14,0-.25.05-.35.14-.1.1-.14.21-.14.35s.05.25.14.35c.1.1.21.14.35.14h.34c1.57.06,3.08-.19,4.55-.75.72-.35,1.46-.66,2.22-.93,1.04-.31,2.08-.31,3.12,0,.76.27,1.5.58,2.23.93,1.47.55,2.98.8,4.55.75h.34c.14,0,.25-.05.35-.14.1-.1.14-.21.14-.35s-.05-.25-.14-.35c-.1-.1-.21-.14-.35-.14"/>
      <path class="cls-2" d="M36.27,16.26h.34c1.57.06,3.08-.19,4.55-.75.72-.35,1.46-.66,2.22-.93,1.04-.31,2.08-.31,3.12,0,.76.27,1.49.58,2.22.93,1.47.55,2.99.8,4.56.75h1.26c.13,0,.24-.06.33-.17.09-.1.12-.22.11-.35-.01-.13-.07-.24-.17-.33s-.22-.13-.35-.12h-1.19c-1.43.05-2.81-.17-4.15-.66-1.04-.47-1.72-.77-2.33-.98-.6-.19-1.22-.28-1.85-.26-.64-.01-1.26.07-1.86.26-.61.21-1.28.51-2.31.98-1.34.49-2.72.71-4.15.66h-.34c-.14,0-.25.05-.35.14-.1.1-.14.21-.14.35s.05.25.14.35c.1.1.21.14.35.14h0Z"/>
      <path class="cls-2" d="M.7,24.15h1.24c1.48.02,2.95-.05,4.42-.21,2.61-.46,5.23-.46,7.84,0,1.47.15,2.94.22,4.41.21h.34c.13,0,.25-.05.34-.14.1-.09.14-.21.15-.34,0-.13-.05-.25-.15-.34-.09-.09-.21-.14-.34-.15h-.34c-1.43.02-2.86-.05-4.29-.2-2.7-.47-5.39-.47-8.09,0-1.43.15-2.86.21-4.29.2H.73c-.13,0-.25.05-.34.14-.1.09-.14.21-.15.34,0,.13.04.24.13.34.09.1.2.15.33.15Z"/>
      <path class="cls-2" d="M36.28,23.19h-.34c-1.43.02-2.86-.05-4.28-.2-1.34-.22-2.69-.34-4.05-.35-1.36,0-2.7.13-4.04.35-1.43.15-2.86.21-4.29.2h-.33c-.14,0-.25.05-.35.14-.1.1-.14.21-.14.35s.05.25.14.35c.1.1.21.14.35.14h.33c1.48.02,2.95-.05,4.42-.21,2.61-.46,5.23-.46,7.84,0,1.47.15,2.94.22,4.41.21h.34c.14,0,.25-.05.35-.14.1-.1.14-.21.14-.35s-.05-.25-.14-.35c-.1-.1-.21-.14-.35-.14"/>
      <path class="cls-2" d="M36.27,24.16h.33c1.48.02,2.96-.04,4.44-.19,2.61-.46,5.23-.46,7.84,0,1.47.15,2.94.22,4.42.21h1.24c.14,0,.25-.05.34-.15.09-.1.14-.21.14-.35,0-.13-.06-.24-.16-.33-.1-.09-.21-.14-.34-.14h-1.22c-1.44.02-2.87-.05-4.29-.2-2.69-.47-5.39-.47-8.08,0-1.43.15-2.86.21-4.29.2h-.33c-.14,0-.25.05-.35.14-.1.1-.14.21-.14.35,0,.14.05.25.14.35.1.1.21.14.35.14l-.04-.03Z"/>
      <path class="cls-2" d="M.7,33.88h1.24c1.48.02,2.95-.05,4.42-.22,2.61-.46,5.23-.46,7.84,0,1.47.16,2.94.23,4.41.22h.34c.13,0,.25-.05.34-.15.1-.09.14-.21.15-.34,0-.13-.05-.25-.15-.34-.1-.09-.21-.14-.34-.14h-.34c-1.43.01-2.86-.05-4.29-.2-2.7-.49-5.39-.49-8.09,0-1.43.14-2.86.21-4.29.2H.73c-.13,0-.25.04-.34.13-.1.09-.14.2-.15.34,0,.13.04.25.13.34.09.1.2.15.33.16Z"/>
      <path class="cls-2" d="M36.28,32.92h-.35c-1.43.01-2.85-.06-4.28-.21-1.34-.22-2.69-.34-4.05-.35-1.36,0-2.7.13-4.04.35-1.42.15-2.85.22-4.28.21h-.34c-.14,0-.25.05-.35.14s-.14.21-.14.35c0,.14.05.25.14.35.1.1.21.14.35.14h.34c1.47.02,2.95-.05,4.41-.21,2.61-.48,5.23-.48,7.84,0,1.46.15,2.93.22,4.4.21h.35c.14,0,.25-.05.35-.14.1-.1.14-.21.14-.35s-.05-.25-.14-.35-.21-.14-.35-.14h0Z"/>
      <path class="cls-2" d="M36.27,33.89h.34c1.47.02,2.95-.05,4.41-.21,1.3-.23,2.6-.35,3.92-.35,1.32.01,2.62.13,3.92.35,1.47.15,2.94.22,4.42.21h1.24c.13,0,.25-.05.34-.14.09-.1.14-.21.14-.35,0-.13-.06-.25-.15-.34-.1-.09-.21-.14-.35-.13h-1.22c-1.44.01-2.87-.06-4.29-.21-2.69-.47-5.39-.47-8.08,0-1.42.15-2.85.22-4.28.21h-.34c-.14,0-.25.05-.35.14-.1.1-.14.21-.14.35,0,.14.05.25.14.35.1.1.21.14.35.14"/>
      <path class="cls-2" d="M.7,43.59h1.24c1.48.02,2.95-.05,4.42-.21,2.61-.46,5.23-.46,7.84,0,1.47.15,2.94.22,4.41.21h.34c.14,0,.25-.05.35-.14.1-.1.14-.21.14-.35s-.05-.25-.14-.35c-.1-.1-.21-.14-.35-.14h-.34c-1.43.02-2.86-.05-4.29-.2-2.7-.47-5.39-.47-8.09,0-1.43.15-2.86.21-4.29.2H.73c-.14,0-.25.05-.35.14-.1.1-.14.21-.14.35s.05.25.14.35c.1.1.21.14.35.14h-.03Z"/>
      <path class="cls-2" d="M36.28,42.6h-.34c-1.43.02-2.86-.05-4.28-.2-1.34-.22-2.69-.34-4.05-.35-1.36,0-2.7.13-4.04.35-1.42.15-2.85.21-4.28.2h-.34c-.14,0-.25.05-.35.14-.1.1-.14.21-.14.35s.05.25.14.35c.1.1.21.14.35.14h.34c1.47.02,2.95-.05,4.41-.21,2.61-.46,5.23-.46,7.84,0,1.47.15,2.94.22,4.41.21h.34c.14,0,.25-.05.35-.14.1-.1.14-.21.14-.35s-.05-.25-.14-.35c-.1-.1-.21-.14-.35-.14"/>
      <path class="cls-2" d="M36.27,43.59h.34c1.47.02,2.95-.05,4.41-.21,2.61-.46,5.23-.46,7.84,0,1.47.15,2.94.22,4.42.21h1.24c.14,0,.25-.05.35-.14.1-.1.14-.21.14-.35s-.05-.25-.14-.35c-.1-.1-.21-.14-.35-.14h-1.22c-1.44.02-2.87-.05-4.29-.2-2.69-.47-5.39-.47-8.08,0-1.42.15-2.85.21-4.29.2h-.34c-.14,0-.25.05-.35.14-.1.1-.14.21-.14.35s.05.25.14.35c.1.1.21.14.35.14"/>
      <path class="cls-2" d="M.23,15.78v38.95l.14.35.34.14h53.79l.34-.14.15-.35V15.78c0-.14-.05-.25-.14-.35-.1-.1-.21-.14-.35-.14s-.25.05-.35.14c-.1.1-.14.21-.14.35v38.47H1.2V15.78c0-.14-.05-.25-.14-.35-.1-.1-.21-.14-.35-.14s-.25.05-.35.14c-.1.1-.14.21-.14.35h0Z"/>
      <path class="cls-2" d="M12.42,21.35v-.49h-3.81v-3.24h-.48l.31.36-.1-.12.1.13-.1-.12.1.13c.55-.38,1.17-.54,1.83-.5.49,0,.97.08,1.42.26.12.05.23.11.33.18l.07.05.1-.13-.11.12.1-.13-.11.12.32-.36h-.49v3.73h.98v-3.73c0-.14-.06-.27-.17-.36-.75-.48-1.56-.72-2.45-.72s-1.71.24-2.45.72c-.11.09-.17.22-.17.36v3.73l.15.34.34.15h4.29l.34-.15.15-.34h-.51Z"/>
      <path class="cls-2" d="M9.79,17v4.34c0,.14.05.25.14.35.1.1.21.14.35.14.14,0,.25-.05.35-.14.1-.1.14-.21.14-.35v-4.34c0-.14-.05-.25-.14-.35-.1-.1-.21-.14-.35-.14s-.25.05-.35.14c-.1.1-.14.21-.14.35"/>
      <polygon class="cls-2" points="5.17 21.35 5.17 20.86 3.51 20.86 3.51 18.63 4.68 18.63 4.68 21.35 5.17 21.35 5.17 20.86 5.17 21.35 5.66 21.35 5.66 18.14 5.51 17.8 5.17 17.66 3.03 17.66 2.69 17.8 2.54 18.14 2.54 21.35 2.69 21.69 3.03 21.83 5.17 21.83 5.51 21.69 5.66 21.35 5.17 21.35"/>
      <polygon class="cls-2" points="17.52 21.35 17.52 20.86 15.88 20.86 15.88 18.63 17.03 18.63 17.03 21.35 17.52 21.35 17.52 20.86 17.52 21.35 18.01 21.35 18.01 18.14 17.87 17.8 17.52 17.66 15.38 17.66 15.04 17.8 14.89 18.14 14.89 21.35 15.04 21.69 15.38 21.83 17.52 21.83 17.87 21.69 18.01 21.35 17.52 21.35"/>
      <path class="cls-2" d="M29.76,21.35v-.49h-3.81v-3.24h-.49l.32.36-.11-.12.1.13-.11-.12.1.13c.55-.38,1.17-.54,1.83-.5.5,0,.97.08,1.43.26.11.05.22.11.32.18l.07.05.11-.13-.11.12.11-.13-.11.12.32-.36h-.46v3.73h.98v-3.73c0-.15-.05-.27-.17-.36-.75-.48-1.56-.73-2.45-.73-.89,0-1.71.24-2.45.73-.11.09-.17.22-.17.36v3.73l.14.34.34.15h4.3l.34-.15.14-.34h-.53Z"/>
      <path class="cls-2" d="M27.12,17v4.34c0,.14.05.25.14.35.1.1.21.14.35.14.14,0,.25-.05.35-.14.1-.1.14-.21.14-.35v-4.34c0-.14-.05-.25-.14-.35-.1-.1-.21-.14-.35-.14s-.25.05-.35.14c-.1.1-.14.21-.14.35"/>
      <polygon class="cls-2" points="22.49 21.35 22.49 20.86 20.85 20.86 20.85 18.63 22.01 18.63 22.01 21.35 22.49 21.35 22.49 20.86 22.49 21.35 22.98 21.35 22.98 18.14 22.85 17.8 22.49 17.66 20.36 17.66 20.01 17.8 19.88 18.14 19.88 21.35 20.01 21.69 20.36 21.83 22.49 21.83 22.85 21.69 22.98 21.35 22.49 21.35"/>
      <polygon class="cls-2" points="34.86 21.35 34.86 20.86 33.2 20.86 33.2 18.63 34.37 18.63 34.37 21.35 34.86 21.35 34.86 20.86 34.86 21.35 35.34 21.35 35.34 18.14 35.2 17.8 34.86 17.66 32.71 17.66 32.37 17.8 32.23 18.14 32.23 21.35 32.38 21.69 32.71 21.83 34.86 21.83 35.2 21.69 35.34 21.35 34.86 21.35"/>
      <path class="cls-2" d="M47.09,21.35v-.49h-3.81v-3.24h-.48l.31.36-.1-.12.1.13-.1-.12.1.13c.55-.38,1.17-.54,1.83-.5.49,0,.97.08,1.42.26.12.05.23.11.33.18l.06.05.1-.13-.11.12.1-.13-.11.12.32-.36h-.49v3.73h.98v-3.73c0-.14-.06-.27-.17-.36-.75-.48-1.56-.72-2.45-.72s-1.71.24-2.45.72c-.11.09-.17.22-.17.36v3.73l.15.34.34.15h4.29l.34-.15.15-.34h-.5Z"/>
      <path class="cls-2" d="M44.45,17v4.34c0,.14.05.25.14.35.1.1.21.14.35.14.14,0,.25-.05.35-.14.1-.1.14-.21.14-.35v-4.34c0-.14-.05-.25-.14-.35-.1-.1-.21-.14-.35-.14s-.25.05-.35.14c-.1.1-.14.21-.14.35"/>
      <polygon class="cls-2" points="39.83 21.35 39.83 20.86 38.17 20.86 38.17 18.63 39.34 18.63 39.34 21.35 39.83 21.35 39.83 20.86 39.83 21.35 40.31 21.35 40.31 18.14 40.17 17.8 39.83 17.66 37.69 17.66 37.35 17.8 37.2 18.14 37.2 21.35 37.35 21.69 37.69 21.83 39.83 21.83 40.17 21.69 40.31 21.35 39.83 21.35"/>
      <polygon class="cls-2" points="52.19 21.35 52.19 20.86 50.54 20.86 50.54 18.63 51.69 18.63 51.69 21.35 52.19 21.35 52.19 20.86 52.19 21.35 52.68 21.35 52.68 18.14 52.53 17.8 52.19 17.66 50.05 17.66 49.7 17.8 49.56 18.14 49.56 21.35 49.7 21.69 50.05 21.83 52.19 21.83 52.53 21.69 52.68 21.35 52.19 21.35"/>
      <path class="cls-2" d="M12.42,30.44v-.49h-3.81v-3.24h-.48l.31.36-.11-.13.11.13-.11-.13.11.13c.56-.36,1.17-.53,1.83-.49.49,0,.97.08,1.42.26.12.05.23.1.33.17h.07l.1-.13-.11.13.1-.13-.11.13.32-.36h-.49v3.73h.98v-3.73c0-.15-.06-.27-.17-.37-.75-.48-1.57-.71-2.45-.71s-1.7.24-2.45.71c-.11.1-.17.22-.17.37v3.73l.15.34.34.14h4.29l.34-.14.15-.34-.51.06Z"/>
      <path class="cls-2" d="M9.79,26.09v4.34c0,.14.05.25.14.35.1.1.21.14.35.14.14,0,.25-.05.35-.14.1-.1.14-.21.14-.35v-4.34c0-.14-.05-.25-.14-.35-.1-.1-.21-.14-.35-.14s-.25.05-.35.14c-.1.1-.14.21-.14.35"/>
      <polygon class="cls-2" points="5.17 30.43 5.17 29.95 3.51 29.95 3.51 27.71 4.68 27.71 4.68 30.43 5.17 30.43 5.17 29.95 5.17 30.43 5.66 30.43 5.66 27.23 5.51 26.89 5.17 26.74 3.03 26.74 2.69 26.89 2.54 27.23 2.54 30.43 2.69 30.77 3.03 30.92 5.17 30.92 5.51 30.77 5.66 30.43 5.17 30.43"/>
      <polygon class="cls-2" points="17.52 30.43 17.52 29.95 15.88 29.95 15.88 27.71 17.03 27.71 17.03 30.43 17.52 30.43 17.52 29.95 17.52 30.43 18.01 30.43 18.01 27.23 17.87 26.89 17.52 26.74 15.38 26.74 15.04 26.89 14.89 27.23 14.89 30.43 15.04 30.77 15.38 30.92 17.52 30.92 17.87 30.77 18.01 30.43 17.52 30.43"/>
      <path class="cls-2" d="M29.76,30.44v-.49h-3.81v-3.24h-.49l.32.36-.11-.12.1.12-.11-.12.1.12c.56-.36,1.17-.52,1.83-.49.5,0,.97.08,1.43.26.11.05.22.1.32.17h.07l.11-.13-.11.13.11-.13-.11.13.32-.36h-.46v3.73h.98v-3.73c0-.15-.06-.27-.17-.37-.75-.48-1.56-.72-2.45-.72s-1.7.24-2.45.72c-.11.1-.17.22-.17.37v3.73l.14.34.34.14h4.3l.34-.14.14-.34-.53.06Z"/>
      <path class="cls-2" d="M27.12,26.09v4.34c0,.14.05.25.14.35.1.1.21.14.35.14.14,0,.25-.05.35-.14.1-.1.14-.21.14-.35v-4.34c0-.14-.05-.25-.14-.35-.1-.1-.21-.14-.35-.14s-.25.05-.35.14c-.1.1-.14.21-.14.35"/>
      <polygon class="cls-2" points="22.49 30.43 22.49 29.95 20.85 29.95 20.85 27.71 22.01 27.71 22.01 30.43 22.49 30.43 22.49 29.95 22.49 30.43 22.98 30.43 22.98 27.23 22.85 26.89 22.49 26.74 20.36 26.74 20.01 26.89 19.88 27.23 19.88 30.43 20.01 30.77 20.36 30.92 22.49 30.92 22.85 30.77 22.98 30.43 22.49 30.43"/>
      <polygon class="cls-2" points="34.86 30.43 34.86 29.95 33.2 29.95 33.2 27.71 34.37 27.71 34.37 30.43 34.86 30.43 34.86 29.95 34.86 30.43 35.34 30.43 35.34 27.23 35.2 26.89 34.86 26.74 32.71 26.74 32.37 26.89 32.23 27.23 32.23 30.43 32.38 30.77 32.71 30.92 34.86 30.92 35.2 30.77 35.34 30.43 34.86 30.43"/>
      <path class="cls-2" d="M47.09,30.44v-.49h-3.81v-3.24h-.48l.31.36-.1-.16.1.12-.1-.12.1.12c.56-.36,1.17-.53,1.83-.49.49,0,.97.08,1.42.26.12.05.23.1.33.17h.06l.1-.13-.11.13.1-.13-.11.13.32-.36h-.49v3.73h.98v-3.73c0-.15-.06-.27-.17-.37-.75-.48-1.57-.71-2.45-.71s-1.7.24-2.45.71c-.11.1-.17.22-.17.37v3.73l.15.34.34.14h4.29l.34-.14.15-.34-.5.1Z"/>
      <path class="cls-2" d="M44.45,26.09v4.34c0,.14.05.25.14.35s.21.14.35.14c.14,0,.25-.05.35-.14s.14-.21.14-.35v-4.34c0-.14-.05-.25-.14-.35s-.21-.14-.35-.14-.25.05-.35.14-.14.21-.14.35"/>
      <polygon class="cls-2" points="39.83 30.43 39.83 29.95 38.17 29.95 38.17 27.71 39.34 27.71 39.34 30.43 39.83 30.43 39.83 29.95 39.83 30.43 40.31 30.43 40.31 27.23 40.17 26.89 39.83 26.74 37.69 26.74 37.35 26.89 37.2 27.23 37.2 30.43 37.35 30.77 37.69 30.92 39.83 30.92 40.17 30.77 40.31 30.43 39.83 30.43"/>
      <polygon class="cls-2" points="52.19 30.43 52.19 29.95 50.54 29.95 50.54 27.71 51.69 27.71 51.69 30.43 52.19 30.43 52.19 29.95 52.19 30.43 52.68 30.43 52.68 27.23 52.53 26.89 52.19 26.74 50.05 26.74 49.7 26.89 49.56 27.23 49.56 30.43 49.7 30.77 50.05 30.92 52.19 30.92 52.53 30.77 52.68 30.43 52.19 30.43"/>
      <path class="cls-2" d="M12.42,40.13v-.47h-3.81v-3.25h-.48l.31.36-.1-.12.1.13-.1-.12.1.13c.55-.38,1.17-.54,1.83-.5.49,0,.97.08,1.42.26.12.05.23.11.33.18l.07.05.1-.13-.11.12.1-.13-.11.12.32-.36h-.49v3.73h.98v-3.73c0-.14-.06-.26-.17-.36-.75-.48-1.56-.72-2.45-.72s-1.71.24-2.45.72c-.11.09-.17.22-.17.36v3.73l.15.34.34.15h4.29l.34-.15.15-.34h-.51Z"/>
      <path class="cls-2" d="M9.79,35.8v4.33c0,.14.05.25.14.35.1.1.21.14.35.14.14,0,.25-.05.35-.14.1-.1.14-.21.14-.35v-4.33c0-.14-.05-.25-.14-.35-.1-.1-.21-.14-.35-.14s-.25.05-.35.14c-.1.1-.14.21-.14.35"/>
      <polygon class="cls-2" points="5.17 40.13 5.17 39.64 3.51 39.64 3.51 37.42 4.68 37.42 4.68 40.13 5.17 40.13 5.17 39.64 5.17 40.13 5.66 40.13 5.66 36.93 5.51 36.58 5.17 36.45 3.03 36.45 2.69 36.58 2.54 36.93 2.54 40.13 2.69 40.48 3.03 40.61 5.17 40.61 5.51 40.48 5.66 40.13 5.17 40.13"/>
      <polygon class="cls-2" points="17.52 40.13 17.52 39.64 15.88 39.64 15.88 37.42 17.03 37.42 17.03 40.13 17.52 40.13 17.52 39.64 17.52 40.13 18.01 40.13 18.01 36.93 17.87 36.58 17.52 36.45 15.38 36.45 15.04 36.58 14.89 36.93 14.89 40.13 15.04 40.48 15.38 40.61 17.52 40.61 17.87 40.48 18.01 40.13 17.52 40.13"/>
      <path class="cls-2" d="M29.76,40.13v-.47h-3.81v-3.25h-.49l.32.36-.11-.12.1.13-.11-.12.1.13c.55-.38,1.17-.54,1.83-.5.5,0,.97.08,1.43.26.11.05.22.11.32.18l.07.05.11-.13-.11.12.11-.13-.11.12.32-.36h-.46v3.73h.98v-3.73c0-.15-.06-.27-.17-.36-.74-.54-1.56-.78-2.47-.74-.91-.04-1.73.2-2.47.74-.1.1-.16.22-.16.36v3.73l.14.34.34.15h4.3l.34-.15.14-.34h-.5Z"/>
      <path class="cls-2" d="M27.12,35.8v4.33c0,.14.05.25.14.35.1.1.21.14.35.14.14,0,.25-.05.35-.14.1-.1.14-.21.14-.35v-4.33c0-.14-.05-.25-.14-.35-.1-.1-.21-.14-.35-.14s-.25.05-.35.14c-.1.1-.14.21-.14.35"/>
      <polygon class="cls-2" points="22.49 40.13 22.49 39.64 20.85 39.64 20.85 37.42 22.01 37.42 22.01 40.13 22.49 40.13 22.49 39.64 22.49 40.13 22.98 40.13 22.98 36.93 22.85 36.58 22.49 36.45 20.36 36.45 20.01 36.58 19.88 36.93 19.88 40.13 20.01 40.48 20.36 40.61 22.49 40.61 22.85 40.48 22.98 40.13 22.49 40.13"/>
      <polygon class="cls-2" points="34.86 40.13 34.86 39.64 33.2 39.64 33.2 37.42 34.37 37.42 34.37 40.13 34.86 40.13 34.86 39.64 34.86 40.13 35.34 40.13 35.34 36.93 35.2 36.58 34.86 36.45 32.71 36.45 32.37 36.58 32.23 36.93 32.23 40.13 32.38 40.48 32.71 40.61 34.86 40.61 35.2 40.48 35.34 40.13 34.86 40.13"/>
      <path class="cls-2" d="M47.09,40.13v-.47h-3.81v-3.25h-.48l.31.36-.1-.11.1.12-.1-.11.1.12c.55-.38,1.17-.54,1.83-.5.49,0,.97.08,1.42.26.12.05.23.11.33.18l.06.05.1-.13-.11.12.1-.13-.11.12.32-.36h-.49v3.73h.98v-3.73c0-.14-.06-.26-.17-.36-.75-.48-1.56-.72-2.45-.72-.89,0-1.71.24-2.45.72-.11.09-.17.22-.17.36v3.73l.15.34.34.15h4.29l.34-.15.15-.34h-.5Z"/>
      <path class="cls-2" d="M44.45,35.8v4.33c0,.14.05.25.14.35.1.1.21.14.35.14.14,0,.25-.05.35-.14.1-.1.14-.21.14-.35v-4.33c0-.14-.05-.25-.14-.35-.1-.1-.21-.14-.35-.14s-.25.05-.35.14c-.1.1-.14.21-.14.35"/>
      <polygon class="cls-2" points="39.83 40.13 39.83 39.64 38.17 39.64 38.17 37.42 39.34 37.42 39.34 40.13 39.83 40.13 39.83 39.64 39.83 40.13 40.31 40.13 40.31 36.93 40.17 36.58 39.83 36.45 37.69 36.45 37.35 36.58 37.2 36.93 37.2 40.13 37.35 40.48 37.69 40.61 39.83 40.61 40.17 40.48 40.31 40.13 39.83 40.13"/>
      <polygon class="cls-2" points="52.19 40.13 52.19 39.64 50.54 39.64 50.54 37.42 51.69 37.42 51.69 40.13 52.19 40.13 52.19 39.64 52.19 40.13 52.68 40.13 52.68 36.93 52.53 36.58 52.19 36.45 50.05 36.45 49.7 36.58 49.56 36.93 49.56 40.13 49.7 40.48 50.05 40.61 52.19 40.61 52.53 40.48 52.68 40.13 52.19 40.13"/>
      <path class="cls-2" d="M27.32,8.16H7.04c-.2,0-.35.09-.44.27l-3.39,7.09c-.06.12-.06.24-.02.37s.13.22.24.28c.12.06.24.07.37.02.13-.04.22-.13.28-.25l3.27-6.81h19.97c.14,0,.25-.05.35-.14.1-.1.14-.21.14-.35s-.05-.25-.14-.35c-.1-.1-.21-.14-.35-.14h0Z"/>
      <path class="cls-2" d="M26.34,9.13h21.57l3.28,6.81c.06.12.15.2.28.25.13.04.25.04.37-.02.12-.06.2-.15.25-.28.04-.13.04-.25-.02-.37l-3.4-7.09c-.09-.18-.23-.27-.43-.27h-21.89c-.14,0-.25.05-.35.14-.1.1-.14.21-.14.35s.05.25.14.35c.1.1.21.14.35.14"/>
      <polygon class="cls-2" points="30.17 47.6 30.17 47.12 25.04 47.12 24.7 47.25 24.55 47.6 24.55 54.72 24.7 55.07 25.04 55.21 30.17 55.21 30.51 55.07 30.65 54.72 30.65 47.6 30.51 47.25 30.17 47.12 30.17 47.6 29.68 47.6 29.68 54.23 25.52 54.23 25.52 48.09 30.17 48.09 30.17 47.6 29.68 47.6 30.17 47.6"/>
      <polygon class="cls-2" points="39.57 47.6 39.57 47.12 34.44 47.12 34.09 47.25 33.95 47.6 33.95 54.72 34.09 55.07 34.44 55.21 39.57 55.21 39.91 55.07 40.05 54.72 40.05 47.6 39.91 47.25 39.57 47.12 39.57 47.6 39.08 47.6 39.08 54.23 34.92 54.23 34.92 48.09 39.57 48.09 39.57 47.6 39.08 47.6 39.57 47.6"/>
      <polygon class="cls-2" points="20.78 47.6 20.78 47.12 15.65 47.12 15.31 47.25 15.16 47.6 15.16 54.72 15.31 55.07 15.65 55.21 20.78 55.21 21.12 55.07 21.26 54.72 21.26 47.6 21.12 47.25 20.78 47.12 20.78 47.6 20.29 47.6 20.29 54.23 16.14 54.23 16.14 48.09 20.78 48.09 20.78 47.6 20.29 47.6 20.78 47.6"/>
      <polygon class="cls-2" points="11.38 47.6 11.38 47.12 6.26 47.12 5.91 47.25 5.78 47.6 5.78 54.72 5.91 55.07 6.26 55.21 11.38 55.21 11.73 55.07 11.87 54.72 11.87 47.6 11.73 47.25 11.38 47.12 11.38 47.6 10.89 47.6 10.89 54.23 6.75 54.23 6.75 48.09 11.38 48.09 11.38 47.6 10.89 47.6 11.38 47.6"/>
      <polygon class="cls-2" points="48.95 47.6 48.95 47.12 43.83 47.12 43.48 47.25 43.34 47.6 43.34 54.72 43.48 55.07 43.83 55.21 48.95 55.21 49.3 55.07 49.44 54.72 49.44 47.6 49.3 47.25 48.95 47.12 48.95 47.6 48.47 47.6 48.47 54.23 44.31 54.23 44.31 48.09 48.95 48.09 48.95 47.6 48.47 47.6 48.95 47.6"/>
      <path class="cls-2" d="M19.54,8.49l-1.81-5.36-.25-.28-2.41-1.08h-.39l-2.41,1.08-.26.28-1.81,5.36c-.05.13-.04.25.02.37.06.12.15.2.28.24.13.04.25.03.37-.03.12-.06.2-.15.25-.28l1.75-5.16,2.02-.89,2.01.89,1.76,5.16c.04.13.12.22.24.28.12.06.24.07.37.03.13-.04.22-.12.28-.24.06-.12.07-.24.03-.37Z"/>
      <path class="cls-2" d="M45.04,8.49l-1.82-5.36-.25-.28-2.41-1.08h-.39l-2.41,1.08-.26.28-1.81,5.36c-.05.13-.04.25.02.37.06.12.15.2.28.24.13.04.25.03.37-.03.12-.06.2-.15.25-.28l1.75-5.16,2.02-.89,1.96.89,1.76,5.16c.04.13.12.22.24.28.12.06.24.07.37.03.13-.04.22-.12.28-.24.06-.12.07-.24.03-.37h.05Z"/>
      <rect class="cls-1" x="0" width="55.21" height="55.21"/>
    </g>
  </g>
</svg>