<?xml version="1.0" encoding="UTF-8"?>
<svg id="Capa_2" data-name="Capa 2" xmlns="http://www.w3.org/2000/svg" viewBox="0 0 38.15 101.43">
  <defs>
    <style>
      .cls-1, .cls-2, .cls-3, .cls-4, .cls-5, .cls-6, .cls-7 {
        stroke-width: 0px;
      }

      .cls-1, .cls-3, .cls-6 {
        fill-rule: evenodd;
      }

      .cls-1, .cls-7 {
        fill: #00352b;
      }

      .cls-2 {
        fill: none;
      }

      .cls-3, .cls-5 {
        fill: #cad9d7;
      }

      .cls-4 {
        fill: #1e1e1c;
      }

      .cls-6 {
        fill: #7d6fb0;
      }
    </style>
  </defs>
  <g id="text_i_icones" data-name="text i icones">
    <g>
      <path class="cls-3" d="M16.19,70.66c-.17-.38-.53-.9.1-1.53.31-.26.48-.59.5-.99,1.54-.27,3.06-.2,4.56.21.1.3.27.57.5.79.35.45.4.93.15,1.44-1.95-.47-3.88-.44-5.82.1"/>
      <path class="cls-1" d="M15.9,70.83l-.05-.11c-.2-.29-.28-.6-.24-.95.05-.35.2-.63.47-.86.14-.13.25-.29.34-.47l.06-.25c0-.21.1-.33.31-.35.73-.1,1.47-.15,2.21-.15.87-.01,1.71.11,2.54.37l.22.21.03.08c.08.23.22.42.39.59l.17.23.11.28c.12.44.09.87-.1,1.29-.08.19-.21.26-.41.21-.3-.08-.6-.14-.9-.19-.31-.05-.64-.08-.9-.1-1.29-.08-2.56.06-3.81.39-.1.04-.19.04-.29,0-.09-.04-.16-.12-.19-.22h.03ZM16.55,69.4c-.12.11-.2.24-.23.4-.03.16,0,.31.08.46,1.24-.3,2.49-.42,3.76-.34.32,0,.64.05.96.1.22.03.44.08.64.13.05-.17.05-.35,0-.52l-.05-.12-.07-.08c-.23-.21-.4-.47-.51-.75-.7-.2-1.42-.3-2.15-.3-.62,0-1.23.05-1.84.13l-.07.21c-.12.27-.28.5-.49.7"/>
      <path class="cls-3" d="M19.73,11.83c.05-.25.04-1.62.56-1.29.37.21.69.43.83-.15.14-.59.57-1.29.49-1.87-.04-.34-.12-.81,0-1,.6-.88,1.27,1.45,1.19.1-.03-.48.11-1.34.1-1.72-.93-.47-1.67-1.15-2.21-2.06-.11-.24-.57-.32-.5-.53.08-.21.43-.09.38-.82-.04-.73-.12-1.22-.58-1.23s-.79.08-.9.64c-.11.56,0,.94-.15.97-.69.19-.76-.56-1.27-.64-.39-.13-.72-.34-1-.64-.33-.38-.69-.74-1.07-1.08-.22-.14-.85-.41-.57-.08.56.64-.14.44.25.9.16.19.18.54.39.53.2-.01.71.28.67.68-.03.43-.14.84-.33,1.23-.16.14-.09.64.18.93.27.28.88,1.06,1.18.33.29-.73.11.13.06.52-.05.39-.64,1.29-.64,1.84s0,1.29-.05,1.44c-.06.38.07.68.38.89.39.26,1.22.22,1.27.49.06.22.04.44-.06.64-.17.37-.18.75-.04,1.13.17.37,1.4,0,1.43-.14"/>
      <path class="cls-1" d="M19.44,11.79v-.03.03ZM20,11.87c-.06.17-.17.28-.34.34-.18.08-.37.13-.56.17-.21.04-.42.04-.64,0-.2-.03-.35-.14-.44-.32-.13-.32-.16-.66-.08-1l.04-.18.06-.14.07-.29v-.14s-.18,0-.38-.06c-.26-.04-.51-.12-.75-.24-.32-.22-.5-.52-.52-.91v-1.66c.06-.44.19-.85.4-1.24.09-.2.17-.38.22-.52l-.34-.06c-.25-.13-.46-.31-.64-.53l-.1-.11c-.16-.19-.25-.4-.29-.64-.05-.22,0-.42.11-.61l.03-.03c.1-.2.16-.42.19-.64v-.35l-.13-.39-.24-.12c-.31,0-.41-.2-.51-.45l-.08-.17c-.32-.37-.21-.53-.09-.7-.05-.07-.1-.14-.16-.2l-.12-.21v-.06c-.02-.09,0-.17.05-.24s.13-.11.22-.11h.22c.21.06.4.14.58.26.36.31.7.64,1.01,1l.09.1c.18.18.38.33.6.45l.13.05h.09c.26.05.47.18.64.4.13.14.26.28.5.22l-.12-.09c0-.22.02-.43.06-.64.04-.31.19-.55.46-.71.23-.12.48-.16.74-.14.37,0,.6.17.7.54.1.32.16.64.16.97,0,.56-.13.75-.29.87l.36.34c.49.85,1.18,1.5,2.05,1.93.12.06.18.1.18.27,0,.25-.02.5-.04.75-.04.3-.06.61-.06.92.04.52-.08.72-.31.74-.23.01-.32-.15-.48-.35l-.32-.35-.13.05c-.03.24-.02.48.03.72v.08c.01.49-.09.96-.31,1.41-.08.21-.15.4-.19.57-.13.55-.39.64-.73.57l-.46-.21c-.09.27-.14.55-.15.84v.22l.02.08ZM19.45,11.73c-.14.05-.28.09-.43.12h-.46c-.07-.21-.09-.43-.04-.64l.03-.12.03-.09c.07-.17.11-.35.12-.54v-.26c-.08-.33-.43-.4-.82-.48-.2-.03-.39-.09-.57-.17-.16-.12-.25-.28-.26-.48v-.11c.04-.29.05-.58.04-.88v-.62c.06-.36.18-.7.35-1.03.12-.24.22-.49.29-.75v-.05l.05-.3c.03-.17.05-.34.04-.51l-.17-.3c-.18-.07-.36.03-.52.45l-.11.11-.47-.4-.12-.12-.15-.34v-.15c.2-.3.31-.62.36-.98l.03-.21v-.31c-.02-.27-.14-.48-.35-.64-.16-.13-.34-.21-.54-.25h-.08v-.1l-.15-.28h-.06l.12-.32c.22.19.59.6.79.82l.09.1c.22.22.47.41.75.56l.2.08.19.05.3.21c.12.17.27.3.47.37.2.07.39.07.59.01.29-.08.3-.3.31-.64,0-.18.01-.37.04-.55,0-.14.07-.25.18-.33.14-.06.29-.08.44-.06l.2.17c.07.26.11.53.11.8,0,.33-.06.37-.12.41l-.25.29c-.12.34.1.47.34.64l.17.13c.52.92,1.25,1.62,2.17,2.1,0,.15,0,.34-.04.53-.04.19-.05.53-.06.76l-.22-.21c-.15-.13-.32-.17-.51-.13-.19.04-.33.15-.41.33-.14.36-.16.74-.07,1.12v.08c0,.4-.1.77-.27,1.13-.09.21-.16.42-.22.64l-.04.15-.31-.15-.05-.03c-.13-.1-.27-.12-.42-.08-.15.05-.26.14-.31.29-.14.35-.22.71-.22,1.09l.03.06ZM17.4,5l.05.03h-.04v-.03Z"/>
      <path class="cls-3" d="M17.13,13.96c-1.18-3.52,5.22-3.34,3.86.09-1.28-.2-2.57-.23-3.86-.09"/>
      <path class="cls-1" d="M16.79,14.1c-.19-.42-.24-.85-.14-1.3.09-.45.31-.83.65-1.14.26-.2.55-.36.87-.46.32-.1.64-.15.97-.14.33,0,.65.07.96.19s.59.29.85.5c.32.32.52.71.59,1.16.07.45,0,.88-.21,1.29-.07.18-.2.26-.39.22h-.05c-.18-.03-.36-.06-.55-.08-.19,0-.38-.05-.56-.05-.87-.07-1.73-.05-2.6.05-.2,0-.32-.08-.37-.28v.03ZM17.76,12.18c-.42.39-.55.85-.37,1.4.81-.07,1.62-.07,2.43,0l.58.05.36.05c.2-.53.1-1-.3-1.4-.38-.33-.83-.5-1.33-.5-.51-.03-.96.11-1.36.43"/>
      <path class="cls-3" d="M16.13,20.74l-.04-.1c-.16-.3-.26-.63-.31-.97-.03-.31-.13-.59-.31-.84l-.37-.49c-.1-.05-.28-.25,0-.26s.36-.14.24-.34c-.55-.9,0-1.97.75-2.84.35-.38.72-.73,1.11-1.06,1.31-.13,2.61-.1,3.91.1.35.3.68.62.99.95.75.86,1.3,1.93.75,2.84-.13.21-.04.34.24.34s.1.21,0,.26l-.38.49c-.18.25-.28.53-.31.84-.04.34-.14.67-.31.97l-.07.16c-1.96-.37-3.92-.39-5.88-.06"/>
      <path class="cls-1" d="M15.8,20.89l-.04-.08c-.18-.34-.29-.71-.33-1.1v-.1l.37,1.28ZM16.13,19.66c.03.24.1.48.21.7,1.27-.19,2.54-.25,3.81-.16.31,0,.64.05.95.1l.7.12c.12-.23.19-.47.23-.73.02-.3.1-.57.24-.83l.04-.08v-.04l.05-.07v-.04l.1-.13.11-.15-.13-.15-.06-.26.11-.34c.13-.28.18-.57.15-.88-.03-.31-.15-.58-.34-.82l-.24-.37-.27-.34c-.22-.25-.46-.48-.71-.7l-.12-.12-.04-.04c-.63-.09-1.27-.15-1.91-.15-.56-.01-1.13,0-1.69.06-.16.14-.43.37-.67.64l-.17.16-.13.14c-.5.5-.8,1.1-.88,1.81l.04.31.12.28.11.33-.06.26-.13.15.11.15.09.13c.14.2.25.41.32.64l.04.18v.19l.04.03ZM15.38,19.45l.42,1.44c.07.17.2.24.38.21,1.3-.22,2.61-.28,3.92-.19.3,0,.64.05.9.09.26.04.6.09.9.15.2.05.34-.02.41-.22l.06-.14c.17-.33.28-.69.33-1.06v-.03c.01-.18.07-.36.16-.52v-.05l.13-.19.13-.19.21-.16.15-.34-.16-.34-.18-.08c.15-.38.2-.77.15-1.17-.05-.4-.2-.77-.43-1.09l-.28-.42-.3-.38c-.24-.27-.5-.52-.76-.76l-.12-.12-.11-.1-.18-.08c-.7-.11-1.4-.17-2.11-.18-.63-.01-1.25.01-1.87.08l-.2.08c-.15.12-.49.43-.79.73l-.18.18-.15.17c-.63.63-.99,1.39-1.07,2.29,0,.17.02.33.06.5l.11.3-.19.1-.05.05-.1.26.06.24.29.26.11.19.13.19c.08.12.14.25.18.39l.03-.1ZM21.32,13.69l.09.12-.09-.12ZM21.58,13.9v.5-.5ZM23.13,17.9h.04-.04ZM23.08,17.9h-.64.64ZM22.53,17.55l.44.28h.03l.06.05-.54-.32Z"/>
      <path class="cls-3" d="M16.74,35.03c-.21-.38-.3-.79-.25-1.23v-1.86l.13-.22c.64-.61-.41-5.64-.79-6.29l-.04-.07-.15-.21c-.27-.37-1.23-1.06-.58-1.35.65-.29,1.11-.47,1.45-.31.34.16.32.25.6-.06.15-.22.19-.46.12-.72-.07-.26-.22-.45-.46-.57-.53-.36-.64-.24-.55-.83.02-.2.02-.39,0-.59,1.91-.32,3.82-.3,5.72.06-.02.17-.02.35,0,.52.07.59,0,.46-.55.83-.24.12-.39.31-.45.57-.07.26-.03.5.12.72.27.31.25.22.6.06.35-.16.79,0,1.44.31s-.31.99-.58,1.35l-.15.21-.06.08c-.37.64-1.42,5.68-.78,6.29l.12.22v1.86c.06.46-.03.89-.27,1.29-1.55-.23-3.1-.25-4.66-.04"/>
      <path class="cls-7" d="M21.62,35.46h-.2c-1.52-.23-3.04-.24-4.56-.03h-.21l-.12-.17c-.26-.45-.36-.92-.32-1.44v-1.84c.02-.19.1-.35.24-.48.4-.53-.46-5.19-.85-5.85l-.18-.26-.25-.26c-.32-.34-.7-.72-.64-1.15.06-.24.2-.4.43-.48.74-.34,1.27-.52,1.73-.31l.15.08.04-.05.06-.25c-.04-.21-.15-.38-.33-.49l-.27-.17c-.42-.25-.5-.43-.43-.99.02-.17.02-.33,0-.5l-.05-.35.34-.05c1.95-.33,3.9-.31,5.85.06l.31.06-.03.32c-.02.15-.02.3,0,.45.06.56,0,.74-.43.99l-.27.16c-.18.11-.29.28-.33.5l.06.25.05.06.15-.08c.44-.21.99,0,1.74.31.23.08.37.24.42.48.08.43-.29.81-.64,1.15l-.24.26-.15.19c-.42.72-1.27,5.38-.88,5.91.12.12.19.26.23.42v1.9c.06.54-.06,1.04-.36,1.49l-.08.15ZM19,34.54c.74,0,1.47.05,2.21.15.09-.28.13-.57.12-.87v-1.87c-.9-.8.38-6.13.71-6.68l.07-.1.15-.22.31-.34.41-.48c-.55-.25-.95-.41-1.16-.32l-.14.07-.34.11c-.23-.02-.4-.13-.53-.33-.2-.23-.28-.5-.24-.81.06-.43.27-.76.64-.99l.3-.19.13-.08-.03-.22v-.28c-1.66-.28-3.33-.3-5-.05v.33c0,.08,0,.17,0,.25l.11.05.31.19c.36.23.57.56.64.99.04.31-.03.58-.24.81-.13.19-.31.3-.53.33l-.34-.11-.14-.07c-.21-.1-.64.08-1.15.31l.41.48.3.34.23.33c.32.55,1.6,5.88.72,6.72v1.83c-.01.29.02.56.1.84.69-.08,1.37-.12,2.07-.12"/>
      <path class="cls-3" d="M16.78,68.25v-33.39c1.53-.2,3.06-.19,4.59.03v33.48c-1.52-.26-3.05-.3-4.59-.12"/>
      <path class="cls-1" d="M16.42,68.23v-33.37c0-.21.1-.33.31-.35l.55-.06.6-.05c1.18-.07,2.35-.02,3.52.15.22.03.32.16.3.39v33.45c0,.1-.03.18-.1.25-.07.07-.15.11-.25.11h-.07c-.78-.16-1.56-.23-2.36-.23-.75,0-1.48.05-2.14.1-.1,0-.18-.02-.26-.08-.07-.06-.12-.15-.12-.24l.02-.05ZM17.13,35.19v32.68c.56-.04,1.17-.07,1.82-.07.69,0,1.39.05,2.07.16v-32.77c-1.02-.13-2.04-.17-3.07-.1l-.58.05-.24.06Z"/>
      <polygon class="cls-3" points="10.1 82.01 9.85 81.91 9.85 80.05 10.41 80.05 27.73 80.05 28.3 80.05 28.3 81.91 28.05 82.01 10.1 82.01"/>
      <path class="cls-1" d="M9.94,82.34l-.23-.1-.22-.35v-1.84c0-.1.03-.18.1-.25.07-.07.15-.11.25-.11h18.43c.1,0,.18.04.25.11s.1.16.1.26v1.86l-.22.33-.25.11H9.94ZM10.2,80.4v1.25h17.75v-1.25H10.2Z"/>
      <path class="cls-3" d="M7.84,90.73v-.47l.17-.29c.06-.1-.18-.41-.1-.61.08-.2.14-.23.08-.41-.06-.19.06-.64-.11-.74-.09-.07-.14-.16-.14-.28s.05-.21.14-.28c.2-.1.89-.16.89-.46,0-.38.06-.75.18-1.12.12-.32.41-.27.41-.54s-.35-.74-.1-1.13c.25-.39.48-.55.76-.57.28-.02,0-.06.04-.74v-1.06h17.93c-.02.35-.02.71,0,1.06.04.68-.24.74.04.74.28,0,.5.19.76.57.26.39-.1.85-.1,1.13s.29.22.41.54c.11.36.17.73.17,1.12,0,.3.69.37.89.46.1.07.14.16.14.28,0,.12-.05.21-.14.28-.17.1-.04.56-.1.74-.06.18,0,.21.08.41.08.21-.15.52-.1.61l.17.29v.47H7.84Z"/>
      <path class="cls-1" d="M7.48,90.73v-.47l.06-.2.11-.19c-.11-.21-.12-.42-.04-.64l.05-.12v-.44l.08-.14-.23-.26-.06-.34.1-.33.25-.23.31-.1c.17-.05.37,0,.37-.05,0-.2.02-.4.04-.6v-.11c.03-.18.08-.36.14-.53.07-.19.2-.34.37-.45l-.09-.28c-.16-.36-.15-.7.05-1.04.13-.2.28-.37.46-.52l.31-.16c-.01-.15-.01-.31,0-.46v-1.03c0-.1.03-.19.1-.26.07-.07.15-.11.25-.11h17.94c.1,0,.18.03.25.1.07.07.1.15.1.25v1.03c.01.15.01.31,0,.46l.31.16c.18.15.33.32.45.52.21.37.21.75,0,1.12l-.05.18c.18.1.3.25.37.45l.05.16.04.18c.06.29.09.59.09.88,0,.06.22,0,.37.05l.32.1.25.23v.03l.08.31-.07.34-.23.26.08.14v.45l.06.12v.05c.05.21.03.42-.06.61l.13.21.04.19v.47c0,.1-.03.18-.1.25s-.15.1-.25.1H7.84c-.1,0-.18-.03-.25-.1-.07-.07-.1-.15-.1-.25M8.19,90.36h21.77l-.13-.21c-.1-.18-.1-.35,0-.53l.06-.12-.04-.1c-.12-.18-.13-.37-.04-.56v-.17c-.06-.27.01-.52.2-.72l-.12-.03c-.39-.1-.9-.24-.9-.74,0-.25-.03-.49-.08-.74l-.03-.13v-.1l-.11-.12c-.23-.11-.34-.3-.32-.55l.1-.43c.06-.17.13-.37.06-.48-.08-.13-.18-.24-.29-.34l-.19-.08c-.37,0-.48-.09-.46-.43v-.16c.05-.16.06-.32.05-.49v-.7H10.47v.7c-.01.17,0,.33.05.49v.16c0,.34-.09.41-.46.43l-.19.08c-.11.1-.21.21-.29.34v.41c.07.16.11.34.13.52.01.26-.09.44-.32.55l-.11.12-.1.38v.09c-.02.17-.04.33-.04.5,0,.5-.51.65-.9.74l-.11.03c.19.21.25.45.19.72v.17c.08.2.06.38-.05.56l-.04.1.06.12c.1.18.1.35,0,.53l-.09.18ZM7.65,89.87l.05-.08-.07.09h.02ZM8.51,86.46l.41-.29c-.23-.04-.37.06-.41.29M30.53,89.88l-.06-.09.04.08h.02Z"/>
      <polygon class="cls-3" points="6.92 93.35 5.94 93.35 5.94 90.73 7.84 90.73 30.31 90.73 31.52 90.73 32.2 90.73 32.2 93.35 31.81 93.35 31.23 93.35 6.92 93.35"/>
      <path class="cls-1" d="M6.94,93.71h-.98c-.1,0-.18-.04-.25-.11-.07-.07-.1-.16-.1-.26v-2.61c0-.1.03-.18.1-.26.07-.07.15-.11.25-.11h26.26c.1,0,.18.04.25.11.07.07.1.16.1.26v2.58c0,.1-.03.18-.1.26-.07.07-.15.11-.25.11H6.92v.03ZM6.3,92.98h25.56v-1.9H6.3v1.9Z"/>
      <rect class="cls-5" x="5.33" y="93.35" width="27.49" height="1.93"/>
      <path class="cls-1" d="M4.98,95.28v-1.93c0-.1.03-.18.1-.26.07-.07.15-.11.25-.11h27.49c.23,0,.35.12.36.36v1.93c0,.1-.04.18-.11.25-.07.07-.15.1-.25.1H5.33c-.1,0-.18-.03-.25-.1-.07-.07-.1-.15-.1-.25M5.69,93.71v1.21h26.75v-1.21H5.69Z"/>
      <rect class="cls-5" x="2.46" y="95.28" width="33.23" height="1.79"/>
      <path class="cls-1" d="M2.11,97.02v-1.75c0-.1.03-.18.1-.25.07-.07.15-.11.25-.11h33.23c.1,0,.18.04.25.11.07.07.1.16.1.26v1.77c0,.1-.03.18-.1.26-.07.07-.15.11-.25.11H2.46c-.1,0-.18-.04-.25-.11-.07-.07-.1-.15-.1-.25v-.02ZM2.82,96.37v.34h32.52v-1.07H2.82v.74Z"/>
      <path class="cls-4" d="M14.68,72.08l.17.57h.06l.34-.29.04-.45-.29-.35-.44-.05h-.06c-.16.05-.27.14-.35.28-.08.14-.09.29-.04.45.05.16.14.27.28.35.14.08.29.09.44.05l-.17-.57.17.57h.06l.34-.29.04-.44-.29-.35-.44-.05h-.06c-.16.05-.27.14-.35.28-.08.14-.09.29-.04.45.05.16.14.27.28.35s.29.09.44.05l-.17-.57Z"/>
      <path class="cls-6" d="M15.32,70.81c-.08-.21-.11-.45.31-.19l-.31.19Z"/>
      <path class="cls-4" d="M15.32,70.81l.55-.21v-.05l-.18.05h.18v-.05l-.18.05h-.28l.37.28.1-.28h-.46l.37.28-.4-.3v.51l.4-.21-.4-.3v.22l-.11.28h.11v-.29l-.11.28.08.05.31-.5-.3-.51-.31.19.3.5.55-.21-.55.21.31.5.31-.19c.19-.11.28-.28.28-.5,0-.22-.08-.39-.27-.5-.18-.13-.37-.2-.58-.21-.22,0-.39.09-.53.26-.1.13-.14.27-.14.43,0,.14.03.28.09.41.06.17.18.29.35.35.17.06.34.04.5-.06l-.32-.49Z"/>
      <path class="cls-3" d="M22.48,70.6l.37-.26c.41-.24.68-.6.8-1.06.1-.23.1-.47,0-.7-.41-.64-.17.38-.73-.08-.47-.72-.77-1.5-.91-2.35-.03-.3-.03-.61,0-.91h1c.21,1.01.65,1.9,1.32,2.67.64.57.6,2.39,0,2.91-.6.53-.46.82-.53,1.5.57.7,1,1.47,1.32,2.32v1.48h.55v1.17h1.72c.05,0,.09.09.19.3.08.18.21.3.4.37.18.07.36.06.54-.02.36-.23.46-.08.28.38-.18.46-1.07.81-1.07.81v.93H10.42v-.93s-.89-.35-1.07-.81-.08-.61.28-.38c.64.41.82-.39,1.12-.64h1.72v-1.18h.55v-1.45c.29-.79.78-2.03,1.51-2.5-.1-.7.13-.95-.54-1.55-.67-.6-.6-2.35,0-2.91.49-.78.85-1.61,1.1-2.5h1.27c.02.24.02.49,0,.73-.13.86-.43,1.65-.91,2.37-.56.46-.32-.56-.72.09-.11.23-.11.46,0,.7.12.47.39.82.81,1.06.18.09.34.21.47.37,1.83-.35,4.78-.76,6.51.07"/>
      <path class="cls-1" d="M22.75,70.81l-.4.07c-.99-.39-2-.53-3.06-.44-1.09.05-2.16.18-3.23.4l-.36-.14-.22-.19-.06-.04-.07-.04c-.48-.25-.8-.65-.95-1.17v-.06c-.09-.21-.12-.42-.1-.64l.04-.16.06-.14v-.04c.27-.44.5-.47.72-.33l.12.12c.26-.45.47-.93.6-1.43l.1-.36.04-.26v-.37h-.64c-.21.65-.47,1.29-.78,1.9l-.16.28-.15.19-.08.1c-.19.34-.28.71-.26,1.1-.03.42.07.8.31,1.14v.03c.47.32.68.77.64,1.34,0,.14,0,.28,0,.43l-.16.35c-.35.26-.62.59-.81.99-.21.42-.39.85-.54,1.29v1.37c0,.1-.04.18-.11.25s-.15.1-.25.1h-.2v.83c0,.1-.04.18-.11.25-.07.07-.15.1-.25.1h-1.56l-.08.11c-.24.34-.48.71-.92.64.2.15.41.27.64.36l.25.35v.58h16.56v-.56l.23-.34c.26-.11.5-.25.72-.42-.17.01-.33-.01-.48-.08-.21-.09-.38-.24-.51-.43l-.04-.08v-.05h.09-1.66c-.1,0-.18-.04-.25-.11-.07-.07-.1-.16-.1-.26v-.9h-.19c-.1,0-.18-.03-.25-.1-.07-.07-.1-.15-.1-.25v-1.42c-.24-.59-.53-1.15-.86-1.7l-.19-.26-.13-.14-.13-.33v-.39c-.05-.57.17-1.02.64-1.34l.03-.04c.22-.34.32-.72.3-1.13.03-.43-.07-.82-.31-1.17l-.04-.04c-.52-.56-.9-1.21-1.14-1.93-.06-.15-.11-.31-.16-.47l-.06-.19h-.39v.52c.11.63.3,1.23.59,1.8l.13.24v.04l.11-.1c.23-.15.45-.12.72.33.14.25.17.52.1.8l-.03.12-.04.1v.06c-.15.52-.46.91-.93,1.17l-.22.14h-.03l-.02.04ZM22.42,70.19l.27-.17c.3-.18.49-.43.58-.77l.04-.11v-.15c-.17.09-.38.08-.68-.18l-.2-.25-.17-.3c-.31-.65-.52-1.34-.64-2.06v-.32c0-.22,0-.43.03-.64,0-.1.05-.17.12-.23.07-.06.15-.09.25-.08h.98c.19,0,.3.09.34.28l.11.43.15.42c.2.62.52,1.16.96,1.64l.1.1c.31.49.47,1.03.47,1.61s-.16,1.12-.47,1.61l-.1.1c-.29.2-.42.47-.39.83v.28l.1.1.23.32c.38.6.7,1.24.96,1.9v1.24h.2c.1,0,.18.04.25.11.07.07.1.15.1.25v.81h1.37c.27,0,.33.14.48.45v.05l.21.17h.2l.4-.17.36.12.15.33c0,.18-.04.36-.11.53-.25.42-.6.72-1.04.91v.7c0,.1-.04.18-.11.25-.07.07-.15.1-.25.1H10.42c-.1,0-.18-.03-.25-.1-.07-.07-.1-.15-.1-.25v-.7c-.44-.19-.79-.49-1.04-.91-.08-.17-.11-.34-.11-.53l.14-.33.36-.12.41.17c.16.1.29-.08.41-.26l.3-.37.23-.09h1.35v-.83c0-.23.13-.35.36-.35h.19v-1.08l.03-.14c.17-.48.37-.95.6-1.4.22-.43.5-.81.86-1.12v-.3c.03-.35-.1-.62-.39-.81l-.09-.09c-.35-.48-.51-1.02-.48-1.63-.01-.54.12-1.04.38-1.5l.19-.23.06-.07.12-.22c.32-.66.59-1.34.81-2.04l.34-.25h1.27c.22,0,.34.11.35.34v.82l-.06.35-.11.41c-.17.66-.46,1.27-.87,1.81-.3.25-.51.26-.67.18l.04.18.04.1c.09.34.29.6.59.77l.1.06.1.06.23.18c1.05-.2,2.11-.33,3.18-.37,1.09-.08,2.15.06,3.18.42M27.4,77.64h-.11.11Z"/>
      <polygon class="cls-3" points="19.07 101.03 .44 101.03 .44 100.29 2.27 97.07 35.88 97.07 37.71 100.29 37.71 101.03 19.07 101.03"/>
      <path class="cls-1" d="M19.09,101.39H.44c-.1,0-.18-.04-.25-.11-.07-.07-.1-.16-.1-.26v-.75l.06-.21,1.82-3.19.31-.18h33.61l.32.21,1.82,3.22.04.18v.75c0,.1-.03.18-.1.26-.07.07-.15.11-.25.11h-18.62v-.03ZM.8,100.67h36.56v-.3l-1.68-2.95H2.47l-1.68,2.95v.3Z"/>
      <rect class="cls-2" width="38.15" height="101.39"/>
    </g>
  </g>
</svg>