<?xml version="1.0" encoding="UTF-8"?>
<svg id="Capa_2" data-name="Capa 2" xmlns="http://www.w3.org/2000/svg" viewBox="0 0 71.37 100.39">
  <defs>
    <style>
      .cls-1 {
        fill: #00352b;
      }

      .cls-1, .cls-2, .cls-3 {
        stroke-width: 0px;
      }

      .cls-1, .cls-3 {
        fill-rule: evenodd;
      }

      .cls-2 {
        fill: none;
      }

      .cls-3 {
        fill: #cad9d7;
      }
    </style>
  </defs>
  <g id="text_i_icones" data-name="text i icones">
    <g>
      <path class="cls-1" d="M9.99.27l3.1,5.58,3.09,5.58c.1.21.06.37-.15.49l-.18.05H3.5c-.1,0-.19-.03-.26-.1-.07-.07-.11-.15-.11-.25l.05-.18,3.09-5.57L9.35.29c.05-.09.12-.14.21-.17s.19-.02.27.03l.16.13ZM12.46,6.2l-2.78-5.02-2.76,4.99-2.8,5.06h11.16l-2.82-5.03Z"/>
      <path class="cls-1" d="M16.46,14.52l.7-2.57H2.2l.69,2.57v3.01h13.54v-3.01h.03ZM17.98,11.67l-.81,2.97v3.19c0,.1-.03.19-.1.26-.07.07-.15.11-.26.11H2.55c-.1,0-.19-.04-.26-.11s-.1-.16-.1-.26v-3.19l-.8-2.96v-.11c0-.23.13-.35.36-.36h15.98c.1.02.17.08.22.16.05.09.06.18.04.27"/>
      <path class="cls-1" d="M16.56,14.23l.62-2.31H2.2l.62,2.31h13.73ZM17.98,11.67l-.82,3c-.04.19-.15.29-.35.28H2.55l-.35-.26-.81-3.01v-.11c0-.1.04-.18.11-.25.07-.07.16-.11.25-.11h15.98c.1.02.17.08.22.16s.06.18.04.27"/>
      <path class="cls-1" d="M17.7,20.9l.83-2.77H.84l.83,2.77v5.35h2.38v-2.47c0-.37.11-.69.35-.97.26-.29.58-.43.97-.42.35.01.65.15.88.42.23.26.35.56.35.9v2.49h.34v-2.47c-.02-.37.1-.69.35-.97.24-.28.55-.42.92-.42h.05c.35.01.65.15.88.42.22.25.33.55.33.88v2.49h.33v-2.47c0-.37.11-.69.35-.97.25-.28.55-.41.92-.42h.05c.35.01.65.15.88.42.22.25.33.55.33.88v2.49h.34v-2.47c-.02-.37.1-.69.35-.97.24-.28.55-.42.92-.42.36.01.65.15.88.42.24.25.36.56.35.9v2.5h2.39v-5.36l.11.23ZM19.34,17.87l-.97,3.18v5.55c0,.1-.03.18-.1.25-.07.07-.15.11-.25.11h-3.05c-.1,0-.19-.03-.26-.1-.07-.07-.11-.16-.1-.26v-2.83l-.17-.42-.37-.17-.4.17c-.11.13-.17.28-.17.46v2.82c0,.1-.04.19-.11.26-.07.07-.16.1-.26.1h-1.09c-.1,0-.18-.04-.25-.11-.07-.07-.11-.15-.11-.25v-2.83l-.15-.4-.38-.17-.39.17c-.12.13-.17.28-.17.46v2.82c0,.1-.04.18-.11.25s-.16.11-.25.11h-1.12c-.1,0-.19-.03-.26-.1-.07-.07-.11-.16-.1-.26v-2.83l-.15-.4-.37-.17-.4.17c-.11.13-.17.28-.17.46v2.82c0,.1-.04.18-.11.25-.07.07-.16.11-.25.11h-1.06c-.1,0-.18-.04-.25-.11-.07-.07-.1-.16-.1-.25v-2.83l-.17-.42-.38-.17-.4.17c-.12.13-.17.28-.17.46v2.82c0,.1-.03.19-.1.26-.07.07-.16.11-.26.1H1.35c-.1,0-.18-.04-.25-.11-.07-.07-.1-.16-.1-.25v-5.56L.03,18.01v-.1c-.05-.12-.03-.23.04-.34.08-.1.18-.15.31-.15h18.73c.1.03.17.08.22.17.05.09.06.18.03.28"/>
      <path class="cls-1" d="M17.78,20.65l.75-2.52H.84l.75,2.52h16.19ZM19.34,17.87l-.97,3.22c-.06.17-.17.25-.35.25H1.35c-.19.01-.31-.07-.37-.25L0,17.87v-.11c.02-.23.14-.34.37-.33h18.73c.1.03.17.08.22.17.05.09.06.18.03.28"/>
      <path class="cls-1" d="M1.67,31.8h16.03c.1,0,.18.03.25.1.07.07.11.15.11.25v67.84c0,.1-.04.18-.11.25-.07.07-.16.11-.25.11H1.67c-.22-.02-.32-.14-.32-.36V32.15c0-.1.04-.18.11-.25s.15-.1.25-.1M17.33,32.51H2.03v67.07h15.31V32.51Z"/>
      <polygon class="cls-3" points="17.69 29.4 18.61 26.38 .75 26.38 1.67 29.4 1.67 32.61 17.69 32.61 17.69 29.4"/>
      <path class="cls-1" d="M17.38,29.2l.77-2.53H1.23l.78,2.55v2.96h15.31v-2.87l.07-.13ZM18.96,26.48l-.9,2.91v3.17c0,.1-.03.19-.1.26-.07.07-.16.11-.26.1H1.67c-.1,0-.18-.04-.25-.11-.07-.07-.11-.15-.11-.25v-3.18l-.89-2.91v-.14c0-.1.04-.18.11-.25.07-.07.16-.11.25-.11h17.96c.1.03.17.08.22.17s.06.18.03.28"/>
      <polygon class="cls-3" points="17.69 29.4 18.61 26.38 .75 26.38 1.67 29.4 17.69 29.4"/>
      <path class="cls-1" d="M17.45,29.01l.7-2.29H1.23l.7,2.29h15.52ZM18.96,26.48l-.91,2.98c-.04.19-.16.28-.35.28H1.67l-.34-.25-.91-2.98v-.14c0-.1.03-.18.1-.25.07-.07.15-.11.25-.11h17.97c.1.03.17.08.22.17.05.09.06.18.03.28"/>
      <path class="cls-1" d="M4.41,50.86c0-.21.1-.37.35-.37s.35.16.37.37v2.91c0,.21-.12.37-.37.37s-.34-.16-.35-.37v-2.91M4.41,37.15c0-.21.1-.37.35-.37s.35.16.37.38v2.91c0,.21-.12.37-.37.37s-.34-.16-.35-.37v-2.92ZM14.23,37.15c0-.21.11-.37.36-.37s.34.16.36.38v2.91c0,.21-.11.37-.36.37s-.34-.16-.36-.37v-2.92ZM4.41,64.56c0-.21.1-.37.35-.37s.35.16.37.37v2.91c0,.21-.12.37-.37.37s-.34-.16-.35-.37v-2.91M4.41,78.27c0-.21.1-.37.35-.37s.35.16.37.37v2.91c0,.22-.12.37-.37.37s-.34-.15-.35-.37v-2.91M4.41,91.98c0-.22.1-.37.35-.37s.35.15.37.37v2.91c0,.22-.12.38-.37.38s-.34-.16-.35-.37v-2.92ZM14.23,91.98c0-.22.11-.37.36-.37s.34.15.36.37v2.91c0,.22-.11.38-.36.38s-.34-.16-.36-.37v-2.92ZM14.23,78.27c0-.21.11-.37.36-.37s.34.16.36.37v2.91c0,.22-.11.37-.36.37s-.34-.15-.36-.37v-2.91M14.23,64.56c0-.21.11-.37.36-.37s.34.16.36.37v2.91c0,.21-.11.37-.36.37s-.34-.16-.36-.37v-2.91M14.23,50.86c0-.21.11-.37.36-.37s.34.16.36.37v2.91c0,.21-.11.37-.36.37s-.34-.16-.36-.37v-2.91"/>
      <path class="cls-1" d="M61.93.27l3.09,5.58,3.09,5.58c.05.09.06.18.03.27-.03.09-.09.17-.17.21l-.17.05h-12.38c-.1,0-.18-.04-.25-.11-.07-.07-.11-.15-.11-.25l.05-.18,3.09-5.57,3.08-5.56c.05-.09.12-.14.21-.17.09-.03.19-.02.27.03l.16.13ZM64.39,6.2l-2.75-5.02-2.76,4.99-2.8,5.06h11.16l-2.85-5.03Z"/>
      <path class="cls-1" d="M68.44,14.52l.69-2.57h-15l.7,2.57v3.01h13.55v-3.01h.07ZM69.9,11.67l-.81,2.97v3.19c0,.1-.03.19-.1.26s-.16.11-.26.11h-14.26c-.1,0-.19-.04-.26-.11-.07-.07-.1-.16-.1-.26v-3.19l-.8-2.96v-.11c0-.23.13-.35.36-.36h15.99c.09.03.17.08.22.17.05.09.06.18.04.27"/>
      <path class="cls-1" d="M68.44,14.25l.62-2.31h-14.94l.62,2.31h13.69ZM69.9,11.67l-.81,3c-.05.19-.17.28-.36.28h-14.26l-.35-.26-.81-3.01v-.11c0-.23.13-.35.36-.36h15.99c.09.03.17.08.22.17.05.09.06.18.04.27"/>
      <path class="cls-1" d="M69.7,21.03l.83-2.77h-17.75l.82,2.77v5.35h2.39v-2.47c-.02-.37.1-.69.35-.97.24-.28.55-.42.92-.42.36.01.65.15.88.42.24.25.36.56.36.9v2.49h.33v-2.47c0-.37.11-.69.35-.97.26-.3.58-.44.97-.42.35.01.65.15.88.42.22.25.33.55.33.88v2.49h.33v-2.47c-.01-.37.1-.69.34-.97.26-.29.58-.43.97-.42.36.01.65.15.88.42.22.25.33.55.33.88v2.49h.34v-2.47c-.02-.37.1-.69.35-.97.24-.28.55-.42.92-.42h.05c.35.01.65.15.88.42.23.26.35.56.35.9v2.5h2.38v-5.36l.18.23ZM71.27,17.87l-.97,3.18v5.55c0,.1-.04.18-.11.25-.07.07-.16.11-.25.11h-3.1c-.1,0-.18-.04-.25-.11-.07-.07-.11-.15-.11-.25v-2.83l-.17-.42-.37-.17-.39.17c-.12.13-.18.28-.18.46v2.82c0,.1-.04.18-.11.25-.07.07-.16.11-.25.11h-1.05c-.1,0-.19-.03-.26-.1-.07-.07-.11-.16-.1-.26v-2.83l-.16-.4-.37-.17-.4.17c-.12.13-.17.28-.17.46v2.82c0,.1-.03.19-.1.26-.07.07-.16.11-.26.1h-1.05c-.1,0-.18-.04-.25-.11s-.11-.15-.11-.25v-2.83l-.15-.4-.37-.17-.39.17c-.12.13-.17.28-.17.46v2.82c0,.1-.04.18-.11.25-.07.07-.16.11-.25.11h-1.05c-.1,0-.19-.03-.26-.1s-.11-.16-.1-.26v-2.83l-.17-.42-.38-.17-.4.17c-.11.13-.17.28-.17.46v2.82c0,.1-.03.18-.1.25-.07.07-.15.11-.25.11h-3.1c-.1,0-.19-.03-.26-.1-.07-.07-.11-.16-.1-.26v-5.56l-.97-3.18v-.1c0-.1.03-.18.1-.25.07-.07.15-.11.25-.11h18.74c.22.07.3.22.24.45"/>
      <path class="cls-1" d="M69.7,20.63l.75-2.52h-17.68l.75,2.52h16.18ZM71.26,17.87l-.97,3.22c-.05.17-.17.25-.34.25h-16.68c-.19.01-.31-.07-.37-.25l-.97-3.22v-.11c0-.1.04-.18.11-.25.07-.07.15-.1.25-.1h18.74c.09.03.16.09.21.18.05.09.05.18.03.27"/>
      <path class="cls-1" d="M53.6,31.8h16.03c.1,0,.18.03.25.1.07.07.11.15.11.25v67.84c0,.1-.03.19-.1.26-.07.07-.16.11-.26.1h-16.03c-.1,0-.18-.04-.25-.11-.07-.07-.1-.16-.1-.25V32.15c0-.1.03-.18.1-.25.07-.07.15-.1.25-.1M69.26,32.51h-15.31v67.07h15.31V32.51Z"/>
      <polygon class="cls-3" points="69.62 29.4 70.53 26.38 52.68 26.38 53.6 29.4 53.6 32.61 69.62 32.61 69.62 29.4"/>
      <path class="cls-1" d="M69.31,29.2l.77-2.53h-16.92l.78,2.55v2.96h15.31v-2.87l.07-.13ZM70.88,26.48l-.9,2.91v3.17c0,.1-.03.19-.1.26-.07.07-.16.11-.26.1h-16.03c-.1,0-.18-.04-.25-.11-.07-.07-.11-.15-.11-.25v-3.18l-.89-2.91v-.14c0-.1.04-.18.11-.25s.16-.11.25-.11h17.96c.1.03.17.08.22.17.05.09.06.18.03.28"/>
      <polygon class="cls-3" points="69.62 29.4 70.53 26.38 52.68 26.38 53.6 29.4 69.62 29.4"/>
      <path class="cls-1" d="M69.38,29.01l.7-2.29h-16.92l.7,2.29h15.52ZM70.88,26.48l-.9,2.98c-.04.18-.16.28-.35.28h-16.04l-.34-.25-.91-2.98v-.14c0-.1.04-.18.11-.25.07-.07.16-.11.25-.11h17.96c.1.03.17.08.22.17.05.09.06.18.03.28"/>
      <path class="cls-1" d="M56.34,50.86c0-.21.1-.37.35-.37s.35.16.37.37v2.91c0,.21-.12.37-.37.37s-.33-.16-.35-.37v-2.91M56.34,37.15c0-.21.1-.37.35-.37s.35.16.37.38v2.91c0,.21-.12.37-.37.37s-.33-.16-.35-.37v-2.92ZM66.17,37.15c0-.21.1-.37.35-.37s.35.16.37.38v2.91c0,.21-.12.37-.37.37s-.33-.16-.35-.37v-2.92ZM56.34,64.56c0-.21.1-.37.35-.37s.35.16.37.37v2.91c0,.21-.12.37-.37.37s-.33-.16-.35-.37v-2.91M56.34,78.27c0-.21.1-.37.35-.37s.35.16.37.37v2.91c0,.22-.12.37-.37.37s-.33-.15-.35-.37v-2.91M56.34,91.98c0-.22.1-.37.35-.37s.35.15.37.37v2.91c0,.22-.12.38-.37.38s-.33-.16-.35-.37v-2.92ZM66.17,91.98c0-.22.1-.37.35-.37s.35.15.37.37v2.91c0,.22-.12.38-.37.38s-.33-.16-.35-.37v-2.92ZM66.17,78.27c0-.21.1-.37.35-.37s.35.16.37.37v2.91c0,.22-.12.37-.37.37s-.33-.15-.35-.37v-2.91M66.17,64.56c0-.21.1-.37.35-.37s.35.16.37.37v2.91c0,.21-.12.37-.37.37s-.33-.16-.35-.37v-2.91M66.17,50.86c0-.21.1-.37.35-.37s.35.16.37.37v2.91c0,.21-.12.37-.37.37s-.33-.16-.35-.37v-2.91"/>
      <rect class="cls-2" x="0" width="71.28" height="100.39"/>
    </g>
  </g>
</svg>