<?xml version="1.0" encoding="UTF-8"?>
<svg id="Capa_2" data-name="Capa 2" xmlns="http://www.w3.org/2000/svg" viewBox="0 0 78.36 50.68">
  <defs>
    <style>
      .cls-1 {
        fill: #00352b;
        fill-rule: evenodd;
        stroke-width: 0px;
      }
    </style>
  </defs>
  <g id="text_i_icones" data-name="text i icones">
    <path class="cls-1" d="M78.35,39.17V12.43c.02-.31.13-2.8-2.43-4.99-.59-.48-1.31-.96-2.12-1.41C67.04,2.31,53.77,0,39.18,0S11.31,2.31,4.55,6.04c-.81.45-1.53.93-2.13,1.42C-.03,9.34.12,12.44.12,12.47l-.12,26.71c0,1.9,1.62,3.84,4.55,5.46,6.76,3.72,20.03,6.04,34.62,6.04s27.86-2.31,34.62-6.04c2.93-1.62,4.55-3.56,4.55-5.46ZM67.28,5.5l.15-1.14,1.09.37c1.88.63,3.51,1.33,4.86,2.07,1.37.76,2.38,1.52,3.08,2.33.69.8,1.02,1.57,1.02,2.38s-.33,1.58-1.02,2.38c-.71.81-1.71,1.58-3.08,2.33-.55.31-1.16.61-1.81.9l-.46.2-.43-.26c-2.13-1.3-4.65-2.45-7.49-3.43l-1.19-.41,5.2-7.53c.04-.06.06-.12.07-.18ZM53.6,1.65l.88.11c4.23.52,8.05,1.24,11.36,2.15l1.29.36-6,8.69-.66-.19c-2.72-.78-5.67-1.4-8.74-1.86l-1.14-.17,2.84-8.22.17-.87ZM39.61.86h.96c3.81.05,7.54.24,11.08.59l1.2.12-3.13,9.07-.76-.08c-2.75-.31-5.59-.49-8.42-.53h-.94V.86ZM68.24,16.66l2.04,1.05-2.18.71c-7.27,2.36-17.82,3.72-28.92,3.72s-21.65-1.36-28.92-3.72l-2.18-.71,2.04-1.05c7.18-3.68,17.78-5.79,29.06-5.79s21.88,2.11,29.06,5.79ZM26.7,1.45c3.55-.34,7.28-.54,11.08-.58h.96s0,9.14,0,9.14h-.94c-2.83.05-5.67.23-8.42.54l-.76.08-3.13-9.07,1.2-.12ZM12.51,3.91c3.32-.91,7.14-1.63,11.36-2.15l.88-.11.17.87,2.84,8.22-1.14.17c-3.09.45-6.03,1.08-8.75,1.86l-.66.19-6-8.69,1.29-.36ZM1.88,9.12c.7-.81,1.71-1.58,3.08-2.33,1.35-.74,2.98-1.44,4.86-2.07l1.1-.37.15,1.15c0,.06.03.13.07.18l5.2,7.53-1.19.41c-2.84.98-5.36,2.13-7.49,3.43l-.43.26-.46-.2c-.65-.29-1.26-.59-1.81-.9-1.37-.75-2.38-1.52-3.08-2.33-.69-.8-1.02-1.58-1.02-2.38s.33-1.58,1.02-2.38ZM.86,14.28l1.55,1.26c.61.5,1.33.97,2.13,1.42,5.81,3.2,16.7,5.42,29.11,5.92h11.07c12.39-.51,23.26-2.73,29.07-5.92.81-.45,1.53-.92,2.14-1.42l1.55-1.26v4.13c0,.8-.33,1.58-1.02,2.38-.7.81-1.71,1.58-3.08,2.33-5.5,3.03-15.79,5.18-27.53,5.76l-.35.03s-2.94.18-5.88.18h-.27c-2.72-.01-5.65-.15-6.22-.18h-.11c-11.99-.54-22.48-2.71-28.07-5.79-1.37-.75-2.38-1.52-3.08-2.33-.69-.8-1.02-1.57-1.02-2.38v-4.13ZM11.07,46.37l-1.26-.42c-1.87-.63-3.5-1.33-4.85-2.07-1.37-.75-2.38-1.52-3.08-2.33-.69-.8-1.02-1.57-1.02-2.38v-11.06l1.55,1.27c.61.5,1.33.97,2.13,1.41,1.56.86,3.53,1.66,5.85,2.39l.67.21v12.97ZM30.44,49.54l-1.02-.07c-6.28-.46-12.09-1.38-16.78-2.66l-.7-.19v-12.95l1.19.31c4.7,1.21,10.38,2.09,16.44,2.53l.88.06v12.98ZM38.74,49.82h-.96c-1.86-.03-3.74-.09-5.58-.18l-.9-.05v-11.78c-.01-.2.03-.74.7-1.05l.22-.1h.24c1.75.1,3.55.16,5.35.17h.94v12.98ZM4.97,30.04c-1.37-.76-2.38-1.52-3.08-2.33-.69-.8-1.02-1.57-1.02-2.38v-4.14l1.55,1.27c.6.49,1.32.97,2.13,1.42,6.76,3.72,20.03,6.04,34.62,6.04s27.87-2.31,34.62-6.04c.81-.45,1.53-.92,2.13-1.42l1.55-1.27v4.14c0,.8-.33,1.58-1.02,2.38-.7.81-1.71,1.58-3.08,2.33-6.64,3.66-19.75,5.93-34.21,5.93s-27.57-2.27-34.21-5.93ZM46.14,49.63c-1.84.1-3.71.15-5.57.17h-.96s0-12.96,0-12.96h.94c1.78-.03,3.56-.08,5.29-.17h.22s.21.08.21.08c.5.22.68.56.74.8l.03.19v11.85s-.9.05-.9.05ZM66.42,46.61l-.7.19c-4.7,1.28-10.5,2.2-16.78,2.66l-1.02.07v-12.98l.88-.06c6.05-.44,11.74-1.32,16.44-2.53l1.19-.31v12.96ZM73.38,43.88c-1.34.74-2.97,1.43-4.85,2.07l-1.26.42v-12.97l.67-.21c2.32-.73,4.29-1.53,5.85-2.39.81-.44,1.52-.92,2.13-1.42l1.55-1.27v11.06c0,.8-.33,1.58-1.02,2.38-.7.81-1.71,1.58-3.08,2.33Z"/>
  </g>
</svg>