<?xml version="1.0" encoding="UTF-8"?>
<svg id="Capa_2" data-name="Capa 2" xmlns="http://www.w3.org/2000/svg" viewBox="0 0 122.54 147.57">
  <defs>
    <style>
      .cls-1, .cls-2, .cls-3, .cls-4, .cls-5 {
        stroke-width: 0px;
      }

      .cls-1, .cls-3 {
        fill-rule: evenodd;
      }

      .cls-1, .cls-5 {
        fill: #00352b;
      }

      .cls-2 {
        fill: none;
      }

      .cls-3, .cls-4 {
        fill: #cad9d7;
      }
    </style>
  </defs>
  <g id="text_i_icones" data-name="text i icones">
    <g>
      <path class="cls-3" d="M37.16,55.36c-3.44-.06-14.11-.21-16.46.08-2.82.33-5.7.16-5.87-2.15-.17-2.31,1.13-3.73,6.71-4.57,6.85-1.04,16.88-1.18,23.12,1.99,4.63,2.34,5.76,8.25-.14,9.87-2.85.59-5.72.99-8.62,1.18-2.92.4-5.79,1.02-8.61,1.87-.58.18-1.17.33-1.77.44l.76-2.73c2.09-.34,3.79-1.07,5.82-1.59,1.31-.3,2.63-.51,3.97-.63,11.41-1.22,6.45-3.65,1.08-3.74"/>
      <path class="cls-1" d="M37.1,55.63h.06-4.28c-4.49-.05-10.4-.07-12.08.13-1.36.22-2.71.19-4.06-.09-.29-.04-.57-.13-.83-.27-.26-.14-.49-.32-.69-.53-.2-.22-.36-.46-.48-.73-.12-.27-.19-.55-.21-.85-.09-.61-.01-1.2.23-1.76.24-.57.61-1.03,1.11-1.39,1.05-.79,2.82-1.37,5.67-1.8.99-.14,1.99-.27,3.07-.38,1.08-.11,2.18-.18,3.33-.23,5.85-.25,12.34.33,16.88,2.62,1.38.67,2.48,1.67,3.28,2.98.56.92.83,1.91.8,2.98-.03,1.07-.41,1.99-1.13,2.78-.87.91-1.92,1.51-3.15,1.8-2.29.5-4.61.83-6.95.99l-1.67.17c-1.51.2-2.9.45-4.28.76-1.38.31-2.76.68-4.24,1.1-.38.14-.77.24-1.17.31-.22,0-.44.08-.62.13-.22.06-.37-.02-.45-.23v-.18l.76-2.73.29-.26c1.19-.22,2.37-.52,3.51-.91.72-.23,1.46-.46,2.24-.66,1.33-.31,2.67-.52,4.02-.65,3.58-.39,5.51-.87,6.29-1.37.23-.14.32-.25.3-.32-.02-.07-.19-.26-.47-.41-1.61-.65-3.28-.96-5.01-.92M37.16,55c1.85-.04,3.62.29,5.33.99.41.17.69.46.83.88.08.38-.1.75-.63,1.07-.86.55-2.89,1.08-6.6,1.48-1.29.11-2.57.31-3.84.6h-.06c-.77.19-1.5.42-2.22.65-1.11.38-2.24.68-3.4.9l-.55,1.94h.06c.36-.06.71-.15,1.05-.27h.06c1.47-.43,2.86-.8,4.28-1.11,1.42-.32,2.82-.57,4.36-.77l1.67-.18c2.31-.16,4.6-.49,6.87-.99,1.09-.26,2.02-.79,2.81-1.59.6-.66.92-1.43.94-2.33.01-.93-.22-1.78-.7-2.57-.73-1.2-1.72-2.11-2.98-2.72-4.43-2.23-10.79-2.78-16.55-2.54-1.12,0-2.22.13-3.28.23s-2.06.23-3.04.38c-2.73.42-4.39.99-5.35,1.67-.4.29-.69.66-.88,1.11-.19.45-.25.92-.17,1.41.04.45.22.84.53,1.17.31.33.7.52,1.15.58,1.26.25,2.52.27,3.78.07,1.71-.21,7.66-.19,12.18-.14h4.28"/>
      <path class="cls-3" d="M7.87,144.73h22.44s6.95-2.81,10.33-5.12c3.18-2.17,2.21-4.88,1.23-8.38-.92-3.25-15.07-56.28-15.07-56.28,0,0-1.71-5.71-.08-10.82l1.15-2.64c1.07-2.35,2.53-4.41,4.4-6.19-2.36-.05-4.63,0-6.12,0l-8.93,8.29,15.38,57.44c.35.93.58,1.89.68,2.88.1.99.07,1.97-.09,2.95-.16.98-.44,1.92-.85,2.83s-.93,1.74-1.55,2.51c-3.23,4.27-10.86,8.37-22.95,12.56M27.23,62.85l.12-.25-.12.25Z"/>
      <path class="cls-5" d="M30.32,145.08H5.76l1.99-.69c12.22-4.23,19.68-8.31,22.83-12.44.6-.75,1.1-1.56,1.49-2.43.39-.88.67-1.79.82-2.73.15-.95.19-1.9.09-2.85-.09-.96-.31-1.88-.64-2.78l-15.45-57.7,9.15-8.54h7.17l-.68.6c-1.82,1.75-3.26,3.78-4.31,6.08-.43.99-1.09,2.49-1.13,2.6-1.58,4.97.07,10.56.08,10.6.15.55,14.17,53.08,15.07,56.29l.14.5c.92,3.25,1.73,6.06-1.51,8.27-3.24,2.21-10.12,5.03-10.39,5.15l-.17.07ZM9.93,144.37h20.27c3.53-1.42,6.94-3.1,10.21-5.05,2.81-1.92,2.14-4.25,1.22-7.49l-.14-.5c-.9-3.22-14.89-55.76-15.06-56.28-.07-.23-1.72-5.87-.08-11.03,0,0,0-.06.55-1.28h-.05l.12-.27h.05l.5-1.13c.99-2.1,2.28-4,3.86-5.7h-5.14l-8.64,8.06,15.32,57.23c.35.95.58,1.94.68,2.95.1,1.01.07,2.02-.1,3.03s-.45,1.97-.87,2.9c-.41.93-.94,1.79-1.58,2.59-3.04,3.98-9.93,7.95-21.18,12"/>
      <path class="cls-3" d="M32.37,48.08c-.25-15.8.42-31.56,1.99-47.29,1.58,15.82,2.12,31.67,1.62,47.56-1.4-.15-2.79-.24-3.59-.27"/>
      <path class="cls-1" d="M32.03,48.13c-.13-7.57-.05-15.09.28-22.86.33-7.77.88-15.82,1.7-24.47.02-.23.15-.34.39-.33.2.02.31.13.33.34.81,8.37,1.34,16.39,1.61,24.26.27,7.87.26,15.58,0,23.33,0,.1-.04.18-.11.25-.07.07-.16.1-.26.1h-.08l-.58-.06-.57-.05c-.99-.08-1.82-.13-2.37-.15-.11,0-.2-.04-.27-.12-.07-.08-.1-.17-.09-.28l.02.04ZM33.01,25.25c-.32,7.65-.41,15.05-.28,22.49.56,0,1.28.07,2.06.13l.58.06h.25c.24-7.59.24-15.17,0-22.86-.23-6.63-.64-13.38-1.25-20.35-.63,7.18-1.07,13.96-1.34,20.54"/>
      <path class="cls-3" d="M33.89,77.9c-.42-5.51-.75-10.72-.99-15.78v-2.5c-.06-1.2-.05-3.08-.1-4.27h2.98c-.06,1.05-.16,2.75-.23,3.83v2.63c-.36,5.21-.81,10.55-1.38,16.08l-.28.02Z"/>
      <path class="cls-1" d="M32.98,77.58c-.2-2.73-.4-5.42-.57-8.06-.17-2.64-.32-5.18-.45-7.72v-.77.12-.56l1.01,16.99ZM32.38,61.45l.99,15.83.15-8.1c.08,1.27.17,2.55.26,3.87.13-1.33.25-2.65.36-3.98.24-2.69.44-5.33.62-7.95v-.24.27-2.31c.06-.93.14-2.21.19-3.14h-2.26v6.05c.13,2.51.28,5.08.45,7.72M32.38,61.05v.44-.44ZM32.38,60.72v.06-.06ZM32.38,60.44v.52l1.08,17.33c.02.2.13.31.33.34.23.01.36-.1.39-.33.29-2.8.55-5.52.76-8.16.23-2.66.44-5.3.62-7.95v-3.35c.06-1.05.16-2.52.21-3.5,0-.23-.12-.35-.35-.36h-3.03c-.1,0-.18.04-.25.11-.07.07-.1.16-.09.26v5.3l.34-.21ZM32.38,60.32v.12-.12ZM35.04,59.72v-.54.54Z"/>
      <polygon class="cls-3" points="57.36 97.24 52.38 97.24 52.38 100.68 52.38 100.79 52.33 100.88 52.26 100.99 71.96 100.99 71.96 97.24 67.18 97.24 57.36 97.24"/>
      <path class="cls-1" d="M57.34,97.66h-4.57v2.91h18.75v-2.91h-14.19ZM52.37,96.82h19.59c.12,0,.21.04.29.12.08.08.12.18.12.3v3.74c0,.12-.04.21-.12.3-.08.08-.18.12-.29.12h-19.72l-.22-.06c-.1-.06-.16-.15-.18-.26-.02-.11,0-.22.05-.31l.06-.09v-3.43c0-.12.04-.21.12-.3.08-.08.18-.12.29-.12"/>
      <path class="cls-3" d="M120.82,141.24s.42-24.15,0-24.15-6.49-4.27-6.49-4.27c0,0-22.62-5.72-29.35-5.72s-44.36-1.21-44.36-1.21c0,0-21.44,2.55-24.35,3.98-2.91,1.42-10.14,4.32-10.14,4.32l-4.21,2.86-.36,22.41,119.25,1.79Z"/>
      <path class="cls-3" d="M1.33,138.14v-21.08c11.62-10.15,25.81-13.12,41.17-12.75h3.43v33.49l-.38.45-1.99-.17H1.33v.06ZM42.21,136.56v-6.12c0-.35-.07-.69-.2-1.02-.13-.33-.33-.61-.57-.86-.25-.25-.54-.44-.86-.58s-.66-.2-1.01-.2-.69.07-1.01.2-.61.33-.86.58c-.25.25-.44.54-.57.86-.13.33-.2.66-.2,1.02v6.12h5.3ZM33.93,136.56v-5.96c0-.34-.07-.67-.2-.99-.13-.32-.32-.6-.56-.84-.24-.24-.52-.43-.84-.56-.32-.13-.65-.2-.99-.2s-.67.07-.99.2c-.32.13-.6.32-.84.56-.24.24-.43.52-.56.84-.13.32-.2.65-.2.99v5.96h5.16ZM25.16,136.56v-5.64c0-1.06-.93-2.52-2.08-2.52s-2.08,1.46-2.08,2.52v5.58l4.17.06ZM18.08,136.56v-4.64c0-1.05-.78-2.52-1.75-2.52s-1.74,1.47-1.74,2.52v4.58l3.48.06ZM12.56,136.56v-4.14c0-1.06-.65-2.52-1.43-2.52s-1.44,1.46-1.44,2.52v4.14h2.87ZM8.04,136.56v-3.47c0-1.06-.55-2.52-1.21-2.52s-1.21,1.46-1.21,2.52v3.47h2.42ZM5.86,119.87l2.42-.67v-2.06c0-1.06-.54-2.51-1.21-2.49-.68.02-1.21,1.5-1.21,2.56v2.65ZM9.93,118.8c.88-.21,1.85-.43,2.87-.65v-2.51c0-1.06-.65-2.51-1.43-2.48-.78.03-1.44,1.5-1.44,2.56v3.08ZM14.84,117.74c1.09-.21,2.25-.41,3.48-.63v-2.92c0-1.06-.78-2.5-1.75-2.47-.96.03-1.74,1.51-1.74,2.57v3.45ZM21.24,116.66c1.32-.19,2.71-.38,4.17-.55v-3.11c0-1.06-.93-2.5-2.08-2.47-1.15.03-2.08,1.53-2.08,2.59v3.54ZM29.02,115.67c1.65-.17,3.37-.32,5.16-.46v-2.89c-.02-.34-.1-.66-.24-.97-.14-.31-.32-.58-.56-.82-.24-.24-.51-.43-.82-.57s-.63-.22-.97-.25c-.34.05-.67.15-.97.3-.31.16-.58.36-.81.61-.24.25-.42.54-.56.85-.14.32-.22.65-.24.99v3.2ZM37.16,115.01c1.71-.11,3.46-.2,5.3-.27v-2.82c-.02-.35-.1-.68-.25-.99-.14-.32-.33-.6-.58-.84-.24-.25-.52-.44-.84-.59-.31-.15-.64-.23-.99-.26-.35.05-.68.15-.99.32-.31.16-.59.37-.83.63-.24.26-.43.55-.57.87-.14.32-.23.66-.25,1.01v2.94ZM5.86,126.94c.72-.19,1.53-.39,2.42-.6v-3.37c0-1.05-.54-2.52-1.21-2.52s-1.21,1.47-1.21,2.52v3.97ZM9.93,125.94l2.87-.56v-3.37c0-1.06-.65-2.52-1.43-2.52s-1.44,1.46-1.44,2.52v3.93ZM14.84,125.03c1.09-.18,2.25-.36,3.48-.52v-2.93c0-1.06-.78-2.52-1.75-2.52s-1.74,1.46-1.74,2.52v3.45ZM21.24,124.13c1.32-.16,2.71-.31,4.17-.44v-3.11c0-1.06-.93-2.52-2.08-2.52s-2.08,1.46-2.08,2.52v3.55ZM29.02,123.4c1.65-.12,3.37-.22,5.16-.31v-2.89c0-.34-.07-.67-.2-.99-.13-.32-.32-.6-.56-.84-.24-.24-.52-.43-.84-.56-.32-.13-.65-.2-.99-.2s-.67.07-.99.2c-.32.13-.6.32-.84.56-.24.24-.43.52-.56.84-.13.32-.2.65-.2.99v3.2ZM37.16,122.97c1.71-.05,3.46-.09,5.3-.11v-2.82c0-.35-.07-.69-.2-1.02-.13-.33-.33-.61-.57-.86-.25-.25-.54-.44-.86-.58-.33-.14-.66-.2-1.02-.2-.35,0-.69.07-1.02.2-.33.14-.61.33-.86.58-.25.25-.44.54-.57.86-.13.33-.2.67-.2,1.02v2.93Z"/>
      <path class="cls-1" d="M.95,138.12v-21.06l.16-.33c5.66-4.93,12.1-8.4,19.33-10.4,7.23-1.92,14.58-2.73,22.05-2.44h3.44c.12,0,.21.04.29.12.08.08.12.18.12.3v33.48l-.13.31-.35.41-.36.15-1.99-.17H1.33c-.12,0-.21-.04-.29-.12-.08-.08-.12-.18-.12-.3M1.7,117.38v20.3h41.9l1.77.15.14-.16v-32.95h-3.03c-7.4-.29-14.68.51-21.84,2.42-7.04,1.95-13.33,5.32-18.86,10.11M42.16,137.05c.12,0,.22-.04.3-.12.08-.08.13-.18.13-.3v-6.12c-.05-.8-.34-1.5-.88-2.09-.56-.69-1.29-1.06-2.18-1.09-.89.04-1.62.4-2.18,1.09-.54.59-.83,1.29-.87,2.09v6.12c0,.12.04.22.13.3.08.08.18.12.3.12h5.27ZM37.29,136.22h4.46v-5.7c-.04-.59-.27-1.11-.68-1.54-.4-.5-.92-.77-1.56-.81-.64.03-1.16.3-1.56.81-.41.43-.63.95-.68,1.54v5.7ZM33.85,137.05c.12,0,.21-.04.29-.12.08-.08.12-.18.12-.3v-5.96c-.04-.78-.33-1.47-.85-2.05-.56-.66-1.28-1.02-2.14-1.05-.87.03-1.58.38-2.13,1.05-.53.58-.82,1.26-.86,2.05v5.96c0,.12.04.21.12.3.08.08.18.12.29.12h5.16ZM29.14,136.22h4.33v-5.55c-.04-.58-.26-1.07-.66-1.49-.38-.49-.89-.75-1.51-.79-.62.04-1.12.3-1.51.79-.39.42-.61.92-.66,1.49v5.55ZM25.08,137.05c.12,0,.21-.04.29-.12.08-.08.12-.18.12-.3v-5.72c-.03-.71-.26-1.35-.69-1.91-.44-.63-1.04-.96-1.81-.99-.76.04-1.37.37-1.81.99-.43.57-.66,1.21-.69,1.92v5.58c0,.12.04.21.12.3.08.08.18.12.29.12l4.17.13ZM21.37,136.22h3.34v-5.3c-.02-.53-.2-1-.53-1.41-.27-.42-.65-.65-1.14-.7-.49.05-.87.28-1.14.7-.33.41-.5.88-.53,1.41v5.3ZM18.04,137.05c.12,0,.21-.04.29-.12.08-.08.12-.18.12-.3v-4.72c-.02-.68-.21-1.3-.57-1.88-.34-.65-.86-1-1.59-1.06-.72.07-1.25.42-1.58,1.06-.37.57-.56,1.2-.58,1.88v4.58c0,.12.04.21.12.3.08.08.18.12.29.12h3.48v.14ZM14.97,136.22h2.65v-4.3c-.02-.52-.17-1-.45-1.44-.18-.37-.48-.6-.88-.67-.41.07-.7.29-.87.67-.28.44-.43.92-.45,1.44v4.3ZM12.52,137.05c.12,0,.21-.04.29-.12.08-.08.12-.18.12-.3v-4.14c-.01-.65-.17-1.27-.47-1.85-.11-.3-.29-.54-.54-.74-.25-.2-.53-.31-.84-.35-.31.04-.6.15-.84.35-.25.2-.43.44-.54.74-.3.58-.45,1.2-.47,1.85v4.14c0,.12.04.22.13.3.08.08.18.12.3.12h2.86,0ZM10.07,136.22h1.99v-3.73c-.01-.52-.14-1.01-.38-1.47-.19-.37-.43-.64-.64-.64s-.46.27-.65.64c-.24.46-.36.95-.38,1.47l.05,3.73ZM8,137.05c.12,0,.22-.04.3-.12.08-.08.13-.18.13-.3v-3.47c0-.63-.14-1.24-.39-1.83-.29-.65-.71-1.11-1.24-1.11s-.99.47-1.24,1.11c-.25.58-.38,1.19-.39,1.83v3.47c0,.12.04.21.12.3.08.08.18.12.29.12h2.42,0ZM6.01,136.22h1.59v-3.05c-.02-.52-.12-1.01-.33-1.49-.16-.36-.33-.62-.48-.62-.14,0-.32.26-.48.62-.2.48-.31.97-.32,1.49v3.05ZM5.43,119.95v.12c.03.11.1.19.2.25.1.06.21.07.32.04.49-.15,1.04-.3,1.68-.48l.36-.09.34-.09c.23-.04.35-.18.35-.42v-2.14c-.02-.61-.15-1.19-.4-1.74-.27-.61-.68-1.05-1.17-1.07h-.07c-.68,0-1.23.9-1.47,1.87-.05.18-.08.36-.11.53,0,.17,0,.34,0,.52l-.02,2.7ZM6.26,117.3v2.11l1.16-.33.37-.09h.06v-1.98c-.02-.49-.12-.97-.32-1.42-.15-.33-.32-.58-.46-.58-.26,0-.53.6-.69,1.23l-.08.45v.42l-.05.19ZM9.5,118.88v.1c.03.11.09.2.19.26.1.06.2.08.31.05l1.38-.32,1.45-.32c.25-.03.37-.17.36-.42v-2.59c-.03-.62-.19-1.21-.48-1.77-.24-.58-.67-.93-1.28-1.04h-.08c-.76,0-1.39.9-1.67,1.87-.05.18-.09.35-.12.54-.03.17-.05.35-.05.53v3.12h0ZM10.34,115.79v2.55l.86-.2,1.16-.26v-2.25c-.03-.49-.15-.96-.38-1.4-.18-.34-.39-.58-.6-.6-.35,0-.69.63-.88,1.27l-.09.44-.05.41-.03.03ZM14.4,117.78v.02c.02.11.08.2.17.27.1.06.2.08.31.06l2.45-.45.5-.09.5-.08c.25-.02.38-.16.38-.42v-2.99c-.03-.66-.23-1.26-.59-1.81-.33-.61-.85-.94-1.54-.99h-.05c-.87,0-1.61.9-1.94,1.87-.07.17-.12.35-.15.54-.04.18-.06.36-.06.55v3.53ZM15.24,114.33v2.98l1.99-.36.51-.08h.18v-2.62c-.03-.5-.18-.96-.46-1.38-.17-.35-.45-.56-.83-.63-.49,0-.93.64-1.17,1.3l-.13.28v.4l-.08.11ZM20.81,116.7v.06c.02.11.07.21.17.28.09.07.2.1.31.08l1.99-.29,2.11-.26c.11,0,.2-.05.28-.13.07-.08.11-.18.11-.29v-3.17c-.04-.69-.28-1.31-.7-1.85-.42-.62-1.01-.95-1.76-.99h-.05c-.52.07-.98.27-1.38.61-.4.33-.69.75-.86,1.24-.07.19-.13.38-.18.56-.04.18-.07.37-.07.56v3.58l.04.02ZM21.64,113.16v3.06l1.56-.22,1.78-.22v-2.78c-.04-.51-.21-.96-.53-1.36-.26-.39-.63-.61-1.1-.66-.64,0-1.2.66-1.49,1.35l-.14.42-.05.38-.03.03ZM28.59,115.75c.01.11.06.21.15.28.09.07.19.1.31.09l3.62-.33.74-.06.73-.06c.12,0,.21-.04.29-.12.08-.08.12-.18.12-.3v-2.95c-.06-.76-.34-1.43-.86-1.99-.55-.64-1.24-.97-2.07-.99h-.07c-.59.06-1.13.27-1.61.63-.48.36-.84.81-1.07,1.36-.09.19-.16.39-.22.6-.05.2-.08.39-.08.6v3.24h0ZM29.43,112.55v2.73l3.2-.29.74-.06h.38v-2.5c-.06-.55-.28-1.03-.66-1.43-.38-.45-.87-.7-1.46-.73-.44.05-.84.21-1.19.48-.35.27-.62.6-.79,1.01l-.17.44-.06.39v-.04ZM36.73,115.1c0,.12.05.21.14.29.09.08.19.11.3.11,1.23-.08,2.47-.14,3.74-.2h1.5c.12,0,.22-.04.3-.13.08-.08.12-.18.12-.3v-3.03c-.06-.77-.35-1.43-.88-1.99-.56-.64-1.26-.97-2.11-.99h-.07c-.6.06-1.15.27-1.64.63-.49.36-.86.81-1.1,1.36-.09.19-.16.39-.22.6-.06.2-.09.41-.09.62v2.98l.02.06ZM37.57,112.12v2.49l3.31-.17h1.15v-2.6c-.05-.57-.27-1.07-.68-1.48-.39-.47-.89-.73-1.5-.76h-.05c-.44.06-.84.23-1.2.5-.35.27-.62.62-.79,1.03l-.17.46-.07.4v.13ZM5.44,126.97v.11c.03.11.09.2.19.26s.21.07.32.04l1.65-.42.36-.08.42-.13c.23-.04.35-.18.35-.42v-3.36c-.01-.63-.14-1.24-.39-1.83-.28-.64-.71-1.11-1.24-1.11s-.99.48-1.24,1.11c-.25.58-.38,1.19-.39,1.83l-.02,4ZM6.27,122.99v3.4l1.14-.29.37-.08h.05v-2.98c0-.52-.11-1.01-.32-1.49-.16-.36-.33-.62-.48-.62-.14,0-.32.26-.48.62-.2.48-.31.97-.32,1.49l.03-.05ZM9.51,125.97v.09c.02.11.08.2.17.26s.2.08.31.05l1.99-.4.42-.08.4-.08c.25-.02.38-.15.38-.41v-3.37c-.01-.65-.17-1.27-.47-1.85-.11-.3-.29-.54-.54-.74-.25-.2-.53-.31-.84-.36-.67.08-1.12.44-1.37,1.06-.3.58-.45,1.2-.47,1.86l.02,3.95ZM10.35,122.05v3.42l1.52-.3.42-.08h.09v-2.98c-.01-.52-.14-1.01-.38-1.47-.19-.37-.43-.64-.64-.64s-.45.26-.64.62c-.24.46-.36.95-.38,1.47v-.04ZM14.41,125.03v.07c.02.11.08.2.17.27.09.07.2.09.31.08.76-.13,1.58-.26,2.44-.38l.51-.08.49-.07c.11,0,.2-.05.28-.13.08-.08.12-.17.12-.28v-2.93c-.02-.68-.22-1.31-.58-1.89-.34-.64-.87-.99-1.59-1.05-.72.06-1.24.42-1.58,1.05-.36.58-.56,1.21-.58,1.89v3.45ZM15.25,121.58v2.98l1.99-.31.51-.07h.16v-2.6c-.02-.52-.17-1-.45-1.44-.18-.38-.47-.6-.88-.67-.41.07-.7.29-.87.67-.28.44-.43.92-.45,1.44h0ZM20.82,124.13v.05c.02.11.07.21.16.28.09.07.19.1.31.09.68-.09,1.36-.16,1.99-.23l2.1-.21c.11,0,.21-.05.29-.13.08-.08.12-.18.12-.29v-3.11c-.03-.71-.26-1.35-.69-1.92-.44-.63-1.04-.96-1.81-.99-.76.04-1.37.37-1.81.99-.43.57-.66,1.21-.69,1.92l.04,3.55ZM21.65,120.59v3.08l1.57-.18,1.77-.17v-2.73c-.02-.53-.2-1-.53-1.41-.27-.42-.65-.65-1.14-.7-.49.05-.87.28-1.14.7-.33.41-.5.88-.53,1.41h0ZM28.6,123.4c0,.11.05.21.14.28.08.08.18.11.3.1l2.52-.17,2.6-.14c.12,0,.22-.04.3-.12s.13-.18.13-.3v-2.89c-.04-.78-.33-1.47-.85-2.05-.55-.67-1.26-1.03-2.13-1.06-.87.04-1.58.4-2.13,1.06-.53.58-.81,1.26-.85,2.05v3.23ZM29.44,120.2v2.75l2.07-.13,2.24-.13v-2.49c-.04-.57-.26-1.07-.66-1.49-.39-.48-.89-.75-1.51-.79-.62.04-1.12.3-1.51.79-.39.42-.61.92-.66,1.49h0ZM36.74,122.97c0,.11.05.21.13.29.08.08.18.11.3.11,1.2,0,2.42-.07,3.67-.09h1.61c.12,0,.21-.04.29-.12.08-.08.12-.18.12-.3v-2.82c-.04-.8-.34-1.5-.88-2.09-.56-.69-1.29-1.06-2.18-1.09-.89.04-1.61.4-2.18,1.08-.54.6-.83,1.3-.87,2.1v2.93ZM37.58,120.04v2.5l3.26-.08h1.2v-2.42c-.04-.59-.27-1.11-.68-1.54-.4-.5-.92-.77-1.56-.81-.64.03-1.16.3-1.56.81-.41.43-.63.95-.68,1.54h0Z"/>
      <path class="cls-1" d="M120.86,137.68v-20.43c-5.53-4.79-11.82-8.16-18.86-10.11-7.16-1.91-14.44-2.72-21.84-2.42h-2.98v32.96l.14.16,1.77-.15h41.86-.09ZM121.72,117.06v21.01c0,.12-.04.21-.12.3s-.18.12-.29.12h-42.26l-1.99.17-.36-.15-.35-.42-.13-.3v-33.49c0-.12.04-.21.12-.3.08-.08.18-.12.29-.12h3.44c7.49-.29,14.85.52,22.1,2.44,7.24,1.99,13.7,5.46,19.36,10.4l.18.34ZM116.96,136.93h-2.37c-.12,0-.21-.04-.29-.12-.08-.08-.12-.18-.12-.3v-3.47c0-.63.14-1.24.39-1.83.28-.64.71-1.11,1.24-1.11s.99.48,1.24,1.11c.25.58.38,1.19.39,1.83v3.47c0,.12-.04.21-.12.3-.08.08-.18.12-.29.12M114.98,136.1v-3.05c0-.52.11-1.02.32-1.49.16-.36.33-.62.48-.62.14,0,.32.26.48.62.2.48.31.97.32,1.49v3.05h-1.59ZM112.91,136.92h-2.86c-.12,0-.21-.04-.29-.12-.08-.08-.12-.18-.12-.3v-4.14c.01-.66.17-1.27.47-1.86.25-.63.7-.98,1.37-1.06.32.04.6.16.85.35.25.2.43.44.54.74.29.58.44,1.2.46,1.85v4.14c0,.12-.04.21-.12.3-.08.08-.18.12-.29.12M110.47,136.08v-3.73c.01-.52.14-1.01.38-1.47.19-.36.42-.62.63-.62s.46.27.65.64c.23.46.36.95.37,1.47v3.73l-2.02-.02ZM108.03,136.92h-3.48c-.12,0-.21-.04-.29-.12-.08-.08-.12-.18-.12-.3v-4.58c.02-.68.21-1.3.58-1.88.33-.64.86-1,1.58-1.06.72.07,1.25.42,1.58,1.06.37.57.56,1.2.58,1.88v4.58c0,.12-.04.21-.12.3-.08.08-.18.12-.29.12M104.96,136.08v-4.16c.02-.52.17-1,.45-1.44.18-.37.47-.59.87-.67.41.07.7.29.87.67.28.44.43.92.45,1.44v4.16h-2.64ZM101.59,136.92h-4.13c-.12,0-.21-.04-.29-.12-.08-.08-.12-.18-.12-.3v-5.58c.03-.71.26-1.35.69-1.92.44-.63,1.04-.96,1.81-.99.76.04,1.37.37,1.81.99.43.57.66,1.21.69,1.92v5.58c0,.12-.04.21-.12.3-.08.08-.18.12-.29.12h-.04ZM97.87,136.08v-5.16c.02-.53.2-1,.53-1.41.27-.42.65-.65,1.14-.71.49.05.87.29,1.14.71.33.41.5.88.53,1.41v5.16h-3.34ZM93.81,136.92h-5.12c-.12,0-.21-.04-.29-.12-.08-.08-.12-.18-.12-.3v-5.96c.04-.78.33-1.47.85-2.05.56-.66,1.27-1.01,2.13-1.05.87.03,1.58.38,2.13,1.05.53.58.82,1.26.86,2.05v5.96c0,.12-.04.21-.12.3-.08.08-.18.12-.29.12h-.03ZM89.11,136.08v-5.55c.04-.57.26-1.07.65-1.49.39-.48.89-.75,1.51-.79.62.04,1.12.3,1.51.79.4.42.62.92.66,1.49v5.55h-4.32ZM85.71,136.92h-5.29c-.12,0-.21-.04-.29-.12-.08-.08-.12-.18-.12-.3v-6.12c.04-.8.33-1.5.87-2.1.57-.69,1.29-1.05,2.18-1.08.89.04,1.62.4,2.18,1.09.54.59.84,1.29.87,2.09v6.12c0,.12-.04.21-.12.3-.08.08-.18.12-.29.12M80.84,136.08v-5.7c.04-.59.27-1.11.68-1.54.4-.5.92-.77,1.56-.81.64.03,1.16.3,1.56.81.41.43.63.95.67,1.54v5.7h-4.46ZM116.32,119.25l-1.16-.33-.37-.09h-.06v-1.83c.02-.49.12-.97.32-1.42.16-.33.32-.58.46-.58.26,0,.53.6.69,1.23l.09.45v2.56h.04ZM117.15,117.15v2.78c-.03.11-.1.2-.2.25-.1.06-.21.07-.32.04-.49-.15-1.04-.31-1.68-.47l-.36-.1-.34-.09c-.23-.04-.35-.18-.35-.42v-2.15c.02-.6.15-1.18.4-1.73.27-.61.68-1.04,1.17-1.07h.1c.68,0,1.23.9,1.47,1.87.05.18.08.36.11.53.03.17,0,.35,0,.52v.04ZM112.24,118.2l-.86-.2-1.16-.25v-2.25c.02-.5.15-.97.38-1.41.18-.33.39-.58.59-.6h.05c.36,0,.68.63.88,1.27l.1.44v2.99h.03ZM113.07,115.65v3.18c-.03.11-.09.2-.19.26-.1.06-.2.08-.32.05l-1.37-.32-1.45-.32c-.24-.03-.36-.17-.36-.42v-2.58c.03-.62.19-1.21.48-1.77.24-.58.67-.93,1.28-1.04h.1c.76,0,1.39.9,1.67,1.87.05.18.09.36.12.54.03.17.05.34.05.52v.04ZM107.34,117.17c-.64-.12-1.29-.24-1.99-.35l-.5-.09h-.17v-2.61c.03-.5.18-.96.46-1.38.17-.35.45-.56.83-.63.49,0,.93.64,1.17,1.3l.12.43v3.38l.07-.05ZM108.18,114.18v3.62c-.02.11-.08.2-.17.27-.1.06-.2.08-.31.06l-2.45-.45-.5-.09-.5-.08c-.25-.02-.38-.16-.38-.42v-2.99c.03-.66.22-1.27.58-1.82.34-.6.85-.93,1.54-.99h.05c.87,0,1.6.9,1.94,1.87.07.17.12.35.15.54.04.18.06.36.06.54v-.05ZM100.94,116.07v-3.04,3.04ZM101.77,113.01v3.6c-.02.11-.07.21-.16.28-.09.07-.19.1-.31.08l-1.99-.29-2.11-.26c-.11,0-.2-.05-.28-.13-.07-.08-.11-.18-.11-.29v-3.16c.05-.69.28-1.3.7-1.84.42-.62,1.01-.95,1.76-.99h.05c.52.08.98.28,1.38.61.4.33.69.75.86,1.24.07.19.13.38.18.56.04.18.06.36.07.55l-.05.04ZM100.94,113.01v3.09l-1.56-.22-1.78-.23v-2.73c.03-.51.21-.96.53-1.36.26-.39.63-.61,1.1-.66.64,0,1.2.66,1.49,1.35l.14.42.08.34ZM93.17,115.17l-2.07-.19-2.25-.19v-2.5c.05-.55.26-1.03.65-1.43.38-.46.86-.7,1.46-.73.44.05.84.21,1.19.48s.62.6.79,1.01l.17.44.06.4v2.76-.05ZM94,112.44v3.24c-.01.11-.06.21-.15.28-.09.07-.19.11-.3.1l-2.52-.24-2.62-.22c-.11,0-.21-.04-.28-.13-.08-.08-.11-.18-.11-.29v-2.89c.05-.76.34-1.43.86-1.99.55-.64,1.24-.97,2.07-.99h.07c.59.06,1.13.27,1.61.63.48.36.84.81,1.07,1.36.09.19.16.38.22.59.05.2.08.39.09.6v-.04ZM85.02,114.58c-1.06-.07-2.16-.13-3.31-.18h-1.14v-2.43c.06-.57.28-1.06.68-1.47.39-.47.89-.73,1.5-.76.44.06.84.23,1.2.5s.62.62.79,1.03l.17.46.06.4v2.53l.06-.09ZM85.85,112.08v2.98c0,.12-.05.21-.14.29-.09.08-.19.11-.3.11-1.23-.08-2.47-.14-3.74-.2h-1.51c-.12,0-.22-.04-.3-.13-.08-.08-.12-.18-.12-.3v-2.99c.06-.76.36-1.43.88-1.99.56-.64,1.27-.98,2.12-.99h.07c.6.06,1.15.27,1.64.63.49.36.86.81,1.1,1.36.09.19.16.39.22.6.06.2.09.4.09.61l-.02.03ZM116.32,126.39l-1.14-.29-.36-.09h-.05v-2.98c0-.52.11-1.02.32-1.49.16-.36.33-.62.48-.62.14,0,.32.26.48.62.2.48.31.97.32,1.49l-.04,3.36ZM117.15,123v4.04c-.03.11-.1.2-.2.25-.1.06-.21.07-.32.04l-1.65-.42-.36-.08-.35-.08c-.23-.04-.35-.18-.35-.42v-3.33c0-.63.14-1.24.39-1.83.28-.64.71-1.11,1.24-1.11s.99.48,1.24,1.11c.25.58.38,1.19.39,1.83h-.04ZM112.24,125.46l-1.52-.31-.42-.07h-.09v-2.98c0-.52.14-1.01.38-1.47.19-.37.42-.65.64-.65s.45.27.64.64c.23.46.36.95.37,1.47v3.37ZM113.07,122.04v3.98c-.02.11-.08.2-.18.26-.1.06-.2.08-.31.06-.64-.13-1.3-.27-1.99-.4l-.42-.08-.4-.07c-.25-.03-.37-.17-.38-.42v-3.37c.01-.65.17-1.27.47-1.85.11-.3.29-.54.54-.74.25-.2.53-.31.84-.35.67.08,1.12.44,1.37,1.06.3.58.45,1.2.47,1.86l-.02.06ZM107.34,124.56l-1.99-.31-.51-.07h-.16v-2.6c.02-.52.17-1,.45-1.44.18-.37.48-.6.88-.67.41.07.7.29.87.67.28.44.43.92.45,1.44v2.98ZM108.18,121.58v3.52c-.02.11-.08.2-.17.27-.09.07-.19.09-.31.08-.77-.13-1.59-.26-2.45-.38l-.51-.08-.49-.07c-.11,0-.21-.05-.28-.13-.08-.08-.12-.18-.12-.29v-2.92c.03-.68.22-1.3.58-1.88.34-.65.86-1,1.59-1.06.72.07,1.25.42,1.58,1.06.37.57.56,1.2.58,1.88h0ZM100.94,123.67l-1.58-.18-1.76-.17v-2.73c.02-.53.2-1,.53-1.41.27-.42.65-.66,1.14-.71.49.05.87.29,1.14.71.33.41.5.88.53,1.41v3.08ZM101.77,120.59v3.6c-.02.11-.07.21-.16.28-.09.07-.19.1-.31.09-.68-.09-1.36-.16-1.99-.23l-2.1-.21c-.11,0-.21-.04-.29-.12-.08-.08-.12-.18-.12-.29v-3.11c.03-.71.26-1.35.69-1.92.44-.63,1.04-.96,1.81-.99.76.04,1.37.37,1.81.99.43.57.66,1.21.69,1.92h-.04ZM93.17,122.95l-2.08-.13c-.72-.05-1.47-.09-2.24-.12v-2.5c.05-.57.27-1.07.66-1.49.39-.49.9-.75,1.52-.79.62.04,1.12.3,1.51.79.4.42.62.92.66,1.49v2.75ZM94,120.2v3.23c0,.12-.06.21-.14.29-.09.08-.19.11-.3.1l-2.52-.17-2.6-.14c-.11,0-.21-.04-.29-.12-.08-.08-.12-.18-.12-.29v-2.89c.04-.78.33-1.47.85-2.05.56-.68,1.27-1.03,2.14-1.06.87.04,1.58.4,2.13,1.06.52.58.8,1.27.84,2.05h0ZM85.02,122.54l-3.26-.08h-1.2v-2.41c.04-.59.27-1.1.68-1.53.4-.5.92-.77,1.56-.8.64.04,1.16.31,1.56.8.4.44.62.95.67,1.54v2.47ZM85.85,120.04v2.98c0,.11-.05.21-.13.29-.08.08-.18.11-.3.11-1.2,0-2.42-.07-3.68-.09h-1.6c-.12,0-.21-.04-.29-.12-.08-.08-.12-.18-.12-.3v-2.82c.05-.8.34-1.5.88-2.09.57-.69,1.29-1.05,2.18-1.08.89.03,1.62.4,2.18,1.08.54.6.83,1.29.87,2.1v-.06Z"/>
      <rect class="cls-4" x="52.67" y="105.42" width="16.87" height="41.3"/>
      <polygon class="cls-3" points="67.34 146.71 66.81 146.71 66.81 137.2 66.81 135.28 55.42 135.28 55.42 137.2 55.42 146.71 54.9 146.71 54.9 146.72 53.84 146.71 52.67 146.71 50.03 146.71 50.03 103.21 53.5 103.21 53.5 103.55 69.09 103.55 70.41 103.55 73.35 103.55 73.35 146.71 69.54 146.71 68.03 146.72 67.99 146.72 67.34 146.72 67.34 146.71"/>
      <path class="cls-1" d="M67.22,147.13h-.43c-.12,0-.22-.04-.3-.12-.08-.08-.13-.18-.13-.3v-11.02h-10.52v11.02c0,.12-.04.21-.12.3-.08.08-.18.12-.29.12h-5.36c-.12,0-.21-.04-.29-.12-.08-.08-.12-.18-.12-.3v-43.5c0-.12.04-.21.12-.3.08-.08.18-.12.29-.12h3.47c.22,0,.36.12.41.34h19.44c.12,0,.21.04.29.12s.12.18.12.3v43.17c0,.12-.04.21-.12.3-.08.08-.18.12-.29.12h-6.17ZM67.22,146.3h5.68v-42.33h-19.4c-.23,0-.37-.1-.41-.33h-2.65v42.66h4.59v-11.02c0-.12.04-.21.12-.3.08-.08.18-.12.29-.12h11.39c.12,0,.21.04.29.12s.12.18.12.3v1.93l-.03,9.09Z"/>
      <polygon class="cls-3" points="51.23 100.99 50.03 103.55 71.68 103.55 70.3 100.99 51.23 100.99"/>
      <path class="cls-1" d="M51.53,101.42l-.8,1.73h20.29l-.93-1.73h-18.55ZM49.64,103.37l1.19-2.52c.07-.18.2-.28.4-.28h19.06l.37.22,1.37,2.54.07.22c0,.12-.04.21-.12.3-.08.08-.18.12-.29.12h-21.79c-.1-.05-.18-.13-.22-.24-.04-.11-.04-.21,0-.32"/>
      <polygon class="cls-3" points=".48 139.95 .48 146.42 44.13 146.66 44.13 139.95 .48 139.95"/>
      <path class="cls-1" d="M.97,140.33v5.64l42.81.23v-5.86H.97ZM.07,146.43v-6.48c0-.11.04-.21.12-.29.08-.08.18-.12.29-.12h43.68c.12,0,.21.04.29.12.08.08.12.18.12.3v6.68c0,.12-.04.21-.12.3-.08.08-.18.12-.29.12l-43.61-.24c-.11,0-.21-.04-.29-.12-.08-.08-.12-.18-.12-.29"/>
      <polygon class="cls-3" points="1.34 138.08 .48 139.96 44.13 139.96 44.13 138.08 1.34 138.08"/>
      <path class="cls-1" d="M1.55,138.53l-.48.99h42.64v-.99H1.55ZM.1,139.78l.85-1.85c.06-.18.19-.27.39-.27h42.77c.12,0,.21.04.29.12.08.08.12.18.12.3v1.87c0,.12-.04.21-.12.3-.08.08-.18.12-.29.12H.25c-.1-.05-.18-.13-.22-.24-.04-.11-.04-.21,0-.32"/>
      <polygon class="cls-3" points="44.13 137.47 44.13 146.66 51.39 146.7 51.39 137.47 44.13 137.47"/>
      <path class="cls-1" d="M44.59,137.9v8.36h6.42v-8.39l-6.42.03ZM43.71,146.63v-9.18c0-.12.04-.21.12-.3s.18-.12.29-.12h7.27c.12,0,.21.04.29.12.08.08.12.18.12.3v9.22c0,.12-.04.22-.12.3-.08.08-.18.12-.3.12h-7.22c-.12,0-.21-.04-.29-.12-.08-.08-.12-.18-.12-.3"/>
      <polygon class="cls-3" points="44.18 134.42 43.84 134.42 43.43 134.42 43.43 135.63 44.13 137.47 51.39 137.47 52.09 135.95 52.09 134.42 44.18 134.42"/>
      <path class="cls-1" d="M44.18,134.84h-.34v.73l.57,1.49h6.71l.55-1.19v-.99l-7.49-.03ZM43.83,134h8.22c.12,0,.21.04.29.12.08.08.12.18.12.3v1.7l-.68,1.49c-.06.19-.19.28-.39.28h-7.29c-.19,0-.32-.09-.39-.27l-.69-1.82v-1.38c0-.12.04-.22.12-.3.08-.08.18-.12.3-.12h.39Z"/>
      <polygon class="cls-3" points="43.22 100.99 44.18 103.07 44.18 103.55 51.33 103.55 51.33 103.1 51.33 102.98 51.38 102.88 52.25 100.99 43.22 100.99"/>
      <path class="cls-1" d="M43.88,101.4l.69,1.5v.23h6.3v-.15l.06-.2v-.08l.6-1.3h-7.64ZM43.77,103.16l-.91-1.99-.05-.2c0-.12.04-.21.12-.3.08-.08.18-.12.29-.12h9.19c.1.05.18.13.22.24.04.11.04.21,0,.32l-.87,1.89v.49c0,.12-.04.21-.12.3-.08.08-.18.12-.29.12h-7.15c-.12,0-.21-.04-.29-.12-.08-.08-.12-.18-.12-.3v-.33Z"/>
      <polygon class="cls-3" points="52.74 97.24 44.66 97.24 42.92 97.24 42.92 100.99 52.53 100.99 52.74 100.57 52.74 97.24"/>
      <path class="cls-1" d="M52.33,97.66h-8.93v2.91h8.93v-2.91ZM44.65,96.82h8.09c.12,0,.21.04.29.12s.12.18.12.3v3.52l-.2.39c-.07.17-.2.26-.39.26h-9.61c-.12,0-.21-.04-.29-.12s-.12-.18-.12-.3v-3.75c0-.12.04-.21.12-.3.08-.08.18-.12.29-.12h1.69Z"/>
      <path class="cls-1" d="M78.74,146.24l42.96-.23v-5.64h-42.96v5.86ZM122.13,146.84l-43.76.23h-.05c-.11,0-.21-.04-.29-.12-.08-.08-.12-.18-.12-.29v-6.7c0-.11.04-.21.12-.29.08-.08.18-.12.29-.12h43.8c.12,0,.22.04.3.12.08.08.12.18.12.3v6.47c0,.11-.04.21-.12.29s-.18.12-.29.12"/>
      <rect class="cls-4" x="69.71" y="97.24" width="9.97" height="3.75"/>
      <path class="cls-1" d="M79.26,100.56v-2.91h-9.13v2.91h9.13ZM80.09,97.24v3.74c0,.12-.04.21-.12.3-.08.08-.18.12-.29.12h-9.93c-.12,0-.21-.04-.29-.12-.08-.08-.12-.18-.12-.3v-3.75c0-.12.04-.21.12-.3.08-.08.18-.12.29-.12h9.93c.12,0,.21.04.29.12.08.08.12.18.12.3"/>
      <polygon class="cls-3" points="78.27 103.55 78.27 103.43 78.32 103.33 78.41 103.1 78.41 103.07 79.38 100.99 69.95 100.99 71.08 103.45 71.12 103.55 78.27 103.55"/>
      <path class="cls-1" d="M78.68,103.52c0,.12-.04.21-.12.3-.08.08-.18.12-.29.12h-7.15l-.38-.24-.05-.11-1.12-2.45v-.18c0-.12.04-.21.12-.3.08-.08.18-.12.29-.12h9.61c.1.05.17.13.21.24.04.11.03.21-.01.32l-.93,1.99v.08l-.09.21-.09.15ZM77.95,103.13l.06-.14v-.1l.69-1.49h-8.13l.79,1.73h6.59Z"/>
      <rect class="cls-4" x="71.12" y="103.55" width="7.15" height="31.13"/>
      <path class="cls-1" d="M77.84,103.97h-6.31v30.3h6.33l-.02-30.3ZM78.67,103.55v31.15c0,.12-.04.21-.12.3-.08.08-.18.12-.29.12h-7.15c-.12,0-.21-.04-.29-.12-.08-.08-.12-.18-.12-.3v-31.15c0-.12.04-.21.12-.3.08-.08.18-.12.29-.12h7.15c.11,0,.21.04.29.12s.12.18.12.29"/>
      <polygon class="cls-3" points="78.33 137.8 78.42 137.56 79.02 136.19 79.02 134.68 78.86 134.68 78.62 134.68 78.27 134.68 70.36 134.68 70.36 136.19 70.96 137.56 71.06 137.8 78.33 137.8"/>
      <path class="cls-1" d="M78.8,137.73l-.09.21c-.06.19-.19.28-.39.28h-7.24c-.2.02-.33-.07-.41-.25l-.11-.24-.58-1.34-.06-.2v-1.49c0-.12.04-.22.13-.3.08-.08.18-.12.3-.12h8.66c.12,0,.21.04.29.12.08.08.12.18.12.3v1.66l-.64,1.37ZM78.05,137.38l.56-1.27v-.99h-7.82v.99l.56,1.27h6.71Z"/>
      <polygon class="cls-3" points="71.07 146.7 78.33 146.66 78.33 137.69 71.07 137.69 71.07 146.7"/>
      <path class="cls-1" d="M71.49,146.25h6.43v-8.14h-6.43v8.14ZM78.33,147.07h-7.26c-.12,0-.21-.04-.29-.12s-.12-.18-.12-.3v-8.97c0-.12.04-.21.12-.3.08-.08.18-.12.29-.12h7.26c.12,0,.22.04.3.12.08.08.13.18.13.3v8.95c0,.12-.04.21-.12.3-.08.08-.18.12-.29.12"/>
      <polygon class="cls-3" points="61.3 94.24 57.4 94.24 57.4 97.24 65.2 97.24 65.2 94.24 61.3 94.24"/>
      <path class="cls-1" d="M61.3,94.65h-3.48v2.17h6.95v-2.17h-3.46ZM57.4,93.82h7.8c.12,0,.21.04.29.12.08.08.12.18.12.3v2.98c0,.12-.04.22-.12.3-.08.08-.18.13-.3.13h-7.8c-.12,0-.22-.04-.3-.13-.08-.08-.12-.18-.12-.3v-2.98c0-.12.04-.21.12-.3.08-.08.18-.12.29-.12"/>
      <rect class="cls-4" x="44.18" y="103.55" width="7.15" height="30.87"/>
      <path class="cls-1" d="M43.77,103.56c0-.12.04-.21.12-.3.08-.08.18-.12.29-.12h7.15c.12,0,.21.04.29.12.08.08.12.18.12.3v30.81c0,.12-.04.21-.12.3-.08.08-.18.12-.29.12h-7.15c-.12,0-.21-.04-.29-.12-.08-.08-.12-.18-.12-.3v-30.81ZM44.6,103.97v30.04h6.31v-30.04h-6.31Z"/>
      <path class="cls-3" d="M55.68,132.8h12.01v-3.18c0-2.23-2.69-4.04-6.01-4.04s-5.96,1.81-5.96,4.04v3.18"/>
      <path class="cls-1" d="M56.13,132.38h11.18v-2.75c-.04-.52-.19-1.01-.47-1.45-.28-.44-.65-.8-1.1-1.05-1.21-.76-2.54-1.13-3.97-1.11-1.43-.02-2.76.35-3.97,1.11-.46.26-.82.61-1.1,1.05-.28.44-.43.93-.47,1.45v2.75M67.69,133.19h-12.01c-.11,0-.21-.04-.29-.12-.08-.08-.12-.18-.12-.29v-3.15c.04-.66.23-1.28.57-1.84.34-.57.8-1.02,1.37-1.36,1.37-.86,2.86-1.28,4.48-1.25,1.62-.03,3.11.39,4.48,1.25.58.33,1.04.78,1.4,1.35.35.57.55,1.18.59,1.85v3.18c0,.11-.04.21-.12.29-.08.08-.18.12-.29.12"/>
      <path class="cls-3" d="M58.4,122.41h2.28v-3.77c0-.99-.52-1.71-1.15-1.71s-1.13.77-1.13,1.71v3.77"/>
      <path class="cls-1" d="M58.82,121.99h1.46v-3.34c.01-.36-.08-.69-.27-.99-.1-.19-.25-.29-.46-.32-.21.03-.36.13-.46.32-.19.3-.28.64-.27.99v3.34ZM60.68,122.82h-2.28v-.41h-.4v-3.77c0-.52.13-.99.41-1.43.26-.44.64-.67,1.15-.69.51.02.89.25,1.15.69.28.44.41.91.4,1.43v3.77c0,.11-.04.21-.12.29-.08.08-.18.12-.29.12"/>
      <path class="cls-1" d="M60.28,121.99h-1.46v-3.34c0-.36.08-.69.27-.99.1-.19.25-.29.46-.32.21.03.36.13.46.32.19.3.28.63.27.99v3.34ZM58.39,122.82h2.29v-.41h.41v-3.77c0-.52-.13-.99-.41-1.43-.26-.44-.64-.67-1.15-.69-.51.02-.89.25-1.15.69-.28.44-.41.91-.4,1.43v3.77c0,.11.04.21.12.29.08.08.18.12.29.12"/>
      <path class="cls-3" d="M62.69,122.41h2.26v-3.77c0-.99-.52-1.71-1.14-1.71s-1.14.77-1.14,1.71v3.77"/>
      <path class="cls-1" d="M63.09,121.99h1.45v-3.34c.01-.36-.08-.69-.27-.99-.1-.19-.25-.29-.46-.32-.21.03-.37.13-.47.32-.18.31-.27.64-.26.99v3.34ZM64.95,122.82h-2.28v-.41h-.42v-3.77c0-.52.13-.99.41-1.43.26-.44.64-.67,1.15-.69.51.02.89.24,1.15.69.28.44.41.91.41,1.43v3.77c0,.11-.04.21-.12.29-.08.08-.18.12-.29.12"/>
      <path class="cls-1" d="M64.54,121.99h-1.45v-3.34c-.01-.36.08-.69.27-.99.1-.19.25-.29.46-.32.21.03.37.13.47.32.18.31.27.64.26.99v3.34ZM62.69,122.82h2.26v-.41h.42v-3.77c0-.52-.13-.99-.41-1.43-.26-.44-.64-.67-1.15-.69-.51.02-.89.24-1.15.69-.28.44-.41.91-.41,1.43v3.77c0,.11.04.21.12.29.08.08.18.12.29.12"/>
      <path class="cls-3" d="M53.86,112.26h2.28v-3.76c0-.94-.51-1.71-1.14-1.71s-1.14.77-1.14,1.71v3.76"/>
      <path class="cls-1" d="M54.28,111.84h1.45v-3.35c.01-.36-.08-.69-.27-.99-.1-.18-.25-.28-.46-.31-.21.02-.36.13-.47.31-.18.31-.27.64-.26.99v3.35ZM56.15,112.67h-2.28v-.42h-.42v-3.77c0-.52.13-1,.41-1.43.26-.44.64-.67,1.15-.69.51.02.89.24,1.15.69.28.44.41.91.41,1.43v3.77c0,.12-.04.21-.12.3-.08.08-.18.12-.29.12"/>
      <path class="cls-1" d="M69.1,111.84h-1.47v-3.35c0-.36.08-.69.27-.99.1-.18.25-.28.46-.31.21.02.36.13.46.31.19.3.28.64.27.99l.02,3.35ZM67.23,112.67h2.28v-.42h.41v-3.77c0-.52-.13-.99-.41-1.43-.26-.44-.64-.67-1.15-.69-.51.02-.89.25-1.15.69-.27.44-.41.91-.4,1.43v3.77c0,.12.04.22.13.3.08.08.18.12.3.12"/>
      <path class="cls-3" d="M58.32,112.26h2.28v-3.76c0-.94-.52-1.71-1.15-1.71s-1.13.77-1.13,1.71v3.76"/>
      <path class="cls-1" d="M58.72,111.84h1.46v-3.35c0-.36-.08-.69-.27-.99-.1-.18-.25-.28-.46-.31-.2.02-.36.13-.46.31-.19.31-.28.64-.27.99v3.35ZM60.6,112.67h-2.28v-.42h-.42v-3.77c0-.52.13-.99.41-1.43.26-.44.64-.67,1.15-.69.51.02.89.25,1.15.69.27.44.41.91.4,1.43v3.77c0,.12-.04.21-.12.3-.08.08-.18.12-.29.12"/>
      <path class="cls-1" d="M64.64,111.84h-1.45v-3.35c-.01-.36.08-.69.27-.99.1-.18.25-.28.46-.31.21.02.36.13.47.31.18.31.27.64.26.99v3.35ZM62.77,112.67h2.28v-.42h.42v-3.77c0-.52-.13-1-.41-1.43-.26-.44-.64-.67-1.15-.69-.51.02-.89.24-1.15.69-.28.44-.41.91-.41,1.43v3.77c0,.12.04.21.12.3.08.08.18.12.29.12"/>
      <path class="cls-3" d="M62.77,112.26h2.28v-3.76c0-.94-.51-1.71-1.14-1.71s-1.14.77-1.14,1.71v3.76"/>
      <path class="cls-1" d="M63.19,111.84h1.45v-3.35c.01-.36-.08-.69-.26-.99-.1-.18-.26-.29-.47-.31-.21.02-.36.13-.47.31-.18.31-.27.64-.26.99v3.35ZM65.05,112.67h-2.28v-.42h-.42v-3.77c0-.52.13-1,.41-1.43.26-.44.64-.67,1.15-.69.51.02.89.24,1.15.69.28.44.41.91.41,1.43v3.77c0,.12-.04.21-.12.3-.08.08-.18.12-.29.12"/>
      <path class="cls-1" d="M60.17,111.84h-1.46v-3.35c0-.36.08-.69.27-.99.1-.18.25-.28.46-.31.2.02.36.13.46.31.19.3.28.64.27.99v3.35ZM58.31,112.67h2.29v-.42h.38v-3.77c0-.52-.13-.99-.41-1.43-.26-.44-.64-.67-1.15-.69-.51.02-.89.25-1.15.69-.27.44-.41.91-.4,1.43v3.77c0,.12.04.21.12.3.08.08.18.12.29.12"/>
      <path class="cls-3" d="M67.23,112.26h2.28v-3.76c0-.94-.52-1.71-1.15-1.71s-1.13.77-1.13,1.71v3.76"/>
      <path class="cls-1" d="M67.63,111.84h1.46v-3.35c.01-.36-.08-.69-.27-.99-.1-.18-.25-.28-.46-.31-.21.02-.36.12-.47.31-.19.3-.28.64-.27.99v3.35ZM69.51,112.67h-2.28v-.42h-.42v-3.77c0-.52.13-.99.41-1.43.26-.44.65-.67,1.16-.69.51.02.89.25,1.15.69.28.44.41.91.41,1.43v3.77c0,.12-.04.21-.12.3-.08.08-.18.12-.29.12"/>
      <path class="cls-1" d="M55.73,111.84h-1.45v-3.35c-.01-.36.08-.69.27-.99.1-.18.25-.28.46-.31.21.02.36.13.47.31.18.31.27.64.26.99v3.35ZM53.86,112.67h2.28v-.42h.42v-3.77c0-.52-.13-1-.41-1.43-.26-.44-.64-.67-1.15-.69-.51.02-.89.24-1.15.69-.28.44-.41.91-.41,1.43v3.77c0,.12.04.21.12.3.08.08.18.12.29.12"/>
      <rect class="cls-5" x="58.57" y="125.99" width=".83" height="6.61"/>
      <rect class="cls-5" x="63.98" y="126.21" width=".83" height="6.61"/>
      <rect class="cls-2" x=".07" width="122.48" height="147.57"/>
    </g>
  </g>
</svg>