<svg width="16" height="16" viewBox="0 0 16 16" fill="none" xmlns="http://www.w3.org/2000/svg">
<g id="medication_liquid">
<path id="Icon" d="M2.33464 3.41016V2.41016H9.66797V3.41016H2.33464ZM5.12947 11.5383H6.87314V9.87166H8.5398V8.12799H6.87314V6.46132H5.12947V8.12799H3.4628V9.87166H5.12947V11.5383ZM2.87314 13.6665C2.53636 13.6665 2.2513 13.5498 2.01797 13.3165C1.78464 13.0832 1.66797 12.7981 1.66797 12.4613V5.53832C1.66797 5.20155 1.78464 4.91649 2.01797 4.68316C2.2513 4.44982 2.53636 4.33316 2.87314 4.33316H9.12947C9.46625 4.33316 9.7513 4.44982 9.98464 4.68316C10.218 4.91649 10.3346 5.20155 10.3346 5.53832V12.4613C10.3346 12.7981 10.218 13.0832 9.98464 13.3165C9.7513 13.5498 9.46625 13.6665 9.12947 13.6665H2.87314ZM2.87314 12.6665H9.12947C9.1808 12.6665 9.2278 12.6451 9.27047 12.6023C9.31325 12.5597 9.33464 12.5127 9.33464 12.4613V5.53832C9.33464 5.48699 9.31325 5.43999 9.27047 5.39732C9.2278 5.35454 9.1808 5.33316 9.12947 5.33316H2.87314C2.8218 5.33316 2.7748 5.35454 2.73214 5.39732C2.68936 5.43999 2.66797 5.48699 2.66797 5.53832V12.4613C2.66797 12.5127 2.68936 12.5597 2.73214 12.6023C2.7748 12.6451 2.8218 12.6665 2.87314 12.6665ZM12.591 9.22416C12.2021 9.03527 11.8826 8.73099 11.6326 8.31132C11.3826 7.89166 11.2576 7.39982 11.2576 6.83582C11.2576 6.12549 11.4344 5.53082 11.7878 5.05182C12.1412 4.57271 12.5756 4.33316 13.091 4.33316C13.6064 4.33316 14.0409 4.57277 14.3943 5.05199C14.7476 5.5311 14.9243 6.12482 14.9243 6.83316C14.9243 7.39893 14.7993 7.89166 14.5493 8.31132C14.2993 8.73099 13.9799 9.03527 13.591 9.22416V13.1665C13.591 13.3082 13.543 13.4269 13.4471 13.5227C13.3514 13.6185 13.2326 13.6665 13.0908 13.6665C12.949 13.6665 12.8303 13.6185 12.7346 13.5227C12.6389 13.4269 12.591 13.3082 12.591 13.1665V9.22416ZM13.092 8.33316C13.2589 8.33316 13.4393 8.19882 13.6333 7.93016C13.8273 7.66138 13.9243 7.29577 13.9243 6.83332C13.9243 6.37088 13.827 6.00521 13.6323 5.73632C13.4376 5.46755 13.2569 5.33316 13.09 5.33316C12.9232 5.33316 12.7427 5.46755 12.5486 5.73632C12.3546 6.00499 12.2576 6.37055 12.2576 6.83299C12.2576 7.29555 12.355 7.66121 12.5496 7.92999C12.7443 8.19877 12.9251 8.33316 13.092 8.33316Z" fill="#1C0C08"/>
</g>
</svg>
