<svg width="16" height="16" viewBox="0 0 16 16" fill="none" xmlns="http://www.w3.org/2000/svg">
<g id="exercise">
<path id="Icon" d="M13.3495 6.25055L12.6533 5.55439L13.0635 5.12755C13.1063 5.08477 13.1277 5.03666 13.1277 4.98322C13.1277 4.92977 13.1063 4.88172 13.0635 4.83905L11.161 2.93655C11.1183 2.89377 11.0703 2.87239 11.0168 2.87239C10.9634 2.87239 10.9153 2.89377 10.8725 2.93655L10.4457 3.34672L9.73284 2.63389L10.1687 2.18139C10.3943 1.95572 10.6726 1.84566 11.0033 1.85122C11.3341 1.85677 11.6123 1.97239 11.838 2.19805L13.802 4.16205C14.0277 4.38772 14.1405 4.66316 14.1405 4.98839C14.1405 5.31361 14.0277 5.58905 13.802 5.81472L13.3495 6.25055ZM5.83034 13.7864C5.60468 14.0121 5.32923 14.1249 5.00401 14.1249C4.67879 14.1249 4.40334 14.0121 4.17768 13.7864L2.23934 11.8479C2.00934 11.618 1.89434 11.3341 1.89434 10.9961C1.89434 10.6581 2.00934 10.3741 2.23934 10.1441L2.64951 9.73389L3.36234 10.4467L2.94184 10.8569C2.89907 10.8997 2.87768 10.9478 2.87768 11.0012C2.87768 11.0547 2.89907 11.1027 2.94184 11.1454L4.85468 13.0582C4.89734 13.101 4.9454 13.1224 4.99884 13.1224C5.05229 13.1224 5.1004 13.101 5.14318 13.0582L5.55334 12.6377L6.26618 13.3506L5.83034 13.7864ZM12.3828 8.71855L13.2367 7.86472C13.2795 7.82194 13.3008 7.77277 13.3008 7.71722C13.3008 7.66166 13.2795 7.6125 13.2367 7.56972L8.43034 2.76339C8.38757 2.72061 8.3384 2.69922 8.28284 2.69922C8.22729 2.69922 8.17812 2.72061 8.13534 2.76339L7.28151 3.61722C7.23884 3.66 7.21751 3.70805 7.21751 3.76139C7.21751 3.81483 7.23884 3.86294 7.28151 3.90572L12.0943 8.71855C12.1371 8.76122 12.1852 8.78255 12.2387 8.78255C12.292 8.78255 12.3401 8.76122 12.3828 8.71855ZM7.86368 13.2377L8.71751 12.3736C8.76018 12.3309 8.78151 12.2828 8.78151 12.2294C8.78151 12.1759 8.76018 12.1279 8.71751 12.0852L3.91484 7.28255C3.87218 7.23989 3.82412 7.21855 3.77068 7.21855C3.71723 7.21855 3.66918 7.23989 3.62651 7.28255L2.76234 8.13639C2.71957 8.17916 2.69818 8.22833 2.69818 8.28389C2.69818 8.33944 2.71957 8.38861 2.76234 8.43139L7.56868 13.2377C7.61145 13.2805 7.66062 13.3019 7.71618 13.3019C7.77173 13.3019 7.8209 13.2805 7.86368 13.2377ZM7.57768 9.53005L9.53934 7.57872L8.42134 6.46072L6.47001 8.42239L7.57768 9.53005ZM8.57001 13.9402C8.34012 14.1702 8.05551 14.2852 7.71618 14.2852C7.37684 14.2852 7.09223 14.1702 6.86234 13.9402L2.05984 9.13772C1.82984 8.90783 1.71484 8.62322 1.71484 8.28389C1.71484 7.94455 1.82984 7.65994 2.05984 7.43005L2.91368 6.56972C3.14357 6.33983 3.42751 6.22489 3.76551 6.22489C4.10362 6.22489 4.38762 6.33983 4.61751 6.56972L5.75718 7.70955L7.71884 5.74805L6.57901 4.61855C6.34912 4.38866 6.23418 4.10294 6.23418 3.76139C6.23418 3.41994 6.34912 3.13427 6.57901 2.90439L7.43934 2.04422C7.66923 1.81422 7.95318 1.69922 8.29118 1.69922C8.62918 1.69922 8.91312 1.81422 9.14301 2.04422L13.9558 6.85705C14.1858 7.08694 14.3008 7.37089 14.3008 7.70889C14.3008 8.04689 14.1858 8.33083 13.9558 8.56072L13.0957 9.42105C12.8658 9.65094 12.5801 9.76589 12.2387 9.76589C11.8971 9.76589 11.6114 9.65094 11.3815 9.42105L10.252 8.28122L8.29051 10.2429L9.43034 11.3826C9.66023 11.6124 9.77518 11.8964 9.77518 12.2346C9.77518 12.5726 9.66023 12.8565 9.43034 13.0864L8.57001 13.9402Z" fill="#1C0C08"/>
</g>
</svg>
