<svg width="16" height="16" viewBox="0 0 16 16" fill="none" xmlns="http://www.w3.org/2000/svg">
<path d="M4.83316 14.5V8.4385C4.29216 8.32139 3.83638 8.04767 3.46582 7.61733C3.09538 7.187 2.91016 6.67356 2.91016 6.077V1.5H3.90999V6.077H4.83316V1.5H5.83316V6.077H6.75632V1.5H7.75616V6.077C7.75616 6.67356 7.57093 7.187 7.20049 7.61733C6.82993 8.04767 6.37416 8.32139 5.83316 8.4385V14.5H4.83316ZM11.2433 14.5V9.16667H9.42299V4.66667C9.42299 3.83422 9.69027 3.11222 10.2248 2.50067C10.7594 1.88911 11.4322 1.55983 12.2433 1.51283V14.5H11.2433Z" fill="#1C0C08"/>
</svg>
