<svg width="16" height="16" viewBox="0 0 16 16" fill="none" xmlns="http://www.w3.org/2000/svg">
<g id="storefront">
<path id="Icon" d="M13.8429 7.31468V12.6275C13.8429 12.9643 13.7262 13.2493 13.4929 13.4827C13.2595 13.716 12.9745 13.8327 12.6379 13.8327H3.38138C3.04471 13.8327 2.75971 13.716 2.52638 13.4827C2.29304 13.2493 2.17638 12.9643 2.17638 12.6275V7.30185C1.90793 7.0814 1.70643 6.79529 1.57188 6.44352C1.43721 6.09185 1.43443 5.71218 1.56354 5.30452L2.23788 3.10185C2.32677 2.82152 2.4776 2.59546 2.69038 2.42368C2.90327 2.2519 3.15754 2.16602 3.45321 2.16602H12.5532C12.849 2.16602 13.1015 2.24807 13.3109 2.41218C13.5203 2.57629 13.6729 2.80196 13.7685 3.08918L14.4557 5.30452C14.5848 5.71218 14.582 6.09057 14.4474 6.43968C14.3128 6.7889 14.1113 7.08057 13.8429 7.31468ZM9.47638 6.83268C9.84049 6.83268 10.1142 6.72135 10.2975 6.49868C10.4809 6.27602 10.5559 6.0369 10.5225 5.78135L10.1174 3.16602H8.50954V5.79935C8.50954 6.07968 8.60443 6.32202 8.79421 6.52635C8.98399 6.73057 9.21138 6.83268 9.47638 6.83268ZM6.47638 6.83268C6.78316 6.83268 7.03204 6.73057 7.22304 6.52635C7.41416 6.32202 7.50971 6.07968 7.50971 5.79935V3.16602H5.90188L5.49688 5.80702C5.46088 6.04379 5.53521 6.27396 5.71988 6.49752C5.90454 6.72096 6.15671 6.83268 6.47638 6.83268ZM3.50971 6.83268C3.75671 6.83268 3.9691 6.74657 4.14688 6.57435C4.32466 6.40213 4.43449 6.18568 4.47638 5.92502L4.86854 3.16602H3.45321C3.38054 3.16602 3.32288 3.18202 3.28021 3.21402C3.23743 3.24613 3.20538 3.29424 3.18404 3.35835L2.54288 5.52752C2.45488 5.81385 2.49638 6.10296 2.66738 6.39485C2.83827 6.68674 3.11904 6.83268 3.50971 6.83268ZM12.5097 6.83268C12.8704 6.83268 13.1464 6.69102 13.3379 6.40768C13.5293 6.12435 13.5755 5.83096 13.4764 5.52752L12.8019 3.34552C12.7805 3.2814 12.7485 3.23546 12.7059 3.20768C12.6631 3.1799 12.6054 3.16602 12.5327 3.16602H11.1507L11.5429 5.92502C11.5848 6.18568 11.6946 6.40213 11.8724 6.57435C12.0502 6.74657 12.2626 6.83268 12.5097 6.83268ZM3.38138 12.8327H12.6379C12.6977 12.8327 12.7468 12.8135 12.7852 12.775C12.8238 12.7366 12.843 12.6874 12.843 12.6275V7.77368C12.7704 7.80024 12.7097 7.81668 12.6609 7.82302C12.6122 7.82946 12.5618 7.83268 12.5097 7.83268C12.2097 7.83268 11.9458 7.7784 11.718 7.66985C11.4903 7.56129 11.2695 7.38735 11.0557 7.14802C10.8686 7.35657 10.6473 7.52285 10.3917 7.64685C10.1362 7.77074 9.84471 7.83268 9.51738 7.83268C9.23449 7.83268 8.96782 7.7739 8.71738 7.65635C8.46693 7.5389 8.23105 7.36946 8.00971 7.14802C7.80371 7.36946 7.57038 7.5389 7.30971 7.65635C7.04893 7.7739 6.78482 7.83268 6.51738 7.83268C6.21649 7.83268 5.93443 7.77818 5.67121 7.66918C5.40799 7.56018 5.17638 7.38646 4.97638 7.14802C4.69593 7.42835 4.43754 7.61257 4.20121 7.70068C3.96499 7.78868 3.73449 7.83268 3.50971 7.83268C3.45749 7.83268 3.4036 7.82946 3.34804 7.82302C3.29249 7.81668 3.23521 7.80024 3.17621 7.77368V12.6275C3.17621 12.6874 3.19549 12.7366 3.23404 12.775C3.27249 12.8135 3.3216 12.8327 3.38138 12.8327Z" fill="#1C0C08"/>
</g>
</svg>
