<svg width="9" height="9" viewBox="0 0 9 9" fill="none" xmlns="http://www.w3.org/2000/svg">
<path d="M8.51317 3.54218V7.19731C8.51317 7.42901 8.4329 7.62512 8.27237 7.78565C8.11184 7.94618 7.91577 8.02645 7.68415 8.02645H1.31585C1.08423 8.02645 0.888156 7.94618 0.727628 7.78565C0.567099 7.62512 0.486834 7.42901 0.486834 7.19731V3.53336C0.302149 3.38169 0.163521 3.18486 0.0709496 2.94284C-0.0216986 2.7009 -0.0236096 2.4397 0.0652164 2.15923L0.529145 0.643836C0.590299 0.450972 0.694069 0.29545 0.840457 0.17727C0.98692 0.0590902 1.16186 0 1.36527 0H7.6259C7.82939 0 8.00314 0.0564529 8.14716 0.169358C8.29125 0.282264 8.39621 0.437518 8.46203 0.635121L8.93478 2.15923C9.02361 2.4397 9.0217 2.70002 8.92905 2.9402C8.83648 3.18046 8.69785 3.38112 8.51317 3.54218ZM5.5091 3.21058C5.7596 3.21058 5.94791 3.13398 6.07404 2.98079C6.20017 2.8276 6.25177 2.6631 6.22884 2.48728L5.95009 0.687981H4.84393V2.49966C4.84393 2.69253 4.90922 2.85925 5.03978 2.99983C5.17034 3.14033 5.32678 3.21058 5.5091 3.21058ZM3.44515 3.21058C3.65621 3.21058 3.82744 3.14033 3.95885 2.99983C4.09033 2.85925 4.15607 2.69253 4.15607 2.49966V0.687981H3.04991L2.77128 2.50494C2.74651 2.66784 2.79765 2.82619 2.9247 2.97999C3.05174 3.13372 3.22523 3.21058 3.44515 3.21058ZM1.40414 3.21058C1.57407 3.21058 1.72019 3.15134 1.8425 3.03285C1.96481 2.91436 2.04037 2.76545 2.06919 2.58612L2.33899 0.687981H1.36527C1.31528 0.687981 1.2756 0.698989 1.24625 0.721004C1.21682 0.743096 1.19477 0.776195 1.18009 0.820302L0.738979 2.31265C0.678437 2.50964 0.706988 2.70854 0.824633 2.90936C0.942201 3.11017 1.13537 3.21058 1.40414 3.21058ZM7.59597 3.21058C7.8441 3.21058 8.03403 3.11311 8.16574 2.91819C8.29745 2.72326 8.32921 2.52141 8.26102 2.31265L7.79698 0.811474C7.7823 0.767367 7.76029 0.735757 7.73093 0.716647C7.7015 0.697536 7.66179 0.687981 7.6118 0.687981H6.66101L6.93081 2.58612C6.95963 2.76545 7.03519 2.91436 7.1575 3.03285C7.27981 3.15134 7.42597 3.21058 7.59597 3.21058ZM1.31585 7.33846H7.68415C7.72528 7.33846 7.75906 7.32524 7.78551 7.29879C7.81204 7.27234 7.8253 7.23852 7.8253 7.19731V3.85797C7.77531 3.87624 7.73353 3.88755 7.69997 3.89191C7.66649 3.89634 7.63182 3.89856 7.59597 3.89856C7.38958 3.89856 7.20803 3.86122 7.05132 3.78653C6.89461 3.71185 6.74272 3.59218 6.59565 3.42752C6.46692 3.571 6.31465 3.6854 6.13883 3.77071C5.96301 3.85594 5.7625 3.89856 5.5373 3.89856C5.34268 3.89856 5.15922 3.85812 4.98692 3.77725C4.81462 3.69645 4.65233 3.57987 4.50006 3.42752C4.35833 3.57987 4.1978 3.69645 4.01847 3.77725C3.83906 3.85812 3.65736 3.89856 3.47336 3.89856C3.26635 3.89856 3.07231 3.86106 2.89121 3.78607C2.71012 3.71108 2.55078 3.59157 2.41318 3.42752C2.22024 3.62039 2.04247 3.74713 1.87988 3.80775C1.71736 3.86829 1.55879 3.89856 1.40414 3.89856C1.36821 3.89856 1.33114 3.89634 1.29292 3.89191C1.2547 3.88755 1.21529 3.87624 1.1747 3.85797V7.19731C1.1747 7.23852 1.18796 7.27234 1.21449 7.29879C1.24094 7.32524 1.27473 7.33846 1.31585 7.33846Z" fill="white"/>
</svg>
