<svg width="20" height="20" viewBox="0 0 20 20" fill="none" xmlns="http://www.w3.org/2000/svg">
<g id="Business-Profession-Home-Office--Streamline-Core" clip-path="url(#clip0_6081_2178)">
<g id="business-profession-home-office--workspace-home-office-work-business-remote-working">
<path id="Rectangle 1708" d="M7.53209 9.06572H12.4678C12.4678 9.06572 13.8964 9.06572 13.8964 10.4943V14.0029C13.8964 14.0029 13.8964 15.4314 12.4678 15.4314H7.53209C7.53209 15.4314 6.10352 15.4314 6.10352 14.0029V10.4943C6.10352 10.4943 6.10352 9.06572 7.53209 9.06572Z" stroke="white" stroke-linecap="round" stroke-linejoin="round"/>
<path id="Vector 2185" d="M8.20898 9.06622V8.24847C8.20898 7.45949 8.84857 6.8199 9.63756 6.8199H10.3661C11.1551 6.8199 11.7947 7.45949 11.7947 8.24847V9.06622" stroke="white" stroke-linecap="round" stroke-linejoin="round"/>
<path id="Vector" d="M19.2863 9.91429C19.2877 9.716 19.2477 9.5196 19.169 9.3376C19.0903 9.1556 18.9746 8.99197 18.8291 8.85714L10.0006 0.714287L1.17202 8.85714C1.02663 8.99197 0.910895 9.1556 0.832191 9.3376C0.753486 9.5196 0.713535 9.716 0.714876 9.91429V17.8571C0.714876 18.236 0.865386 18.5994 1.13329 18.8673C1.4012 19.1351 1.76457 19.2857 2.14344 19.2857H17.8577C18.2366 19.2857 18.6 19.1351 18.8678 18.8673C19.1358 18.5994 19.2863 18.236 19.2863 17.8571V9.91429Z" stroke="white" stroke-linecap="round" stroke-linejoin="round"/>
</g>
</g>
<defs>
<clipPath id="clip0_6081_2178">
<rect width="20" height="20" fill="white"/>
</clipPath>
</defs>
</svg>
