<svg width="7" height="10" viewBox="0 0 7 10" fill="none" xmlns="http://www.w3.org/2000/svg">
<path d="M1.44228 9.75017V5.20397C1.03652 5.11613 0.694679 4.91084 0.416758 4.58808C0.138919 4.26533 0 3.88024 0 3.43281V0H0.749888V3.43281H1.44228V0H2.19229V3.43281H2.88468V0H3.63457V3.43281C3.63457 3.88024 3.49565 4.26533 3.21781 4.58808C2.93989 4.91084 2.59805 5.11613 2.19229 5.20397V9.75017H1.44228ZM6.24999 9.75017V5.7501H4.88471V2.37504C4.88471 1.7507 5.08517 1.20919 5.4861 0.750513C5.88702 0.291838 6.39166 0.044876 7 0.00962542V9.75017H6.24999Z" fill="white"/>
</svg>
